/* XPM */
static char * max_pressed_xpm[] = {
"13 15 3 1",
" 	c None",
".	c #242526",
"+	c #848586",
".............",
".............",
"+++++++++++++",
"+++++++++++++",
"+++++++++++++",
"+++++++++++++",
"+++++++++++++",
"+++++++++++++",
"+++++++++++++",
"+++++++++++++",
"+++++++++++++",
"+++++++++++++",
"+++++++++++++",
".............",
"............."};
