/* XPM */
static char * toolbar_focused_xpm[] = {
"10 18 3 1",
" 	c None",
".	c #1D1D1D",
"+	c #5C5C5C",
"..........",
"++++++++++",
"++++++++++",
"++++++++++",
"++++++++++",
"++++++++++",
"++++++++++",
"++++++++++",
"++++++++++",
"++++++++++",
"++++++++++",
"++++++++++",
"++++++++++",
"++++++++++",
"++++++++++",
"++++++++++",
"++++++++++",
".........."};
