/* XPM */
static char * min_xpm[] = {
"19 19 17 1",
" 	c None",
".	c #888888",
"+	c #999999",
"@	c #aaaaaa",
"#	c #bbbbbb",
"$	c #cccccc",
"%	c #dddddd",
"&	c #eeeeee",
"*	c #ffffff",
"0      c #000000",
"1      c #111111",
"2      c #222222",
"3      c #333333",
"4      c #444444",
"5      c #555555",
"6      c #666666",
"7      c #777777",
"*..................",
"0*+++++++++++++++++",
"1*@@@@@@@@@@@@@@@@@",
"22*################",
"33*$$$$$$$$$$$$$$$$",
"44*%%%%%%%%%%%%%%%%",
"555*&&&&&&&&&&&&&&&",
"666****************",
"777*&&&&&&&&&&&&&&&",
"666*%%%%%%%%%%%%%%%",
"555*$$$$$$$$$$$$$$$",
"444*###############",
"333*@@@@@@@@@@@@@@@",
"22*++++++++++++++++",
"11*................",
"00*................",
"0*.................",
"0*.................",
"*.................."};
