/* XPM */
static char * acroread_xpm[] = {
"18 18 187 2",
"  	c None",
". 	c #F66161",
"+ 	c #F38A8A",
"@ 	c #F20707",
"# 	c #D47676",
"$ 	c #FE9090",
"% 	c #FB8484",
"& 	c #FD7F7F",
"* 	c #FD7878",
"= 	c #FD6F6F",
"- 	c #FD6969",
"; 	c #F14E4E",
"> 	c #F70505",
", 	c #DC3636",
"' 	c #ED5E5E",
") 	c #FC4B4B",
"! 	c #FE4444",
"~ 	c #FE4242",
"{ 	c #FB4242",
"] 	c #D19A9A",
"^ 	c #FD4E4E",
"/ 	c #FA9B9B",
"( 	c #FB9B9B",
"_ 	c #FC9C9C",
": 	c #FD9E9E",
"< 	c #FE9E9E",
"[ 	c #FE9292",
"} 	c #FF0606",
"| 	c #EE6363",
"1 	c #F73030",
"2 	c #BE8484",
"3 	c #D39494",
"4 	c #FC7171",
"5 	c #F5F7F7",
"6 	c #F9F9F9",
"7 	c #F9FAFA",
"8 	c #FBFCFC",
"9 	c #FDFDFD",
"0 	c #FF3F3F",
"a 	c #F19797",
"b 	c #FEFFFF",
"c 	c #FFFFFF",
"d 	c #F74C4C",
"e 	c #BD8484",
"f 	c #D28F8F",
"g 	c #F86A6A",
"h 	c #F4F5F5",
"i 	c #F6F6F6",
"j 	c #FBFBFB",
"k 	c #FCFDFD",
"l 	c #FD3737",
"m 	c #F93232",
"n 	c #F7F0F0",
"o 	c #F76767",
"p 	c #F1F2F2",
"q 	c #F4F4F4",
"r 	c #FBE8E8",
"s 	c #F73737",
"t 	c #F93F3F",
"u 	c #F38C8C",
"v 	c #F54C4C",
"w 	c #BC8484",
"x 	c #D28A8A",
"y 	c #F66262",
"z 	c #EEEEEE",
"A 	c #F1F1F1",
"B 	c #F8F8F8",
"C 	c #FCB2B2",
"D 	c #EF7171",
"E 	c #F8C5C5",
"F 	c #FB2424",
"G 	c #F6DBDB",
"H 	c #F34C4C",
"I 	c #B98484",
"J 	c #D28383",
"K 	c #EAEBEB",
"L 	c #EDEDED",
"M 	c #F3F3F3",
"N 	c #F7F7F7",
"O 	c #FB6363",
"P 	c #E8B3B3",
"Q 	c #FAFBFB",
"R 	c #FC8585",
"S 	c #FBA0A0",
"T 	c #FD9C9C",
"U 	c #F14141",
"V 	c #D37878",
"W 	c #F25C5C",
"X 	c #E6E8E8",
"Y 	c #EAE9E9",
"Z 	c #F3E8E8",
"` 	c #F94040",
" .	c #EDBABA",
"..	c #FB6969",
"+.	c #F45656",
"@.	c #FA4A4A",
"#.	c #FD1C1C",
"$.	c #FA2424",
"%.	c #E72323",
"&.	c #D27575",
"*.	c #F25959",
"=.	c #E1E2E2",
"-.	c #E6E5E5",
";.	c #EAEAEA",
">.	c #EFE5E5",
",.	c #F88282",
"'.	c #F72A2A",
").	c #ED8282",
"!.	c #EDD1D1",
"~.	c #F5F3F3",
"{.	c #FAF5F5",
"].	c #FBA7A7",
"^.	c #F1B1B1",
"/.	c #ED4949",
"(.	c #D37272",
"_.	c #EF5353",
":.	c #DCDCDC",
"<.	c #E0E2E2",
"[.	c #E8B2B2",
"}.	c #F72828",
"|.	c #E3CECE",
"1.	c #F2F4F4",
"2.	c #FCFEFE",
"3.	c #F04C4C",
"4.	c #B78484",
"5.	c #D37070",
"6.	c #EF5050",
"7.	c #D5D7D7",
"8.	c #ED7474",
"9.	c #E27272",
"0.	c #E67373",
"a.	c #E09797",
"b.	c #FAFCFC",
"c.	c #ED4C4C",
"d.	c #B38484",
"e.	c #D46E6E",
"f.	c #E74C4C",
"g.	c #D6BBBB",
"h.	c #F42626",
"i.	c #E94F4F",
"j.	c #DF7D7D",
"k.	c #E0DEDE",
"l.	c #EEEDED",
"m.	c #F9FBFB",
"n.	c #E74949",
"o.	c #CAC9C9",
"p.	c #D0BCBC",
"q.	c #D1BFBF",
"r.	c #D6DADA",
"s.	c #E2E2E2",
"t.	c #E5E5E5",
"u.	c #F8FAFA",
"v.	c #D36E6E",
"w.	c #E44747",
"x.	c #C1C4C4",
"y.	c #C8CACA",
"z.	c #CED2D2",
"A.	c #D5DADA",
"B.	c #DBDFDF",
"C.	c #E2E5E5",
"D.	c #E5E8E8",
"E.	c #E9EDED",
"F.	c #EEF1F1",
"G.	c #F1F5F5",
"H.	c #F4F7F7",
"I.	c #F5FAFA",
"J.	c #EB4B4B",
"K.	c #D17676",
"L.	c #EA1E1E",
"M.	c #DC4343",
"N.	c #DE4545",
"O.	c #E04747",
"P.	c #E34949",
"Q.	c #E64C4C",
"R.	c #E64E4E",
"S.	c #E84E4E",
"T.	c #E85050",
"U.	c #E85252",
"V.	c #E75252",
"W.	c #E65353",
"X.	c #E65555",
"Y.	c #DA1D1D",
"Z.	c #B18585",
"`.	c #AE8C8C",
" +	c #A88585",
".+	c #A48585",
"++	c #A28585",
"                  .                 ",
"                + @ #               ",
"    $ % & * = - ; > , ' ) ! ~ {     ",
"  ] ^ / ( _ : < [ } | : < < < 1 2   ",
"  3 4 5 6 7 8 8 9 0 a b c c c d e   ",
"  f g h i 6 6 j k l m n c c c d 2   ",
"  f o p q i 6 6 r s t u c c c v w   ",
"  x y z A q i B C D E F G c c H I   ",
"  J . K L A M N O P Q R t S T U I   ",
"  V W X Y L A Z `  ...+.@.#.$.%.I   ",
"  &.*.=.-.;.>.,.'.).!.~.{.].^./.I   ",
"  (._.:.<.[.v }.|.1.i 6 6 8 2.3.4.  ",
"  5.6.7.8.9.0.a.K A q i 6 6 b.c.d.  ",
"  e.f.g.h.i.j.k.Y l.A q i 6 m.c.d.  ",
"  e.n.o.p.q.r.s.t.Y l.A q i u.c.d.  ",
"  v.w.x.y.z.A.B.C.D.E.F.G.H.I.J.d.  ",
"  K.L.M.N.O.P.Q.R.S.T.U.V.W.X.Y.Z.  ",
"    `. + + + + +.+.+++++++++++++    "};
