/* XPM */
static char *animal_turtle_chart[] = {
/* columns rows colors chars-per-pixel */
"24 18 34 1 ",
"  c black",
". c #2A2A2A",
"X c #2F332F",
"o c #3F5143",
"O c gray26",
"+ c #4C6250",
"@ c #4D6752",
"# c #4F6B55",
"$ c #5C6D5F",
"% c #56725B",
"& c #5A735F",
"* c #DF0029",
"= c #E85E10",
"- c #63866A",
"; c #64876B",
": c #7E897E",
"> c #739B7A",
", c #78A07F",
"< c #EC8C04",
"1 c #F3B71F",
"2 c #78A280",
"3 c #7CA784",
"4 c #86A28A",
"5 c #86A48B",
"6 c #83A88A",
"7 c #92A694",
"8 c #9EAB9F",
"9 c #99BA9E",
"0 c #9FADA0",
"q c #A4BCA7",
"w c #AFC5B2",
"e c #C4D6C5",
"r c gray100",
"t c None",
/* pixels */
"               ttttttttt",
" rrrrrrrrrrrrr ttttttttt",
" rrrrrrr==r**r ttttttttt",
" rrrrrrr==r**r ttttttttt",
" r11rrrr==r**r ttttttttt",
" r11r<<r==r**r ttttttttt",
" r11r<<r==r**r ttttttttt",
" r11r<<r==......tttttttt",
" r11r<<r..93ee3e.ttt...t",
" r11r<<.ee93ee393...eee.",
" r11r<<.ee33993e:#eeeXe.",
" r11r<.93393933e:#eeeee.",
" rrrrr.3,29393+%3-.....t",
"      .-&4>6663+%3.ttttt",
"ttttttO-7w@$$$oq5;tttttt",
"ttttttt.e0.....8e.tttttt",
"tttttt.ee.ttttt.ee.ttttt",
"tttttt...ttttttt...ttttt"
};
