/* XPM */
static char * audacious_xpm[] = {
"28 28 149 2",
"  	c None",
". 	c #131313",
"+ 	c #1A1A1A",
"@ 	c #303030",
"# 	c #5C5C5C",
"$ 	c #7B7B7B",
"% 	c #919191",
"& 	c #9B9B9B",
"* 	c #5A5A5A",
"= 	c #2E2E2E",
"- 	c #333333",
"; 	c #838383",
"> 	c #B5B5B5",
", 	c #D3D3D3",
"' 	c #DEDEDE",
") 	c #DDDDDD",
"! 	c #D2D2D2",
"~ 	c #B4B4B4",
"{ 	c #828282",
"] 	c #323232",
"^ 	c #101010",
"/ 	c #656565",
"( 	c #BBBBBB",
"_ 	c #D8D8D8",
": 	c #DCDCDC",
"< 	c #DADADA",
"[ 	c #D9D9D9",
"} 	c #BABABA",
"| 	c #646464",
"1 	c #161616",
"2 	c #7F7F7F",
"3 	c #808080",
"4 	c #D6D6D6",
"5 	c #DBDBDB",
"6 	c #666666",
"7 	c #CDCDCD",
"8 	c #BDBDBD",
"9 	c #ACACAC",
"0 	c #979797",
"a 	c #929292",
"b 	c #A2A2A2",
"c 	c #C3C3C3",
"d 	c #686868",
"e 	c #343434",
"f 	c #BCBCBC",
"g 	c #D4D4D4",
"h 	c #8C8C8C",
"i 	c #404040",
"j 	c #262626",
"k 	c #181818",
"l 	c #141414",
"m 	c #1E1E1E",
"n 	c #363636",
"o 	c #6C6C6C",
"p 	c #858585",
"q 	c #ABABAB",
"r 	c #1B1B1B",
"s 	c #000000",
"t 	c #080808",
"u 	c #313131",
"v 	c #A4A4A4",
"w 	c #0A0A0A",
"x 	c #0F0F0F",
"y 	c #0C0C0C",
"z 	c #010101",
"A 	c #020202",
"B 	c #515151",
"C 	c #B7B7B7",
"D 	c #5F5F5F",
"E 	c #787878",
"F 	c #878787",
"G 	c #8B8B8B",
"H 	c #7C7C7C",
"I 	c #191919",
"J 	c #212121",
"K 	c #D5D5D5",
"L 	c #606060",
"M 	c #818181",
"N 	c #D7D7D7",
"O 	c #969696",
"P 	c #737373",
"Q 	c #1C1C1C",
"R 	c #171717",
"S 	c #9C9C9C",
"T 	c #4C4C4C",
"U 	c #2F2F2F",
"V 	c #151515",
"W 	c #0B0B0B",
"X 	c #7A7A7A",
"Y 	c #A0A0A0",
"Z 	c #090909",
"` 	c #A1A1A1",
" .	c #1F1F1F",
"..	c #A9A9A9",
"+.	c #222222",
"@.	c #050505",
"#.	c #1D1D1D",
"$.	c #040404",
"%.	c #121212",
"&.	c #909090",
"*.	c #999999",
"=.	c #6A6A6A",
"-.	c #060606",
";.	c #292929",
">.	c #B0B0B0",
",.	c #AAAAAA",
"'.	c #A6A6A6",
").	c #989898",
"!.	c #DFDFDF",
"~.	c #848484",
"{.	c #0D0D0D",
"].	c #A5A5A5",
"^.	c #383838",
"/.	c #2B2B2B",
"(.	c #9E9E9E",
"_.	c #3A3A3A",
":.	c #8E8E8E",
"<.	c #2D2D2D",
"[.	c #070707",
"}.	c #3B3B3B",
"|.	c #202020",
"1.	c #505050",
"2.	c #CACACA",
"3.	c #3E3E3E",
"4.	c #C2C2C2",
"5.	c #B6B6B6",
"6.	c #696969",
"7.	c #444444",
"8.	c #626262",
"9.	c #A3A3A3",
"0.	c #CFCFCF",
"a.	c #B1B1B1",
"b.	c #7E7E7E",
"c.	c #898989",
"d.	c #C9C9C9",
"e.	c #727272",
"f.	c #8D8D8D",
"g.	c #757575",
"h.	c #C4C4C4",
"i.	c #747474",
"j.	c #424242",
"k.	c #BFBFBF",
"l.	c #BEBEBE",
"m.	c #414141",
"n.	c #3D3D3D",
"o.	c #888888",
"p.	c #9D9D9D",
"q.	c #A8A8A8",
"r.	c #232323",
"                        . + + .                         ",
"                  @ # $ % & & % $ * =                   ",
"              - ; > , ' ) ) ) ) ' ! ~ { ]               ",
"          ^ / ( _ : < [ [ [ [ [ [ < : _ } |             ",
"        1 2 , < [ [ [ [ [ [ [ [ [ [ [ [ < , 2 1         ",
"      ^ 3 4 [ [ [ [ < 5 : ) ) ) 5 [ [ [ [ [ 4 2 ^       ",
"      6 , [ [ [ [ < 7 8 9 0 a b c < < [ [ [ [ , d       ",
"    e f < [ [ [ g h i - j k l m n o 8 [ [ [ [ < f e     ",
"    p [ [ [ [ [ q r s s s s s s s t n ~ [ [ [ [ [ p     ",
"  u > : [ [ [ [ v + w x x y z s s s A B g [ [ [ : C ]   ",
"  D g < [ [ [ [ , % E F G H I s s s s J } < [ [ < K L   ",
"  M ' [ [ [ [ [ [ ) N f O P Q s s s s l O 5 [ [ [ ' 3   ",
"R 0 ) [ [ [ [ [ K S T U V A s s s s s W X : [ [ [ ) O R ",
"m Y ) [ [ [ [ 4 h Q s s s s s s s s s Z P : [ [ [ : ` m ",
" .` : [ [ [ < ..+.s s s @.#.m $.s s s %.&.5 [ [ [ : b  .",
"I *.) [ [ [ : =.-.s s s ;.>.,.I s s s I '.< [ [ [ ) ).k ",
"  p !.[ [ [ : / $.s s s m $ P x s s s m > < [ [ [ !.~.  ",
"  / N < [ [ : 3 {.s s s s W W s s s s I ].< [ [ [ _ 6   ",
"  ^.( : [ [ < ( /.s s s s s s s s s s R (.5 [ [ : 8 _.  ",
"    :.< [ [ [ _ S <.[.s -.k <.}.|.y ^ 1.2.[ [ [ < :.    ",
"    3.4.< [ [ [ N 5.6.7.8.9.0.g a.b.c.d.[ [ [ < 4.3.    ",
"      e.K [ [ [ [ < 5 K _ 5 [ [ < : 5 [ [ [ [ K P       ",
"      1 f.N [ [ [ [ [ < [ [ [ [ [ [ [ [ [ [ N h 1       ",
"        m :.K < [ [ [ [ [ [ [ [ [ [ [ [ < K f.m         ",
"          R g.h.5 5 < [ [ [ [ [ [ < : 5 c i.1           ",
"              j.% k.[ ' : : : : ' [ l.&.m.              ",
"                  n.=.o.p.q.q.p.o.d }.                  ",
"                        r r.r.r                         "};
