/* XPM */
static char * se_audacity_xpm[] = {
"18 18 182 2",
"  	c None",
". 	c #8888DD",
"+ 	c #3C3CAF",
"@ 	c #383898",
"# 	c #222274",
"$ 	c #212176",
"% 	c #282894",
"& 	c #2627A0",
"* 	c #6465B7",
"= 	c #5858C3",
"- 	c #34337B",
"; 	c #6E6E78",
"> 	c #81819E",
", 	c #29298B",
"' 	c #2C2C9A",
") 	c #5757BD",
"! 	c #616181",
"~ 	c #5A5AA8",
"{ 	c #18188D",
"] 	c #8180D9",
"^ 	c #39397E",
"/ 	c #3B3BAA",
"( 	c #434380",
"_ 	c #3E3EBB",
": 	c #E6E2D5",
"< 	c #27278C",
"[ 	c #3938AA",
"} 	c #DFD8C0",
"| 	c #DCCFA2",
"1 	c #DCC482",
"2 	c #DECF99",
"3 	c #E1DAC6",
"4 	c #DFD1A9",
"5 	c #BABACA",
"6 	c #2B2BA1",
"7 	c #5F5FE1",
"8 	c #1D1C89",
"9 	c #535498",
"0 	c #3C3B8C",
"a 	c #E3DFD2",
"b 	c #E2CF6B",
"c 	c #E5B546",
"d 	c #E0B54E",
"e 	c #EACE40",
"f 	c #D9C774",
"g 	c #DFC077",
"h 	c #7979BA",
"i 	c #9393BA",
"j 	c #1C1CBB",
"k 	c #393991",
"l 	c #5252CD",
"m 	c #5B5BDD",
"n 	c #0E0E54",
"o 	c #4A4A92",
"p 	c #6A699B",
"q 	c #DED085",
"r 	c #F6CD19",
"s 	c #F3A11C",
"t 	c #EBB02C",
"u 	c #FBCD0C",
"v 	c #EACF2F",
"w 	c #E3B553",
"x 	c #DCD1AA",
"y 	c #908FBD",
"z 	c #8C8CB4",
"A 	c #0A0ABC",
"B 	c #04047D",
"C 	c #6C6C97",
"D 	c #3C3BCE",
"E 	c #2626B2",
"F 	c #01014D",
"G 	c #86829C",
"H 	c #ECD83A",
"I 	c #FDC804",
"J 	c #FA9209",
"K 	c #F6A412",
"L 	c #FEAA02",
"M 	c #FCB708",
"N 	c #F1B41D",
"O 	c #EFC329",
"P 	c #A79A7E",
"Q 	c #8B8BB4",
"R 	c #0909BD",
"S 	c #03038C",
"T 	c #2D2D62",
"U 	c #2121BB",
"V 	c #07079B",
"W 	c #8080AE",
"X 	c #8B8254",
"Y 	c #FBD00C",
"Z 	c #FEA702",
"` 	c #FE6F02",
" .	c #FE8B03",
"..	c #FE6D02",
"+.	c #FE6E02",
"@.	c #FE8E04",
"#.	c #FE9604",
"$.	c #B1864A",
"%.	c #8A89AB",
"&.	c #030392",
"*.	c #13134B",
"=.	c #1819B5",
"-.	c #010296",
";.	c #7F7DA4",
">.	c #8E7135",
",.	c #FE5F02",
"'.	c #FE4702",
").	c #FE3901",
"!.	c #FE5602",
"~.	c #FE2C02",
"{.	c #FE1101",
"].	c #FE2301",
"^.	c #FE1801",
"/.	c #B03D3D",
"(.	c #8987A5",
"_.	c #0909BE",
":.	c #030391",
"<.	c #111148",
"[.	c #4040B2",
"}.	c #020299",
"|.	c #7E7897",
"1.	c #8E3631",
"2.	c #FE2901",
"3.	c #FE3002",
"4.	c #FE8B02",
"5.	c #FE3902",
"6.	c #FE3F01",
"7.	c #FE4701",
"8.	c #FE4401",
"9.	c #B0353E",
"0.	c #03038A",
"a.	c #272644",
"b.	c #4A4AA3",
"c.	c #010198",
"d.	c #010150",
"e.	c #7F7999",
"f.	c #8F4134",
"g.	c #FEA402",
"h.	c #FE9C03",
"i.	c #FDC906",
"j.	c #FE8E03",
"k.	c #FEA602",
"l.	c #FEA903",
"m.	c #FCC507",
"n.	c #FDC309",
"o.	c #AE9050",
"p.	c #8988A9",
"q.	c #0707BF",
"r.	c #03035F",
"s.	c #565563",
"t.	c #2E2E90",
"u.	c #010153",
"v.	c #5D5C9A",
"w.	c #8B774C",
"x.	c #FDDF08",
"y.	c #FCCB08",
"z.	c #EFCB25",
"A.	c #FDB207",
"B.	c #F8C910",
"C.	c #F2C81E",
"D.	c #F4D11A",
"E.	c #E9C845",
"F.	c #958E98",
"G.	c #8B8BB3",
"H.	c #0303A1",
"I.	c #202038",
"J.	c #595986",
"K.	c #BFB6A3",
"L.	c #E5D26A",
"M.	c #E6CD58",
"N.	c #DAC67A",
"O.	c #F3D02C",
"P.	c #E3CB4B",
"Q.	c #DCC575",
"R.	c #E5C957",
"S.	c #E1D395",
"T.	c #B3B2C7",
"U.	c #505080",
"V.	c #DACA95",
"W.	c #DAD0B2",
"X.	c #E3DFD4",
"Y.	c #E0D9C9",
"                                    ",
"          . + @ # $ % & *           ",
"        = - ;         > , '         ",
"      ) !                 ~ {       ",
"    ] ^                     / (     ",
"    _           :             <     ",
"    [       } | 1 2 3 4     5 6     ",
"  7 8 9 0 a b c d e f g   h i j k   ",
"l m n o p q r s t u v w x y z A B C ",
"D E F o G H I J K L M N O P Q R S T ",
"U V F W X Y Z `  ...+.@.#.$.%.R &.*.",
"=.-.F ;.>.,.'.).!.~.{.].^./.(._.:.<.",
"[.}.F |.1.2.3.4.5.3.6.7.8.9.(._.0.a.",
"b.c.d.e.f.g.h.i.j.k.l.m.n.o.p.q.r.s.",
"  t.u.v.w.x.y.z.A.B.C.D.E.F.G.H.I.  ",
"    J.  K.L.M.N.O.P.Q.R.S.  T.U.    ",
"                V.W.X.Y.            ",
"                                    "};
