/* XPM */
static char *audio_piano_keys_midi[] = {
/* columns rows colors chars-per-pixel */
"24 18 24 1 ",
"  c black",
". c #3F3F3F",
"X c #615205",
"o c #766607",
"O c #535353",
"+ c gray36",
"@ c #656565",
"# c #727272",
"$ c gray46",
"% c gray50",
"& c #B99F0D",
"* c #BAA52C",
"= c #E1B738",
"- c #EFD07C",
"; c #AEAEAE",
": c #B6B6B6",
"> c #B7B7B7",
", c #E7D68C",
"< c #F2E190",
"1 c #FBF3B3",
"2 c #FDF8B6",
"3 c gray90",
"4 c gray100",
"5 c None",
/* pixels */
"                    5555",
" 43:@43:@43:@43%44: ;555",
" 43$.43$.43$.43%44$ ;555",
" 43@.43@.43@.43%44@ ;555",
" 43O.43O.43O.43%44O ;555",
" 43..43..43..43%44. ;555",
" 43..43..43..43%44. ;555",
" 43%443%443%443%443 ;555",
" 43%443%4               ",
" 43%443%4 211111111111< ",
" 33#333#3 1- ----&-- -= ",
" :>+>:>+: 1- ---- -- -= ",
"          1 - -  -X - = ",
"5;;;;;;;; 1*-- --- ---= ",
"555555555o1--- --- ---= ",
"555555555o1--- -------= ",
"555555555o,============ ",
"555555555ooooooooooo    "
};
