/* XPM */
static char *audio_waveform_edit[] = {
/* columns rows colors chars-per-pixel */
"24 18 28 1 ",
"  c black",
". c #3C3C3C",
"X c #767676",
"o c #7C7C7C",
"O c #986400",
"+ c #BE7D00",
"@ c #BB563A",
"# c #BD6249",
"$ c #EA6B48",
"% c #EE9C00",
"& c #F9B71C",
"* c #CC9E23",
"= c #FFC62C",
"- c #F8E325",
"; c #EE886C",
": c #FBEE7C",
"> c #A7A7A7",
", c #A9A9A9",
"< c #B2B2B2",
"1 c #CBB99C",
"2 c #F3AC98",
"3 c #F4B4A3",
"4 c #E6C2B8",
"5 c #FDF5B0",
"6 c gray85",
"7 c #E0D5C4",
"8 c #ECE6DC",
"9 c None",
/* pixels */
"999999999999999999   999",
"99999999999999999 32; 99",
"99999999999999999 4$# 99",
"9999999999999999 56<@ 99",
"9999999999999999 :*O 999",
"999999999999999 5=&+ 999",
"999999999999999 :=% 9999",
"99999999 99999 5=&+ 9999",
"99999999 99999 -=% 99999",
"99999999 99999 81+ 99999",
"9999 99 9 9999 71 999999",
"9999 99 9 9999   9999999",
"9   9 9 99  o>  99999999",
"99999 9 9999,X.999999999",
"99999 9 9999999999999999",
"999999 99999999999999999",
"999999 99999999999999999",
"999999999999999999999999"
};
