/* XPM */
static char *audio[] = {
/* columns rows colors chars-per-pixel */
"24 18 55 1 ",
"  c black",
". c #444444",
"X c gray29",
"o c #585858",
"O c #5F5F5F",
"+ c #606060",
"@ c gray38",
"# c #626262",
"$ c gray40",
"% c #6A6A6A",
"& c gray43",
"* c #727272",
"= c #767676",
"- c #797979",
"; c #C18F2E",
": c #C29131",
"> c #ECB233",
", c #EFBA49",
"< c #EAC968",
"1 c #898989",
"2 c gray54",
"3 c #9A9A9A",
"4 c #9B9B9B",
"5 c gray61",
"6 c #9F9F9F",
"7 c #A2A2A2",
"8 c #A4A4A4",
"9 c #A5A5A5",
"0 c #A9A9A9",
"q c gray69",
"w c #B4B4B4",
"e c #B6B6B6",
"r c #B7B7B7",
"t c #B9B9B9",
"y c #BBBBBB",
"u c #F0D996",
"i c #F5E4B6",
"p c #C2C1C2",
"a c gray76",
"s c #C8C8C8",
"d c gray79",
"f c gray81",
"g c #D0D0D0",
"h c #D2D2D2",
"j c gray83",
"k c #DFDFDF",
"l c #E2E2E2",
"z c gray89",
"x c gray91",
"c c #EAEAEA",
"v c #FDF8EC",
"b c gray97",
"n c #FDFDFD",
"m c gray100",
"M c None",
/* pixels */
"MMMMMMMMMMMMMMMMMMMMMMMM",
"MMMMMMMMM  MMMMMMMMMMMMM",
"MMMMMMMM m MMMMMMM3MMMMM",
"MMMMMMMM$z.MMMMMMMM=MMMM",
"MMMMMMM xz.MMMM=MMM20MMM",
"MMMMMM m0k.MMMM20MMh@MMM",
"MMM   mb7h@MfaMh@MMM.aMM",
"MM vu-ms7f@Mx&MM.MMM-3MM",
"MM i<&hy6s@MM.MM.MMM-3MM",
"MM ,>@s86a@MM.MM.MMM=6MM",
"MM :;osw1y@Mx&MM.MMM-3MM",
"MMM   8q*w.MfaMh@MMM.aMM",
"MMMMMM -Oy.MMMM20MMh@MMM",
"MMMMMMM X3.MMMM=MMM20MMM",
"MMMMMMMMX3.MMMMMMMM=MMMM",
"MMMMMMMM % MMMMMMM3MMMMM",
"MMMMMMMMM  MMMMMMMMMMMMM",
"MMMMMMMMMMMMMMMMMMMMMMMM"
};
