/* XPM */
static char *audio_horn[] = {
/* columns rows colors chars-per-pixel */
"24 18 99 2 ",
"   c black",
".  c #3E2900",
"X  c #422C00",
"o  c #4D3200",
"O  c #4E3300",
"+  c #5F3F00",
"@  c #624000",
"#  c #6B4700",
"$  c #6E4800",
"%  c #774E00",
"&  c #7A5000",
"*  c #79591B",
"=  c #745821",
"-  c #7D6E31",
";  c #7C7332",
":  c gray31",
">  c gray38",
",  c gray39",
"<  c #727272",
"1  c #797979",
"2  c #855700",
"3  c #895A00",
"4  c #8F5E00",
"5  c #976300",
"6  c #986400",
"7  c #A76E00",
"8  c #B37600",
"9  c #B47600",
"0  c #BE7D00",
"q  c #A0741F",
"w  c #A0781B",
"e  c #957B25",
"r  c #AD7F27",
"t  c #927A4E",
"y  c #B58300",
"u  c #B0821B",
"i  c #B58723",
"p  c #B58A2D",
"a  c #BD8A28",
"s  c #B38630",
"d  c #D18900",
"f  c #D68C00",
"g  c #D09A1A",
"h  c #D69D19",
"j  c #EE9C00",
"k  c #CCB200",
"l  c #E1AB1A",
"z  c #C18D29",
"x  c #D19420",
"c  c #CB9733",
"v  c #D7A42B",
"b  c #E4A328",
"n  c #F2B126",
"m  c #F5BC29",
"M  c #F1B033",
"N  c #DAC716",
"B  c #E8CF0B",
"V  c #EFDE08",
"C  c yellow",
"Z  c #F7E217",
"A  c #ECC02B",
"S  c #AD8E51",
"D  c #A99775",
"F  c #A99979",
"G  c #AC9C7E",
"H  c #CCB05D",
"J  c #E1AA41",
"K  c #F2B841",
"L  c #CDB079",
"P  c #F9CF41",
"I  c #FBD84C",
"U  c #E5C65A",
"Y  c #F9D35A",
"T  c #F5C466",
"R  c #F7CB67",
"E  c #FAD974",
"W  c #F9DA77",
"Q  c #FDE264",
"!  c #FFEC66",
"~  c #FCE16E",
"^  c #808080",
"/  c #838383",
"(  c #939393",
")  c gray61",
"_  c gray64",
"`  c gray65",
"'  c gray66",
"]  c #B6B6B6",
"[  c #FFF294",
"{  c #FCE8AC",
"}  c #FDF0A4",
"|  c #FFFFBB",
" . c gray78",
".. c gray80",
"X. c #D8D8D8",
"o. c #FBEAC8",
"O. c #FEF4CB",
"+. c #FEF7EB",
"@. c None",
/* pixels */
"@.@.@.@.@.@.@.@.@.@.@.@.@.@.@.@.@.@.@.@.@.@.@.@.",
"@.@.@.@.@.@.@.@.@.@.@.@.@.@.@.@.@.@.@.@.@.@.@.@.",
"@.@.@.@.@.@.@.@.@.@.@.@.@.@.@.@.@.G +     _ @.@.",
"@.@.@.@.@.@.@.@.@.@.@.@.@.@.@.@.@.y W K b : ..@.",
"@.@.@.@.@.@.@.@.@.@.@.@.@.@.@.@.@ } c 6 0 x < @.",
"@.@.@.@.@.@.8 7 = 7 + 7 + @.@.D N l & & 6 j   @.",
"L 7 4 @.@.@.4 +.q o.4 o.4 @.S   A f @ & 6 j w ` ",
"7 | I       e [ 4 4 4 ! ; + k Z M f O & 6 j u / ",
"4 C J j T T T T T T T T T T T M M f . & 6 d u / ",
"+ V * 0 0 0 0 0 0 0 0 0 0 0 0 M M f O & 6 h u / ",
"+ B r # j     E o E 2   % m 0 z M f @ & 6 v u / ",
"F X + + j   @.E 3 E 2 @.% P +   M f & & 6 n & ( ",
"@.@.@.4 j 5 @.E 3 E 2 @.9 P + + a f 6 & 6 R % ) ",
"@.@.@.4 j i % E $ E 2 % g P + ' > x j 6 p H < @.",
"@.@.@.t s E ~ E E E { O.Q - ] @.X.3 j Y U : ..@.",
"@.@.@.@.>   + + + + 4 7 + 1 @.@.@. .^     _ @.@.",
"@.@.@.@.@.@.@.@.@.@.@.@.@.@.@.@.@.@.@.@.@.@.@.@.",
"@.@.@.@.@.@.@.@.@.@.@.@.@.@.@.@.@.@.@.@.@.@.@.@."
};
