/* XPM */
static char *audio_microphone_input[] = {
/* columns rows colors chars-per-pixel */
"24 18 76 1 ",
"  c black",
". c #120E06",
"X c #382B14",
"o c #3A3A3A",
"O c #403218",
"+ c #4A3A1B",
"@ c #4B3B1C",
"# c #5C4822",
"$ c #705829",
"% c #79622F",
"& c #535353",
"* c gray33",
"= c gray34",
"- c #5B5B5B",
"; c gray36",
": c #606060",
"> c #656565",
", c #6C6C6C",
"< c gray44",
"1 c gray46",
"2 c #797978",
"3 c #797979",
"4 c gray48",
"5 c #8F7035",
"6 c #907035",
"7 c #9F9A58",
"8 c #B38C42",
"9 c #E0AF52",
"0 c #CBBB66",
"q c #D3C16A",
"w c #EAC968",
"e c #EFD774",
"r c #E6D878",
"t c #E6DA7B",
"y c #E8DC7C",
"u c #F0D976",
"i c gray51",
"p c gray53",
"a c #929292",
"s c #979797",
"d c gray64",
"f c #B1B1B1",
"g c #B2B2B1",
"h c #B2B1B2",
"j c #B2B2B2",
"k c gray73",
"l c #F8ED87",
"z c #F7ED8F",
"x c #F9F18A",
"c c #F7EB92",
"v c #F7EC91",
"b c #F2DDA4",
"n c #F0D8AB",
"m c gray76",
"M c #C5C5C5",
"N c #C5C5C6",
"B c gray80",
"V c gray82",
"C c #D3D4D4",
"Z c #D7D8D8",
"A c #D8D8D8",
"S c #DADADA",
"D c #FAF1CE",
"F c gray89",
"G c #E6E6E6",
"H c gray91",
"J c #ECECEC",
"K c #FAF1E1",
"L c #F1F1F1",
"P c #F3F3F3",
"I c #F3F4F3",
"U c #F5F6F6",
"Y c gray97",
"T c #F9F9F9",
"R c gray100",
"E c None",
/* pixels */
"EEEEEEEEEEEEEEEEEEEEEEEE",
"EEEEEE     EEEEEEEEEEEEE",
"EEEEE RRSSV EEEEE EEEEEE",
"EEEE TIZ>Fdi EEE  EEEEEE",
"EEEE PsPMj&j EE      EEE",
"EEEE PJZMjdp EEE  EEEEEE",
"EEEE GJZ>Fdi EEEE EEEEEE",
"EEE $G2PMj&j$ EEEEEEEEEE",
"EE K$GJSMjdi$D EEEEEEEEE",
"EE v%kCm-Ba1$u EEEEEEEEE",
"EE c$<*1;-o,$w EEEEEEEEE",
"EE v$YIHMjdd$9 EEEEEEEEE",
"EE n$2;   ;2$9 EEEEEEEEE",
"EE b8 .x96O@+9 EEEEEEEEE",
"EEE urtxly0q9 EEEEEEEEEE",
"EEE2  X76#X  2EEEEEEEEEE",
"EEEEEE x96 EEEEEEEEEEEEE",
"EEEEEE x96 EEEEEEEEEEEEE"
};
