/* XPM */
static char *backgrounds[] = {
/* columns rows colors chars-per-pixel */
"24 18 103 2 ",
"   c black",
".  c #0C0F1B",
"X  c #0E1220",
"o  c #101525",
"O  c #191F37",
"+  c #1A213B",
"@  c #1A223B",
"#  c #1A223C",
"$  c #6C5B30",
"%  c #7F6C3A",
"&  c #376254",
"*  c #3A6765",
"=  c #3A716E",
"-  c #4A7F5F",
";  c #6A7973",
":  c #B25800",
">  c #D55A36",
",  c #D75D34",
"<  c #8D7940",
"1  c #778559",
"2  c #66A158",
"3  c #65A15A",
"4  c #498060",
"5  c #579262",
"6  c #589362",
"7  c #58966A",
"8  c #61A063",
"9  c #BD8F14",
"0  c #E58600",
"q  c #E59600",
"w  c #F2A300",
"e  c #FFB100",
"r  c #FFBE0F",
"t  c #FFC11A",
"y  c #9E8547",
"u  c #A38A4A",
"i  c #A68C4B",
"p  c #B59B52",
"a  c #C2A457",
"s  c #C7AD5C",
"d  c #CAAB5B",
"f  c #C7B25E",
"g  c #C7B761",
"h  c #C7BC64",
"j  c #D5B460",
"k  c #F8D26F",
"l  c #FFDE76",
"z  c #FFE479",
"x  c #FFEA7C",
"c  c #507E8A",
"v  c #4595AE",
"b  c #4DAAD2",
"n  c #4BAAD8",
"m  c #4FACDD",
"M  c #63B6CC",
"N  c #4AACE4",
"B  c #4BADE7",
"V  c #48ADEC",
"C  c #4CAFED",
"Z  c #56B2EB",
"A  c #64B9F1",
"S  c #7CC4E4",
"D  c #8C9695",
"F  c #9B9B9B",
"G  c #B59585",
"H  c #9CBF9F",
"J  c #A6BB9D",
"K  c #B9B49D",
"L  c #9ABEA0",
"P  c #9BBFA2",
"I  c #9ABFA4",
"U  c #8CB0BA",
"Y  c #9EB5B1",
"T  c #9BBEBD",
"R  c #B6B0A0",
"E  c #D0A98F",
"W  c #9CC2A6",
"Q  c #9EC7AD",
"!  c #9DC4B6",
"~  c #FFF180",
"^  c #8BB8CD",
"/  c #A1CBD6",
"(  c #94CDE8",
")  c #97D1EB",
"_  c #92CDF0",
"`  c #95CFF2",
"'  c #92CEF4",
"]  c #98D1F2",
"[  c #98D1F5",
"{  c #A6D7EE",
"}  c #B8DFE8",
"|  c #B6DFF6",
" . c #B6DFF7",
".. c #B9E0F1",
"X. c #B9E1F6",
"o. c #C9E8F4",
"O. c #C8E7F8",
"+. c #CCE9F8",
"@. c #D0EBF9",
"#. c #DCEFFA",
"$. c #DDF1FB",
"%. c #E6F4FC",
"&. c None",
/* pixels */
"&.&.&.&.&.&.&.&.&.&.&.&.&.&.&.&.&.&.&.&.&.&.&.&.",
"&.&.                        &.&.&.&.&.&.&.&.&.&.",
"&.&.  %.@.$.| O.A [ C ' V   F &.&.&.&.&.&.&.&.&.",
"&.&.  #.X.+.] | Z ` B _ N   F &.&.&.&.&.&.&.&.&.",
"&.&.  o.) ..S { m ( n ^ b   F &.&.&.&.&.&.&.&.&.",
"&.&.  } c / M U v O o X .                 &.&.&.",
"&.&.  T * Y ; D = # ~ x z l k j d p u $   F &.&.",
"&.&.  ! & R > G 4 @ : 0 q w e r t t t 9   F &.&.",
"&.&.  Q - K , E 8 @ ~ x z l k j d p u $   F &.&.",
"&.&.  W 7 I 1 J 3 # : 0 q w e r t t t 9   F &.&.",
"&.&.  L 5 L 6 H 3 @ ~ x z l k j d p u $   F &.&.",
"&.&.                : 0 q w e r t t t 9   F &.&.",
"&.&.&.F F F F F F   ~ x z l k j d p u $   F &.&.",
"&.&.&.&.&.&.&.&.&.  : 0 q w e r t t t 9   F &.&.",
"&.&.&.&.&.&.&.&.&.  h g f s a i y < % $   F &.&.",
"&.&.&.&.&.&.&.&.&.                        F &.&.",
"&.&.&.&.&.&.&.&.&.&.F F F F F F F F F F F F &.&.",
"&.&.&.&.&.&.&.&.&.&.&.&.&.&.&.&.&.&.&.&.&.&.&.&."
};
