/* XPM */
static char *bench_computer[] = {
/* columns rows colors chars-per-pixel */
"24 18 64 1 ",
"  c black",
". c gray4",
"X c #313131",
"o c gray20",
"O c #443B29",
"+ c #554933",
"@ c #544E3F",
"# c #464646",
"$ c #484643",
"% c #484848",
"& c gray36",
"* c #6E5E42",
"= c #655D4A",
"- c #756546",
"; c #7B6A4A",
": c #666360",
"> c #686868",
", c #797979",
"< c #7F7C78",
"1 c #887552",
"2 c #83795F",
"3 c #887D64",
"4 c #83807C",
"5 c #9D9174",
"6 c #888582",
"7 c #8C8983",
"8 c #8D8A83",
"9 c #938E86",
"0 c #9E9A92",
"q c #9F9B96",
"w c #9E9B97",
"e c #AAA6A2",
"r c #AEABA3",
"t c #ACACAC",
"y c #B0ACA4",
"u c #B3AFA9",
"i c #B8B1A8",
"p c #C4B28F",
"a c #C4B190",
"s c #C6B390",
"d c #C8B593",
"f c #CBB693",
"g c #CBB793",
"h c #C9B797",
"j c #CBB894",
"k c #CFBB97",
"l c #D1BE98",
"z c #D8C19D",
"x c #D8C29C",
"c c #C7C2BC",
"v c #C6C2BD",
"b c #CEC6B9",
"n c #FFE9B9",
"m c #FFEFBD",
"M c #CDCAC5",
"N c #D4D0CB",
"B c #DAD5CC",
"V c #FFF3C0",
"C c #FFFFCC",
"Z c #FFFFCD",
"A c #FFFFD1",
"S c #FFFFD5",
"D c #FFFFD6",
"F c None",
/* pixels */
"FFFFFFFFFF......FFFFFFFF",
"FFFFFFFFF.iiiiii.FFFFFFF",
"FFFFFFFFF.v&>&Xi.FFFFFFF",
"FFFFFFFFF.v&toXi.FFFFFFF",
"FFFFFFFFF.v&%#Xi.FFFFFFF",
"FFFFFF   .vXXXXi.    ,FF",
"FFFFF SSA.wvvvv0.zlja FF",
"FFFF CC3:<<<6@@@2kgs1 FF",
"FFF CC@qvu4c3N%zkds11 FF",
"FF nmV@999999t3jda11* FF",
"F hhhh========5hh11*O FF",
"F BBBBByBBB7BbBBB1;O1 FF",
"F yyyyy7Myy$yyyyy;+y1 FF",
"F yOOOO         y-Oy1 FF",
"F y1Oy1 FFFFFFF y1Oy1 FF",
"F y1O   FFFFFFF y1    FF",
"F y1 FFFFFFFFFF y1 FFFFF",
"F   FFFFFFFFFFFF   FFFFF"
};
