/* XPM */
static char * bluefish_icon_xpm[] = {
"18 18 139 2",
"  	c None",
". 	c #3169AD",
"+ 	c #5384BD",
"@ 	c #5785BB",
"# 	c #629CD6",
"$ 	c #6293C9",
"% 	c #457CBB",
"& 	c #2F6DB5",
"* 	c #2E6DB6",
"= 	c #4B80BE",
"- 	c #699BD1",
"; 	c #6190C6",
"> 	c #4F7BB0",
", 	c #6AA9E8",
"' 	c #4E7CAB",
") 	c #6494C9",
"! 	c #5088C6",
"~ 	c #3071BA",
"{ 	c #3072BD",
"] 	c #3273BD",
"^ 	c #5C8DC5",
"/ 	c #6EA0D5",
"( 	c #6393C9",
"_ 	c #507DB3",
": 	c #366BAC",
"< 	c #66A3E2",
"[ 	c #4A78A8",
"} 	c #6A92C1",
"| 	c #306EB6",
"1 	c #3073BE",
"2 	c #3177C5",
"3 	c #3E7EC5",
"4 	c #A7BBD3",
"5 	c #C8D7E7",
"6 	c #A2B8D3",
"7 	c #597FAE",
"8 	c #346AAC",
"9 	c #5997D7",
"0 	c #619DDB",
"a 	c #4A79AA",
"b 	c #6483A9",
"c 	c #4E86C5",
"d 	c #CFD1D3",
"e 	c #E1E1E1",
"f 	c #929394",
"g 	c #959BA2",
"h 	c #4072AC",
"i 	c #3177C4",
"j 	c #3F83CD",
"k 	c #5B96D4",
"l 	c #36587D",
"m 	c #3568A7",
"n 	c #2E6BB3",
"o 	c #2F6FB8",
"p 	c #4F7CA7",
"q 	c #BEBDB8",
"r 	c #C8C8C8",
"s 	c #747575",
"t 	c #989488",
"u 	c #757F75",
"v 	c #3175C2",
"w 	c #4784C8",
"x 	c #1E3248",
"y 	c #2D62A6",
"z 	c #2D67AE",
"A 	c #2E6AB2",
"B 	c #2E6CB5",
"C 	c #4E7494",
"D 	c #B99E5A",
"E 	c #ADACA7",
"F 	c #AAA9A4",
"G 	c #BCA14E",
"H 	c #71745F",
"I 	c #2E69B0",
"J 	c #3975BA",
"K 	c #2B5FA2",
"L 	c #2C62A6",
"M 	c #2D65AB",
"N 	c #2D67AD",
"O 	c #3066A8",
"P 	c #887A47",
"Q 	c #BA9324",
"R 	c #BC9522",
"S 	c #A18228",
"T 	c #395C88",
"U 	c #2B60A2",
"V 	c #2D64A9",
"W 	c #3D73B5",
"X 	c #2B5C9B",
"Y 	c #2B5D9E",
"Z 	c #2C61A5",
"` 	c #2C60A4",
" .	c #30619F",
"..	c #50697C",
"+.	c #55676E",
"@.	c #33588A",
"#.	c #295592",
"$.	c #2B5B9A",
"%.	c #3062A2",
"&.	c #497BB7",
"*.	c #416DA0",
"=.	c #6C9ED3",
"-.	c #5687C0",
";.	c #4576B2",
">.	c #3F71AE",
",.	c #5686BD",
"'.	c #4D7BB4",
").	c #28528E",
"!.	c #28508C",
"~.	c #244B82",
"{.	c #162740",
"].	c #416FA5",
"^.	c #3E699F",
"/.	c #6A9CD1",
"(.	c #6999D0",
"_.	c #5F8DC4",
":.	c #5582B9",
"<.	c #4E7AB1",
"[.	c #4A75AC",
"}.	c #39639C",
"|.	c #28508B",
"1.	c #284D87",
"2.	c #214274",
"3.	c #091220",
"4.	c #5F8ABA",
"5.	c #6492C6",
"6.	c #5C8AC1",
"7.	c #4873AA",
"8.	c #365F97",
"9.	c #284F88",
"0.	c #274B83",
"a.	c #1F3D6B",
"b.	c #070D18",
"c.	c #203B64",
"d.	c #1F3C69",
"e.	c #1F3D6A",
"f.	c #1D3761",
"g.	c #13233F",
"h.	c #04070D",
"                                    ",
"                                    ",
"                                    ",
"              . + @           #     ",
"      $ % & * = - ; >       , '     ",
"    ) ! ~ { ] ^ / ( _ :     < [     ",
"    } | 1 2 3 4 5 6 7 8 & 9 0 a     ",
"    b * { 2 c d e f g h i j k l     ",
"    m n o 1 p q r s t u 1 v w x     ",
"    y z A B C D E F G H I * J       ",
"    K L M N O P Q R S T U V W       ",
"    X Y K Z `  ...+.@.#.$.%.&.*.    ",
"    =.-.;.>.;.,.'.#.).!.~.{.].^.    ",
"    /.(._.:.<.[.}.|.1.2.3.          ",
"      4.5.6.7.8.9.0.a.b.            ",
"          c.d.e.f.g.h.              ",
"                                    ",
"                                    "};
