/* XPM */
static char *book_open[] = {
/* columns rows colors chars-per-pixel */
"24 18 55 1 ",
"  c black",
". c #0D0C0A",
"X c #0D0D0B",
"o c #191814",
"O c #292721",
"+ c #403106",
"@ c #7A5C0B",
"# c #454238",
"$ c #504B40",
"% c #595448",
"& c #686354",
"* c #6B6656",
"= c #726C5B",
"- c #726D5C",
"; c gray38",
": c #6B6861",
"> c #7A7462",
", c #7F7966",
"< c #797979",
"1 c #906D0E",
"2 c #99740E",
"3 c #807967",
"4 c #827B68",
"5 c #C09112",
"6 c #D19E14",
"7 c #DCA615",
"8 c #FFC118",
"9 c #8E8772",
"0 c #8F8873",
"q c #8F8973",
"w c #9B927D",
"e c #808080",
"r c #9B9B9B",
"t c #A09780",
"y c #A39B83",
"u c #B4AC92",
"i c #B8AE94",
"p c #B2AEA1",
"a c #C2B79C",
"s c #C5BB9E",
"d c #CAC0A2",
"f c #CCC2A4",
"g c #D6CAAC",
"h c #DBD0B0",
"j c #E5D9B8",
"k c #EBDFBC",
"l c #EBDFBD",
"z c #EEE1BF",
"x c #EDE4CD",
"c c #FFF2CD",
"v c #FFF6DC",
"b c #E6E6E6",
"n c #FFF9E7",
"m c gray100",
"M c None",
/* pixels */
"MMMMMMMMMMMMMMMMMMMMMMMM",
"MMMMMMMMMMMMMMMMMMMMMMMM",
"MMMMMr    rMr    rMMMMMM",
"MMM;>dccch3 3vcccd>;MMMM",
"M< pccccchsOxvccccct <MM",
"M mn40%oXhs#xXo%0*cjf MM",
"M m:kcccchs$xvccck*jf MM",
"M mn40%o.hs=xXo%0*cjf MM",
"M m:kcccchsyxvccck*jf MM",
"M mn40%o.hsyxXo%04cjf MM",
"M m:kcccchsyxvccck*jf MM",
"M mnccccchs0xvcccccjf MM",
"M bzy9>>>uw-ay>>>9ygf MM",
"M e,@1555+i&i+5551@,e MM",
"M 6788888822288888876 MM",
"M                     MM",
"MMMMMMMMMMMMMMMMMMMMMMMM",
"MMMMMMMMMMMMMMMMMMMMMMMM"
};
