/* XPM */
static char *book_paper_set[] = {
/* columns rows colors chars-per-pixel */
"24 18 27 1 ",
"  c black",
". c #2F2541",
"X c #494949",
"o c #675F6D",
"O c #604B83",
"+ c #66518D",
"@ c #7C7282",
"# c #8F70C4",
"$ c #9A7FCA",
"% c #9F7DDA",
"& c #A07ED9",
"* c #9B9B9B",
"= c #9B8EA2",
"- c #9E97A2",
"; c #B6B6B6",
": c #A98ADE",
"> c #AF9BD2",
", c #B49ED7",
"< c #C1B4D9",
"1 c #C9B9E2",
"2 c #D0BFED",
"3 c #C3C3C3",
"4 c gray86",
"5 c #E2D9E8",
"6 c #E4E4E4",
"7 c gray90",
"8 c None",
/* pixels */
"888888888888888888888888",
"888888888888888888888888",
"8          *888888  8888",
" %%%%%%%:21  8888 888888",
" %%%%%%%:2< 4 888 88==@8",
" %%%%%%%:2< 4% 88 88=5-o",
" %%%%%%%:2< 4% 88 88=55 ",
" %%%%%%%:2< 4% 88X88=55 ",
" %%%%%%%:2< 4% 8X;88=   ",
" %%%%%%%:2< 4   ;8888888",
" %%%%%%%:2< 4% 8X;88==@8",
" %%%%%%%:2< 4% 88X88=5-o",
" %######$,> 4% 88 88=55 ",
" %+........O4% 88 88=55 ",
"8 %O366676767& 88 88=   ",
"88 %%%%%%%%%%% 88 888888",
"888           8888  8888",
"888888888888888888888888"
};
