/* XPM */
static char *book[] = {
/* columns rows colors chars-per-pixel */
"24 20 43 1 ",
"  c black",
". c #313131",
"X c #323232",
"o c #373737",
"O c gray24",
"+ c gray25",
"@ c gray28",
"# c #515252",
"$ c gray39",
"% c #656666",
"& c #737474",
"* c gray48",
"= c #7E7F80",
"- c #5B58AE",
"; c #5D57B7",
": c #615CBC",
"> c #635FBE",
", c #7774BB",
"< c #6562C1",
"1 c #7973E9",
"2 c #847EF4",
"3 c gray57",
"4 c #9D9D9D",
"5 c #9E9FA0",
"6 c #A0A0A0",
"7 c gray66",
"8 c gray72",
"9 c gray73",
"0 c #BCBCBC",
"q c gray74",
"w c #8B88D9",
"e c #C0BDF6",
"r c gray77",
"t c #C6C7C8",
"y c #D7D8D9",
"u c gray85",
"i c #C3C0F9",
"p c #C4C1FA",
"a c #D5D4FC",
"s c #EAEAEA",
"d c gray95",
"f c gray100",
"g c None",
/* pixels */
"gggggggggggggggggggggggg",
"gggggggggggggggggggggggg",
"ggggggggggggggggg6@.gggg",
"ggg3       3      t gggg",
"ggg fdddddu ddddd4s gggg",
"gg afdddddu8fdddd$s- ggg",
"gg pfo9ooou8fo9oo7s< ggg",
"gg pfdddddu9fdddd*s< ggg",
"gg pfO0O++u8fO0+O7s< ggg",
"gg pfdddddy8fdddd*s< ggg",
"gg pfO0O++u8fO0+O7s< ggg",
"gg pfdddddu9fdddd*s< ggg",
"gg pf.0OOOy8f.0OO7s< ggg",
"gg pfdddddu9fddddds> ggg",
"gg pytrqttt9ttttttt> ggg",
"gg ew5=3*%#&5=54=*,; ggg",
"gg p222222212222222> ggg",
"gg                   ggg",
"gggggggggggggggggggggggg",
"gggggggggggggggggggggggg"
};
