/* XPM */
static char *book_blue_heart[] = {
/* columns rows colors chars-per-pixel */
"24 18 150 2 ",
"   c black",
".  c #1A0904",
"X  c #131518",
"o  c #2C1E16",
"O  c #2D211B",
"+  c #2D221B",
"@  c #24282E",
"#  c #322E2F",
"$  c #5D2410",
"%  c #542A15",
"&  c #6E4E30",
"*  c #6F4F32",
"=  c #6B5037",
"-  c #3E454F",
";  c #484F5B",
":  c #535353",
">  c #4C5460",
",  c #515966",
"<  c #58606F",
"1  c #5A6372",
"2  c #5B6473",
"3  c #676D76",
"4  c #7C7775",
"5  c #98411D",
"6  c #B8552A",
"7  c #C05023",
"8  c #C05024",
"9  c #FF5927",
"0  c #FD5B28",
"q  c #C7723F",
"w  c #FF602B",
"e  c #FF662E",
"r  c #FA692F",
"t  c #FE692E",
"y  c #F26334",
"u  c #FA6330",
"i  c #FD6230",
"p  c #FF6733",
"a  c #FF6832",
"s  c #FD6D30",
"d  c #FF6C30",
"f  c #FE6C31",
"g  c #FF6F30",
"h  c #FF6834",
"j  c #FF6E34",
"k  c #F76938",
"l  c #FB6A3D",
"z  c #FF7131",
"x  c #FF7634",
"c  c #FF713A",
"v  c #FF743D",
"b  c #FF7C3B",
"n  c #8B6540",
"m  c #8E6742",
"M  c #906943",
"N  c #8E745A",
"B  c #9C7C53",
"V  c #A07F55",
"C  c #D46C47",
"Z  c #FF7C46",
"A  c #FF7D4C",
"S  c #FF803F",
"D  c #B18253",
"F  c #BF8754",
"G  c #C18A57",
"H  c #D48759",
"J  c #D4955D",
"K  c #D5965E",
"L  c #D5975F",
"P  c #D49C5E",
"I  c #FF8349",
"U  c #FF8748",
"Y  c #FF8E49",
"T  c #FF9657",
"R  c #FF9C54",
"E  c #FFA05B",
"W  c #CA9D69",
"Q  c #D69860",
"!  c #D79960",
"~  c #D79961",
"^  c #D49D65",
"/  c #D89A61",
"(  c #D89B62",
")  c #D99C63",
"_  c #D1A26B",
"`  c #E1A66B",
"'  c #E4AA6F",
"]  c #E4AB6F",
"[  c #FFA562",
"{  c #FFAB60",
"}  c #FCAD64",
"|  c #FFAC6C",
" . c #FCBA6B",
".. c #E7B073",
"X. c #E4B076",
"o. c #E8B073",
"O. c #EBB376",
"+. c #E6B579",
"@. c #E8B77C",
"#. c #EFB87A",
"$. c #E8B87D",
"%. c #FFB371",
"&. c #FFB872",
"*. c #F0BB7D",
"=. c #F0BC7E",
"-. c #F2BE7F",
";. c #FFC170",
":. c #FFCA7A",
">. c #FFD77F",
",. c #687384",
"<. c #79869A",
"1. c #7E8698",
"2. c #909192",
"3. c #9A929E",
"4. c #808DA2",
"5. c #8A93A0",
"6. c #8492A8",
"7. c #969EAC",
"8. c #A79DA4",
"9. c #A8A1A8",
"0. c #B5A7A9",
"q. c #B3B7BD",
"w. c #BBBDBE",
"e. c #C7AE95",
"r. c #ECBB80",
"t. c #F2BE81",
"y. c #F4BF80",
"u. c #C0A9AA",
"i. c #F3C081",
"p. c #F3C283",
"a. c #F5C383",
"s. c #F2C284",
"d. c #F6C484",
"f. c #F7C585",
"g. c #F5C486",
"h. c #F8C585",
"j. c #F8C787",
"k. c #FAC988",
"l. c #FBCA89",
"z. c #FFD281",
"x. c #FFE589",
"c. c #EDC7A1",
"v. c #BDD1F0",
"b. c #C6C7C7",
"n. c #D7E3F6",
"m. c #E0E5EC",
"M. c #F0F2F4",
"N. c #F5F7F9",
"B. c #F6F7F9",
"V. c None",
/* pixels */
"V.V.V.                        V.V.V.V.V.V.V.V.V.",
"V.V.  n.n.v.v.v.v.v.v.v.v.2 N.  V.V.V.V.V.V.V.V.",
"V.V.  n.>   @ X 2 4.  - v.2 M.  V.V.V.V.V.V.V.V.",
"V.V.  n.  > @ @ X <.,.6.v.2 M.  V.V.V.V.V.V.V.V.",
"V.V.  n.n.v.v.v.v.v.v.v.v.2 M.  V.V.V.V.V.V.V.V.",
"V.V.  n.^ ! ! ' +.$.p.X.5.2 2.    V.V.    : V.V.",
"V.V.  n.! L ) ' p.d.=...1.; = P J     H C 5 : V.",
"V.V.  n.& & n ! O.=.M m 3.+ } z.z.%.&.| A l   V.",
"V.V.  n./ N e.D #.B c.! 0.+  .x.:.[ T Z k y   V.",
"V.V.  n.o.a.y.=.r.D ` L 8.o { ;.E I v h i i   V.",
"V.V.  n.g.g.s.l.g.W F L 9.# q R U c h j s 6 : V.",
"V.V.  n.l.=.@.l.g._ F P 0., % Y S a e x d . V.V.",
"V.V.  n.n.v.v.v.v.v.v.v.v.1 4 6 b d d z 7 : V.V.",
"V.V.  7.6.6.6.6.6.6.6.6.6.2 w.$ t d r w   V.V.V.",
"V.V.  3 3 2 2 2 2 2 2 2 2 2 b.    0 9   V.V.V.V.",
"V.V.  q.m.m.m.m.m.m.m.m.m.m.N.  V.    V.V.V.V.V.",
"V.V.V.                          V.V.V.V.V.V.V.V.",
"V.V.V.V.V.V.V.V.V.V.V.V.V.V.V.V.V.V.V.V.V.V.V.V."
};
