/* XPM */
static char *book_open_dates[] = {
/* columns rows colors chars-per-pixel */
"24 18 31 1 ",
"  c black",
". c #222222",
"X c gray17",
"o c gray24",
"O c gray28",
"+ c #555555",
"@ c gray34",
"# c #5D5969",
"$ c #606063",
"% c gray40",
"& c #656469",
"* c gray61",
"= c #9D9D9D",
"- c gray63",
"; c #A9A9A9",
": c #AAAAAA",
"> c #B2B2B2",
", c gray",
"< c #A89CD0",
"1 c #C1BECD",
"2 c gray80",
"3 c #C6C3D3",
"4 c #CAC6D8",
"5 c #D1D0D3",
"6 c #DADADA",
"7 c #DDDDDF",
"8 c #EFEEF2",
"9 c #F0EEF7",
"0 c #F8F7FB",
"q c gray100",
"w c None",
/* pixels */
"wwwwwwwwwwwwwwwwwwwwwwww",
"ww  :wwwwwwwwwwwwwwwwwww",
"ww q@      w         www",
"w 1q2qqqqq2 qqqqqqq2 www",
" <3q.oqqqq2%qqqqqXo2@ ww",
" <3q2qqqqq2%qqqqqqq2&< w",
" <3q*OOOO-2%6OOOOO22&< w",
" <3q,qqqqq2%qqqqqqq2&< w",
" <3q*OOOO*2%6OOOOO22&< w",
" <3q2qqqqq2%qqqqqqq2&< w",
" <3q*OOOO*2%6OOOOO22&< w",
" <3q2qqqqq2%qqqqqqq2&< w",
" <3q2qqqqq2%qqqqqqq2&< w",
" <3q2qqqqq2%qqqqqqq2&< w",
" <3qqqqqqq2%qqqqqqq2&< w",
" <3>>>>>>95$04>>>>>:&< w",
" <<<<<<<<<7#8<<<<<<<<< w",
"w         &&&          w"
};
