/* XPM */
static char *brain_ai_memory[] = {
/* columns rows colors chars-per-pixel */
"24 18 133 2 ",
"   c black",
".  c #46473C",
"X  c #48493E",
"o  c #5A5B4D",
"O  c #575D50",
"+  c #626354",
"@  c #6D7261",
"#  c #707260",
"$  c #717361",
"%  c #727264",
"&  c #737366",
"*  c #777966",
"=  c #757B69",
"-  c #7D7D6E",
";  c #747474",
":  c #797979",
">  c #7A806B",
",  c #7E806C",
"<  c #7F826E",
"1  c #7B8775",
"2  c #7A8776",
"3  c #7C8975",
"4  c #81836E",
"5  c #828773",
"6  c #858B76",
"7  c #888870",
"8  c #838679",
"9  c #8C8E78",
"0  c #898F7C",
"q  c #8A917A",
"w  c #8A917B",
"e  c #939379",
"r  c #93967E",
"t  c #708980",
"y  c #808D86",
"u  c #8C9882",
"i  c #889288",
"p  c #939A82",
"a  c #949B85",
"s  c #9B9F86",
"d  c #9A9E8A",
"f  c #929A92",
"g  c #8EA292",
"h  c #9DA692",
"j  c #9DAA97",
"k  c #94A89B",
"l  c #A1A388",
"z  c #A1A790",
"x  c #A2A790",
"c  c #A3A992",
"v  c #A9AB97",
"b  c #AAAC94",
"n  c #A9B39E",
"m  c #B8BB9B",
"M  c #BABC9B",
"N  c #B8BDA5",
"B  c #B2BAA9",
"V  c #B7BAAE",
"C  c #B1BCAD",
"Z  c #BEC2A7",
"A  c #BEC5A5",
"S  c #BDC7AC",
"D  c #A7C9B8",
"F  c #B0C0B5",
"G  c #B7CDB5",
"H  c #B8CEB7",
"J  c #B8C7B9",
"K  c #B8D0BA",
"L  c #BFD3BF",
"P  c #C1C7A7",
"I  c #C2C7A7",
"U  c #C4C8A7",
"Y  c #C8CBA7",
"T  c #C2C7A8",
"R  c #C3C8A8",
"E  c #C3CBAD",
"W  c #C8C9AA",
"Q  c #CECEAB",
"!  c #C8CBAC",
"~  c #C9CCAD",
"^  c #D2D2AF",
"/  c #C0D0B7",
"(  c #C5D2B7",
")  c #CFD1B3",
"_  c #CBD3B7",
"`  c #C4D3BE",
"'  c #C9D2BB",
"]  c #C8D5BA",
"[  c #CED7B9",
"{  c #CCD6BF",
"}  c #D6D7B1",
"|  c #D0D3BA",
" . c #D4D8B8",
".. c #AED0C3",
"X. c #B6D2C0",
"o. c gray76",
"O. c #CED7C1",
"+. c #C8D7C4",
"@. c #C5D8C1",
"#. c #C4D9C4",
"$. c #CDDECC",
"%. c #DADCC0",
"&. c #DADEC6",
"*. c #D4D8C9",
"=. c #D0DDCA",
"-. c #D6DBCD",
";. c #D0DECD",
":. c #D5DECC",
">. c #D6DFD1",
",. c #CEE0CE",
"<. c #CEE0D1",
"1. c #D0E0D0",
"2. c #D6E6D3",
"3. c #DEE4D5",
"4. c #D1E4D8",
"5. c #DDE6D9",
"6. c #DFE6DA",
"7. c #DBE7DC",
"8. c #DBE8DC",
"9. c #DDE8DD",
"0. c #E2E3CF",
"q. c #E4E5CE",
"w. c #E2E8DB",
"e. c #E1E9DF",
"r. c #E9EBDD",
"t. c #E7EBE1",
"y. c #E1EDE3",
"u. c #E3EDE4",
"i. c #E2EEE4",
"p. c #E5EFE6",
"a. c #E8F1E9",
"s. c #EAF2EC",
"d. c None",
/* pixels */
"d.d.d.d.d.  d.d.d.d.d.d.d.d.d.d.d.d.d.d.d.d.d.d.",
"d.d.d.d.d.d.d.d.d.d.d.          d.d.d.d.d.d.d.d.",
"d.d.  d.d.d.d.d.      1.@.] [  .    d.d.d.d.d.d.",
"d.d.d.  d.d.d.  y.s.a.i j ( _ &.q.}   d.d.d.d.d.",
"d.d.d.d.d.d.  9 7.p.9.$.=.O.z r.%.^ 7     d.d.d.",
"d.d.d.d.d.  2.,.9 J $.6.w.3.c 4 ) 0.- Q e   d.d.",
"d.    d.d.  p.7.#.L +.6.t.*.N < b & M W l   d.d.",
"d.d.d.d.d.  i.<.K G ` 9 -.Z o W # M I # V >   d.",
"d.d.d.d.d.  4.X.g G / ' 9 X R U s A # | 0 =   d.",
"d.d.  d.d.  ..D k f >.{ E I ! ~ I p # B 3 1   d.",
"d.  d.d.d.d.  t y 9 e.:.S * d v q a u < 1   d.d.",
"d.d.d.d.d.d.d.    F C n h r o z q O # 9 .   d.d.",
"d.d.d.o.  d.d.d.d.  6 6 @     8 5     . 9   d.d.",
"d.d.d.o.d.d.d.d.d.d.    ; d.d.    d.d.+ 9   d.d.",
"d.d.d.d.d.d.d.d.d.d.d.d.d.d.d.d.d.d.: 9 + : d.d.",
"d.d.d.d.d.d.d.d.d.d.d.d.d.d.d.d.d.d.  9   d.d.d.",
"d.d.d.d.d.d.d.d.d.d.d.d.d.d.d.d.d.d.      d.d.d.",
"d.d.d.d.d.d.d.d.d.d.d.d.d.d.d.d.d.d.d.d.d.d.d.d."
};
