/* XPM */
static char *cabinet_package[] = {
/* columns rows colors chars-per-pixel */
"24 18 48 1 ",
"  c black",
". c #091A25",
"X c #091B25",
"o c #0D2533",
"O c #3C352A",
"+ c #4B4135",
"@ c #13354A",
"# c #163D54",
"$ c #1C4761",
"% c #1D506E",
"& c #1E5575",
"* c #204961",
"= c #5E5B55",
"- c #6D5F4D",
"; c #796A56",
": c #A08358",
"> c #C8A46E",
", c #226085",
"< c #25678F",
"1 c #266B94",
"2 c #276C95",
"3 c #357398",
"4 c #2B78A6",
"5 c #3479A3",
"6 c #3087BA",
"7 c #4892BC",
"8 c #3691C7",
"9 c #3A91C5",
"0 c #3595CE",
"q c #449BCE",
"w c #449CCE",
"e c #519CC7",
"r c #4AA0D3",
"t c #5CAAD7",
"y c #5DAAD8",
"u c #72B5DD",
"i c #9B9B9B",
"p c #BAAF9E",
"a c #C1A885",
"s c #D1B284",
"d c #D9BF9A",
"f c #8EC4E4",
"g c #9DCBE7",
"h c #BBDBEE",
"j c #DDD7CF",
"k c #EEEBE7",
"l c #F7F5F3",
"z c None",
/* pixels */
"zzzzzzzzzzzzzzzzzzzzzzzz",
"zzzzzz        zzzzzzzzzz",
"zzzzz ffffffff zzzzzzzzz",
"zzzz ffffffff4 zzzzzzzzz",
"zzz ffffffff44 zzzzzzzzz",
"zzz hgutrrr444 zzzzzzzzz",
"zzz 00##<00444 zzzzzzzzz",
"zzz 0000000444 zzzzzzzzz",
"zzz 1111111444 zzzzzzzzz",
"zzz =lkjjp7444       zzz",
"zz 9qqqqqe3442 ddddda zz",
"zz y8*$5r1144 dO+--a: zz",
"zz 0066001X4 dO;;;a:: zz",
"zz ooooooX14 sssss::: zz",
"zzz hgutrrr1 >>>>>::: zz",
"zzz 00#@%00, >>>>>:: zzz",
"zzz 0000000& >>>>>: zzzz",
"zzzz        i      zzzzz"
};
