/* XPM */
static char *cabinet_drawer[] = {
/* columns rows colors chars-per-pixel */
"24 18 74 1 ",
"  c black",
". c gray24",
"X c #1E4354",
"o c #3B4143",
"O c #0C4B7C",
"+ c #16507C",
"@ c #1B527C",
"# c #4D6068",
"$ c #646464",
"% c #707577",
"& c #326E8A",
"* c #1972AF",
"= c #0667B2",
"- c #2276AC",
"; c #3372A3",
": c #2575B2",
"> c #54798A",
", c #667E89",
"< c #0272C9",
"1 c #0D77C9",
"2 c #1E7FC9",
"3 c #3E8AAC",
"4 c #6F8A95",
"5 c #7F9EAB",
"6 c #2983C9",
"7 c #3394CE",
"8 c #3595CE",
"9 c #2893D9",
"0 c #2993D9",
"q c #2C95D9",
"w c #3196D9",
"e c #3397D9",
"r c #3498D9",
"t c #3698D9",
"y c #3699D9",
"u c #3D9BD9",
"i c #3D9CD9",
"p c #3E9DDC",
"a c #3EABFF",
"s c #419BD4",
"d c #409DD9",
"f c #429ED9",
"g c #409FDC",
"h c #659FC5",
"j c #45A0DA",
"k c #49A2DA",
"l c #4BA3DA",
"z c #78ADC5",
"x c #40A1E4",
"c c #46A3E4",
"v c #78BCEA",
"b c #78BDEC",
"n c #74C3FF",
"m c #7AC5FF",
"M c #7DC6FF",
"N c #949A9D",
"B c #98AFB9",
"V c #A1C6D7",
"C c #AECEDC",
"Z c #A1D6FF",
"A c #A3D7FF",
"S c gray76",
"D c #C8D2D6",
"F c gray83",
"G c #C5DCE6",
"H c #C6DDE7",
"J c #C9DEE8",
"K c #CFE2EB",
"L c #D7E6EE",
"P c #D7E7EE",
"I c #E3EEF3",
"U c #E7F1F5",
"Y c gray100",
"T c None",
/* pixels */
"TTTTTTTTTTTTTTTTTTTTTTTT",
"TTTTTTTTTTTTTTTTTTTTTTTT",
"TTTTTTTTTTT TTTTTTTTTTTT",
"TTTTTTTTTT Y  TTTTTTTTTT",
"TTTTTTTT  YYYY     TTTTT",
"TTTTTTT BFYYYYYY>C TTTTT",
"TTTTTT C4555555,Hz TTTTT",
"TTTTT L%UUUUUUNKz3 .TTTT",
"TTTT P#4444444Dz33S.TTTT",
"TTT IPLHHHCCCCz33V$.TTTT",
"TTT nkcxutewq933VX TTTTT",
"TTT MlZ;dtAa893JX& TTTTT",
"TTT mj:@+O=9873o& TTTTTT",
"TTT bsg621<7773& TTTTTTT",
"TTT vgfit99777& TTTTTTTT",
"TTT h--------* TTTTTTTTT",
"TTTT          TTTTTTTTTT",
"TTTTTTTTTTTTTTTTTTTTTTTT"
};
