/* XPM */
static char *cards_media[] = {
/* columns rows colors chars-per-pixel */
"24 18 28 1 ",
"  c black",
". c #3A392B",
"X c #686644",
"o c #4E5562",
"O c #5D6775",
"+ c #666D77",
"@ c #DB6956",
"# c #FF6845",
"$ c #FF7555",
"% c #F27259",
"& c #CC776E",
"* c #E97867",
"= c #ABA67C",
"- c #FF876C",
"; c #006EC2",
": c #B68B90",
"> c #C18E8F",
", c #DF8C85",
"< c #FFA48F",
"1 c #D7A7AC",
"2 c #D1A8B1",
"3 c #F5EEB2",
"4 c #97A7C0",
"5 c #BDD1F0",
"6 c #FFFED7",
"7 c #DEE8F8",
"8 c gray100",
"9 c None",
/* pixels */
"9999999999999           ",
"            9 777778888 ",
" 6666688888 9 755558888 ",
" 6333388888 9 75551#<88 ",
" 63.3XO+++++ oooo,*$#88 ",
" 63=3X7777788888o@,-#88 ",
" 63=3X7555588888o:2-#88 ",
" 63=3X755558;;;8o:2-<88 ",
" 63==X7555  ;8;8o:,#888 ",
" 63=3X755 58;;;8o&%8888 ",
" 63=3X75 5588888o@18888 ",
" 63=3X75 5588888o>58888 ",
" 6333X7;;;588888o458888 ",
" 6333X7;5;588888        ",
"     X7;;;588888 9999999",
"99999 7555588888 9999999",
"99999 7555588888 9999999",
"99999            9999999"
};
