/* XPM */
static char * cdplayer_xpm[] = {
"24 24 329 2",
"  	c None",
". 	c #46464D",
"+ 	c #909098",
"@ 	c #BFBFC4",
"# 	c #C6C6CA",
"$ 	c #C0C0C4",
"% 	c #B5B5B9",
"& 	c #A6A6AB",
"* 	c #81818B",
"= 	c #4B4B5B",
"- 	c #252531",
"; 	c #9A9AA2",
"> 	c #C2C2C6",
", 	c #CACACC",
"' 	c #D1D1D2",
") 	c #CFCFD0",
"! 	c #C4C4C5",
"~ 	c #B5B5B5",
"{ 	c #A3A3A4",
"] 	c #909092",
"^ 	c #7D7D80",
"/ 	c #464650",
"( 	c #2F2F3F",
"_ 	c #1E1E29",
": 	c #3A3A41",
"< 	c #A5A5AD",
"[ 	c #B3B3B6",
"} 	c #BFBFC0",
"| 	c #CBCACA",
"1 	c #D6D4D2",
"2 	c #D2CFCD",
"3 	c #C9C5C3",
"4 	c #BEBBBA",
"5 	c #B1B0B0",
"6 	c #9D9D9D",
"7 	c #7B7B7B",
"8 	c #5C5C5D",
"9 	c #17171B",
"0 	c #23232E",
"a 	c #262634",
"b 	c #91919A",
"c 	c #9C9C9F",
"d 	c #A7A8A8",
"e 	c #B6B9B0",
"f 	c #CFCDC0",
"g 	c #E2DAD0",
"h 	c #E7DED5",
"i 	c #E6DDD7",
"j 	c #E2DDD9",
"k 	c #E3E1E0",
"l 	c #E2E2E1",
"m 	c #D0D0D0",
"n 	c #919191",
"o 	c #222222",
"p 	c #060608",
"q 	c #1B1B25",
"r 	c #21212D",
"s 	c #676774",
"t 	c #838387",
"u 	c #8B8C8D",
"v 	c #9FAD9F",
"w 	c #C4D3B8",
"x 	c #E3E5C9",
"y 	c #EFE4D0",
"z 	c #ECE0D3",
"A 	c #E9DED6",
"B 	c #E7E1DD",
"C 	c #EEECEA",
"D 	c #F5F5F5",
"E 	c #F7F7F7",
"F 	c #ECECEC",
"G 	c #A8A8A8",
"H 	c #131313",
"I 	c #050507",
"J 	c #1C1C26",
"K 	c #2C2C3A",
"L 	c #64646B",
"M 	c #6C6C6E",
"N 	c #808E97",
"O 	c #AAC8C1",
"P 	c #CBECCA",
"Q 	c #DEEEC6",
"R 	c #ECE4C7",
"S 	c #ECDDCA",
"T 	c #E7DACF",
"U 	c #E6E0DB",
"V 	c #EFEEEC",
"W 	c #F6F6F6",
"X 	c #F1F1F1",
"Y 	c #AAAAAA",
"Z 	c #080808",
"` 	c #060609",
" .	c #1E1E28",
"..	c #464649",
"+.	c #5E636B",
"@.	c #8B9FBC",
"#.	c #ABCCE7",
"$.	c #BBE2DB",
"%.	c #CDEFC8",
"&.	c #E0E7C0",
"*.	c #DDD1BF",
"=.	c #D3CCC7",
"-.	c #E5E4E4",
";.	c #F0F0F0",
">.	c #686868",
",.	c #000000",
"'.	c #0D0D12",
").	c #0F0F15",
"!.	c #20202B",
"~.	c #1F1F2B",
"{.	c #212123",
"].	c #6B707F",
"^.	c #9EADCA",
"/.	c #A8BFE4",
"(.	c #ACCCE9",
"_.	c #B7DCD7",
":.	c #BCCAB4",
"<.	c #98948E",
"[.	c #7C7B7B",
"}.	c #787877",
"|.	c #939394",
"1.	c #D6D6D6",
"2.	c #F3F3F3",
"3.	c #F4F4F4",
"4.	c #CBCBCB",
"5.	c #0B0B0B",
"6.	c #040405",
"7.	c #111118",
"8.	c #2B2B3A",
"9.	c #13131A",
"0.	c #19191D",
"a.	c #7E8195",
"b.	c #A8AFC8",
"c.	c #ACB6D2",
"d.	c #ADBDDB",
"e.	c #A7B3C7",
"f.	c #6F7374",
"g.	c #616161",
"h.	c #585858",
"i.	c #505050",
"j.	c #494949",
"k.	c #5E5E5E",
"l.	c #D2D2D2",
"m.	c #EFEFEF",
"n.	c #EDEDED",
"o.	c #E6E6E6",
"p.	c #D7D7D7",
"q.	c #3B3B3B",
"r.	c #0C0C0C",
"s.	c #0C0C10",
"t.	c #2E2E3D",
"u.	c #0D0D11",
"v.	c #2D2D30",
"w.	c #94949F",
"x.	c #B1B1C0",
"y.	c #B5B6C7",
"z.	c #B4B7C6",
"A.	c #8D8B8C",
"B.	c #4C4C4C",
"C.	c #424242",
"D.	c #343434",
"E.	c #383838",
"F.	c #8A8A8A",
"G.	c #D9D9D9",
"H.	c #DDDDDD",
"I.	c #D5D5D5",
"J.	c #CACACA",
"K.	c #5F5F5F",
"L.	c #151515",
"M.	c #0C0C0E",
"N.	c #2C2C3B",
"O.	c #0A0A0E",
"P.	c #3E3D3D",
"Q.	c #AFAAAB",
"R.	c #C4C1C2",
"S.	c #C9C5C9",
"T.	c #C3C1C4",
"U.	c #353535",
"V.	c #606060",
"W.	c #BDBCBB",
"X.	c #C9C8C7",
"Y.	c #C3C2C1",
"Z.	c #BCBBBA",
"`.	c #696867",
" +	c #1C1C1C",
".+	c #131314",
"++	c #2A2A38",
"@+	c #0A0A0D",
"#+	c #414041",
"$+	c #C3C0BF",
"%+	c #DCDAD8",
"&+	c #E2E0DF",
"*+	c #DDDBDA",
"=+	c #909090",
"-+	c #5F5D5D",
";+	c #AEA8A7",
">+	c #B9B4B1",
",+	c #B6B1AE",
"'+	c #B1ADAA",
")+	c #5E5C5A",
"!+	c #262626",
"~+	c #1C1C1D",
"{+	c #262633",
"]+	c #0B0B0F",
"^+	c #323232",
"/+	c #CECECD",
"(+	c #ECEBEA",
"_+	c #F1F1F0",
":+	c #484848",
"<+	c #373737",
"[+	c #303030",
"}+	c #343536",
"|+	c #737782",
"1+	c #A2A2B2",
"2+	c #A9A5AD",
"3+	c #A9A3A6",
"4+	c #A8A1A2",
"5+	c #444241",
"6+	c #363636",
"7+	c #222223",
"8+	c #101010",
"9+	c #C4C4C4",
"0+	c #F2F2F2",
"a+	c #F4F4F3",
"b+	c #ACACAC",
"c+	c #4B4B4C",
"d+	c #3D3C39",
"e+	c #677468",
"f+	c #81A1B9",
"g+	c #8DA6D9",
"h+	c #929EC9",
"i+	c #989BB7",
"j+	c #9795A6",
"k+	c #232323",
"l+	c #4D4D4D",
"m+	c #181820",
"n+	c #010102",
"o+	c #7E7E7E",
"p+	c #B8B8B8",
"q+	c #919190",
"r+	c #888583",
"s+	c #9C948A",
"t+	c #ACBB9D",
"u+	c #9CD2B5",
"v+	c #88BAD7",
"w+	c #80A4E2",
"x+	c #829AD6",
"y+	c #5D6582",
"z+	c #2D2D2D",
"A+	c #666666",
"B+	c #1A1A1A",
"C+	c #1A1A23",
"D+	c #181818",
"E+	c #EEEEEE",
"F+	c #DBDBDB",
"G+	c #C4C1BF",
"H+	c #C3BCB5",
"I+	c #C8BFB1",
"J+	c #C9C7B2",
"K+	c #B0D99A",
"L+	c #96D4B3",
"M+	c #83BAD3",
"N+	c #7299D1",
"O+	c #262931",
"P+	c #636363",
"Q+	c #101015",
"R+	c #050506",
"S+	c #3E3E3E",
"T+	c #E3E3E3",
"U+	c #EAEAEA",
"V+	c #CFCFCF",
"W+	c #C6C5C5",
"X+	c #BEBAB6",
"Y+	c #C2B9B1",
"Z+	c #C5B8A9",
"`+	c #C6BEAB",
" @	c #BFCD8E",
".@	c #A7DC98",
"+@	c #8ECCAA",
"@@	c #344247",
"#@	c #4A4A4A",
"$@	c #878787",
"%@	c #0C0C11",
"&@	c #09090B",
"*@	c #121212",
"=@	c #3C3C3C",
"-@	c #C7C7C8",
";@	c #E0E0E0",
">@	c #C7C6C5",
",@	c #C0BCB9",
"'@	c #C0B5AD",
")@	c #C3B7AB",
"!@	c #CDC3B2",
"~@	c #CBC188",
"{@	c #A0B67C",
"]@	c #384536",
"^@	c #929292",
"/@	c #09090C",
"(@	c #0E0E0F",
"_@	c #202020",
":@	c #646464",
"<@	c #ABAAAA",
"[@	c #BFBDBB",
"}@	c #C1BAB5",
"|@	c #C4B4AA",
"1@	c #C4B2A4",
"2@	c #AA9C8D",
"3@	c #645A46",
"4@	c #2F2F2D",
"5@	c #9E9E9E",
"6@	c #6F6F6F",
"7@	c #040406",
"8@	c #3A3A3A",
"9@	c #2C2C2C",
"0@	c #2E2E2E",
"a@	c #393838",
"b@	c #3B3837",
"c@	c #323130",
"d@	c #5B5B5B",
"e@	c #8F8F8F",
"f@	c #3D3D3D",
"g@	c #626262",
"h@	c #757575",
"i@	c #7D7D7D",
"j@	c #8B8B8B",
"k@	c #A5A5A5",
"l@	c #313131",
"m@	c #454545",
"n@	c #4E4E4E",
"                                                ",
"              . + @ # $ % & * = -               ",
"            ; > , ' ) ! ~ { ] ^ / ( _           ",
"        : < [ } | 1 2 3 4 5 6 7 8 9 0 a         ",
"        b c d e f g h i j k l m n o p q r       ",
"      s t u v w x y z A B C D E F G H I J       ",
"    K L M N O P Q R S T U V E E W X Y Z `  .    ",
"    ( ..+.@.#.$.%.&.*.=.1 -.D E W D ;.>.,.'.).  ",
"  !.~.{.].^./.(._.:.<.[.}.|.1.2.W 3.;.4.5.6.7.  ",
"  8.9.0.a.b.c.d.e.f.g.h.i.j.k.l.m.n.o.p.q.r.s.  ",
"  t.u.v.w.x.y.z.A.B.C.    D.E.F.G.H.I.J.K.L.M.  ",
"  N.O.P.Q.R.S.T.}.q.        U.V.W.X.Y.Z.`. +.+  ",
"  ++@+#+$+%+&+*+=+q.        D.-+;+>+,+'+)+!+~+  ",
"  {+]+^+/+(+_+X J.:+<+    [+}+|+1+2+3+4+5+6+7+  ",
"  J ).8+9+0+a+3.F b+c+6+D.d+e+f+g+h+i+j+k+l+k+  ",
"    m+n+o+m.2.2.3.o.p+q+r+s+t+u+v+w+x+y+z+A+B+  ",
"    C+I D+m 0+2.E+F+| G+H+I+J+K+L+M+N+O+k.P+    ",
"      Q+R+S+T+0+U+V+W+X+Y+Z+`+ @.@+@@@#@$@[+    ",
"      %@&@*@=@-@;@m >@,@'@)@!@~@{@]@j.^@k.      ",
"        /@(@k+_@:@<@[@}@|@1@2@3@4@K.5@6@        ",
"          7@H 8@8@9@0@a@b@c@E.d@e@G V.          ",
"              r.f@g@6@h@i@j@6 k@i@9@            ",
"                  L.l@m@n@n@q.                  ",
"                                                "};
