/* XPM */
static char *chalkboard_binary_computer[] = {
/* columns rows colors chars-per-pixel */
"24 18 45 1 ",
"  c black",
". c gray4",
"X c #181818",
"o c #222222",
"O c #2F2F2F",
"+ c #362E26",
"@ c #323232",
"# c #453E37",
"$ c #434343",
"% c #444444",
"& c #564E45",
"* c #495047",
"= c #495A47",
"- c #666360",
"; c #6D6D6D",
": c gray43",
"> c #697367",
", c gray48",
"< c #7F7C78",
"1 c #81705D",
"2 c #6F8469",
"3 c #6D876A",
"4 c #799676",
"5 c #83807C",
"6 c #888582",
"7 c #8B8B8B",
"8 c #938E86",
"9 c #988F85",
"0 c #909090",
"q c #9E9A92",
"w c #9F9B96",
"e c #9E9B97",
"r c #9D9D9D",
"t c #97A593",
"y c #B9A185",
"u c #AAA6A2",
"i c #B3AFA9",
"p c #B8B1A8",
"a c #BCCABA",
"s c #C7C2BC",
"d c #C6C2BD",
"f c gray78",
"g c #D4D0CB",
"h c gray100",
"j c None",
/* pixels */
"jjjjjjjjjjjjjjjjjjjjjjjj",
"&&&&&&&&&&&&&&&#jjjjjjjj",
"&yyyyyyyyyyyyyy+jjjjjjjj",
"&y222222222222y+jjjjjjjj",
"&y244444444444y+jjjjjjjj",
"&y24h4aha4aha4y+jjjjjjjj",
"&y24h4h=h4h=h4......jjjj",
"&y24h4aha4aha.pppppp.jjj",
"&y24444444444.p70,$d.jjj",
"&y24444444244.p0frOd.jjj",
"#9t***tttt>tt.p:r:Xd.jjj",
"&yy111yyyy yy.p%@o.d.jjj",
"#+++++++++ ++.qddddw.jjj",
"jjjjjjjjjj jj ...6<<<-.j",
"jjjjjjjjjjj  jj.g<s5idw.",
"jjjjjjjjjjjjjjj.u888888.",
"jjjjjjjjjjjjjjj.........",
"jjjjjjjjjjjjjjjjjjjjjjjj"
};
