/* XPM */
static char *chalkboard_numbers[] = {
/* columns rows colors chars-per-pixel */
"24 18 28 1 ",
"  c black",
". c #1E1A15",
"X c #362E26",
"o c #3C342B",
"O c #453E37",
"+ c #564E45",
"@ c #495047",
"# c #786856",
"$ c #796D60",
"% c #81705D",
"& c #6F8469",
"* c #799676",
"= c #94816A",
"- c #98846D",
"; c #A59077",
": c #988F85",
"> c #97A593",
", c #9DB29B",
"< c #B9A185",
"1 c #CFBEAB",
"2 c #AFC1AD",
"3 c #BBC9B9",
"4 c #DDD1C4",
"5 c #D1DBD0",
"6 c #D3DDD2",
"7 c #E7DFD6",
"8 c #DCE4DC",
"9 c None",
/* pixels */
"999999999999999999999999",
"999999999999999999999999",
"99+++++++++++++++++O9999",
"99+<<<<<<<<<<<<<<<<X9999",
"99+<&&&&&&&&&&&&&&<X9999",
"99+<&*************<X9999",
"99+<&*5**66**66***<X9999",
"99+<&*5****6***3**<X9XX9",
"99+<&*5***,2**8***;X.7X9",
"99+<&*5**,2****3**-.4 99",
"99+<&*5*,666*88***o4 999",
"99+<&************#1 9999",
"99+<&***********#1 X9999",
"99O:>@@@>>>>>>>o1 $X9999",
"99+<<%%%<<<<<-.1 =-X9999",
"99OXXXXXXXXXXX1 XXXX9999",
"9999999999999X 999999999",
"999999999999999999999999"
};
