/* XPM */
static char *chameleon[] = {
/* columns rows colors chars-per-pixel */
"24 18 53 1 ",
"  c black",
". c #0F1810",
"X c gray12",
"o c #152317",
"O c #1E3221",
"+ c #2A3F2D",
"@ c gray19",
"# c #313B32",
"$ c #2D4B32",
"% c #3C493E",
"& c #335338",
"* c #3B6442",
"= c #3D6643",
"- c #484848",
"; c #4A544B",
": c #426E48",
"> c #46754D",
", c #4C6050",
"< c #58725C",
"1 c gray38",
"2 c gray42",
"3 c #677C6A",
"4 c #717171",
"5 c #767676",
"6 c #538B5C",
"7 c #558A5D",
"8 c #558A5E",
"9 c #579260",
"0 c #659B6D",
"q c #7C8A7E",
"w c #689D70",
"e c #6B9F73",
"r c #6DA075",
"t c #6FA277",
"y c #7B9880",
"u c #79A880",
"i c #7EAB85",
"p c gray57",
"a c #989898",
"s c #83AF8A",
"d c #91AE95",
"f c #9BAD9E",
"g c #8AB390",
"h c #92B897",
"j c #94B999",
"k c #9ABEA0",
"l c #A1C2A6",
"z c #A7C6AC",
"x c #A9C7AD",
"c c #B9D1BC",
"v c #E6EEE7",
"b c gray100",
"n c None",
/* pixels */
"nnnnnnnnnnnnnnnnnnnnnnnn",
"nnnnnnnnnnnnnnn5,4+nnnnn",
"nnnnnnnnnnnnnn fyqk+annn",
"nnnnnnnnnnnnn k9  9k ann",
"nnnnnnnnnnnnn t nn 9e nn",
"nnnnnnnnnnnnn k9 nn#e&1n",
"nnnnnnnnnnnnnn   nn l7 n",
"nnnnnnnn      nnnnn%d9 n",
"nnn     v9gc99 1nnn l9 n",
"nn u997izh9ec9u=1p 3s9 n",
"n jbobo;9c90c999  ls9 nn",
"n 9999999c90c9 9<j9>  nn",
"n 99996O99999 x99>> -nnn",
"n :9.9*O99    u9$@2nnnnn",
"nn   X  u9 nn u9 nnnnnnn",
"nnn xu xu9 n 999 nnnnnnn",
"nnn       nn     nnnnnnn",
"nnnnnnnnnnnnnnnnnnnnnnnn"
};
