/* XPM */
static char *chart_sinewave[] = {
/* columns rows colors chars-per-pixel */
"24 18 11 1 ",
"  c black",
". c #21567C",
"X c #A30000",
"o c red",
"O c #296C9B",
"+ c #3387C2",
"@ c gray57",
"# c #AEAEAE",
"$ c gray76",
"% c gray95",
"& c None",
/* pixels */
"&&&&&&&&&&&&&&&&&&&&&&&&",
"&&&&&&&&&&&&&&&&&&&&&&&&",
"&&                   &&&",
"&& %%%%%%%%%%%%%%%%% #&&",
"&& %@@@@@@@@@.@@@@@% #&&",
"&& %@$$$$$$$$O$$$$$% #&&",
"&& %@$$ooo$$$+$$$$$% #&&",
"&& %@$o$$$o$$+$$$$o% #&&",
"&& %@o$$$$$o$+$$$o$% #&&",
"&& %@$$$$$$$o+$$o$$% #&&",
"&& %@$$$$$$$$Xoo$$$% #&&",
"&& %@$$$$$$$$O$$$$$% #&&",
"&& %@$$$$$$$$.$$$$$% #&&",
"&& %%%%%%%%%%%%%%%%% #&&",
"&&                   #&&",
"&&&###################&&",
"&&&&&&&&&&&&&&&&&&&&&&&&",
"&&&&&&&&&&&&&&&&&&&&&&&&"
};
