/* XPM */
static char *chest_open[] = {
/* columns rows colors chars-per-pixel */
"24 18 58 1 ",
"  c black",
". c #191711",
"X c #1D1B16",
"o c #2F2B23",
"O c #2D2A24",
"+ c #38342A",
"@ c #3D3628",
"# c #423B2C",
"$ c #584209",
"% c gray28",
"& c #494949",
"* c #4F4D4A",
"= c #6A6047",
"- c #73694D",
"; c #6C6351",
": c #6C6556",
"> c #726956",
", c #7B7052",
"< c #9B7717",
"1 c #9C7818",
"2 c #867A5A",
"3 c #847A64",
"4 c #877C66",
"5 c #887E67",
"6 c #827C6B",
"7 c #D5A521",
"8 c #DFAC22",
"9 c #FFC11A",
"0 c #9A8C67",
"q c #8B8572",
"w c #9B8F75",
"e c #A4987A",
"r c #A89A79",
"t c #B2A379",
"y c #B1A27C",
"u c #C1A967",
"i c #D8BA69",
"p c #FFDA76",
"a c #A7A08D",
"s c #BCAF91",
"d c #B4AD9B",
"f c #C0AF81",
"g c #CBBD97",
"h c #CDBE99",
"j c #CFC3A0",
"k c #D2C4A3",
"l c #D2C5A3",
"z c #D3C7A5",
"x c #D7CAAC",
"c c #D9CFB3",
"v c #DBD0B4",
"b c #FFE9AD",
"n c #E1D8C2",
"m c #E4DCC8",
"M c #FFF2CE",
"N c #E9E8E5",
"B c #F2F1ED",
"V c None",
/* pixels */
"VVVVVVVVVVV    VVVV VVVV",
"VVVVVVVVV  hhhf  VVVV VV",
"VVVVVVVV vkhff0, VVVVVVV",
"VVVVVVV nxhff0a VVVVVV V",
"VVVVVV nxkff0N VVVVVVVVV",
"VVVVV nxsry0,%9   &VVV V",
"VVVV nmwwww,%pp9<g VVVVV",
"VVVV dwww4O%M9p<g+ VVVVV",
"VVV ee5;otbppi1gXw VVVVV",
"VVV q.$7999uu8g*Nw VVVVV",
"VVV cjjjjjjjjz+B>w VVVVV",
"VVV 6--------+w:3w VVVVV",
"VVV cf=2f2=ffww3ww VVVVV",
"VVV cf@2f2@ffwwww VVVVVV",
"VVV cff###fffwww VVVVVVV",
"VVV cffffffffww VVVVVVVV",
"VVV cffffffffw VVVVVVVVV",
"VVV&          VVVVVVVVVV"
};
