/* XPM */
static char *clock[] = {
/* columns rows colors chars-per-pixel */
"30 30 202 2 ",
"   c #12203A",
".  c #132441",
"X  c #1B2E4F",
"o  c #052356",
"O  c #052458",
"+  c #0A295D",
"@  c #182D50",
"#  c #1D355B",
"$  c #22395D",
"%  c #0C2D62",
"&  c #14366D",
"*  c #1F3D6D",
"=  c #0E3574",
"-  c #153972",
";  c #103C7E",
":  c #213B64",
">  c #1C407A",
",  c #2D4166",
"<  c #24416F",
"1  c #2F476C",
"2  c #224173",
"3  c #304A72",
"4  c #334F78",
"5  c #FC9279",
"6  c #0F3B80",
"7  c #113D83",
"8  c #194487",
"9  c #12438C",
"0  c #1E4C91",
"q  c #204B88",
"w  c #29518B",
"e  c #335586",
"r  c #3D5B87",
"t  c #395988",
"y  c #2C5A9C",
"u  c #345D98",
"i  c #3F6395",
"p  c #2256A5",
"a  c #235DAB",
"s  c #2E60A3",
"d  c #3165AF",
"f  c #3C6CAE",
"g  c #2D64B2",
"h  c #3166B2",
"j  c #376AB5",
"k  c #3A6BB2",
"l  c #3D70B5",
"z  c #3E71B9",
"x  c #4A648C",
"c  c #5C779E",
"v  c #4F78AB",
"b  c #4274B3",
"n  c #607AA1",
"m  c #337ACE",
"M  c #5D85B4",
"N  c #5181BD",
"B  c #6F8BB2",
"V  c #6B91BD",
"C  c #7090B8",
"Z  c #3F8ADD",
"A  c #3394F7",
"S  c #4785D2",
"D  c #4C82D6",
"F  c #578ED4",
"G  c #4690DE",
"H  c #5E94D3",
"J  c #5A96DB",
"K  c #6182CD",
"L  c #7584C4",
"P  c #6E97C6",
"I  c #6699D7",
"U  c #6D9DD5",
"Y  c #649CDB",
"T  c #6C9EDD",
"R  c #6CA1D5",
"E  c #75A4D7",
"W  c #78A2D9",
"Q  c #7DAEDC",
"!  c #7DB1DF",
"~  c #4793E2",
"^  c #4C94E2",
"/  c #4E98E5",
"(  c #549DE6",
")  c #5F9DE0",
"_  c #5CA2E6",
"`  c #5DA3E8",
"'  c #66A6E3",
"]  c #6EA7E2",
"[  c #6CAAE6",
"{  c #73ABE3",
"}  c #7CAEE4",
"|  c #72AEE8",
" . c #77B1E5",
".. c #7AB0E7",
"X. c #72B2EC",
"o. c #8382BD",
"O. c #DFB8B3",
"+. c #F3B4AB",
"@. c #F3C1B4",
"#. c #FEC7B6",
"$. c #F0C2B8",
"%. c #FFCBBA",
"&. c #8B8EC6",
"*. c #8E91C8",
"=. c #9192C6",
"-. c #9096CA",
";. c #969BCD",
":. c #9A9CCD",
">. c #849CD5",
",. c #82A7D4",
"<. c #86AAD7",
"1. c #83AEDA",
"2. c #9CA3D2",
"3. c #8DB6DD",
"4. c #94B5DD",
"5. c #99B5DB",
"6. c #9AB8DE",
"7. c #B5B1CA",
"8. c #A2A9D5",
"9. c #ABAFD6",
"0. c #A9B1DA",
"q. c #B0B9DE",
"w. c #BABADC",
"e. c #84AFE4",
"r. c #84B1E4",
"t. c #8BB6E5",
"y. c #87BBE7",
"u. c #8DBAE4",
"i. c #84B6EA",
"p. c #84BEEE",
"a. c #8BBCEA",
"s. c #95BCE5",
"d. c #9BBDE4",
"f. c #94BCE9",
"g. c #9ABEE9",
"h. c #CAB5C1",
"j. c #D8BDC5",
"k. c #8CC0ED",
"l. c #9DC3E3",
"z. c #94C5EF",
"x. c #9AC1EA",
"c. c #9DCBEB",
"v. c #97CAF1",
"b. c #A2C2E5",
"n. c #AAC4E4",
"m. c #A4C5EB",
"M. c #AAC6EA",
"N. c #A3CDEC",
"B. c #ABC9EB",
"V. c #B6C2E4",
"C. c #BBC2E2",
"Z. c #B0CEEF",
"A. c #BECCE8",
"S. c #A9D3EF",
"D. c #B5D7EF",
"F. c #BDD4EE",
"G. c #A4CCF0",
"H. c #ABD8F5",
"J. c #A9DAF8",
"K. c #B3D3F1",
"L. c #BCD6F1",
"P. c #BADFF6",
"I. c #B2DFF9",
"U. c #EBCBC7",
"Y. c #F9DFDB",
"T. c #FFE4DD",
"R. c #C7CCE6",
"E. c #C4D4EB",
"W. c #CBD4ED",
"Q. c #C4D9EF",
"!. c #CDDCEE",
"~. c #D4DBEE",
"^. c #C1D7F1",
"/. c #C4DCF4",
"(. c #CCDEF2",
"). c #C6DFF8",
"_. c #D2DEF3",
"`. c #C7E1F6",
"'. c #CCE1F6",
"]. c #C6E2F9",
"[. c #CBE1F8",
"{. c #D3E2F4",
"}. c #DDE6F5",
"|. c #DCE9F7",
" X c #D3E6F9",
".X c #D6E8FA",
"XX c #DBEBFA",
"oX c #ECE5E8",
"OX c #F3E5E2",
"+X c #FDEBE3",
"@X c #E3ECF6",
"#X c #EAEEF6",
"$X c #E4EEF9",
"%X c #E8EFFA",
"&X c #E9F0F7",
"*X c #E4F2FF",
"=X c #EBF4FD",
"-X c #EFF8FF",
";X c #F1F6FC",
":X c #F4F9FE",
">X c #FEFEFF",
",X c None",
/* pixels */
",X,X,X,X,X,X,X,X,X,Xo 8 p h j g p 6 o ,X,X,X,X,X,X,X,X,X,X,X",
",X,X,X,X,X,X,X,X= k W B.^.(._./.F.m.U d = ,X,X,X,X,X,X,X,X,X",
",X,X,X,X,X,X% z g./.F.B.B.B.M.M.M.B.F./.r.h + ,X,X,X,X,X,X,X",
",X,X,X,X,X8 T L.M.m.L.XX$X&X{.$X$XXXL.x.B.K.F 6 ,X,X,X,X,X,X",
",X,X,X,X0 r.Z.s.Z.XX@XXX@X$X!.@X@X|.@XXXm.s.Z.T 9 ,X,X,X,X,X",
",X,X,X8 } m.g..X{.L.$X-X-X-X$X-X-X=X$XQ.{.).f.m.) 6 ,X,X,X,X",
",X,X% I g.f..X X@X.X*X=X*X=X=X=X=X*X*XXXA.:.[.u.g.D + ,X,X,X",
",X,Xl f.u. X(.XX*X*X*X*X*X*X*X*X*X*X*X{.*.V.'.].t.i.g ,X,X,X",
",X- { r.Z./.XX*X*X*X*X*X*X*X*X*X*X*XXX-.q.*X X[.m.i.J & ,X,X",
",Xf i.l. XL. X*X*X*X*X*X$X$X*X*X*X*X2.8.*X*X.XL.).e.~ a ,X,X",
",XH } L.'.XX*X*X*X*X*X*X+.$.*X*X*X0.;.XX*X*XXX].).G.G m ,X,X",
"> ] r..X X=X*X*X*X=X*X*X+.5 oX*XC.-.|.*X*XXXXXXX/.).) G & ,X",
"y | s.|.XX=X=X=X=X=X=X=XoX5 $.E.&.~.=X*X*X*X*X*X X.X..~ q ,X",
"f [ b.|.$X=X-X-X-X-X-X;X-Xj.7.L C.;X=X=X*X=X=X=X|.|.a./ y ,X",
"l ' b.'.{.=X-X;X=X}.R.9.=.K A D ~.-X-X-X-X-X-X=X{._.f.( s ,X",
"f ' b.$X%X:X>X>X~.o.o.:.w.0.,.h.:X>X:X:X>X:X:X:X$X$Xg.( y ,X",
"u ] 3.&X&X>X>X>X:X#X:X>X>X:X>X#.+X:X>X>X:X>X:X>X@X&Xa.` w ,X",
"2 { E &X&X>X>X>X>X>X>X>X>X>X>XT.%.>X>X>X>X>X>X>X@X$X} ' * ,X",
",XR Y !.#X:X>X>X>X>X>X>X>X>X>X>X#.+X>X>X>X>X>X;X#X(.| J . ,X",
",Xv  .5.#X{.%X>X>X>X>X>X>X>X>X>XT.%.>X>X>X>X&X!.@Xg.X.b ,X,X",
",X: y.R E.}.:X>X>X>X>X>X>X>X>X>X>X#.+X>X>X>X;X@XF.} | < ,X,X",
",X,XM k.,.#X#X>X>X>X>X>X>X>X>X>X>XT.%.>X>X:X#X%Xa.p.N ,X,X,X",
",X,X@ 3.! 5.&X#X:X:X>X>X>X>X>X>X>X>X#.OX;X@X&Xm.k.{ # ,X,X,X",
",X,X,X4 c.Q 5.&X%X@X:X>X>X>X>X>X>X>XY.O.@X=XM.k.p.e ,X,X,X,X",
",X,X,X,Xr N.u.<.E.%X;X;X:X:X%X;X;X;X#XU.E.x.v.z.i ,X,X,X,X,X",
",X,X,X,X,X4 l.S.1.5.!.$X;X;X%X;X;X#X_.M.z.J.f.t ,X,X,X,X,X,X",
",X,X,X,X,X,XX C D.D.s.4.d.n.M.B.b.g.G.I.H.P $ ,X,X,X,X,X,X,X",
",X,X,X,X,X,X,X,X, B n.`.`.`.(.`.].P.c.V 3 ,X,X,X,X,X,X,X,X,X",
",X,X,X,X,X,X,X,X,X,X  , x c n c x 3 . ,X,X,X,X,X,X,X,X,X,X,X",
",X,X,X,X,X,X,X,X,X,X,X,X,X,X,X,X,X,X,X,X,X,X,X,X,X,X,X,X,X,X"
};
