/* XPM */
static char *computer_network[] = {
/* columns rows colors chars-per-pixel */
"24 18 67 1 ",
"  c black",
". c gray4",
"X c #191919",
"o c #222222",
"O c gray18",
"+ c #2F2F2F",
"@ c #313131",
"# c #323232",
"$ c gray20",
"% c #343434",
"& c gray22",
"* c #3A3A3A",
"= c #434343",
"- c #444444",
"; c #464646",
": c #484848",
"> c #494949",
", c #4B4B4B",
"< c #514E4B",
"1 c #514F4E",
"2 c gray36",
"3 c gray37",
"4 c gray39",
"5 c #656361",
"6 c #666360",
"7 c #686868",
"8 c #6D6D6D",
"9 c #777777",
"0 c gray48",
"q c #7F7C78",
"w c #83807C",
"e c #007EFF",
"r c #838383",
"t c gray52",
"y c #888582",
"u c #898989",
"i c #8B8B8B",
"p c #8E8E8E",
"a c #938E86",
"s c #909090",
"d c gray57",
"f c #9E9A92",
"g c #9F9B96",
"h c #9E9B97",
"j c #9D9D9D",
"k c #A7A49E",
"l c #A7A5A2",
"z c #A5A5A5",
"x c #AAA6A2",
"c c #ACACAC",
"v c #B8B1A8",
"b c #B6B6B6",
"n c #BFB9B1",
"m c gray74",
"M c #C6C0B9",
"N c #C7C2BC",
"B c #C6C2BD",
"V c #83C0FF",
"C c gray76",
"Z c gray78",
"A c gray79",
"S c #D1CECA",
"D c #D1CFCB",
"F c #D4D0CB",
"G c #DDDAD7",
"H c #E5E3E0",
"J c None",
/* pixels */
"JJJJJJJJJJJJJJJJJJJJJJJJ",
"JJJJJJJJJJJJJJJJJJJJJJJJ",
"JJJ........JJJJ......JJJ",
"JJ.vvvvvvvv.JJ.HHMvvv.JJ",
"JJ.visp08=B.JJ.F892#B.JJ",
"JJ.vsZAjr+B.  .n8c##B.JJ",
"JJ.vsAmi7#B.VV.v2:;#B.JJ",
"JJ.vpCbt4+B.ee.v#+##B.JJ",
"JJ.v=#%oX.B.  .fNBBBh.JJ",
"JJ.fNNNNBBg.JJzO>>yqqq,J",
"JJ.<446444<.  JJ*HqGwDgO",
"JJ.kSFSSSSx.JJ J3xaaaaaO",
"JJ.yqqqqqq4.JJ J8&&&&&&&",
"J.FNqNqNqNgg.J JJJJJJJJJ",
".FNqNNggNqNNg.JJJJJJJJJJ",
".xaaaaaaaaaaa.JJJJJJJJJJ",
"..............JJJJJJJJJJ",
"JJJJJJJJJJJJJJJJJJJJJJJJ"
};
