/* XPM */
static char *computer_x11[] = {
/* columns rows colors chars-per-pixel */
"24 18 119 2 ",
"   c black",
".  c #040404",
"X  c gray4",
"o  c #0B0B0B",
"O  c #0C0C0C",
"+  c gray5",
"@  c #0E0E0E",
"#  c #151515",
"$  c #191919",
"%  c #222222",
"&  c #232323",
"*  c #282828",
"=  c gray17",
"-  c #2C2C2C",
";  c #2F2F2F",
":  c #313131",
">  c #323232",
",  c gray20",
"<  c #343434",
"1  c gray24",
"2  c #3E3E3E",
"3  c #3F3F3F",
"4  c #434343",
"5  c #444444",
"6  c #484848",
"7  c #4B4B4B",
"8  c gray30",
"9  c #4F4E4C",
"0  c #4E4E4E",
"q  c #415140",
"w  c #445443",
"e  c #465846",
"r  c #495C49",
"t  c gray34",
"y  c #585858",
"u  c #4F624F",
"i  c #536852",
"p  c #586D57",
"a  c gray39",
"s  c #686868",
"d  c #6A6A6A",
"f  c #6D6D6D",
"g  c gray43",
"h  c #647962",
"j  c gray44",
"k  c #777777",
"l  c gray48",
"z  c #7B7B7B",
"x  c #6B866A",
"c  c #738F72",
"v  c #799077",
"b  c #7B9279",
"n  c #7E957C",
"m  c #7E9D7D",
"M  c #B68C1B",
"N  c #CB9C1F",
"B  c #E3AF22",
"V  c #FEC327",
"C  c #FFC528",
"Z  c #81987E",
"A  c #F6CF64",
"S  c #F0D27F",
"D  c #838383",
"F  c #848484",
"G  c gray52",
"H  c gray53",
"J  c #888888",
"K  c #898989",
"L  c #8B8B8B",
"P  c #8D8D8D",
"I  c #8E8E8E",
"U  c #859D83",
"Y  c #909090",
"T  c gray57",
"R  c #989898",
"E  c #9D9D9D",
"W  c gray62",
"Q  c #9F9F9F",
"!  c #89A287",
"~  c #88AA87",
"^  c #8DA18B",
"/  c #8BAF8A",
"(  c #8FA98D",
")  c #94AA93",
"_  c #94AF91",
"`  c #96B194",
"'  c #9BB499",
"]  c gray64",
"[  c gray65",
"{  c #AFAFAF",
"}  c #B2B2B2",
"|  c gray71",
" . c #B6B6B6",
".. c #B3BFB2",
"X. c gray74",
"o. c #9DC4AF",
"O. c #BCC9BC",
"+. c #BAD1B9",
"@. c #EDDEB9",
"#. c #B2D0C0",
"$. c #C1C1C1",
"%. c gray76",
"&. c gray78",
"*. c gray79",
"=. c gray80",
"-. c #C4DCCF",
";. c gray84",
":. c #D5DDD4",
">. c #D2E1D1",
",. c gray91",
"<. c #EEEEEE",
"1. c #EAF4E9",
"2. c #EAF2EE",
"3. c #ECF1EC",
"4. c #EBFCE9",
"5. c gray95",
"6. c #F6FFF4",
"7. c #FBFDFB",
"8. c None",
/* pixels */
"8.8.8.X X X X X X X X X X 8.8.8.8.8.8.8.8.8.8.8.",
"8.8.X 2.-.-.o.o.o.o.o.o.o.X 8.8.8.8.8.8.8.8.8.8.",
"8.8.X -.J T I I H l g 4 #.X 8.8.8.8.8.8.8.8.8.8.",
"8.8.X -.T &.*.%.} E D ; #.X 8.8.8.8.8.8.8.8.8.8.",
"8.8.X o.T *.X.| ] K s > #.X 8.8.8.8.8.8.8.8.8.8.",
"8.8.X o.I %.| { W G a 9 9                     8.",
"8.8.X o.H | [ E I k y 9 5.5.5.5.5.5.5.5.5.5.  8.",
"8.8.X o.g E J H z f 7 9 5.1 1 <.<.<.<.<.6 =.  8.",
"8.8.X o.5 : < : = % $ 8 5.2   * <.<.,.: d =.  8.",
"8.8.X R %.$.%.%.$.$.$.9 5.<.#   & <.j t ,.=.  8.",
"8.8.X 9 a a a a a a a 9 5.<.<..   t ; <.<.=.  8.",
"8.8.O @.S A V V B N M 9 5.<.<.<.@   [ <.<.=.  8.",
"8.8.@ h p i u r e w q 9 5.<.<.; t   . <.<.=.  8.",
"8.@ 5.6./ 7.m 2.c :.x 9 5.,.t j <.&   # <.=.  8.",
"X 5.4.~ 1.>.' ) O.^ ..9 5.d > ,.<.<.*   2 =.  8.",
"X +.` _ ( ! U Z n b v 9 5.6 <.<.<.<.<.1 4 =.  8.",
"X X X X X X X X X X X   ;.=.=.=.=.=.=.=.=.=.  8.",
"8.8.8.8.8.8.8.8.8.8.8.                        8."
};
