/* XPM */
static char *dillo[] = {
/* columns rows colors chars-per-pixel */
"35 35 65 1 ",
"  c #3B2318",
". c #221A24",
"X c #3F2C30",
"o c #293236",
"O c #611816",
"+ c #7D141E",
"@ c #521C21",
"# c #6D1E2B",
"$ c #4E2235",
"% c #15403D",
"& c #092F41",
"* c #1A2A4C",
"= c #423646",
"- c #19404A",
"; c #0F4056",
": c #165957",
"> c #3C5251",
", c #135B67",
"< c #165C76",
"1 c #28536F",
"2 c #3B7A74",
"3 c #5A535B",
"4 c #71564F",
"5 c #66445F",
"6 c #59746D",
"7 c #891113",
"8 c #AE363C",
"9 c #9A4039",
"0 c #8D3440",
"q c #844C4E",
"w c #C97172",
"e c #137985",
"r c #3E7685",
"t c #237796",
"y c #447093",
"u c #3A9794",
"i c #0D97B3",
"p c #2898A5",
"a c #2EB9B2",
"s c #2AB8BE",
"d c #5D8D9E",
"f c #68928A",
"g c #48B09A",
"h c #5897B8",
"j c #55B0B6",
"k c #3598CB",
"l c #44AECD",
"z c #36CEC7",
"x c #72D2D7",
"c c #B8988F",
"v c #80AEA1",
"b c #85ABB4",
"n c #E09A98",
"m c #B9D7B7",
"M c #97E4BB",
"N c #B1ECB6",
"B c #D2F0BC",
"V c #85DDC9",
"C c #88CDDE",
"Z c #ABD6C8",
"A c #A6F2DB",
"S c #B1E6ED",
"D c #D0EFCE",
"F c #C7F7E7",
"G c None",
/* pixels */
"GGGGGGGGGGGGGGGGGGGGGGGGGGGGGGGGGGG",
"GGGGGGGGGGGGGGGGGGGGGGGGGGGGGGGGGGG",
"GGGGGGGGGGGGGGGGGGGGGGGGGGGGGGGGGGG",
"GGGGGGGGGGGGGGGGGGGGGGGGGGGGGGGGGGG",
"GGGGGGGGGGGGG-rddCSSb;*GGGGGGGGGGGG",
"GGGGGGGGGGGfbbCCCCCSFShy&GGGGGGGGGG",
"GGGGGGGGG>vFZZSSSCAVSSllt1GGGGGGGGG",
"GGGGGGGG>6ZDDFFSCxAAvCllld,GGGGGGGG",
"GGGGGGG-rfmDDDDAxjFFAxlllhd3GGGGGGG",
"GGGGGG&<rfmDDBNAAZFFAxCll<1=@#@GGGG",
"GGGGGG1tdfmBBBNNAAFFVxlkk<;X#+@GGGG",
"GGGGG&ytdZDBBBNNMAFFzjlkkhr=++GGGGG",
"GGGGG&ytrZDBBBNMMMAxspkkkk<$++GGGGG",
"GGGGG;yrrZmBBNNMMAVjplkkkky$++XGGGG",
"GGGGG;<<rfmBBNMMMAxllkkkkky$+O3%GGG",
"GGGGG-<<,6mBBMgVVVsjlkktyy5#+OoGGGG",
"GGGGG&1<<rvmmvupixjf33=o=50+#$1&-GG",
"GG%GG&;1<r2ZZuplllb6X@3==$77#$*;-GG",
"GG%GGo;;1r2jZupllbqO o111=+7OX--:%G",
"GG%%GG&;<<epxxsxp3+74-1yt3+8@X--2uG",
"GG:%GG&;1teepjxxb#+Oo-rpr>0wXo-,2aG",
"G-u:GG&;<ttippsj509@o2jxv>wn.--,aze",
"G:a2-GG&1<tippsj3nc >vVAv4nq.-,pzze",
"G:au,GG&;1ttissp4n4 6vMAcqn@>:,szz,",
"G:zae&G&&;<tippp4wq fVMM4wwO>%uazae",
"G%ase<&GG&;<tiirq89 6gg6q88Oo2aazs,",
"GGasp,-GG&&;<<tt$98O6f64887O=egaasG",
"GG2ue,:GGG&&&;11$0894>3q+880=-2uauG",
"GGG:%%GGGGGG-;;**$+70qXG@O9O$G-,u:G",
"GGGGGGGGGGGGG&&**G@OO@GoGGGGGG&--GG",
"GGGGGGGGGGGGGGG&&&GGGGGGGGGGGGG-GGG",
"GGGGGGGGGGGGGGGGGGGGGGGGGGGGGGGGGGG",
"GGGGGGGGGGGGGGGGGGGGGGGGGGGGGGGGGGG",
"GGGGGGGGGGGGGGGGGGGGGGGGGGGGGGGGGGG",
"GGGGGGGGGGGGGGGGGGGGGGGGGGGGGGGGGGG"
};
