/* XPM */
static char *distributed[] = {
/* columns rows colors chars-per-pixel */
"24 18 91 1 ",
"  c black",
". c #143645",
"X c #225A73",
"o c #515151",
"O c #9A5C00",
"+ c #957503",
"@ c #C77200",
"# c #CB7500",
"$ c #D17100",
"% c #AB8200",
"& c #AD8A11",
"* c #AE9518",
"= c #B2A230",
"- c #DA8102",
"; c #DC8409",
": c #E09900",
"> c #E79208",
", c #E49608",
"< c #E6970B",
"1 c #DEB311",
"2 c #ECA60B",
"3 c #F5AD00",
"4 c #E8B704",
"5 c #E6BA0B",
"6 c #F4BC01",
"7 c #F2B10F",
"8 c #E1B013",
"9 c #EBB510",
"0 c #E5BF12",
"q c #F7CC02",
"w c #F4CA07",
"e c #FBC508",
"r c #FCD504",
"t c #F5D70D",
"y c #F8DD08",
"u c #EAC317",
"i c #E8C718",
"p c #F2C110",
"a c #F0C116",
"s c #F7C417",
"d c #F4CD11",
"f c #F8C819",
"g c #FDDE11",
"h c #F6D91B",
"j c #FAD81F",
"k c #FAE617",
"l c #F7E31B",
"z c #F6D520",
"x c #F5D127",
"c c #F8D125",
"v c #F7D82D",
"b c #EAD439",
"n c #F9D93A",
"m c #FDE226",
"M c #F8E42E",
"N c #FDEC32",
"B c #FAED36",
"V c #A09951",
"C c #EAD34B",
"Z c #F9DD47",
"A c #F8E048",
"S c #F9E148",
"D c #FAE04B",
"F c #FBE04D",
"G c #FCEA56",
"H c #EADC64",
"J c #FEED61",
"K c #FAEF6B",
"L c #FEEF6B",
"P c #F8EE76",
"I c #FAEF7F",
"U c #FCF078",
"Y c #2C86AE",
"T c #3389AF",
"R c #3D8DB1",
"E c #5698B6",
"W c #5A9AB6",
"Q c #679FB9",
"! c #6EB1CF",
"~ c #71C0E4",
"^ c gray51",
"/ c #8E8E8E",
"( c #909090",
") c #FEF687",
"_ c #FCF88C",
"` c #FEF896",
"' c #FCF89C",
"] c #88BCD3",
"[ c #ABDAEF",
"{ c #B7DFF1",
"} c None",
/* pixels */
"}}}  }}}}}}}}}}}}}}}}}}}",
"}} k9 }}}}}}}}}}}}}}}}}}",
"}} 9; }}}/ooo/}}}}}}}}}}",
"}}}  }}(o*iv0&o^}}}}}}}}",
"}}}}}}(VCADZxa8 }}X.}}}}",
"}  }}}oHIUGDnp }}X[ }}}}",
" k9 }/=P'`LFc }}X{~ XXXX",
" 9; }obK_)Jj }}X{Q{{{{! ",
"}  }}ozMBNm }}X]QQQQQQT ",
"}}}}}ouhlkgf }} WQERTTT ",
"}  }}/1dtyrs2 }} YE     ",
" k9 }}o5wqe7<- }} R }}}}",
" 9; }}(+463>;$@ }}  }}}}",
"}  }}}}(o%:,#Oo(}}}}}}}}",
"}}}}  }}}/ooo/}}}}}}}}}}",
"}}} k9 }}}}}}}}}}}}}}}}}",
"}}} 9; }}}}}}}}}}}}}}}}}",
"}}}}  }}}}}}}}}}}}}}}}}}"
};
