/* XPM */
static char *document_graded_paper[] = {
/* columns rows colors chars-per-pixel */
"24 18 15 1 ",
"  c black",
". c #272727",
"X c gray38",
"o c #F67E63",
"O c #E68A74",
"+ c #7ABFF4",
"@ c #7FC7FF",
"# c gray58",
"$ c #B2B2B2",
"% c #F29580",
"& c #FFA28D",
"* c gray80",
"= c gray90",
"- c gray100",
"; c None",
/* pixels */
";;;;;;;;;;;;;;;;;;;;;;;;",
";;;;;;;;;;;;;;;;;;;;;;;;",
";;            ;;;;;;;;;;",
";; --@------- ;;;;;;;;;;",
";; **+***OO** ;;;;;;;;;;",
";; --@--&--&- ;;;;;;;;;;",
";; $#@==%==%    ;   X;;;",
";; --@---&&-- ;;;;;;;;;;",
";; --@======= ;;;X.XX;;;",
";; --@------- ;;;;;;;;;;",
";; $#@=o===== ;;;.;XX;;;",
";; --@------- ;;;;;;;;;;",
";; --@====o== ;;;;;;;;;;",
";; --@------- ;;;;;;;;;;",
";; $#@==o==== ;;;;;;;;;;",
";; --@------- ;;;;;;;;;;",
";;            ;;;;;;;;;;",
";;;;;;;;;;;;;;;;;;;;;;;;"
};
