/* XPM */
static char *document_view[] = {
/* columns rows colors chars-per-pixel */
"24 18 32 1 ",
"  c black",
". c #0F0E0C",
"X c #252525",
"o c gray17",
"O c #3E3E3E",
"+ c #605538",
"@ c gray33",
"# c #565656",
"$ c gray35",
"% c #797979",
"& c #B48428",
"* c #EE9C00",
"= c #EFB23F",
"- c #F2B43D",
"; c #9A8859",
": c #A89561",
"> c #BDA76D",
", c #BEB068",
"< c #F6C972",
"1 c gray55",
"2 c #9B9B9B",
"3 c gray64",
"4 c #F1D58B",
"5 c #DECFB0",
"6 c #F3D9A7",
"7 c #D2D2D2",
"8 c #F2E4CA",
"9 c #F7F4CD",
"0 c gray89",
"q c #FDFDFD",
"w c gray100",
"e c None",
/* pixels */
"eeeeeeeeeeeeeeeeeeeeeeee",
"eeeeeee  eeeeeeeeeeeeeee",
"eeeeee 44 eee#o o#eeeeee",
"eeeee 4444 e 3www3 eeeee",
"eeee 444+44#37%%%w3#eeee",
"eee 444 :44ow#999%woeeee",
"ee 444 :44> w 999%w eeee",
"e 444 :44;>ow$,99%w eeee",
"e 44>:44;:4#30O %w3 eeee",
"ee 4444;:44> 3www3.= eee",
"ee2 44;:44;:4#o   58- ee",
"eee2 4444;:44X22ee &6- e",
"eeee2 44>:44 22eeee &6< ",
"eeeee2 4444 22eeeeee &* ",
"eeeeee2 44 22eeeeeeee  1",
"eeeeeee2  22eeeeeeeeeeee",
"eeeeeeee222eeeeeeeeeeeee",
"eeeeeeeeeeeeeeeeeeeeeeee"
};
