/* XPM */
static char *face_speech_audio[] = {
/* columns rows colors chars-per-pixel */
"24 18 47 1 ",
"  c black",
". c gray16",
"X c gray18",
"o c #36332E",
"O c gray21",
"+ c #393939",
"@ c #3A3A3A",
"# c #483D2B",
"$ c #664D0A",
"% c #524632",
"& c #534D45",
"* c #565249",
"= c #665F56",
"- c #6A6459",
"; c #7A6F5C",
": c #777065",
"> c #797979",
", c #997410",
"< c #917224",
"1 c #806E4E",
"2 c #C29314",
"3 c #FFC11A",
"4 c #898274",
"5 c #8C857B",
"6 c #9B907C",
"7 c #9A9182",
"8 c gray57",
"9 c #959595",
"0 c #A89E8D",
"q c #A99F8E",
"w c #A99F8F",
"e c #A9A08F",
"r c #B7AC9A",
"t c #BBB19E",
"y c #A2A2A2",
"u c #B6B6B6",
"i c #C7BBA8",
"p c #C8BDA9",
"a c #CCC0AC",
"s c #CCC1AD",
"d c #CDC2AD",
"f c #D3C7B2",
"g c #C5C5C5",
"h c #EAEAEA",
"j c #F3F3F3",
"k c gray100",
"l c None",
/* pixels */
"llllllllllllllllllllllll",
"llllll       lllllllllll",
"lll   3333333 llllllllll",
"l  3333333333 llllllllll",
" 3333333<*%11.llllllllll",
" 3332$3<6ffff llllllllll",
"l 3$$33#fffffOllllllllll",
"ll ,33#fff fd llllllllll",
"lll 33#affffd& lllllllll",
"lll 3#effffffp4 llllllll",
"llll #ffffffwf7 ll lllll",
"llll5;ffff --- lll lllll",
"llll#pfftf jhXll l> llll",
"lllloffw=r kk+l u8u>g9 +",
"lllll fw ii   lll ly >ll",
"llllll   :iii lll ll lll",
"lllllllll    lllllllllll",
"llllllllllllllllllllllll"
};
