/* XPM */
static char *file_transfer[] = {
/* columns rows colors chars-per-pixel */
"24 18 76 1 ",
"  c black",
". c #635013",
"X c #5F5F5F",
"o c #80750A",
"O c #886E1A",
"+ c #9E7F1E",
"@ c #A4841F",
"# c #A68520",
"$ c #9B8B5D",
"% c #A69669",
"& c #B4A376",
"* c #DBB643",
"= c #DCB848",
"- c #DEBB4F",
"; c #DFBE57",
": c #C5B37B",
"> c #E0C05E",
", c #E3C66C",
"< c #E4C871",
"1 c #E5CB79",
"2 c #E6CC7B",
"3 c #E6CD7E",
"4 c #F2E46D",
"5 c gray60",
"6 c #BDAC80",
"7 c #BEAE80",
"8 c #C0AE82",
"9 c #C0BEA6",
"0 c #D8C699",
"q c #E7CE80",
"w c #E9D38E",
"e c #E9D38F",
"r c #E1CE9C",
"t c #E2CE9D",
"y c #E2CF9D",
"u c #EAD590",
"i c #EAD594",
"p c #E2D09D",
"a c #EBD798",
"s c #ECD99D",
"d c #F7EF99",
"f c #C8C6AE",
"g c #D3D0B8",
"h c #D9D6BF",
"j c #E5D2A0",
"k c #E8D5A3",
"l c #EAD7A5",
"z c #EDDAA0",
"x c #ECD9A7",
"c c #ECDAA8",
"v c #EFDCAA",
"b c #F0DDAA",
"n c #F0DEAB",
"m c #F2DFAD",
"M c #F2E0AD",
"N c #F2E0AE",
"B c #F3E0AE",
"V c #F5E3B0",
"C c #FAF5BF",
"Z c #DBD8C0",
"A c #DCD9C1",
"S c #E4E1C9",
"D c #E4E1CA",
"F c #E4E2CA",
"G c #E5E2CB",
"H c #E7E4CC",
"J c #E8E6CE",
"K c #EBE8D0",
"L c #EBE9D1",
"P c #EDEAD3",
"I c #EEEBD3",
"U c #EFECD4",
"Y c #F0EDD5",
"T c #F0EED6",
"R c #F1EED7",
"E c None",
/* pixels */
"EEE5555555EEEEEEEEEEEEEE",
"EE5I9IIUK5EEEEEEEEEEEEEE",
"E5IIfDDDK5EEEEEEEEEEEEEE",
"5IIIgDHDXXXXXXXEEEEEEEEE",
"5IAZZHJXv$bbmlXEEEEEEEEE",
"5UJJJJXvb%tttlXEEEEEEEEE",
"5UKKKXvbb&ppp       EEEE",
"5YKKKX078&jj Co4szi EEEE",
"5UPUIXvlclk d<.***; EEEE",
"5RTRYXmccc 4<<O===> EEEE",
"5KKKKXMbbb :#@+-;-> EEEE",
"55555XVMMM w;;;;;;> EEEE",
"EEEEEXVVVV u>>>>;>> EEEE",
"EEEEEXllll i,,,,,,> EEEE",
"EEEEEXXXXX a211231> EEEE",
"EEEEEEEEEE a333qqq> EEEE",
"EEEEEEEEEE q;>>>>>> EEEE",
"EEEEEEEEEE          EEEE"
};
