/* XPM */
static char *file_fragment_tool_wrench[] = {
/* columns rows colors chars-per-pixel */
"24 18 99 2 ",
"   c black",
".  c #3A3A3A",
"X  c gray24",
"o  c #7C5E0D",
"O  c #534B37",
"+  c gray28",
"@  c #656565",
"#  c #7C7560",
"$  c #767676",
"%  c #7C7C7C",
"&  c #8E6B0F",
"*  c #A47C11",
"=  c #BF991D",
"-  c #A48227",
";  c #CC9A15",
":  c #C29D1E",
">  c #C2A031",
",  c #C3A032",
"<  c #C3A134",
"1  c #FFC11A",
"2  c #998655",
"3  c #8E897C",
"4  c #B29C62",
"5  c #C1A96B",
"6  c #E9CC62",
"7  c #8D8D8D",
"8  c #8E8E8E",
"9  c gray57",
"0  c #959595",
"q  c gray60",
"w  c #B2A88A",
"e  c gray63",
"r  c gray64",
"t  c #A4A4A4",
"y  c #AFAFAF",
"u  c #B5B4B4",
"i  c gray71",
"p  c #EAD699",
"a  c #F5DF94",
"s  c #FFE08D",
"d  c #F9E7AB",
"f  c #C3C3C2",
"g  c #C3C3C3",
"h  c #C6C6C6",
"j  c #C6C7C7",
"k  c gray78",
"l  c #C8C8C8",
"z  c gray79",
"x  c #C9CAC9",
"c  c #CACACA",
"v  c #CACBCA",
"b  c #CBCBCA",
"n  c #CBCACB",
"m  c #CBCBCB",
"M  c #CBCBCC",
"N  c gray80",
"B  c #FFF0C6",
"V  c #FFF2CE",
"C  c #E1E1E1",
"Z  c #E2E2E1",
"A  c #E2E3E2",
"S  c #E3E4E3",
"D  c #E4E4E4",
"F  c #E6E6E6",
"G  c gray92",
"H  c #EBECEB",
"J  c #ECECEB",
"K  c #ECECEC",
"L  c #ECEDEC",
"P  c gray93",
"I  c #EEEDEE",
"U  c #EEEEEE",
"Y  c #EEEFEE",
"T  c #EFEFEF",
"R  c gray94",
"E  c #F1F1F1",
"W  c gray95",
"Q  c #F4F4F4",
"!  c #F6F7F6",
"~  c #F8F8F8",
"^  c #F8F9F9",
"/  c #F9F9F9",
"(  c #FAF9F9",
")  c #F9FAF9",
"_  c #F9F9FA",
"`  c #FAFBFA",
"'  c #FBFAFB",
"]  c #FAFBFB",
"[  c #FBFBFB",
"{  c #FBFCFB",
"}  c gray99",
"|  c #FCFDFC",
" . c #FDFDFD",
".. c #FDFEFE",
"X. c #FEFEFE",
"o. c #FFFEFE",
"O. c #FEFEFF",
"+. c gray100",
"@. c None",
/* pixels */
"@.@.@.@.                          @.@.@.@.@.@.@.",
"@.@.@.@.  V V p } } } } } } } } }   @.@.@.@.@.@.",
"@.@.@.@.  V 1 , } T T J T T E F } ~   @.@.@.@.@.",
"@.@.@.@.  d 1 , } E K G G T T A } ~ ~   @.@.@.@.",
"@.@.@.@.  a 1 , } T T       E A } [ } }   @.@.@.",
"g @             } T   E E i   S h i r $   @.@.@.",
"+ 5 s 4 s 4 2 2 X   Q 7     X F A N N N   @.@.@.",
"  s w B w B # Q ~ E E 0   Q ~ ~ } } } N   @.@.@.",
"  1 o 1 o 1 O 3 8 % Q e   ~ ~ } } } } N   @.@.@.",
"+ ; - * - * ; &     E t     X x x N N N   @.@.@.",
"g @             } R   E E y   x           @.@.@.",
"@.@.@.@.  a 1 < } E E       [ x   @.@.@.@.@.@.@.",
"@.@.@.@.  a 1 < } T E E ~ ~ } M   @.9 9 9 0 9 9 ",
"@.@.@.@.  6 : = N g h l x x x m   @.9 } } } }   ",
"@.@.@.@.                          @.0 } } } N   ",
"@.@.@.@.@.@.@.@.@.@.@.@.@.@.@.@.@.@.9 } } } N   ",
"@.@.@.@.@.@.@.@.@.@.@.@.@.@.@.@.@.@.9 } N N N   ",
"@.@.@.@.@.@.@.@.@.@.@.@.@.@.@.@.@.@.q           "
};
