/* XPM */
static char *film[] = {
/* columns rows colors chars-per-pixel */
"24 18 108 2 ",
"   c #010101",
".  c #020202",
"X  c gray1",
"o  c gray2",
"O  c #060606",
"+  c #070707",
"@  c gray3",
"#  c #090909",
"$  c gray4",
"%  c #0B0B0B",
"&  c #0C0C0C",
"*  c #0E0E0E",
"=  c gray6",
"-  c #101010",
";  c #111111",
":  c gray7",
">  c #131313",
",  c gray8",
"<  c #151515",
"1  c #161616",
"2  c gray9",
"3  c #181818",
"4  c #191919",
"5  c gray10",
"6  c #1B1B1B",
"7  c gray11",
"8  c #1D1D1D",
"9  c gray12",
"0  c gray13",
"q  c #232323",
"w  c gray14",
"e  c gray15",
"r  c #272727",
"t  c gray16",
"y  c #2A2A2A",
"u  c gray17",
"i  c #2C2C2C",
"p  c #2F2F2F",
"a  c gray19",
"s  c #313131",
"d  c #323232",
"f  c gray20",
"g  c #343434",
"h  c #353535",
"j  c gray21",
"k  c gray22",
"l  c #393939",
"z  c #3A3A3A",
"x  c gray23",
"c  c #3C3C3C",
"v  c gray24",
"b  c gray25",
"n  c #414141",
"m  c gray26",
"M  c #434343",
"N  c #444444",
"B  c #464646",
"V  c gray28",
"C  c #494949",
"Z  c gray29",
"A  c #4B4B4B",
"S  c gray30",
"D  c #4E4E4E",
"F  c gray31",
"G  c #505050",
"H  c #515151",
"J  c #797979",
"K  c #A4A3A3",
"L  c gray66",
"P  c #A9A9A9",
"I  c #A9AAAA",
"U  c #B0B1B0",
"Y  c gray70",
"T  c #B4B5B4",
"R  c #B7B7B7",
"E  c #B9B9B9",
"W  c #BDBDBE",
"Q  c gray75",
"!  c #C1C1C1",
"~  c gray76",
"^  c #C6C6C7",
"/  c gray78",
"(  c #C8C8C8",
")  c #CACACA",
"_  c #CBCBCB",
"`  c #CECECE",
"'  c #D0D0D0",
"]  c gray83",
"[  c #D5D5D5",
"{  c #D6D6D5",
"}  c gray84",
"|  c #D7D7D7",
" . c #DADADA",
".. c gray87",
"X. c #DFDFDF",
"o. c gray88",
"O. c #E2E2E2",
"+. c gray89",
"@. c #E4E4E4",
"#. c gray90",
"$. c #E6E6E6",
"%. c #E7E7E7",
"&. c #EAEAEA",
"*. c #EEEEEE",
"=. c #EFEFEF",
"-. c #F3F3F3",
";. c gray100",
":. c None",
/* pixels */
":.:.:.:.:.J J J J J J J J J J J J J :.:.:.:.:.:.",
":.:.:.:.:.A A A V m c h p y e q 8 6 :.:.:.:.:.:.",
":.:.:.:.:.D ;.D K U ~ `  .+.#.q ;.6 :.:.:.:.:.:.",
":.:.:.:.:.D G D U W _ | +.#.;.8 6 6 :.:.:.:.:.:.",
":.:.:.:.:.D D D | ..@.&.*.-.;.6 6 < :.:.:.:.:.:.",
":.:.:.:.:.A ;.V #.;.;.;.;.;.;.6 ;.< :.:.:.:.:.:.",
":.:.:.:.:.V V V v z f i e 9 3 < < & :.:.:.:.:.:.",
":.:.:.:.:.m m m P R / ] ..#.#.; & # :.:.:.:.:.:.",
":.:.:.:.:.v ;.z P R / ] ..#.;.= ;.+ :.:.:.:.:.:.",
":.:.:.:.:.z z z / '  .+.&.=.;.% + + :.:.:.:.:.:.",
":.:.:.:.:.z h h #.;.;.;.;.;.;.# + + :.:.:.:.:.:.",
":.:.:.:.:.h ;.f p y q 7 < ; & # ;.X :.:.:.:.:.:.",
":.:.:.:.:.h h f T ~ `  .#.&.#.+ X X :.:.:.:.:.:.",
":.:.:.:.:.f f p P E / | +.#.;.+ X X :.:.:.:.:.:.",
":.:.:.:.:.f ;.p Q _ | ..#.*.;.+ ;.X :.:.:.:.:.:.",
":.:.:.:.:.p p y #.;.;.;.;.;.;.X X X :.:.:.:.:.:.",
":.:.:.:.:.y y e e 8 6 < & # # + X X :.:.:.:.:.:.",
":.:.:.:.:.J J J J J J J J J J J J J :.:.:.:.:.:."
};
