/* XPM */
static char *filter_video[] = {
/* columns rows colors chars-per-pixel */
"24 18 137 2 ",
"   c black",
".  c #010101",
"X  c #020202",
"o  c gray1",
"O  c #040404",
"+  c gray2",
"@  c #060606",
"#  c #070707",
"$  c gray3",
"%  c #090909",
"&  c #0B0B0B",
"*  c #0C0C0C",
"=  c gray6",
"-  c #101010",
";  c #111111",
":  c gray9",
">  c gray11",
",  c gray12",
"<  c #211C08",
"1  c #282309",
"2  c #2A250A",
"3  c #2C260A",
"4  c #2E280A",
"5  c #2E280B",
"6  c #322C0B",
"7  c #332C0C",
"8  c #352E0C",
"9  c #37300D",
"0  c #3A320D",
"q  c #3B330E",
"w  c #3D350E",
"e  c #3E360E",
"r  c gray13",
"t  c #232323",
"y  c #252525",
"u  c gray15",
"i  c gray16",
"p  c #2A2A2A",
"a  c #2D2D2D",
"s  c #2F2F2F",
"d  c #343434",
"f  c #353535",
"g  c gray21",
"h  c gray22",
"j  c gray23",
"k  c gray24",
"l  c #40380E",
"z  c #433A0F",
"x  c #443B10",
"c  c #453B10",
"v  c #493F11",
"b  c #494011",
"n  c #4A4011",
"m  c #4C4211",
"M  c #4C4212",
"N  c #4D4212",
"B  c #4D4312",
"V  c #504512",
"C  c #504612",
"Z  c #514612",
"A  c #524713",
"S  c #534813",
"D  c #544913",
"F  c #5B4F15",
"G  c #5F5216",
"H  c #605316",
"J  c #655817",
"K  c #6A5C18",
"L  c #414141",
"P  c gray26",
"I  c #464646",
"U  c gray28",
"Y  c gray29",
"T  c #4B4B4B",
"R  c #4E4E4E",
"E  c gray34",
"W  c gray36",
"Q  c #5D5D5D",
"!  c gray37",
"~  c #5F5F5F",
"^  c gray38",
"/  c gray42",
"(  c gray43",
")  c #6F6F6F",
"_  c #717171",
"`  c #797979",
"'  c #81701E",
"]  c #82711E",
"[  c #88761F",
"{  c #89761F",
"}  c #9C8724",
"|  c #A18C25",
" . c #A38D26",
".. c #A69026",
"X. c #AA9327",
"o. c #AB9427",
"O. c #918652",
"+. c #948B5E",
"@. c #989275",
"#. c #B8AC74",
"$. c #E2D17F",
"%. c #868686",
"&. c gray53",
"*. c #8E8E8E",
"=. c #9E9B8D",
"-. c gray59",
";. c gray60",
":. c #9B9B9B",
">. c gray61",
",. c #9D9D9D",
"<. c #BBB282",
"1. c #A2A3A2",
"2. c gray64",
"3. c gray66",
"4. c #A9A9A9",
"5. c gray68",
"6. c gray70",
"7. c #B7B7B7",
"8. c gray74",
"9. c #C0B997",
"0. c #E6D791",
"q. c #E7D994",
"w. c #EADEA3",
"e. c #EEE4B6",
"r. c #EFE6BB",
"t. c #F0E7BD",
"y. c gray76",
"u. c gray80",
"i. c #CECECE",
"p. c gray81",
"a. c #F7F2DC",
"s. c gray90",
"d. c gray94",
"f. c #F9F9F9",
"g. c #FBFBFB",
"h. c gray100",
"j. c None",
/* pixels */
"j.j.j.j.j.j.j.j.j.j.j.j.j.j.j.j.j.j.j.j.j.j.j.j.",
"j.j.j.j.                  j.j.j.j.j.j.j.j.j.j.j.",
"j.j.j.j.  d.f.f.f.h.h.:.  j.j.j.j.j.j.j.j.j.j.j.",
"j.j.j.j.  y.y.>.:.7.f.:.  j.j.j.j.j.j.j.j.j.j.j.",
"` Y L k j g g t : _ f.;.c ] K [ | | ..X. .} j.j.",
"` Y h.g h.d s.t E ) f.;.c ] 1.[ h.| h.o.h.} 4.j.",
"` Y L j g g s , = ) f.;.c l 8 c V V Z S Z N 4.j.",
"` U 4.4.u.s 1.%.U ) f.:.c w O.#.a.V $.0.a.n 4.j.",
"` L 7.7.s.i 5.*.R / f.:.z q +.<.r.n q.w.r.c 4.j.",
"` s p.u.s.= 8.-.R ^ f.-.z 4 @.9.a.0 e.t.a.6 4.j.",
"` t s.h.h.= p.7.E ! f.:.c 3 =.u.h.9 a.h.h.5 4.j.",
"` t - - % O O O   ! f.:.c 2 < 1 4 8 7 6 4 2 4.j.",
"` , h.O h.O s.O E W f.;.c Z 2.N h.J h.G h.S 4.j.",
"` , % % O O   O   W f.;.c N w v S H G F S V 4.j.",
"j.4.4.4.  &.>.4.d.f.f.:.  4.4.4.4.4.4.4.4.4.4.j.",
"j.j.j.j.  >.>.>.>.>.:.:.  j.j.j.j.j.j.j.j.j.j.j.",
"j.j.j.j.                  j.j.j.j.j.j.j.j.j.j.j.",
"j.j.j.j.j.j.j.j.j.j.j.j.j.j.j.j.j.j.j.j.j.j.j.j."
};
