/* XPM */
static char *floppy_disk_arrow[] = {
/* columns rows colors chars-per-pixel */
"24 18 45 1 ",
"  c black",
". c #162D4F",
"X c #7C7C7C",
"o c #3073BD",
"O c #0977F3",
"+ c #3580D3",
"@ c #3382E2",
"# c #3285E4",
"$ c #3E8BE6",
"% c #418DE5",
"& c #438EE6",
"* c #448FE6",
"= c #4790E6",
"- c #4992E8",
"; c #5296E8",
": c #5F9EEA",
"> c #7EAFEC",
", c #989898",
"< c gray67",
"1 c #9DB4CE",
"2 c #A5BBD6",
"3 c #87B3EE",
"4 c #97B6E1",
"5 c #A0BCE4",
"6 c #ADC3DE",
"7 c #BCD0EC",
"8 c #BED1EC",
"9 c #BDD4EE",
"0 c #C3C3C3",
"q c #CACACA",
"w c #CECECE",
"e c gray81",
"r c #DADADA",
"t c #C1D4ED",
"y c #C3D6ED",
"u c #CEDDF1",
"i c #E6E6E6",
"p c gray93",
"a c #EFEFEF",
"s c #E0E9F6",
"d c gray94",
"f c gray95",
"g c #F4F4F4",
"h c gray100",
"j c None",
/* pixels */
"jjjjjjjjjjjjjjjjjjjjjjjj",
"jjjjjjjjjjjjjjjjjjjjjjjj",
"jjjjjjjjj            jjj",
"jjjjj  j uuffffffftu4 jj",
"jjjjj h  u>a00000015% jj",
"j     hh u>aqwqqww2.% jj",
"j hhhhhhh >gXXX<Xr63% jj",
"j hhhhhhhr frrrrrr63% jj",
"j rrrrhhr >gffffff93% jj",
"j     hr u>;######=3% jj",
"jjjjj r  u>333333333% jj",
"jjjjj  j u>ttttt3333% jj",
"jjjjjjjj u>7,,,,O@33% jj",
"jjjjjjjj u>7,ow,-s33% jj",
"jjjjjjjj u>7,+i,-s33% jj",
"jjjjjjjj :%*,,,,$*%%% jj",
"jjjjjjjjj            jjj",
"jjjjjjjjjjjjjjjjjjjjjjjj"
};
