/* XPM */
static char *floppy_install[] = {
/* columns rows colors chars-per-pixel */
"24 18 27 1 ",
"  c black",
". c #413106",
"X c #664D09",
"o c #66572E",
"O c #494949",
"+ c #686868",
"@ c #A87F10",
"# c #AB8110",
"$ c #BF9012",
"% c #C49412",
"& c #CA9913",
"* c #CD9B14",
"= c #FFC118",
"- c #94855D",
"; c #B39B5A",
": c #FFDA74",
"> c gray51",
", c #8B8B8B",
"< c #8E8E8E",
"1 c gray57",
"2 c gray64",
"3 c #B2B2B2",
"4 c gray71",
"5 c #DADADA",
"6 c gray90",
"7 c gray100",
"8 c None",
/* pixels */
"888888888888888888888888",
"88-oooooooooooooo-888888",
"88o::7777773772:$.888888",
"88o:=777773 77>=@.888888",
"88o:=77773  77>=@.888888",
"88o:=7773           8888",
"88o:=77773  77>=$.88 888",
"88o:=777773 77>=$.881O88",
"88o:=777777377>=$.888 88",
"88o:=2>>>>>>>>>=$.888 88",
"88o:============$.888 88",
"88o:============$.881O88",
"88o:==7777776%*=$.88 888",
"88o:==7XX7774%&=$.  8888",
"88o:==7X=7552%&=$.888888",
"88o:==7X=7552%&=$.888888",
"88o;$$<+2,+++@#$$.888888",
"888..............8888888"
};
