/* XPM */
static char *folder_network[] = {
/* columns rows colors chars-per-pixel */
"24 18 53 1 ",
"  c black",
". c gray1",
"X c #060606",
"o c #090909",
"O c #0B0B0B",
"+ c #0E0E0E",
"@ c #111111",
"# c #7C7253",
"$ c #6D6B63",
"% c #79776E",
"& c #9A8D67",
"* c #A29677",
"= c #AEA17F",
"- c #AFA37E",
"; c #B9A97C",
": c #969388",
"> c #B3AB93",
", c #879EA7",
"< c #BDB8AB",
"1 c #C0AF81",
"2 c #C5B587",
"3 c #C0B289",
"4 c #C5B588",
"5 c #C0B391",
"6 c #C7BA96",
"7 c #CABA90",
"8 c #CBBC91",
"9 c #CCBC91",
"0 c #CCBC92",
"q c #CEC19B",
"w c #D2C29A",
"e c #D2C39A",
"r c #D9CAA3",
"t c #D9CAA4",
"y c #DBCDA4",
"u c #DCCFA7",
"i c #D2C8AB",
"p c #DFD1A9",
"a c #DED0AA",
"s c #D7CEB4",
"d c #E0D3AF",
"f c #E0D3B2",
"g c #E4D7B4",
"h c #E4D9B7",
"j c #E5D9B8",
"k c #AABDC4",
"l c gray80",
"z c #D1E0E3",
"x c #E6E6E6",
"c c gray91",
"v c #FDFDFD",
"b c gray100",
"n c None",
/* pixels */
"nnnnnnnnnnnnnnnnnnnnnnnn",
"nnnnnnnnnnnnnnnnnnnnnnnn",
"n    nnnnnnnnnnnnnnnnnnn",
"n@zk,         nnnnnnnnnn",
"n+ffffffffffj   nnnnnnnn",
"nOg711111117s $ nnnnnnnn",
"nOh244   444i # nnnnnnnn",
"nXp78 vcl 996 & nnnnnnnn",
"nXuee c v           nnnn",
"n prt xvv rr3 - nnnn nnn",
"n fapp   dpa; 3 nnnn nnn",
"n *555555555- q nnnn nnn",
"n <<<<<<<<<<> y nn  nnnn",
"n ::::::::::::% n nnnnnn",
"nn             nn nnnnnn",
"nnnnnnnnnnnnnnnnnn    n ",
"nnnnnnnnnnnnnnnnnnnnnnnn",
"nnnnnnnnnnnnnnnnnnnnnnnn"
};
