/* XPM */
static char *folder_paper_closed[] = {
/* columns rows colors chars-per-pixel */
"24 18 59 1 ",
"  c black",
". c gray1",
"X c #060606",
"o c #090909",
"O c #0B0B0B",
"+ c #0E0E0E",
"@ c #111111",
"# c #665C44",
"$ c #7D7254",
"% c #6C6C6C",
"& c #79776E",
"* c #B9A97C",
"= c #818181",
"- c #868686",
"; c #969388",
": c #909090",
"> c #959595",
", c #B3AB93",
"< c #879EA7",
"1 c gray65",
"2 c #BDB8AB",
"3 c gray70",
"4 c #C0AF81",
"5 c #C5B487",
"6 c #C5B587",
"7 c #C0B289",
"8 c #C5B488",
"9 c #C5B588",
"0 c #C7BA96",
"q c #CABA90",
"w c #CBBC91",
"e c #CBBC92",
"r c #CCBC91",
"t c #CCBC92",
"y c #CEC19B",
"u c #D2C399",
"i c #D2C29A",
"p c #D2C39A",
"a c #D9CAA3",
"s c #D9CAA4",
"d c #DBCDA4",
"f c #DCCFA7",
"g c #D2C8AB",
"h c #DFD1A9",
"j c #DED0AA",
"k c #D7CEB4",
"l c #E0D3AF",
"z c #E0D3B2",
"x c #E4D7B4",
"c c #E4D9B7",
"v c #E5D9B8",
"b c #AABDC4",
"n c #CECECE",
"m c gray82",
"M c #D1E0E3",
"N c #E1E1E1",
"B c gray90",
"V c gray100",
"C c None",
/* pixels */
"CCCCCCCCCCCCCCCCCCCCCCCC",
"CCCCCCCCCCCCCCCCCCCCCCCC",
"CCCCCCCCC           CCCC",
"CCCCCCCCC VVVVVVVVB CCCC",
"CCC    CC =:13mNVVB CCCC",
"CCC@Mb<         BVB CCCC",
"CCC+zzzzzzzzzzv nBB CCCC",
"CCCOxq4444444qk 1BB CCCC",
"CCCOv888858858g >BB CCCC",
"CCCXhwwqrwrqrr0 -nB CCCC",
"CCC.fppppppppp7 %1n CCCC",
"CCC.hsasaaaass7     CCCC",
"CCC zhjjjjjhhh* 7 CCCCCC",
"CCC ##########$ y CCCCCC",
"CCC 2222222222, s CCCCCC",
"CCC ;;;;;;;;;;;;& CCCCCC",
"CCCC             CCCCCCC",
"CCCCCCCCCCCCCCCCCCCCCCCC"
};
