/* XPM */
static char *font_edit[] = {
/* columns rows colors chars-per-pixel */
"24 18 66 1 ",
"  c black",
". c gray13",
"X c gray18",
"o c #373737",
"O c gray23",
"+ c #383E48",
"@ c #4C4C4C",
"# c gray30",
"$ c #414853",
"% c #4A525E",
"& c #585858",
"* c gray35",
"= c #535C69",
"- c #5C6675",
"; c #646464",
": c gray40",
"> c gray44",
", c #7B7B7B",
"< c #7C7C7C",
"1 c #89680E",
"2 c #997410",
"3 c #A86F6F",
"4 c #BD7D7D",
"5 c #FF6744",
"6 c #CC9A15",
"7 c #E5AD17",
"8 c #FFC11A",
"9 c #E0BC64",
"0 c #F5D379",
"q c #656F80",
"w c #6E798B",
"e c #778397",
"r c #7F8CA1",
"t c gray53",
"y c #888888",
"u c gray58",
"i c #AB8383",
"p c #AEA497",
"a c #8492A8",
"s c #8896AC",
"d c gray64",
"f c #A7A7A7",
"g c gray67",
"h c #AEAEAE",
"j c #B2B2B2",
"k c #B7B7B7",
"l c #F09F9F",
"z c #C3B8AA",
"x c #F5BCBC",
"c c #FFE18D",
"v c #D9CDBD",
"b c #99AAC3",
"n c #A2B3CE",
"m c #BDD1F0",
"M c #C3C3C3",
"N c gray80",
"B c gray81",
"V c #D2D2D2",
"C c #E8E1D7",
"Z c #F5ECD6",
"A c #E7E7E7",
"S c #FFF8E6",
"D c #F3F3F3",
"F c #FFFBF1",
"G c gray100",
"H c None",
/* pixels */
"HHHHHHHHHHHHHHHHHHHHHHHH",
"                  HHHHHH",
" mmmmmGGGGGGGGGGG HHHHHH",
" mmmmmGGGGGGG555G HHHHHH",
" aaaaajjjjjjj5G5G HH  HH",
" mmmmmGGGGGGG555G H xx H",
" mmmmnu;@@yBGGjGG  Gil4 ",
" mmme+yBg@@@kGjGG c2G34@",
" mmw+=GGGu@@@AjG cS81V@y",
" mb++rGGGM@@@gj 0F876@th",
" mq++rGGGB@@@g CZ876@yhH",
" m%++-gggu@@>g;Cv96@yhHH",
" m+++$<<<<tkG,;vzp@thHHH",
" m+++-GGGGGGGo ;& yhHHHH",
" m$++$GGGGGGGX.Od hHHHHH",
" mq+++MGGGGGGGdBB HHHHHH",
" ms+++&AGGGGDGjGG HHHHHH",
"                  HHHHHH"
};
