/* XPM */
static char *food_bananna[] = {
/* columns rows colors chars-per-pixel */
"24 18 46 1 ",
"  c black",
". c #020202",
"X c gray6",
"o c #131313",
"O c #181818",
"+ c #887F62",
"@ c #827E75",
"# c #B3932A",
"$ c #C7A42F",
"% c #C5A333",
"& c #E5BD36",
"* c #FFD23C",
"= c #8E8054",
"- c #938557",
"; c #A58F48",
": c #B09C5C",
"> c #868277",
", c #AA9B6B",
"< c #B8A56A",
"1 c #FDD652",
"2 c #FFDB63",
"3 c #FCDA69",
"4 c #FFE077",
"5 c #9B9B9B",
"6 c #A39E92",
"7 c #ACA799",
"8 c #B2ADA1",
"9 c #B7B2A3",
"0 c #B9B3A4",
"q c #BDBAB2",
"w c gray",
"e c #FFE282",
"r c #FFE692",
"t c #F9E297",
"y c #DBCDA5",
"u c #CCC6B6",
"i c #CEC7B7",
"p c #CAC5B9",
"a c #CCC8BE",
"s c #FFEBA8",
"d c #CCCAC4",
"f c #E5DECC",
"g c #E5E1D6",
"h c #FFF7E3",
"j c #FFFAE9",
"k c None",
/* pixels */
"kkkkkkkkkkkkkkkkkkkkkkkk",
"k  kkkkkkkkkkkkkkkkkkkkk",
" j4 kkkkkkkkkkkkkkkkkkkk",
" *4 kkkkkkkkkOOOkkkkkkkk",
"k *4   kkkkkO3tpOkkkkkkk",
"kk *4rr  kkk-=1>8.kkkkkk",
"kk $$**2r  O++%tqOkkkkkk",
"kkk *&&**4seeeeOO OOOkkk",
"kkk &##&***:<yyhhhhfhokk",
"kkkk ##&&***;;hhhhfga kk",
"kkkkk &&&#$***;yhhfadokk",
"kkkkkk  ##$***h,7ufidX55",
"kw555555  &&O*h97@96o555",
"kww5555555  *hh0oooo5555",
"kkkkww55555o*hi0X55555kk",
"kkkkkkkk55o*hhiO55kkkkkk",
"kkkkkkkkkko*hiO5kkkkkkkk",
"kkkkkkkkkkooookkkkkkkkkk"
};
