/* XPM */
static char *fractal_mandelbrot_greyscale[] = {
/* columns rows colors chars-per-pixel */
"24 18 8 1 ",
"  c gray22",
". c #585858",
"X c gray40",
"o c #676767",
"O c #686868",
"+ c #777777",
"@ c #959595",
"# c None",
/* pixels */
"########################",
"################@#######",
"###############   ######",
"###########.##+. .+##.##",
"############.       .###",
"#####@#####.         .##",
"###### @##O           @#",
"#####@   @.           o#",
"##@#@    o            @#",
"@o                   @##",
"##@#@    o            @#",
"#####@   @.           o#",
"###### @##O          .@#",
"#####@#####.         .##",
"############.       .###",
"###########.##+. .+##.##",
"###############   ######",
"################@#######"
};
