/* XPM */
static char * gaim_xpm[] = {
"18 18 98 2",
"  	c None",
". 	c #AE9322",
"+ 	c #CAAA25",
"@ 	c #A88811",
"# 	c #D9BC3F",
"$ 	c #EED462",
"% 	c #EDD157",
"& 	c #E7C127",
"* 	c #C5930D",
"= 	c #A48C2B",
"- 	c #F0DA72",
"; 	c #F4E698",
"> 	c #EFD76B",
", 	c #E7C129",
"' 	c #DA9E0D",
") 	c #7C4B04",
"! 	c #B69D33",
"~ 	c #EFD970",
"{ 	c #F1DC7A",
"] 	c #EBCD4B",
"^ 	c #E2B417",
"/ 	c #D48E0A",
"( 	c #8A4B03",
"_ 	c #9C8420",
": 	c #EACA41",
"< 	c #E9C73A",
"[ 	c #E4B91C",
"} 	c #D89A0C",
"| 	c #CA7505",
"1 	c #6D3401",
"2 	c #C59C10",
"3 	c #DEA90F",
"4 	c #D6940B",
"5 	c #CB7606",
"6 	c #A14E01",
"7 	c #231000",
"8 	c #4F431F",
"9 	c #896012",
"0 	c #975C0A",
"a 	c #7F4808",
"b 	c #60480C",
"c 	c #715B0A",
"d 	c #B8AF7A",
"e 	c #F0DF89",
"f 	c #E0CB67",
"g 	c #D2B948",
"h 	c #E1BF32",
"i 	c #E5BB1A",
"j 	c #DEAB10",
"k 	c #634706",
"l 	c #B7A967",
"m 	c #EFD86F",
"n 	c #ECCF53",
"o 	c #E9C636",
"p 	c #E5BC1B",
"q 	c #DFAD10",
"r 	c #D1960C",
"s 	c #B07308",
"t 	c #5E3803",
"u 	c #B09F51",
"v 	c #ECD055",
"w 	c #E9C738",
"x 	c #E5BD1E",
"y 	c #E0AE10",
"z 	c #D99D0D",
"A 	c #976507",
"B 	c #492801",
"C 	c #241200",
"D 	c #A38F39",
"E 	c #E9C73B",
"F 	c #E6BE1F",
"G 	c #E1B011",
"H 	c #D38D0A",
"I 	c #8E5705",
"J 	c #927C21",
"K 	c #E6BF20",
"L 	c #E1B111",
"M 	c #DA9F0D",
"N 	c #CD7C07",
"O 	c #8F4E03",
"P 	c #876F10",
"Q 	c #E1B211",
"R 	c #DBA10E",
"S 	c #D48F0A",
"T 	c #CD7D07",
"U 	c #C76C04",
"V 	c #A95001",
"W 	c #DBA20E",
"X 	c #D5900B",
"Y 	c #B16E07",
"Z 	c #673A02",
"` 	c #6B3401",
" .	c #AF4F00",
"..	c #210F00",
"+.	c #CB8A0A",
"@.	c #965F06",
"#.	c #421E00",
"$.	c #603D04",
"                                    ",
"              . + @                 ",
"            # $ % & *               ",
"          = - ; > , ' )             ",
"          ! ~ { ] ^ / (             ",
"          _ : < [ } | 1             ",
"            2 3 4 5 6 7             ",
"            8 9 0 a b c             ",
"          d e f g h i j k           ",
"          l m n o p q r s t         ",
"          u v w x y z A   B C       ",
"          D E F G ' H I             ",
"          J K L M H N O             ",
"          P Q R S T U V             ",
"            W X Y Z `  ...          ",
"            +.@.        #.          ",
"            $.                      ",
"                                    "};
