/* XPM */
static char *games_shooters_target[] = {
/* columns rows colors chars-per-pixel */
"24 18 11 1 ",
"  c black",
". c #DF0029",
"X c #E0082F",
"o c #EF7F94",
"O c #808080",
"+ c #A9A9A9",
"@ c #EF8094",
"# c #F7C0CA",
"$ c #F9F9F9",
"% c gray100",
"& c None",
/* pixels */
"&&&&&&&&&&&&&&&&&&&&&&&&",
"&&&&&&&&&&&&&&&&&&&&&&&&",
"&&&&&     &&&     &&&&&&",
"&&&  %%+$$   .....  &&&&",
"&& %%%%+$$O@ %%%%%.. &&&",
"&& %%%%+$$O@ @...@%. &&&",
"& %%%%%+$O@%# %%%o@%. &&",
"& %%%%% $O@%@ @.@%.%. &&",
"& ++++   ++++ ...%.%. &&",
"& %%%%% $O@%@ @.@%.%. &&",
"& %%%%%+$O@%# %%%o@%. &&",
"&& %%%%+$$O@ @...@%X &&&",
"&& %%%%+$$O@ %%%%%.. &&&",
"&&&  %%+$$   .....  &&&&",
"&&&&&     &&&     &&&&&&",
"&&&&&&& &&&&&&&&&&&&&&&&",
"&&&&&&& &&&&&&&&&&&&&&&&",
"&&&&&&&&&&&&&&&&&&&&&&&&"
};
