/* XPM */
static char *games_children_board[] = {
/* columns rows colors chars-per-pixel */
"24 18 15 1 ",
"  c black",
". c gray12",
"X c #3F3F3F",
"o c #484848",
"O c #635A4E",
"+ c gray50",
"@ c #A8927A",
"# c #C6B39B",
"$ c #D1C2AF",
"% c #DACEBF",
"& c gray80",
"* c #E1D8CC",
"= c #E7E0D6",
"- c gray100",
"; c None",
/* pixels */
";;;;o              o;;;;",
";;;oO*%$###########Oo;;;",
";;; =&&&&&&&&&&&&&&@ ;;;",
";;; *&---X----X-+ -@ ;;;",
";;; %&--- ---- - +-@ ;;;",
";;; $&--- ---- ----@ ;;;",
";;; #&X          .-@ ;;;",
";;; #&--- ---- ----@ ;;;",
";;; #&--- -+ - ----@ ;;;",
";;; #&--- - +- ----@ ;;;",
";;; #&--- ---- ----@ ;;;",
";;; #&X          X-@ ;;;",
";;; #&--- ---- ----@ ;;;",
";;; #&+ - ----X----@ ;;;",
";;; #& +-+----+----@ ;;;",
";;; #&-------------@ ;;;",
";;;oO@@@@@@@@@@@@@@Oo;;;",
";;;;o              o;;;;"
};
