/* XPM */
static char *games_jesters_cap[] = {
/* columns rows colors chars-per-pixel */
"24 18 35 1 ",
"  c black",
". c #88192D",
"X c #9E1C34",
"o c #B4203C",
"O c #C02340",
"+ c #CB2544",
"@ c #E2294B",
"# c #D14B63",
"$ c #C75569",
"% c #E74A67",
"& c #E8536F",
"* c #E85671",
"= c #E95873",
"- c #FFC000",
"; c #FFCC31",
": c #FFD75F",
"> c #FFD966",
", c #85778F",
"< c #AC7F87",
"1 c #EE7E92",
"2 c #A291AE",
"3 c #AEAEAE",
"4 c #C5929B",
"5 c #F08B9E",
"6 c #D19BA5",
"7 c #F29AAA",
"8 c #F4A8B6",
"9 c #FFE8A3",
"0 c #BFAACD",
"q c #F6B6C2",
"w c #D0D0D0",
"e c #F8C5CF",
"r c #F9D1D9",
"t c #FFF5D6",
"y c None",
/* pixels */
"yyyyyyyyyyyyyyyyyyyyyyyy",
"yyyyyyy  yyyyyyyyyyyyyyy",
"yyyyyy 9>   yyyyyyyyyyyy",
"yyyyyy >- q= yyyyyyyyyyy",
"yyyyyyy  y 5 yyyyyyyyyyy",
"yyyyyyyyyy 8+ yyyyyyyyyy",
"y  y  yyyy q# yyyy   yyy",
" 9; qq  y rq&o y  @@.  y",
" >-  4qq ee7&oo &*o  t: ",
"y  yy 4qqrq1%+o&@o y :- ",
"yyyyy 4qqqq1%+@@@o yy  y",
"yyyyyy 4qqq1%@@@o yyyyyy",
"yyyyyy <6qq1%@@OX yyyyyy",
"yyyyyy 00<<$XXX00 3wyyyy",
"yyyyyy ,20000002, 333wyy",
"yyyyyyy  ,,,,,,  33w33wy",
"yyyyw3333      33wyywwwy",
"yyyy33www3333333yyyyyyyy"
};
