/* XPM */
static char *gears[] = {
/* columns rows colors chars-per-pixel */
"24 18 28 1 ",
"  c black",
". c #17120D",
"X c gray11",
"o c #292313",
"O c #4B3520",
"+ c #4D4224",
"@ c #4E4E4E",
"# c gray36",
"$ c #766658",
"% c #9B8E6C",
"& c #ECCB71",
"* c #F3D071",
"= c #F6D272",
"- c #F6D373",
"; c #F1D076",
": c #FAD676",
"> c #FFDA76",
", c #F6D57B",
"< c #818181",
"1 c gray53",
"2 c #A59C83",
"3 c #A9A9A9",
"4 c #FEE781",
"5 c #FEED86",
"6 c #FFE59F",
"7 c #FFE7A5",
"8 c #FFEFC4",
"9 c None",
/* pixels */
"999999999999999999999999",
"999999999999999999999999",
"99999999999999  99 99999",
"99999999$O<999 -XX;  999",
"99999  9O>#9  &&>>;- 999",
"9999 44o2>%+>> >11>.9999",
"9999 5>66>66>> >19*X9999",
"99999 >>   7> :;*>,, 999",
"999$O2> 333 7%@;  - 9999",
"999O>>> 399 7>>O99  9999",
"999<#%> 399 72O$99999999",
"99999 >7   8> 9999999999",
"9999 >>>7787>> 999999999",
"9999 >> 2>% >> 999999999",
"99999  9O>#9  9999999999",
"99999999$O<9999999999999",
"999999999999999999999999",
"999999999999999999999999"
};
