/* XPM */
static char * gimp_xpm[] = {
"18 18 90 1",
" 	c None",
".	c #A1977E",
"+	c #6D6654",
"@	c #5D5748",
"#	c #938A72",
"$	c #7C7461",
"%	c #6B6452",
"&	c #665F4E",
"*	c #8F856F",
"=	c #776F5C",
"-	c #655F4F",
";	c #645E4D",
">	c #6D6553",
",	c #655E4D",
"'	c #555041",
")	c #B7B6B5",
"!	c #CBC7C0",
"~	c #B1ABA0",
"{	c #D9D7D4",
"]	c #C2C0B8",
"^	c #736C59",
"/	c #635C4C",
"(	c #595343",
"_	c #534D3F",
":	c #514C3D",
"<	c #27251E",
"[	c #787878",
"}	c #555555",
"|	c #5C5A56",
"1	c #6F6F6E",
"2	c #E0DFDD",
"3	c #B6B6B5",
"4	c #646464",
"5	c #E2E2E2",
"6	c #726C5D",
"7	c #5A5445",
"8	c #484236",
"9	c #3F3B2F",
"0	c #211E18",
"a	c #020101",
"b	c #474747",
"c	c #454545",
"d	c #545350",
"e	c #857F70",
"f	c #8A8370",
"g	c #9F9B91",
"h	c #A9A8A6",
"i	c #AFADA8",
"j	c #635D4D",
"k	c #504B3D",
"l	c #413D31",
"m	c #2E2A22",
"n	c #373737",
"o	c #565656",
"p	c #6C6B69",
"q	c #635E4D",
"r	c #756E5B",
"s	c #716A59",
"t	c #645E4E",
"u	c #4B473B",
"v	c #454134",
"w	c #3D392E",
"x	c #15130F",
"y	c #010100",
"z	c #68655E",
"A	c #5C574C",
"B	c #4C483A",
"C	c #575142",
"D	c #575143",
"E	c #474337",
"F	c #464238",
"G	c #665D4F",
"H	c #514737",
"I	c #3A3327",
"J	c #100D09",
"K	c #1B1914",
"L	c #13110E",
"M	c #1D1C18",
"N	c #36342D",
"O	c #4D4A42",
"P	c #39372F",
"Q	c #312A1F",
"R	c #69573F",
"S	c #967F62",
"T	c #949290",
"U	c #050504",
"V	c #060605",
"W	c #050404",
"X	c #000000",
"Y	c #282828",
"                  ",
"                  ",
"                  ",
"                  ",
"    .         +@  ",
"    #$       %&   ",
"     *=-   ;>,'   ",
"    )!~{]^/(_:<   ",
" [}|1234567890a   ",
" bcdefghijklma    ",
" nopq^rstuvwxy    ",
"  zABCDEFGHIJ     ",
"    KLMNOPQRST    ",
"      UVWXX    Y  ",
"                  ",
"                  ",
"                  ",
"                  "};
