/* XPM */
static char * gnome_gkrellm_xpm[] = {
"18 18 204 2",
"  	c None",
". 	c #21201F",
"+ 	c #363330",
"@ 	c #35322F",
"# 	c #34322F",
"$ 	c #342F2B",
"% 	c #332D2A",
"& 	c #2F2A2A",
"* 	c #2F282C",
"= 	c #2D272E",
"- 	c #2C262B",
"; 	c #282427",
"> 	c #262327",
", 	c #242125",
"' 	c #171717",
") 	c #6D6764",
"! 	c #585152",
"~ 	c #5D514C",
"{ 	c #6B574A",
"] 	c #785B4E",
"^ 	c #7C5A57",
"/ 	c #855B6D",
"( 	c #8D6182",
"_ 	c #906893",
": 	c #9371A0",
"< 	c #9579A1",
"[ 	c #9B82A9",
"} 	c #A08CAA",
"| 	c #645171",
"1 	c #352436",
"2 	c #0D0D0D",
"3 	c #6A6868",
"4 	c #5A4E45",
"5 	c #A39086",
"6 	c #9E837B",
"7 	c #9C7B7B",
"8 	c #9D758A",
"9 	c #9C6D97",
"0 	c #95689F",
"a 	c #8C659E",
"b 	c #87659A",
"c 	c #826393",
"d 	c #7F658C",
"e 	c #7A6589",
"f 	c #654B77",
"g 	c #392444",
"h 	c #100F0E",
"i 	c #626162",
"j 	c #745C4F",
"k 	c #60453A",
"l 	c #1E1514",
"m 	c #1D1317",
"n 	c #3A283D",
"o 	c #432E4A",
"p 	c #3C2746",
"q 	c #362341",
"r 	c #2F1F3A",
"s 	c #291B34",
"t 	c #251731",
"u 	c #21132C",
"v 	c #1C1024",
"w 	c #110A13",
"x 	c #111010",
"y 	c #626061",
"z 	c #71584F",
"A 	c #442F30",
"B 	c #020202",
"C 	c #684677",
"D 	c #805797",
"E 	c #8E62A8",
"F 	c #976FAC",
"G 	c #A07CB5",
"H 	c #AE8BC2",
"I 	c #B89DCA",
"J 	c #CAB9D3",
"K 	c #88689D",
"L 	c #321743",
"M 	c #141112",
"N 	c #6F5459",
"O 	c #452F39",
"P 	c #040203",
"Q 	c #030304",
"R 	c #432D4F",
"S 	c #714C89",
"T 	c #714A8B",
"U 	c #724192",
"V 	c #713B94",
"W 	c #703695",
"X 	c #702C99",
"Y 	c #8A6A9B",
"Z 	c #A173BB",
"` 	c #44175C",
" .	c #191216",
"..	c #666365",
"+.	c #67505A",
"@.	c #70516C",
"#.	c #422F49",
"$.	c #3C2946",
"%.	c #3C2947",
"&.	c #3F2650",
"*.	c #3E2251",
"=.	c #3B1E4E",
"-.	c #391A4B",
";.	c #37164A",
">.	c #36134A",
",.	c #8B7196",
"'.	c #966CA8",
").	c #491560",
"!.	c #191119",
"~.	c #806C71",
"{.	c #332830",
"].	c #49344C",
"^.	c #543B60",
"/.	c #614274",
"(.	c #70468B",
"_.	c #7F48A5",
":.	c #9051B9",
"<.	c #9C64BD",
"[.	c #AB73CA",
"}.	c #B988D2",
"|.	c #C69BDB",
"1.	c #D5B7E1",
"2.	c #6F3680",
"3.	c #41134E",
"4.	c #140D16",
"5.	c #2B2327",
"6.	c #8A6684",
"7.	c #875F93",
"8.	c #7E5695",
"9.	c #7B5099",
"0.	c #7A449C",
"a.	c #793C9F",
"b.	c #7B37A2",
"c.	c #7A34A0",
"d.	c #7A329F",
"e.	c #7A2E9F",
"f.	c #7C28A2",
"g.	c #751F98",
"h.	c #752192",
"i.	c #230B2A",
"j.	c #3E2A34",
"k.	c #120C0F",
"l.	c #210D29",
"m.	c #441C5C",
"n.	c #53266A",
"o.	c #612E7D",
"p.	c #6D3C85",
"q.	c #653A7D",
"r.	c #251133",
"s.	c #59396C",
"t.	c #4B3D52",
"u.	c #503D5A",
"v.	c #3B2E41",
"w.	c #734D88",
"x.	c #0C030F",
"y.	c #37113C",
"z.	c #2A1D26",
"A.	c #4A3444",
"B.	c #321340",
"C.	c #6B2494",
"D.	c #502763",
"E.	c #813BA8",
"F.	c #8B45B0",
"G.	c #894FA8",
"H.	c #2D1640",
"I.	c #78548E",
"J.	c #6B5A71",
"K.	c #724B8F",
"L.	c #9272A8",
"M.	c #8C6CA5",
"N.	c #451851",
"O.	c #3D1647",
"P.	c #4A3340",
"Q.	c #583B56",
"R.	c #7A4D89",
"S.	c #4D2464",
"T.	c #662A8B",
"U.	c #662B8A",
"V.	c #7D41A0",
"W.	c #744096",
"X.	c #724191",
"Y.	c #8D5DA9",
"Z.	c #7F529F",
"`.	c #2E163F",
" +	c #22122A",
".+	c #684C7E",
"++	c #732580",
"@+	c #602A67",
"#+	c #2D1E29",
"$+	c #4C344B",
"%+	c #45304E",
"&+	c #332535",
"*+	c #0E090C",
"=+	c #120912",
"-+	c #110B10",
";+	c #181016",
">+	c #1D171A",
",+	c #281E25",
"'+	c #2C232A",
")+	c #2E262D",
"!+	c #3C2F3B",
"~+	c #7F4585",
"{+	c #7C3F81",
"]+	c #5F4F58",
"                                    ",
"                                    ",
"                                    ",
"    . + @ # $ % & * = - ; > , ,     ",
"  ' ) ! ~ { ] ^ / ( _ : < [ } | 1   ",
"  2 3 4 5 6 7 8 9 0 a b c d e f g   ",
"  h i j k l m n o p q r s t u v w   ",
"  x y z A B B C D E F G H I J K L   ",
"  M y N O P Q R S T U V W X Y Z `   ",
"   ...+.@.#.$.%.&.*.=.-.;.>.,.'.).  ",
"  !.~.{.].^./.(._.:.<.[.}.|.1.2.3.  ",
"  4.5.6.7.8.9.0.a.b.c.d.e.f.g.h.i.  ",
"  j.k.l.m.n.o.p.q.r.s.t.u.v.w.x.y.  ",
"  z.A.B.C.D.E.F.G.H.I.J.K.L.M.N.O.  ",
"  P.Q.R.S.T.U.V.W.X.Y.Z.`. +.+++@+  ",
"  #+$+%+&+*+=+-+;+>+,+'+)+!+~+{+]+  ",
"                                    ",
"                                    "};
