/* XPM */
static char * gnutella_xpm[] = {
"18 18 208 2",
"  	c None",
". 	c #9CA5CF",
"+ 	c #8B99D1",
"@ 	c #7C90CF",
"# 	c #91A6D9",
"$ 	c #7A96D3",
"% 	c #8999D2",
"& 	c #98A3D2",
"* 	c #7884CA",
"= 	c #95AFDD",
"- 	c #D2E0F0",
"; 	c #EFF6F7",
"> 	c #F5FAF6",
", 	c #F7FCFB",
"' 	c #EBF5F3",
") 	c #CBDEEF",
"! 	c #8DACE1",
"~ 	c #8195CD",
"{ 	c #7585C9",
"] 	c #9EC0E0",
"^ 	c #D9EBDF",
"/ 	c #DDEBDD",
"( 	c #E5EFE6",
"_ 	c #E7F0E7",
": 	c #DBEBDC",
"< 	c #DBEADA",
"[ 	c #D4E8E0",
"} 	c #8BBCDA",
"| 	c #6581C5",
"1 	c #7481C8",
"2 	c #76AAC0",
"3 	c #C3DBC3",
"4 	c #D2E5DB",
"5 	c #E6F1F2",
"6 	c #F1FAFD",
"7 	c #E7F3ED",
"8 	c #C0D9BF",
"9 	c #C4DBC3",
"0 	c #C0DABD",
"a 	c #65A3A5",
"b 	c #778EC5",
"c 	c #A0A5D2",
"d 	c #5985B2",
"e 	c #73A898",
"f 	c #D0E6F3",
"g 	c #DBEDFE",
"h 	c #DFEEFF",
"i 	c #E8F2FD",
"j 	c #C4D8D0",
"k 	c #BDD6C8",
"l 	c #B8D1C5",
"m 	c #BBD4C9",
"n 	c #ADC7B4",
"o 	c #B0CAB6",
"p 	c #62936F",
"q 	c #5185AB",
"r 	c #8B9AC8",
"s 	c #838FCB",
"t 	c #3C7DA0",
"u 	c #509FD4",
"v 	c #94CCFF",
"w 	c #C0E0FF",
"x 	c #C9E1F5",
"y 	c #ACC1C2",
"z 	c #98B1A9",
"A 	c #99B2AA",
"B 	c #9AB2AC",
"C 	c #95AFA8",
"D 	c #81A198",
"E 	c #446C5F",
"F 	c #093D28",
"G 	c #2B6571",
"H 	c #758BC7",
"I 	c #5E75C4",
"J 	c #36799A",
"K 	c #51A4E1",
"L 	c #60B5FA",
"M 	c #72BDFF",
"N 	c #7EB8E9",
"O 	c #497777",
"P 	c #49726A",
"Q 	c #49726B",
"R 	c #3D6861",
"S 	c #26534F",
"T 	c #124846",
"U 	c #09423F",
"V 	c #084441",
"W 	c #1B5250",
"X 	c #5982BC",
"Y 	c #5D7EB8",
"Z 	c #12533E",
"` 	c #0B4D39",
" .	c #2F7B8C",
"..	c #5FB4FB",
"+.	c #67B6FF",
"@.	c #539ECF",
"#.	c #34788C",
"$.	c #14574F",
"%.	c #05462E",
"&.	c #074932",
"*.	c #074A32",
"=.	c #13574E",
"-.	c #3D849D",
";.	c #438594",
">.	c #5B85B8",
",.	c #5C7DB0",
"'.	c #13623B",
").	c #0C5C2F",
"!.	c #318291",
"~.	c #5AB0FB",
"{.	c #5BB1FF",
"].	c #5EB3FF",
"^.	c #3688A1",
"/.	c #0B5631",
"(.	c #0A552F",
"_.	c #0F5D3A",
":.	c #5BA7DA",
"<.	c #519AB3",
"[.	c #6BA7B9",
"}.	c #7399CF",
"|.	c #5B75B3",
"1.	c #1D6F44",
"2.	c #116832",
"3.	c #146B39",
"4.	c #52A5DC",
"5.	c #5CB0FE",
"6.	c #5CB0FF",
"7.	c #59AEFF",
"8.	c #4398B9",
"9.	c #116831",
"0.	c #136A39",
"a.	c #4492A3",
"b.	c #78BCF5",
"c.	c #43938C",
"d.	c #7BB6C5",
"e.	c #658AC6",
"f.	c #8692CA",
"g.	c #378564",
"h.	c #237E48",
"i.	c #68AECB",
"j.	c #74BBFD",
"k.	c #6CB8FF",
"l.	c #64B4FF",
"m.	c #63B1EB",
"n.	c #227F4C",
"o.	c #3C927D",
"p.	c #7BBCEC",
"q.	c #87C2EA",
"r.	c #228046",
"s.	c #509C81",
"t.	c #6D80B8",
"u.	c #9FA2D3",
"v.	c #648FA9",
"w.	c #62AE91",
"x.	c #A0D0FF",
"y.	c #8FC8FF",
"z.	c #86C4FF",
"A.	c #81C1FF",
"B.	c #7FC1FF",
"C.	c #80C2FF",
"D.	c #7EBDDE",
"E.	c #8EC6F5",
"F.	c #99CCF8",
"G.	c #9CCCDC",
"H.	c #A8D3CE",
"I.	c #7DA3C5",
"J.	c #737FAD",
"K.	c #868FC8",
"L.	c #7CB4B2",
"M.	c #C1E2FF",
"N.	c #B3DAFF",
"O.	c #A7D3FF",
"P.	c #A3D1FF",
"Q.	c #A8D4FF",
"R.	c #B1D9FF",
"S.	c #C2E1FF",
"T.	c #D6ECFF",
"U.	c #C7DCF3",
"V.	c #6678AD",
"W.	c #727DC1",
"X.	c #C3D8F1",
"Y.	c #DFEFFF",
"Z.	c #D7EBFF",
"`.	c #CFE7FF",
" +	c #CFE6FF",
".+	c #D1E8FF",
"++	c #DDEEFF",
"@+	c #ECF5FF",
"#+	c #D4DFF3",
"$+	c #7381B7",
"%+	c #8089C1",
"&+	c #A3B1DB",
"*+	c #9AD1B3",
"=+	c #94DAA1",
"-+	c #ACE3B7",
";+	c #A9E2B3",
">+	c #CBEAD4",
",+	c #D8E3F0",
"'+	c #A3B2DA",
")+	c #6778AD",
"!+	c #8A8FBF",
"~+	c #7184B4",
"{+	c #5580A0",
"]+	c #558F97",
"^+	c #508E93",
"/+	c #52809E",
"(+	c #6C7BAF",
"_+	c #7077A7",
"                                    ",
"          . + @ # # $ % &           ",
"        * = - ; > , ' ) ! ~         ",
"      { ] ^ / ( _ : < < [ } |       ",
"    1 2 3 4 5 6 7 8 9 9 9 0 a b     ",
"  c d e f g h i j k l m n o p q r   ",
"  s t u v w x y z A B C D E F G H   ",
"  I J K L M N O P Q R S T U V W X   ",
"  Y Z `  ...+.@.#.$.%.&.*.=.-.;.>.  ",
"  ,.'.).).!.~.{.].^./.(._.:.<.[.}.  ",
"  |.1.2.3.4.5.6.7.8.9.0.a.b.c.d.e.  ",
"  f.g.h.i.j.k.+.l.m.n.o.p.q.r.s.t.  ",
"  u.v.w.x.y.z.A.B.C.D.E.F.G.H.I.J.  ",
"    K.L.M.N.O.P.P.P.Q.R.S.T.U.V.    ",
"      W.X.Y.Z.`. + +.+++@+#+$+      ",
"        %+&+*+=+-+;+>+,+'+)+        ",
"          !+~+{+]+^+/+(+_+          ",
"                                    "};
