/* XPM */
static char *graphics_convert_polaroid[] = {
/* columns rows colors chars-per-pixel */
"24 18 13 1 ",
"  c black",
". c #156BA6",
"X c #709BB9",
"o c #719CB9",
"O c #1A86CF",
"+ c gray64",
"@ c #9EB3C2",
"# c #8CC2E7",
"$ c #8DC3E7",
"% c gray80",
"& c #C5E0F3",
"* c gray100",
"= c None",
/* pixels */
"========================",
"===            =========",
"=== ********** =========",
"=== *.......O* =========",
"=== *.OOOOOOO*  ========",
"=== *.OOOOOOO* % =======",
"=== *.OOOOOOO* @* ======",
"=== *.OOOOOOO* .&* =====",
"=== *.OOOOOOO* .O&* ====",
"=== *o$$$$$$$* .OO&* ===",
"=== ********** .OO$% ===",
"=== %%%%%%%%%% .O#% ====",
"===            .$% =====",
"======== +%%@..X% ======",
"========= %**&&% =======",
"========== %**% ========",
"=========== %% =========",
"============  =========="
};
