/* XPM */
static char *graph_geneology[] = {
/* columns rows colors chars-per-pixel */
"24 18 99 2 ",
"   c black",
".  c #000001",
"X  c #00000B",
"o  c #1A160F",
"O  c #1B1713",
"+  c #1E1B17",
"@  c #181818",
"#  c gray10",
"$  c #211C0B",
"%  c #2E2611",
"&  c #1D2020",
"*  c #202122",
"=  c #232427",
"-  c #2A2726",
";  c #3D3626",
":  c #2B2B31",
">  c #312F34",
",  c #383C3C",
"<  c #403821",
"1  c #423D35",
"2  c #504225",
"3  c #534525",
"4  c #49443F",
"5  c #756931",
"6  c #74613E",
"7  c #403E43",
"8  c #4B4F4F",
"9  c #4F4D4C",
"0  c #564141",
"q  c #504C49",
"w  c #515151",
"e  c #545657",
"r  c #695151",
"t  c #605F5D",
"y  c #705555",
"u  c #7A5F5F",
"i  c #786345",
"p  c #7F6B4A",
"a  c #70655C",
"s  c #74665C",
"d  c #616464",
"f  c DimGray",
"g  c gray43",
"h  c #756A62",
"j  c #787368",
"k  c #717273",
"l  c #7D7773",
"z  c #797B7C",
"x  c #907A3C",
"c  c #937954",
"v  c #896A68",
"b  c #8B7D76",
"n  c #937171",
"m  c #9F7976",
"M  c #9A7B79",
"N  c #B29B39",
"B  c #9F8540",
"V  c #B79949",
"C  c #9E866B",
"Z  c #AB906C",
"A  c #C3A47F",
"S  c #FFD555",
"D  c #FFD951",
"F  c #FFD952",
"G  c #FFDE52",
"H  c #FFDC59",
"J  c #FFDD5D",
"K  c #2F79B2",
"L  c #44AEFF",
"P  c #808080",
"I  c gray52",
"U  c #8D8D8E",
"Y  c gray56",
"T  c #A18687",
"R  c #A88B8C",
"E  c #AC8C8E",
"W  c #AC8F90",
"Q  c #BC9597",
"!  c #B89698",
"~  c gray63",
"^  c #B8B9B9",
"/  c gray75",
"(  c #C7A885",
")  c #C3B0A3",
"_  c #CEB7A8",
"`  c #EFBCBC",
"'  c #DEC3AF",
"]  c #F4BDC0",
"[  c #BFC0C0",
"{  c gray80",
"}  c #F4C0C0",
"|  c #F7C2C2",
" . c #FAC5C5",
".. c #EBD1C2",
"X. c #F1D6C6",
"o. c #FFE4D2",
"O. c #FFEAD2",
"+. c gray100",
"@. c None",
/* pixels */
"P P P P P P P P P P P P P P P P P P Y e k @.@.@.",
"P +.+.+.+.+.+.+.+.+.+.+.+.+.+.+.+.~ + o O I @.@.",
"P +.+.L L K +.+.+.G G N +.+.+.+.+.= i ( c @ @.@.",
"P +.+.L L K       G G N +.+.+.+.+.* C O.A @ @.@.",
"P +.+.K K K +.  +.N N N +.+.+.+.+.z o.o.o.f @.@.",
"P +.+.+.+.+.+.  +.+.+.+.+.+.+.+.+.d a ' s 8 @.@.",
"P +.+.                  +.+.+.+., r ! l R u & @.",
"P +.+.  +.+.+.  +.+.+.  +.+.+.+.0 } | | `  .y @.",
"P +.+.  +.+.+.  +.+.+.  +.+.+.[ n | E ] Q | Q f ",
"P +.G G N +.L L K +.L L K +.+./ M E v | m T Q f ",
"P +.G G N +.L L K +.L L K     ^ h 4 x V B 1 b f ",
"P +.N N N +.K K K +.K K K +.  +.X 5 F F S 5   @.",
"P +.+.+.+.+.+.+.+.+.+.+.+.+.  +.; F J F H F < @.",
"P +.+.+.+.+.+.+.+.+.+.+.+.L L j V F F F F F V j ",
"P +.+.+.+.+.+.+.+.+.+.+.+.L L j $ 6 Z 2 p 3 % j ",
"P +.+.+.+.+.+.+.+.+.+.+.+.K K K +.7 X.: ..> @.@.",
"P { { { { { { { { { { { { { { { { 9 ) - _ q @.@.",
"                                  g w @.t Y @.@."
};
