/* XPM */
static char *graphics[] = {
/* columns rows colors chars-per-pixel */
"24 18 208 2 ",
"   c black",
".  c #1B1A1A",
"X  c #321C1A",
"o  c #3F221B",
"O  c #271E20",
"+  c #34292B",
"@  c #322E2B",
"#  c #4A271F",
"$  c #7E361F",
"%  c #643321",
"&  c #713C25",
"*  c #74442E",
"=  c #7F502E",
"-  c #754831",
";  c #7E5430",
":  c #7A553F",
">  c #7F5C48",
",  c gray43",
"<  c #73776B",
"1  c gray48",
"2  c #814628",
"3  c #844932",
"4  c #894832",
"5  c #925232",
"6  c #9A5531",
"7  c #945B37",
"8  c #935E3E",
"9  c #995B3A",
"0  c #A64F36",
"q  c #A45E36",
"w  c #A15038",
"e  c #AD533B",
"r  c #A8563A",
"t  c #B75E31",
"y  c #B15E35",
"u  c #936A3E",
"i  c #A4623C",
"p  c #BF6235",
"a  c #B06039",
"s  c #B26239",
"d  c #BA6939",
"f  c #BE6C39",
"g  c #BF733B",
"h  c #C56B3A",
"j  c #C16B3E",
"k  c #C5703D",
"l  c #CB7138",
"z  c #DA7233",
"x  c #DB7B36",
"c  c #DE7937",
"v  c #DE7B38",
"b  c #8E6E47",
"n  c #95774B",
"m  c #8F7253",
"M  c #BC6F43",
"N  c #AC7242",
"B  c #BA7040",
"V  c #B8754B",
"C  c #B77B52",
"Z  c #C47841",
"A  c #C17B4A",
"S  c #C47E4A",
"D  c #CF803F",
"F  c #CF863E",
"G  c #97815A",
"H  c #9B865E",
"J  c #9B8C6B",
"K  c #98896E",
"L  c #9B8A6E",
"P  c #9A8A72",
"I  c #998E73",
"U  c #9B9276",
"Y  c #A38569",
"T  c #B38761",
"R  c #CF8747",
"E  c #D18340",
"W  c #D48442",
"Q  c #DF8743",
"!  c #D28947",
"~  c #D78847",
"^  c #D0854C",
"/  c #D38D48",
"(  c #D38B4F",
")  c #D38E4E",
"_  c #DE9148",
"`  c #D9964F",
"'  c #C08554",
"]  c #CB8353",
"[  c #D28B52",
"{  c #D59352",
"}  c #D79054",
"|  c #D99650",
" . c #DF9C53",
".. c #DB9A54",
"X. c #DD9E55",
"o. c #DE9F56",
"O. c #D5905A",
"+. c #D0905D",
"@. c #D89B5A",
"#. c #DB9C5F",
"$. c #E08D4A",
"%. c #E29B4D",
"&. c #E09152",
"*. c #E99654",
"=. c #E19E57",
"-. c #E69D59",
";. c #DEA05A",
":. c #E4A15B",
">. c #E7A95B",
",. c #CA9364",
"<. c #D09A61",
"1. c #D19B63",
"2. c #D89F61",
"3. c #D79F6A",
"4. c #DFA369",
"5. c #D2AA7C",
"6. c #D2AD7D",
"7. c #E0A360",
"8. c #E0A760",
"9. c #E3A166",
"0. c #E4AA62",
"q. c #E3A966",
"w. c #E3AA66",
"e. c #E5AB66",
"r. c #E3AC68",
"t. c #E3AE6E",
"y. c #EBAD6A",
"u. c #E6B16B",
"i. c #E4B66E",
"p. c #EBB06B",
"a. c #F1B366",
"s. c #E0A971",
"d. c #E7B574",
"f. c #E4B677",
"g. c #EBB370",
"h. c #E9B470",
"j. c #EBB572",
"k. c #E8B677",
"l. c #E8BC77",
"z. c #E5B97A",
"x. c #E8BB78",
"c. c #EABF7A",
"v. c #ECBF78",
"b. c #EDBF78",
"n. c #EABD7E",
"m. c #F4BD76",
"M. c #F0BF7D",
"N. c #1D6D9B",
"B. c #3D7D87",
"V. c #266C9A",
"C. c #0479A9",
"Z. c #3F8E9F",
"A. c #0A80A6",
"S. c #2995B8",
"D. c #5B888A",
"F. c #469EB4",
"G. c #039DD6",
"H. c #0A9FD6",
"J. c gray51",
"K. c #888888",
"L. c gray54",
"P. c #8E8E8E",
"I. c #AAAAAA",
"U. c #B7B7B7",
"Y. c gray74",
"T. c #EABA81",
"R. c #ECBF82",
"E. c #ECBF84",
"W. c #ECC380",
"Q. c #EFC783",
"!. c #EBC087",
"~. c #ECC085",
"^. c #EFC384",
"/. c #ECC289",
"(. c #EDC58B",
"). c #EEC78C",
"_. c #F2CC8D",
"`. c #ECCB91",
"'. c #ECCA93",
"]. c #EFCA93",
"[. c #EFCB94",
"{. c #ECCA99",
"}. c #EECE99",
"|. c #F0C792",
" X c #F2CF9C",
".X c #F2D296",
"XX c #E3CEA2",
"oX c #EED2A3",
"OX c #EED3A3",
"+X c #EFD7AB",
"@X c #F2D2A1",
"#X c #F3D9A7",
"$X c #F1D8AB",
"%X c #F3DAAA",
"&X c #F1D8AD",
"*X c #F2DAB1",
"=X c #F2DCB2",
"-X c #F8E2B7",
";X c #FFE8B9",
":X c #C5C5C5",
">X c #C6C6C6",
",X c #CBCBCB",
"<X c #CDCDCD",
"1X c #CECECE",
"2X c #D0D0D0",
"3X c gray84",
"4X c #E6E6E6",
"5X c None",
/* pixels */
"5X5X                                        5X5X",
"5X5X  4X4X3X,X,XY.Y.I.I.I.I.I.I.I.I.I.I.L.  5X5X",
"5X5X  3XL.& ; b G K K P I U J H n u 3 >XP.  5X5X",
"5X5X  3XL.5 m.!.`.oX&X-X;XXX5.,.<.@.*.>XP.  5X5X",
"5X5X  :X1 N Q..X|.).`.6.m - 7 i 6 S -.:XP.  5X5X",
"5X5X  1XJ.9 2.#.p.u.^ $ X @ + # Z g.y.:XP.  5X5X",
"5X5X  :X1 o . O * 7.f.} B V C 1.@X}.j.>XP.  5X5X",
"5X5X  :X1 % > : 4 ' _.b.~.9.~.%X=X`.j.>XP.  5X5X",
"5X5X  >X1 8 t $.j ] ^.0.(.#X+X+X{.l.:.:XP.  5X5X",
"5X5X  U., < c _ a A l.%.>.oX*X XT.e.~ :XP.  5X5X",
"5X5X  U., B.c &.d [ M.>.E z.'./.t.o.W >XP.  5X5X",
"5X5X  U., C.Y Q j O.s.q s n.~.k.w. .! >XP.  5X5X",
"5X5X  U., C.F.c h 3 2 M 4.W.c.d.r.` R >XP.  5X5X",
"5X5X  U., N.H.T z h ( a.b.i.r.r.;./ D >XP.  5X5X",
"5X5X  U.1 V.G.Z.h y 6 0 r e k o.` F k >XP.  5X5X",
"5X5X  U.1 V.G.S.D.l ) 3.+.} ..o.o.F g >XP.  5X5X",
"5X5X  2X1X>X>X>X>X>X>X>X>X>X>X>X>X>X>X>XP.  5X5X",
"5X5X                                        5X5X"
};
