/* XPM */
static char *graphics_paint_edit[] = {
/* columns rows colors chars-per-pixel */
"24 18 68 1 ",
"  c black",
". c #490000",
"X c #610001",
"o c #786D4B",
"O c #767676",
"+ c gray48",
"@ c #B02511",
"# c #FF4F26",
"$ c #FF5F3A",
"% c #8D494A",
"& c #9A494A",
"* c #CA5644",
"= c #D9614D",
"- c #FF7251",
"; c #FF7555",
": c #FF7656",
"> c #FF735E",
", c #FF7859",
"< c #FF7B5C",
"1 c #B28712",
"2 c #CC9A15",
"3 c #E5AD17",
"4 c #FFC11A",
"5 c #A69669",
"6 c #B2A171",
"7 c #B9A775",
"8 c #FF8164",
"9 c #FF8367",
"0 c #FF886C",
"q c #FF8D72",
"w c #FF937A",
"e c #FFDA76",
"r c #898989",
"t c #939393",
"y c #A4A4A4",
"u c #AEAEAE",
"i c #B7B7B7",
"p c #C79999",
"a c #FF9786",
"s c #FF9F89",
"d c #FFA08B",
"f c #FFA28C",
"g c #FFA692",
"h c #FFA792",
"j c #FFB3A2",
"k c #FFB4A9",
"l c #FFBDAC",
"z c #E5CF91",
"x c #FFC8BC",
"c c #FFE6A2",
"v c #FFE9AD",
"b c #CECECE",
"n c #FFCFC4",
"m c #E9D6D6",
"M c #FFF0C7",
"N c #FFF2CE",
"B c #E2E2E2",
"V c gray90",
"C c #E6E6E6",
"Z c #EEEEEE",
"A c #F6EFEF",
"S c gray94",
"D c gray96",
"F c #F6F6F6",
"G c #F9F9F9",
"H c #FBFBFB",
"J c gray100",
"K c None",
/* pixels */
"KKKKKKK                K",
"KKKKKKK JJJJJJJJJJJJJJ K",
"KKKKKKK JJ ;;;;;;;;,,0 K",
"KKKKKKK J k@#$$;:,8qxx K",
"KKKKKKK  Moa@ddddfgjnx K",
"KKKKKKK M7cc>@$-;wdlxx K",
"KKKKKK Mccczoa%ddddgxx K",
"KKKKK eOccc5ca>&;;dddx K",
"KKKK e3JOccccza*=s999x K",
"KKKK e41JOcccc*Xp9JJsJ K",
"KKKKK 441JOcc6.bm#JJsJ K",
"KKKKK 4441VO6 iZJJJJsJ K",
"KKKK e422442 iVZAJJJ9J K",
"KKK e42  22 iBSGJJJJ#J K",
"KK v42  r  tBBSJJJJJJJ K",
"K N42 u +yyyBDDGJJJJJJ K",
"K e2 uK                K",
"KK  uKKKKKKKKKKKKKKKKKKK"
};
