/* XPM */
static char *ham[] = {
/* columns rows colors chars-per-pixel */
"24 18 45 1 ",
"  c black",
". c #3F3F3F",
"X c gray31",
"o c #5B4743",
"O c #65504B",
"+ c #65514C",
"@ c #66514C",
"# c #715A54",
"$ c #7E645E",
"% c gray40",
"& c #7C7979",
"* c #7C7C7C",
"= c #8E7069",
"- c #91726B",
"; c #9E7D75",
": c #808080",
"> c #9A8782",
", c #9B9B9B",
"< c #B58F86",
"1 c #B69188",
"2 c #AB9691",
"3 c #A9A6A6",
"4 c #A9A9A9",
"5 c #BEA7A2",
"6 c #BBB7B6",
"7 c #CBA197",
"8 c #C6A7A0",
"9 c #C2B1AE",
"0 c #C6B7B5",
"q c #D6BCB6",
"w c #E2B3A8",
"e c gray76",
"r c #EED1CB",
"t c #F3DFDB",
"y c #F5E3E0",
"u c #F7E8E5",
"i c #F9EEEC",
"p c #FAF1F0",
"a c #F9F4F2",
"s c #FBF4F2",
"d c #FBF5F4",
"f c #FDF8F8",
"g c #FDFAF9",
"h c #FFFEFE",
"j c None",
/* pixels */
"jjjjjjjjjjjjjjjjjjjjjjjj",
"jjjjjjjjjjjj j jjjjjjjjj",
"jjjjjjjjjj j4j4j jjjjjjj",
"jjjjjjjjjj4jjjjj4jjjjjjj",
"jjjjjjjjjjjjjjjjj jjjjjj",
"jjjjjj        jjj4jjjjjj",
"jjjj: drrwwwr; %jjjjjjjj",
"jjjj pwwrrywwr; jjjjjjjj",
"jjj hggs7wwi;ww= jjjjjjj",
"jjj urrrs;wrr;w1 jjjjjjj",
"jjj ry36rr;ww;$+ jjjjjjj",
"jjj qy&d9r8ww$#+ eejjjjj",
"jjjj yiitrr=<#  ,,ejjjjj",
"jjjj 0rrrrq$-o *,eX.jjjj",
"jjjjj >2555O  ,,eejjjjjj",
"jjjjjj      ,,e,.jejjjjj",
"jjjjjjjjeeeejjjjjjjjjjjj",
"jjjjjjjjjjjjjjjjjjjjjjjj"
};
