/* XPM */
static char *hand_resource[] = {
/* columns rows colors chars-per-pixel */
"24 18 24 1 ",
"  c black",
". c #9C541B",
"X c #C26821",
"o c #D87425",
"O c #E39B63",
"+ c #E8AC7C",
"@ c #9A8982",
"# c #A28E86",
"$ c #B0988F",
"% c #AC9991",
"& c #B09F98",
"* c #B9A59D",
"= c #A9A9A9",
"- c #BFAAA1",
"; c #CEB8AF",
": c #CBB8B0",
"> c #D5BDB3",
", c #EFC5A4",
"< c #E5CDC3",
"1 c #E2CDC4",
"2 c #FCE4DA",
"3 c gray90",
"4 c gray100",
"5 c None",
/* pixels */
"555555555555555555555555",
"5555555555    5555555555",
"555555555 2@2% 555555555",
"555555555 2%2*2 55555555",
"555555555 2-2*2< 5555555",
"555555555 2;2;2   555555",
"5555555   212; O+o 55555",
"555555 2& 2222 ,oX 55555",
"555555 22;#222 oX. 55555",
"5555555 22;:222   555555",
"5555555 2221222< 5555555",
"55555555 222222< 5555555",
"55555555 >2222<$ 5555555",
"555555555 <22<$$ 5555555",
"555555555=      =5555555",
"555555555 444444 5555555",
"555555555 333333 5555555",
"555555555        5555555"
};
