/* XPM */
static char *hand_holding_left[] = {
/* columns rows colors chars-per-pixel */
"24 18 47 1 ",
"  c black",
". c gray10",
"X c gray12",
"o c #232323",
"O c gray14",
"+ c gray15",
"@ c #313131",
"# c gray20",
"$ c #353535",
"% c #373737",
"& c gray22",
"* c gray24",
"= c #5C5133",
"- c gray26",
"; c gray28",
": c #726259",
"> c gray38",
", c #797979",
"< c #907F50",
"1 c #ECB728",
"2 c #988377",
"3 c #9A8478",
"4 c #EDC044",
"5 c #F0C44D",
"6 c #9A8982",
"7 c gray57",
"8 c #AC9487",
"9 c #AC9991",
"0 c #BEA495",
"q c #B9A59D",
"w c #A9A9A9",
"e c #C9B4AC",
"r c #D5B8A7",
"t c #D4BFB6",
"y c #F0D486",
"u c #F3DB99",
"i c #DAC4BB",
"p c #DBC5BC",
"a c #EDCDBA",
"s c #F5E1AB",
"d c gray76",
"f c #F1D7C8",
"g c #F4E1D6",
"h c #FCE4DA",
"j c gray88",
"k c gray100",
"l c None",
/* pixels */
"llllllllllllllllllllllll",
"llllllllllllllllllllllll",
"llllllllllllllllllllllll",
"lllll      lllllllllllll",
"lllll syu5 dllllllllllll",
"lllll s4     lllllllllll",
"ll    s4 gfaa llllllllll",
"l hhh s4=000aa >       l",
"l 69t s4<   aar k;--***l",
"l hhh s4s1 8aar k*#&&&$l",
"l 9qp s4s4 8aar k*#####l",
"l hhh s4s4 8aar k*#####l",
"ll ie s4s4 8aar k$+++++l",
"lll   s4s4 302:ok@.....l",
"lllll 44y4   ,7X +j    l",
"lllll      lllllw+     l",
"llllllllllllllllllllllll",
"llllllllllllllllllllllll"
};
