/* XPM */
static char *hand_binary_library[] = {
/* columns rows colors chars-per-pixel */
"24 18 69 1 ",
"  c black",
". c #020202",
"X c #101010",
"o c #191919",
"O c gray27",
"+ c #484848",
"@ c gray30",
"# c #555555",
"$ c #5D5D5D",
"% c #5F5F5F",
"& c #626262",
"* c #646464",
"= c #6D6D6D",
"- c gray44",
"; c #717171",
": c #727272",
"> c #9D7F2E",
", c #A48636",
"< c #A68737",
"1 c #A68938",
"2 c #A78A3A",
"3 c #A98B3B",
"4 c #AA8C3C",
"5 c #CC9A15",
"6 c #E5AD17",
"7 c #FFC11A",
"8 c #FFD45F",
"9 c #868686",
"0 c #9A8982",
"q c #A28E86",
"w c #B0988F",
"e c #AC9991",
"r c #B09F98",
"t c #A2A2A2",
"y c #A9A9A9",
"u c #AEAEAE",
"i c #BFAAA1",
"p c #CEB8AF",
"a c #CBB8B0",
"s c #D5BDB3",
"d c #FFE18F",
"f c #C1C1C1",
"g c #CACACA",
"h c gray85",
"j c #DAD9DA",
"k c #DADADA",
"l c #E5CDC3",
"z c #E2CDC4",
"x c #FAE2D8",
"c c #FCE4DA",
"v c #DFE0E0",
"b c gray90",
"n c #E5E6E6",
"m c gray92",
"M c #EFEFEF",
"N c gray94",
"B c #F1F1F1",
"V c #F1F2F2",
"C c gray95",
"Z c #F4F4F4",
"A c #F6F6F6",
"S c #F6F6F7",
"D c #F7F6F7",
"F c #F6F7F7",
"G c gray97",
"H c #F8F8F8",
"J c #FBFBFB",
"K c gray100",
"L c None",
/* pixels */
"LLLLLL  LLLLLLLLLLLLLLLL",
"LLLL  c0 XLLLLLLLLLLLLLL",
"LLL c0cex0XLLLLLLLLLLLLL",
"LLL cec$               L",
"LLL cicokMMMNNMMMMMM3d y",
"LLL cpcouNkkkkkkkkkk,8 y",
"L   czct=Nv+b+v-O-vv,7 y",
" cr cccc Zb$b$b#b#bb17 y",
" ccpqccc FM&m&m&M&mm37 y",
"L ccpact-HN*N*N9-9NN37 y",
"L ccczc@tJGGGGGGFGGF36 y",
"LL cccc gfffffffffff>5 y",
"LL scccc               y",
"LLL lcclww yyyyyyyyyyyyy",
"LLLy      yLLLLLLLLLLLLL",
"LLL KKKKKK LLLLLLLLLLLLL",
"LLL bbbbbb LLLLLLLLLLLLL",
"LLL        LLLLLLLLLLLLL"
};
