/* XPM */
static char *hand_open_right[] = {
/* columns rows colors chars-per-pixel */
"24 18 54 1 ",
"  c black",
". c gray6",
"X c #101010",
"o c #191716",
"O c #231E1D",
"+ c #272727",
"@ c gray18",
"# c #322E2C",
"$ c #3A3A3A",
"% c #555555",
"& c gray34",
"* c #6A5F5A",
"= c #6B605B",
"- c #776A64",
"; c #797979",
": c #7C7C7C",
"> c gray50",
", c #9A8982",
"< c gray57",
"1 c #9B9B9B",
"2 c #A28E86",
"3 c #A1928B",
"4 c #B0988F",
"5 c #AC9991",
"6 c #B09F98",
"7 c #A5A5A5",
"8 c #A9A9A9",
"9 c #BFAAA1",
"0 c gray72",
"q c #C5B3AB",
"w c #CEB6AD",
"e c #CEB8AF",
"r c #D8C0B7",
"t c #D7C3BA",
"y c gray76",
"u c gray80",
"i c #CECECE",
"p c #E2CAC1",
"a c #E5CDC3",
"s c #E2CDC4",
"d c #E6CEC5",
"f c #EDD6CD",
"g c #EED6CC",
"h c #EFD8CF",
"j c #F5DDD3",
"k c #F6DED5",
"l c #FAE2D8",
"z c #FCE4DA",
"x c #E6E6E6",
"c c #E7E7E7",
"v c gray95",
"b c gray99",
"n c gray100",
"m c None",
/* pixels */
"mmmmmmmmmmmmmmmmmmmmmmmm",
"mmmmmmmmmmmmmm< mmmmmmmm",
"mmmmmmmmmmmmm<qz mmmmmmm",
"mmmmmmmmmmmm 3z6 mmmmmmm",
"mm     %>8  zze      mmm",
"mm nnnnuo azze2zzzzzz mm",
"mm vvvvy#tzzzzzzse5-= mm",
"mm xxxx0#tzjlllzzzzzzz m",
"mm b$c@+#tgdzl lzse5-= m",
"mm >>iu7#twdk lllllllXmm",
"mm 00000O4,rp ghse95,.mm",
"mm        ;         Xmmm",
"m&111111111111 111111&mm",
"%yyyyyyyyyyyyyy yyyyyy&m",
"mmmmmmmmmmmmmmm mmmmmmmm",
"mmmmmmmmmmmmmmm mmmmmmmm",
"mmmmmmmmmmmmmm mmmmmmmmm",
"mmmmmmmmmmmm  mmmmmmmmmm"
};
