/* XPM */
static char *hands_holding_passing[] = {
/* columns rows colors chars-per-pixel */
"24 18 20 1 ",
"  c black",
". c #726259",
"X c gray38",
"o c #797979",
"O c #ECB728",
"+ c #988377",
"@ c #9A8478",
"# c #EDC043",
"$ c #EDC044",
"% c #F0C44D",
"& c #F0C95E",
"* c gray57",
"= c #AC9487",
"- c #BEA495",
"; c #F0D486",
": c #EDCDBA",
"> c #F5E1AB",
", c gray76",
"< c gray100",
"1 c None",
/* pixels */
"111111111111111111111111",
"111111111111111111111111",
"1111111          1111111",
"1111111 >>>>>>>% ,111111",
"11111     ;;;;;$ ,111111",
"1111 :::: O;;;     11111",
"  X ::::: $;;; :::: 1111",
" < :::   #$;;; ---:: X  ",
" < :::: %O;;;;;   ::: < ",
" < :::: >;;;;;;O =::: < ",
" < :::: >;;;;;;$ =::: < ",
" < :::: >;;;;;;$ =::: < ",
"  X.+-- >;;;;;;$ =::: < ",
"111*o   >;;;;;;$ @-+.X  ",
"1111111 &$$$$$$$   o*111",
"1111111          ,111111",
"11111111,,,,,,,,,,111111",
"111111111111111111111111"
};
