/* XPM */
static char *hand_mail[] = {
/* columns rows colors chars-per-pixel */
"24 18 38 1 ",
"  c black",
". c gray6",
"X c #101010",
"o c gray33",
"O c gray47",
"+ c #0090FF",
"@ c #45AAF7",
"# c #9A8982",
"$ c #929292",
"% c #A28E86",
"& c #A8968E",
"* c #B0988F",
"= c #AC9991",
"- c #B09F98",
"; c #B4A19A",
": c #A9A9A9",
"> c #BFAAA1",
", c #BEAAA2",
"< c #B7B7B7",
"1 c #BCBCBC",
"2 c gray74",
"3 c #CEB8AF",
"4 c #CBB8B0",
"5 c #D5BDB3",
"6 c #B5D3EB",
"7 c #B5D4EB",
"8 c #C5C5C5",
"9 c gray78",
"0 c #CECECE",
"q c gray81",
"w c #E5CDC3",
"e c #E2CDC4",
"r c #FAE2D8",
"t c #FCE4DA",
"y c gray90",
"u c gray95",
"i c gray100",
"p c None",
/* pixels */
"ppppppp  ppppppppppppppp",
"ppppp  t& .ppppppppppppp",
"pppp t#t;r>Xpppppppppppp",
"pppp t=               pp",
"pppp t> iyyyyyyyyyyyy pp",
"pppp t3 ioO8yyyyyy+@< pp",
"pp   te iq2qyyyyyy76< pp",
"p t- tt iyy999998yyy< pp",
"p tt3%t iyy$<$<$<yyy< pp",
"pp tt34 iyyq1q1q2yyy< pp",
"pp ttte iyyyyyyyyyyy< pp",
"ppp ttt <<<<<<<<<<<<< pp",
"ppp 5tt               pp",
"pppp wttw** pppppppppppp",
"pppp:      :pppppppppppp",
"pppp uuuuuu pppppppppppp",
"pppp yyyyyy pppppppppppp",
"pppp        pppppppppppp"
};
