/* XPM */
static char *hardware_usb[] = {
/* columns rows colors chars-per-pixel */
"24 18 98 2 ",
"   c black",
".  c #020202",
"X  c gray1",
"o  c #060606",
"O  c #070707",
"+  c #090909",
"@  c gray5",
"#  c #111111",
"$  c #131313",
"%  c gray8",
"&  c #181818",
"*  c #1B1B1B",
"=  c gray13",
"-  c #222222",
";  c #232323",
":  c gray17",
">  c #2F2F2F",
",  c gray22",
"<  c #393939",
"1  c gray23",
"2  c #5C4416",
"3  c #614717",
"4  c #78571C",
"5  c #79581C",
"6  c #7C5A1D",
"7  c #7D5B1D",
"8  c gray28",
"9  c #484848",
"0  c #535353",
"q  c #555555",
"w  c #565656",
"e  c gray34",
"r  c gray38",
"t  c gray40",
"y  c #686868",
"u  c #6A6A6A",
"i  c gray44",
"p  c #727272",
"a  c #777777",
"s  c #797979",
"d  c #7B7B7B",
"f  c #7C7C7C",
"g  c gray50",
"h  c #805E1E",
"j  c #84601F",
"k  c #88631F",
"l  c #886320",
"z  c #8E6721",
"x  c #8D6722",
"c  c #8E6821",
"v  c #926B22",
"b  c #926B23",
"n  c #956D24",
"m  c #9B7124",
"M  c #AA7D28",
"N  c #B9882C",
"B  c #CA9430",
"V  c #E6AD38",
"C  c #A19C52",
"Z  c #E6CC41",
"A  c #FFD344",
"S  c #D2C563",
"D  c #FFE762",
"F  c #FFF17A",
"G  c #808080",
"H  c gray51",
"J  c #838383",
"K  c gray52",
"L  c #888888",
"P  c #898989",
"I  c #8B8B8B",
"U  c gray55",
"Y  c #8D8D8D",
"T  c #929292",
"R  c #959595",
"E  c gray59",
"W  c #979797",
"Q  c #9D9D9D",
"!  c #B2AB8E",
"~  c #B2B297",
"^  c #A0A0A0",
"/  c gray63",
"(  c gray64",
")  c #A4A4A4",
"_  c #A7A7A7",
"`  c #AAAAAA",
"'  c gray67",
"]  c #B2B2B1",
"[  c #B2B2B2",
"{  c #FFFF9E",
"}  c #FFFFA3",
"|  c #C0C0C0",
" . c #C1C1C1",
".. c gray80",
"X. c #E5E5DD",
"o. c #FFFFDB",
"O. c gray90",
"+. c None",
/* pixels */
"+.+.+.+.+.+.+.+.+.+.+.+.+.+.+.+.+.+.+.+.+.+.+.+.",
"+.+.+.+.+.+.+.+.+.+.+.+.+.+.+.+.+.+.+.+.+.+.+.+.",
"+.+.+.+.+.+.+.+.+.+.+.+.+.+.+.+.+.+.+.+.+.+.+.+.",
"+.+.+.+.+.+.+.+.+.+.+.                +.+.+.+.+.",
"+.+.+.+.+.+.+.+.H     ( E L a ......  +.+.+.+.+.",
"+.+.+.+.+.+.+.+.  ' Q Y | i r ( +.S C l B +.+.+.",
"+.+.+.+.+.+.+.  ) E | i [ q 8 T o.Z [ [ M +.+.+.",
"+.g             Y d [ q ) 1 > T } V [ X.n +.+.+.",
"+.H _ _ ( W L g u q ) 1 E = * T { N v z l +.+.+.",
"+.H L H g i t q 8 1 W = L % @ H F c 3 2 h +.+.+.",
"+.g             : = Y % K + o u D n ~ ! 6 +.+.+.",
"+.+.+.+.+.+.+.  & # K o K     u A v [ O.5 +.+.+.",
"+.+.+.+.+.+.+.+.  o o   H     0 m z j 6 4 +.+.+.",
"+.+.+.+.+.+.+.+.H             u t u   +.+.+.+.+.",
"+.+.+.+.+.+.+.+.+.+.                  +.+.+.+.+.",
"+.+.+.+.+.+.+.+.+.+.+.+.+.+.+.+.+.+.+.+.+.+.+.+.",
"+.+.+.+.+.+.+.+.+.+.+.+.+.+.+.+.+.+.+.+.+.+.+.+.",
"+.+.+.+.+.+.+.+.+.+.+.+.+.+.+.+.+.+.+.+.+.+.+.+."
};
