/* XPM */
static char *hardware_audio_cd[] = {
/* columns rows colors chars-per-pixel */
"24 18 145 2 ",
"   c black",
".  c gray10",
"X  c gray17",
"o  c #484848",
"O  c gray30",
"+  c #555046",
"@  c #5A5048",
"#  c #62524A",
"$  c #64524A",
"%  c gray38",
"&  c #808080",
"*  c #838383",
"=  c gray57",
"-  c #B0A591",
";  c #B7A792",
":  c #AEAEAE",
">  c #A8BEA5",
",  c #C7AA96",
"<  c #D5AC9A",
"1  c #B5CE9F",
"2  c #B3CBA7",
"3  c #BBD8B4",
"4  c #BBDEB7",
"5  c #DFD3B7",
"6  c #C0E2B3",
"7  c #C0E1B6",
"8  c #C2E3BE",
"9  c #C6E9B9",
"0  c #C6EBBE",
"q  c #C3ECBD",
"w  c #C5EEBF",
"e  c #CBEAB9",
"r  c #CAE8BA",
"t  c #CAECBE",
"y  c #CEEFBE",
"u  c #D0E3B7",
"i  c #DFEAB7",
"p  c #CEF1BF",
"a  c #D5F1BB",
"s  c #D6F0BB",
"d  c #F7EEBD",
"f  c #BBEEC2",
"g  c #BEFAC3",
"h  c #B6F4CF",
"j  c #BBF2C8",
"k  c #BBF4C9",
"l  c #BCF7C8",
"z  c #B9F1CC",
"x  c #BCF2CD",
"c  c #BBF7CC",
"v  c #BDF6CF",
"b  c #B6F7D2",
"n  c #BDF4D3",
"m  c #BFFAD9",
"M  c gray76",
"N  c gray80",
"B  c #CECECE",
"V  c #D0DCD2",
"C  c #E4DEDB",
"Z  c #C6F4C0",
"A  c #C4F4C4",
"S  c #C6F6C6",
"D  c #CFF2C2",
"F  c #CBF1C6",
"G  c #CEF0C5",
"H  c #CEF0C7",
"J  c #C1FAC2",
"K  c #CEFFC0",
"L  c #CAFEC5",
"P  c #CBFFC6",
"I  c #CCFFC6",
"U  c #CAF2CA",
"Y  c #C3F9C9",
"T  c #C5FACB",
"R  c #D7FFC7",
"E  c #D9F9C0",
"W  c #D9FFC6",
"Q  c #D3F8CA",
"!  c #D7F8C8",
"~  c #D7FFC8",
"^  c #DFFFCB",
"/  c #DCFECD",
"(  c #DFFFCD",
")  c #DEFFD5",
"_  c #E5FFC2",
"`  c #E2FFC5",
"'  c #E5FFC5",
"]  c #EEFFC6",
"[  c #E3FFCF",
"{  c #E7FFCD",
"}  c #EBFFCE",
"|  c #F6FFCD",
" . c #E1E5D2",
".. c #F3EED1",
"X. c #E0FFD1",
"o. c #E1FFD1",
"O. c #E1FFD3",
"+. c #E3FFD2",
"@. c #E4FFD1",
"#. c #E4FFD6",
"$. c #EEFFD5",
"%. c #E4FFDA",
"&. c #F6FFD3",
"*. c #F0FFD4",
"=. c #F3FFD9",
"-. c #F2FFDA",
";. c #F4FFDB",
":. c #F5FFDB",
">. c #FFFFDA",
",. c #FBFFDE",
"<. c #FFFFDE",
"1. c #FFFFDF",
"2. c #EBFFE5",
"3. c #EEFFE5",
"4. c #F1FFE1",
"5. c #FEFFE1",
"6. c #FFFFE4",
"7. c #FFFFE5",
"8. c #FCFFE7",
"9. c #F3FFEB",
"0. c #FFFFE8",
"q. c #FFFFEA",
"w. c #FFFFEB",
"e. c #FFFFED",
"r. c #FDFFEE",
"t. c #FFFFEF",
"y. c #EFFFF0",
"u. c #F6FFF0",
"i. c #F7FFF5",
"p. c ivory",
"a. c #FFFFF1",
"s. c #FFFFF2",
"d. c #FEFFF3",
"f. c #FFFFF3",
"g. c #FFFFF5",
"h. c #FFFFF6",
"j. c #FFFFF7",
"k. c #FFFFF9",
"l. c #FFFFFA",
"z. c #FFFFFB",
"x. c #FDFFFC",
"c. c #FFFFFC",
"v. c #FFFFFD",
"b. c gray100",
"n. c None",
/* pixels */
"n.n.n.n.n.n.n.n.n.n.n.n.n.n.n.n.n.n.n.n.n.n.n.n.",
"n.n.n.n.n.n.n.O O O O O O n.n.n.n.n.n.n.n.n.n.n.",
"n.n.n.n.n.O O c.c.c.c.c.c.O * n.n.n.n.n.n.n.n.n.",
"n.n.n.n.* 9.8.7.5.:.$.( I T n   M n.n.n.n.n.n.n.",
"n.n.n.* V c.a.w.7.;.+.R P Y l b O n.n.n.n.n.n.n.",
"n.n.n.* c.C c.w.5.=.} W P g c b   M n.n.n.n.n.n.",
"n.n.* c.c.c. .c.a.w.,.^ K J j z m % M n.n.n.n.n.",
"n.n.* c.c.z.j...5 @ + u ~ S j x n % M n.n.n.n.n.",
"n.n.O z.z.j.j.c.# B B - +.Z f               n.n.",
"n.n.O z.j.j.a.j.$ B c.; $.w S   c.c.c.c.B   : n.",
"n.n.O i.a.j.a.a.d < , i s q H   c.= c.c.N   : n.",
"n.n.O y.u.w.7.>.7.8.>.' 1 y U   c.& X c.N   : n.",
"n.n.n.O 2.4.=.&.| ] _ a e 2 )   c.& . o B   : n.",
"n.n.n.O %.#.+.+.{ ` E e 9 D >   c.& X c.N   : n.",
"n.n.n.M   O.( / ! D t 6 7 G 3.  c.= c.c.N   : n.",
"n.n.n.n.M O   Q F 0 8 4 3   O   N N N N B   : n.",
"n.n.n.n.n.M M             M M               : n.",
"n.n.n.n.n.n.n.M M M M M M n.n.n.: : : : : : : n."
};
