/* XPM */
static char *hardware_card[] = {
/* columns rows colors chars-per-pixel */
"24 18 129 2 ",
"   c black",
".  c #00280C",
"X  c #112A19",
"o  c #133C1F",
"O  c #2A2A2A",
"+  c #313131",
"@  c #004215",
"#  c #00531A",
"$  c #00541A",
"%  c #1C4629",
"&  c #006820",
"*  c #006920",
"=  c #29643B",
"-  c #4D440F",
";  c #4D5F17",
":  c #4D721D",
">  c gray29",
",  c gray34",
"<  c gray36",
"1  c gray37",
"2  c gray49",
"3  c #008228",
"4  c #009A30",
"5  c #00A432",
"6  c #00A532",
"7  c #00A533",
"8  c #00A632",
"9  c #00A633",
"0  c #00A733",
"q  c #00A833",
"w  c #00A933",
"e  c #00A834",
"r  c #00A934",
"t  c #00AA34",
"y  c #00AB34",
"u  c #00AA35",
"i  c #00AB35",
"p  c #00AC35",
"a  c #00AD35",
"s  c #00AE35",
"d  c #00AE36",
"f  c #00AF36",
"g  c #00B035",
"h  c #00B036",
"j  c #00B236",
"k  c #00B336",
"l  c #00B237",
"z  c #00B437",
"x  c #00B637",
"c  c #00B738",
"v  c #00B838",
"b  c #00B938",
"n  c #00B939",
"m  c #00BB39",
"M  c #00BB3A",
"N  c #00BC3A",
"B  c #00BE3A",
"V  c #00C03B",
"C  c #00C13B",
"Z  c #00C23A",
"A  c #00C23B",
"S  c #00C33C",
"D  c #00C53C",
"F  c #00C63C",
"G  c #00C73D",
"H  c #00C83C",
"J  c #00C93E",
"K  c #00CC3F",
"L  c #00CF3E",
"P  c #00D03F",
"I  c #00D240",
"U  c #00D341",
"Y  c #00D442",
"T  c #00D942",
"R  c #00DA43",
"E  c #00DF45",
"W  c #4FC473",
"Q  c #50C674",
"!  c #51CA76",
"~  c #53CE79",
"^  c #5BCA7E",
"/  c #54D27B",
"(  c #56D87E",
")  c #AC8B17",
"_  c #AD8C17",
"`  c #B5951A",
"'  c #B7A32A",
"]  c #E3AC16",
"[  c #C1A334",
"{  c #C5B13E",
"}  c #FFD033",
"|  c #FFD837",
" . c #FFE031",
".. c #BFAD42",
"X. c #E9BD45",
"o. c #FFDF4B",
"O. c #FFE65A",
"+. c #FFE460",
"@. c #FFF17C",
"#. c #FFF27C",
"$. c #59DD83",
"%. c #5CE284",
"&. c #5EE788",
"*. c #5EEA89",
"=. c #5DE98A",
"-. c #62F18D",
";. c #62F28E",
":. c #818181",
">. c #868686",
",. c #8B8B8B",
"<. c gray57",
"1. c #929292",
"2. c #81F5A5",
"3. c #93FBB3",
"4. c #96FFB6",
"5. c #FFF59C",
"6. c #FFFCBB",
"7. c #FFFFBC",
"8. c #ABFFC5",
"9. c gray76",
"0. c #C5FFD8",
"q. c #FFFFD0",
"w. c #D4FFE1",
"e. c #E7FFEF",
"r. c gray95",
"t. c #F3F3F3",
"y. c #F4F4F4",
"u. c gray100",
"i. c None",
/* pixels */
"i.i.i.i.i.i.i.i.i.i.i.i.i.i.i.i.i.i.i.i.i.i.i.i.",
"i.i.i.i.i.i.i.i.i.i.i.i.i.i.i.i.i.> > > > + i.i.",
"i.i.i.i.i.i.i.i.i.i.i.i.i.i.i.i.> y.y.r.9.  i.i.",
"i.i.i.i.i.i.i.i.i.i.i.i.i.i.i.i.> y.<     i.i.i.",
"i.i.i.i.i.i.i.i.i.i.i.i.i.i.i.i.> y.:.  i.i.i.i.",
"i.% % % % % % % % % % % % % % % > y.<.  i.i.i.i.",
"i.% e.w.8.2.;.*.%.$.( / ~ ! Q W = y.<.  , i.i.i.",
"i.% 0.E T U K D B v v g g e e 0 $ y.u.O.  i.i.i.",
"i.% 4.T Y K J N B x x g e e w 0 $ t.u.X.  i.i.i.",
"i.% 3.U P J S B v g g p p e 0 0 & y.u. .  i.i.i.",
"i.% ;.J J Z N v g g e e 7 7 0 5 & r.<.]   i.i.i.",
"i.% *.D Z B v g f p e e e 5 5 5 & r.O   , i.i.i.",
"i.% &.S N v n l p e 0 0 0 5 5 5 # r.2   i.i.i.i.",
"i.% ^ 4 N n g p e 0 0 0 5 3 3 3 @ r.,.  i.i.i.i.",
"i.X . : q.+.7.| 5.} 5.} ] - . . o r.>.  i.i.i.i.",
"i.i.i.; 7.O.#.o.@.} @.} ] - i.i.< r.>.  i.i.i.i.",
"i.i.i.; { [ ..` ' _ ' _ ) - i.i.<       i.i.i.i.",
"i.i.i.i.- - - - - - - - - i.i.i.i.i.i.i.i.i.i.i."
};
