/* XPM */
static char *hardware_pen_tablet[] = {
/* columns rows colors chars-per-pixel */
"24 18 47 1 ",
"  c black",
". c #080807",
"X c #343434",
"o c #393838",
"O c #3C3C3C",
"+ c gray24",
"@ c #424241",
"# c gray27",
"$ c #565656",
"% c #5D5D5B",
"& c #6B6A67",
"* c gray42",
"= c #727272",
"- c #747373",
"; c #797979",
": c #0090FF",
"> c #868686",
", c #888785",
"< c #8C8C8A",
"1 c #8E8E8E",
"2 c #9F9A8A",
"3 c #A2A19F",
"4 c #A4A39F",
"5 c gray64",
"6 c #AFAEAB",
"7 c #B2B2B2",
"8 c #BFBFBC",
"9 c #C5BEAB",
"0 c #C5C1B8",
"q c #A3D7FF",
"w c #C6C6C3",
"e c #D9D7CE",
"r c #DCDAD3",
"t c #DDDBD3",
"y c #E1E1DD",
"u c #EBE8DE",
"i c #EFEADE",
"p c #F0ECE1",
"a c #F2EFE5",
"s c #F5F3EB",
"d c #F4F2EC",
"f c #F8F6F2",
"g c #F8F7F2",
"h c #FBFAF6",
"j c #FCFBF9",
"k c gray100",
"l c None",
/* pixels */
"llllllllllllllllllllllll",
"lllllllllll>$>llllllllll",
"lllllllllll$q$llllllllll",
"lllllllllll$:Ollllllllll",
"lllllllllll*&Xllllllllll",
"lllllllllll*rXllllllllll",
"llll  l    *rX         l",
"lll ll.jggr*rXrrrrrrrsa ",
"ll ll dua37*rX7wwwwwhi9 ",
"l lll;6a3kk-rokkkkkhi9 l",
" llll a5kkk,r@kkkkhp9 ll",
"llll a5kkkk84%kkkhp9 lll",
"lll a5kkkkk7#7kkhp9 llll",
"ll a5kkkkkkkO=1<09 lllll",
"l ahhhhhhhhhhyye2 llllll",
"l 99999999999999 lllllll",
"ll              llllllll",
"llllllllllllllllllllllll"
};
