/* XPM */
static char *hardware_printer[] = {
/* columns rows colors chars-per-pixel */
"24 18 39 1 ",
"  c black",
". c #48463D",
"X c #65625C",
"o c #726D5F",
"O c #606060",
"+ c #686868",
"@ c #766E61",
"# c #787466",
"$ c #7E7A72",
"% c gray47",
"& c #938A79",
"* c #838383",
"= c #969288",
"- c #A29B88",
"; c #A09C90",
": c #ADA698",
"> c #B8AD97",
", c #B2AC9E",
"< c #A4A4A4",
"1 c #BBB6AA",
"2 c #BFB8A9",
"3 c #B1B1B1",
"4 c #BCBCBC",
"5 c gray74",
"6 c gray75",
"7 c #C2BEB7",
"8 c #CAC3B2",
"9 c #D2CCBE",
"0 c gray80",
"q c #CECECE",
"w c gray86",
"e c gainsboro",
"r c #EAE3D4",
"t c gray92",
"y c gray93",
"u c #F2EEE5",
"i c gray95",
"p c gray100",
"a c None",
/* pixels */
"aaaaaaaa          aaaaaa",
"aaaaaaa iiiiiiiiiq aaaaa",
"aaaaaaa iiiiiiiq q aaaaa",
"aaaaaaa itttttt5  aaaaaa",
"aaaaaaa iO%4ttt5 aaaaaaa",
"aaaaaaa yewweee3    aaaa",
"aaaaaa  w+++++q< iii aaa",
"aaaaa r 5544444* >&> aaa",
"aaaa r==1111111111&> aaa",
"aaa uuuuuuuuuuuuu>&& aaa",
"aaa uuuuuuuuuuuu>>@> aaa",
"aaa 999999999998>&&& aaa",
"aaa X7pppppppu$:&>o aaaa",
"aaa 7ppppppuu#;2>& aaaaa",
"aaa $$$$$$$$$,.-& aaaaaa",
"aaa 999999999#   aaaaaaa",
"aaa           aaaaaaaaaa",
"aaaaaaaaaaaaaaaaaaaaaaaa"
};
