/* XPM */
static char *hardware_joystick[] = {
/* columns rows colors chars-per-pixel */
"24 18 45 1 ",
"  c black",
". c #111111",
"X c gray22",
"o c #393939",
"O c gray24",
"+ c #66392E",
"@ c gray27",
"# c gray28",
"$ c #494949",
"% c gray29",
"& c gray31",
"* c #515151",
"= c gray32",
"- c gray39",
"; c gray40",
": c #686868",
"> c #777777",
", c gray47",
"< c #7C7C7C",
"1 c #7E7E7E",
"2 c #C1573D",
"3 c #C05B44",
"4 c #DF684C",
"5 c #818181",
"6 c gray52",
"7 c #868686",
"8 c gray57",
"9 c gray59",
"0 c #9B9B9B",
"q c #9F9F9F",
"w c gray63",
"e c #A7A7A7",
"r c #AAAAAA",
"t c gray69",
"y c #B4B4B4",
"u c gray76",
"i c #C3C3C3",
"p c gray77",
"a c #CBCBCB",
"s c gray85",
"d c #DADADA",
"f c #DFDFDF",
"g c #E9E9E9",
"h c gray95",
"j c None",
/* pixels */
"jjjjjj$jjjjjj$jjjjjjjjjj",
"jjjjj jj    jj jjjjjjjjj",
"jjjjj j fssy j jjjjjjjjj",
"jjjjj$j ayy5 j$jjjjjjjjj",
"jjjjj<j py<X j<jjjjjjjjj",
"jjjjjjj pw+3 jjjjjjjjjjj",
"jjjjjjj rw42 jjjjjjjjjjj",
"jjjjjjj 7wO jjjjjjjjjjjj",
"jjjjjjj ,9O jjjjjjjjjjjj",
"jjjjjj  >9O     jjjjjjjj",
"jjjjj gX::* uuu0 jjjjjjj",
"jjjj hs7OOO,uu0*  8jjjjj",
"jjj hfu0$.$wu0*ttt   jjj",
"jj gsuuuuuuu0*t*  8jj jj",
"jj :;;;;;;;;#t* jjjjj jj",
"jj pupupupuue& jj    jjj",
"jj ---------# jj jjjjjjj",
"jjj          jj jjjjjjjj"
};
