/* XPM */
static char *home_light[] = {
/* columns rows colors chars-per-pixel */
"24 18 70 1 ",
"  c black",
". c #0C0B0A",
"X c #1C1610",
"o c gray12",
"O c #3E3A2F",
"+ c #4D290B",
"@ c #4F3D2B",
"# c #524D3E",
"$ c #625C4F",
"% c #6D5F4C",
"& c #645E57",
"* c #786D4B",
"= c #68625B",
"- c #6B655E",
"; c #7F786E",
": c #827A72",
"> c #857E73",
", c #877F75",
"< c #8A8276",
"1 c #86847D",
"2 c #8B8478",
"3 c #948C7E",
"4 c #958E80",
"5 c #968E82",
"6 c #988F84",
"7 c #9B9386",
"8 c #9E9787",
"9 c #A19A8A",
"0 c #A29A8A",
"q c #A69E89",
"w c #A49B8C",
"e c #A69E8E",
"r c #A79F8E",
"t c #A69E8F",
"y c #A69E90",
"u c #A8A08E",
"i c #ACA48D",
"p c #AAA292",
"a c #ACA490",
"s c #ADA595",
"d c #B0A696",
"f c #B1A899",
"g c #B3AA9A",
"h c #B6AC9C",
"j c #BAB29F",
"k c #BBB29F",
"l c #BAB1A0",
"z c #BCB3A2",
"x c #BFB7A4",
"c c #BFB6A5",
"v c #CCB882",
"b c #C0B6A2",
"n c #C1B7A3",
"m c #C3BAA5",
"M c #CEC09A",
"N c #CAC0AD",
"B c #CAC1AD",
"V c #CDC4AF",
"C c #E0D5BF",
"Z c #E5DABD",
"A c #FFE6A2",
"S c #E1D7C0",
"D c #E7DCC4",
"F c #EBE0C7",
"G c #F1E6CC",
"H c #F5EACF",
"J c #FFF3D2",
"K c #FFF7E0",
"L c #FFFCF5",
"P c None",
/* pixels */
"PPPPPPPPPPPPPPPPPPPPPPPP",
"PPPPPPPPPP     PPPPPPPPP",
"PPPPPPPPP 8s03t PPPPPPPP",
"PPPPPPPPP Ddw4y PPPPPPPP",
"PPPPPPPP uzStz,= PPPPPPP",
"PPPPPPPP GzStn<7 PPPPPPP",
"PPPPPPP akFmxzf;& PPPPPP",
"PPPPPPP HnFpVph>6 PPPPPP",
"PPPPPP amnjfV042:- PPPPP",
"PPPPPP OOOO###OOOO PPPPP",
"PPPPPPPPPPP+*+POPPPPPPPP",
"PPPPPii$PPP+M+P1PPPPPPPP",
"PPPPPiJ%PPP+K+P PPPPPPPP",
"PPPPPi.%PPP+J+PPPPPPPPPP",
"PPPPP$X@PPP+J+PPPPPPPPPP",
"PPPPPPoPPP++q++PPPPPPPPP",
"PPPPPPoPP LJZAv PPPPPPPP",
"PPPPPPPoo       PPPPPPPP"
};
