/* XPM */
static char *house_tree[] = {
/* columns rows colors chars-per-pixel */
"24 18 91 1 ",
"  c black",
". c #191919",
"X c #2F2F2F",
"o c #3F3F3F",
"O c #613217",
"+ c #653418",
"@ c #713A1B",
"# c #185A1B",
"$ c #28432B",
"% c #2B472F",
"& c #255829",
"* c #375C3C",
"= c #236B26",
"- c #2A782F",
"; c #2F6934",
": c #37763C",
"> c #7F4311",
", c #544533",
"< c #6B6B20",
"1 c #6E6E22",
"2 c #7C7C26",
"3 c #3D6643",
"4 c #494949",
"5 c gray30",
"6 c #535353",
"7 c #565656",
"8 c #5A5A5A",
"9 c gray40",
"0 c #777777",
"q c #94451F",
"w c #9C4D1B",
"e c #994F1F",
"r c #B25A1D",
"t c #B0581E",
"y c #B25C1C",
"u c #B45C1D",
"i c #BA5E1F",
"p c #AE6022",
"a c #E5791F",
"s c #C46C26",
"d c #CF6823",
"f c #DB6F23",
"g c #D96D26",
"h c #DA782A",
"j c #E77723",
"k c #39A53E",
"l c #34BE3A",
"z c #39B83E",
"x c #16E418",
"c c #24D228",
"v c #2EC632",
"b c #2FC534",
"n c #3CAC43",
"m c #3FB045",
"M c #42894A",
"N c #499350",
"B c #4E9D56",
"V c #46A74D",
"C c #40E443",
"Z c #43E346",
"A c #4BE04E",
"S c #5CD860",
"D c #6BD270",
"F c #6FD074",
"G c #90902C",
"H c #99992E",
"J c #A0A030",
"K c #ADAD35",
"L c #B2B236",
"P c #B8B837",
"I c #F28021",
"U c #FF8723",
"Y c #BDBD5B",
"T c #BBBB5D",
"R c #A88966",
"E c #E0E044",
"W c #E5E545",
"Q c #E8E846",
"! c #F0F049",
"~ c #F7F74B",
"^ c #FFFF4D",
"/ c #D1D178",
"( c #909090",
") c #A4A4A4",
"_ c #87E48A",
"` c #8CE390",
"' c #FFFFA6",
"] c #CECECE",
"[ c gray90",
"{ c gray100",
"} c None",
/* pixels */
"}}}}}}}}}}}}}}}}}}}}}}}}",
"}}}}}}}}}}}}}}}}}}   }}}",
"}}}}}}}  }}}}}}}} _AD }}",
"}}}}}} 'L }}}}  } Dll3 }",
"}}}}} '^^L }} DS AlbkM }",
"}}}}.'^HP~J } CxAZV*N: }",
"}}}X/^H+@P!J DccvzVB& }}",
"}}o/^<OwwqP!G-zVnVV`Fm }",
"}4YW<OeuyipP!2;z=#Bm:% }",
"8TE<OtdggaasPQ1-3R$33 }}",
"}.1OtdgaaIIIhK  ,R   }}}",
"}}X f >UUUUU  }},R,}}}}}",
"}}} j >UUUUU }}},R,}}}}}",
"}}} UUUUUUUU }}},R,}}}}}",
"}}} UUU  UUU }}},R,}}}}}",
"}}} UUU  UUU } 60997 }}}",
"}}} UUU  UUU } ]{[)( }}}",
"}}}          } 55555 }}}"
};
