/* XPM */
static char *key[] = {
/* columns rows colors chars-per-pixel */
"24 18 34 1 ",
"  c black",
". c #5B5B5B",
"X c gray37",
"o c #606060",
"O c #727272",
"+ c #777777",
"@ c #946B1A",
"# c #9F731C",
"$ c #BE8921",
"% c #D49925",
"& c #CDA327",
"* c #D9A126",
"= c #E1AF2A",
"- c #F8B72C",
"; c #E5C52F",
": c #F3CA30",
"> c #FFDB34",
", c #BC9F63",
"< c #D3B579",
"1 c #939393",
"2 c #A4A4A4",
"3 c gray66",
"4 c #AEAEAE",
"5 c gray70",
"6 c gray71",
"7 c #E6C88C",
"8 c #FFF1AE",
"9 c #C8C8C8",
"0 c #D2D2D2",
"q c #FFF9DF",
"w c #E4E4E4",
"e c #ECECEC",
"r c #F9F9F9",
"t c None",
/* pixels */
"tttttttttttttttttttttttt",
"ttttt     tttttttttttttt",
"tttt qqq88 ttttttttttttt",
"ttt qq>>>=$ tttttttttttt",
"ttt q>   ;$ tttttttttttt",
"ttt q> tt;$ tttttttttttt",
"ttt q> tt;$ tttttttttttt",
"ttt 8>qqq&@         tttt",
"tttt >>>:7rrorr4rrr5 ttt",
"tttt 8>>:<0Xew1000 3 ttt",
"tttt 8>>:,2.69O222++ ttt",
"ttt qq>>>*#         tttt",
"ttt q>   ;$ tttttttttttt",
"ttt q> tt;$ tttttttttttt",
"ttt q> tt;$ tttttttttttt",
"ttt 8>>>>-$ tttttttttttt",
"tttt %%%%% ttttttttttttt",
"ttttt     tttttttttttttt"
};
