/* XPM */
static char *label_tag_version[] = {
/* columns rows colors chars-per-pixel */
"24 18 17 1 ",
"  c black",
". c #5E563C",
"X c #696044",
"o c #766B4B",
"O c #877B56",
"+ c #978A61",
"@ c #A99A6C",
"# c #C2B07C",
"$ c gray51",
"% c #ACAA8F",
"& c #AAAAAA",
"* c gray74",
"= c #D9C68B",
"- c #F2DC9B",
"; c gray95",
": c gray100",
"> c None",
/* pixels */
">>>>>>>>>>>>>>>>>>>>>>>>",
">>>>>>>>>>>>>>>>>>>>>>>>",
">>>>>>>>>>>>>>>>>>>>>>>>",
">>>>>>>>>>>>>>>>>>>>>>>>",
">>>>>>>>>>>           >>",
">>>>>>>>>> -------o@+ &>",
">>>>>>>>> --------o@+ &>",
"> >>>>>> ---------o@+ &>",
">> >>>> --% %-:::::O+ &>",
">> >>      ; -:$$$:O+ &>",
">> > >> --% %-:::::O+ &>",
">> > >>> -----####.O+ &>",
">> >> >>> --------o@+ &>",
">> >> >>>> =======X++ &>",
">>>  >>>>>>           &>",
">>>>>>>>>>>>*&&&&&&&&&&>",
">>>>>>>>>>>>>>>>>>>>>>>>",
">>>>>>>>>>>>>>>>>>>>>>>>"
};
