/* XPM */
static char *layout_pencil_format[] = {
/* columns rows colors chars-per-pixel */
"24 18 47 1 ",
"  c black",
". c #252525",
"X c gray19",
"o c #344314",
"O c #594309",
"+ c #464032",
"@ c #567021",
"# c #555143",
"$ c #756B53",
"% c #626262",
"& c #A67D11",
"* c #8B753C",
"= c #9A6666",
"- c #AE7373",
"; c #AC8827",
": c #90BB37",
"> c #DDA617",
", c #FFC11A",
"< c #9A8E6F",
"1 c #AF9D6E",
"2 c #E3B744",
"3 c #A8CA61",
"4 c #B2D073",
"5 c #FFD76A",
"6 c #FFDA76",
"7 c #929292",
"8 c gray60",
"9 c #B5A780",
"0 c #B7A982",
"q c gray64",
"w c #A9A9A9",
"e c #B2B2B2",
"r c #D88F8F",
"t c #F09F9F",
"y c #CCBC91",
"u c #F5BCBC",
"i c #FFE191",
"p c #D0CAB6",
"a c #E3D1A1",
"s c #EBDFBD",
"d c #FFE9AD",
"f c gray80",
"g c #FFF2CE",
"h c #F1E9D1",
"j c #FBE7E7",
"k c gray100",
"l c None",
/* pixels */
"llllllllllllllllllllllll",
"               lllllllll",
" 43@4444444444 wllllllll",
" 3:@4::::::::: wllllllll",
" @@ooooooooooo wllllllll",
" 44offffffffff wllllllll",
" 4:ofkkkkkkkkk wllllllll",
" 4:ofkkkkkq%          ll",
" 4:ofkkkk8 ps66idg#fuj l",
" 4:ofkkk.+hha,,,,51kut w",
" 4:ofkkk.$9yy>>>>2*ftr w",
" 4:ofkkkk8 <0&&&&;O7-= w",
" 4:ofkkkkkqX          ww",
" 4:ofkkkkkkeee wwwwwwwwl",
" 4:ofkkkkkkkkk wllllllll",
" 4:ofkkkkkkkkk wllllllll",
"               wllllllll",
"lwwwwwwwwwwwwwwwllllllll"
};
