/* XPM */
static char *links[] = {
/* columns rows colors chars-per-pixel */
"50 50 256 2 ",
"   c #000001",
".  c #02040B",
"X  c gray3",
"o  c #030612",
"O  c #070A17",
"+  c #17161E",
"@  c #060D23",
"#  c #080F2A",
"$  c #08122A",
"%  c #07112D",
"&  c #09153C",
"*  c #0B1838",
"=  c #21212F",
"-  c #2D2F39",
";  c #38423E",
":  c #0D1D42",
">  c #0C1D4B",
",  c #101D4E",
"<  c #0E204A",
"1  c #11234C",
"2  c #1D294B",
"3  c #0E2354",
"4  c #0F245C",
"5  c #112554",
"6  c #11255B",
"7  c #11285E",
"8  c #1A2C5B",
"9  c #29314A",
"0  c #2A365A",
"q  c #333A52",
"w  c #222F5A",
"e  c #0F2562",
"r  c #0F266A",
"t  c #102562",
"y  c #132B63",
"u  c #132C6C",
"i  c #142B69",
"p  c #1C356B",
"a  c #16316C",
"s  c #0F2977",
"d  c #102D7B",
"f  c #1F3871",
"g  c #15337A",
"h  c #183677",
"j  c #2C396A",
"k  c #263866",
"l  c #323D67",
"z  c #273F77",
"x  c #423F49",
"c  c #3B4254",
"v  c #3D4D78",
"b  c #31426F",
"n  c #474A55",
"m  c #56555B",
"M  c #595757",
"N  c #484C50",
"B  c #605D4E",
"V  c #665C58",
"C  c #53675C",
"Z  c #4A4E68",
"A  c #575A6A",
"S  c #42547A",
"D  c #595A71",
"F  c #5D6F6F",
"G  c #5B637A",
"H  c #696767",
"J  c #726D6B",
"K  c #7C7665",
"L  c #686B78",
"P  c #7C7675",
"I  c #657B70",
"U  c #6B867A",
"Y  c #768A7F",
"T  c #99825F",
"R  c #978665",
"E  c #978A74",
"W  c #A59475",
"Q  c #BEA572",
"!  c #BEA26C",
"~  c #133384",
"^  c #163983",
"/  c #183B89",
"(  c #1A3D85",
")  c #1A3E90",
"_  c #1F438D",
"`  c #1C4392",
"'  c #1E489B",
"]  c #244994",
"[  c #254B9C",
"{  c #2A529D",
"}  c #314F8F",
"|  c #234EA2",
" . c #2A54A4",
".. c #2553AA",
"X. c #2955AB",
"o. c #2E5BAC",
"O. c #2659AE",
"+. c #2B5BB3",
"@. c #285DB9",
"#. c #315AA5",
"$. c #3761A8",
"%. c #2D64BC",
"&. c #3365B8",
"*. c #525B80",
"=. c #5C688A",
"-. c #526B99",
";. c #626987",
":. c #746987",
">. c #6F7087",
",. c #777D8A",
"<. c #657799",
"1. c #5876B8",
"2. c #496FAE",
"3. c #747DA2",
"4. c #245DC2",
"5. c #1D6EDD",
"6. c #2A64C4",
"7. c #2665CA",
"8. c #2865CA",
"9. c #276ACE",
"0. c #2D6DCC",
"q. c #2762C3",
"w. c #346CC5",
"e. c #266AD0",
"r. c #296CD4",
"t. c #276BD9",
"y. c #296FD9",
"u. c #2570D7",
"i. c #2C72D4",
"p. c #2A74DB",
"a. c #2E7ADD",
"s. c #2673DC",
"d. c #337BDC",
"f. c #397EDC",
"g. c #3275D6",
"h. c #3A71C4",
"j. c #567FC9",
"k. c #427FDA",
"l. c #6E839E",
"z. c #7B979B",
"x. c #789186",
"c. c #5987BA",
"v. c #7A86A4",
"b. c #7882B5",
"n. c #728FB4",
"m. c #7EA1AE",
"M. c #3A82DC",
"N. c #4686DA",
"B. c #5F8BC7",
"V. c #6788C5",
"C. c #6A95C8",
"Z. c #6899D1",
"A. c #7499D0",
"S. c #7AA1D2",
"D. c #6398E1",
"F. c #858787",
"G. c #95898A",
"H. c #9D978C",
"J. c #8B8B9D",
"K. c #988D97",
"L. c #969793",
"P. c #87968F",
"I. c #AB988A",
"U. c #B39D8E",
"Y. c #A89A96",
"T. c #AB8B95",
"R. c #86A09C",
"E. c #9DA090",
"W. c #AAA79B",
"Q. c #B5A393",
"!. c #BBAD9B",
"~. c #B7A998",
"^. c #BAAE8B",
"/. c #8B98A8",
"(. c #9497B9",
"). c #8E93AC",
"_. c #A29BA8",
"`. c #A299B5",
"'. c #9BB2AB",
"]. c #8EB9B4",
"[. c #95BAB6",
"{. c #94A6A9",
"}. c #A6A8A8",
"|. c #B8ACA4",
" X c #A2B4AB",
".X c #BAB5AA",
"XX c #A9A6B4",
"oX c #AAB6B9",
"OX c #B4B7BA",
"+X c #BAA4B4",
"@X c #C6B489",
"#X c #C2AC9B",
"$X c #CBAE9A",
"%X c #C5B49A",
"&X c #CCB39C",
"*X c #D8B699",
"=X c #C6AFA6",
"-X c #C5B2A3",
";X c #CBB4A4",
":X c #CABBA6",
">X c #DBBCA1",
",X c #D6B7A4",
"<X c #C8BDB7",
"1X c #96C2BB",
"2X c #B6C5B9",
"3X c #ADCBBA",
"4X c #D5C7AC",
"5X c #C9C9B7",
"6X c #D7CBB4",
"7X c #DCD1B8",
"8X c #E5CAAA",
"9X c #E8CBA7",
"0X c #E5D4AF",
"qX c #E2CDB2",
"wX c #E7DAB5",
"eX c #F4DBB4",
"rX c #EFE4B8",
"tX c #F5ECB8",
"yX c #F9F2B5",
"uX c #F7F1BD",
"iX c #F0E3A6",
"pX c #97A9C3",
"aX c #84A8D2",
"sX c #8EA8CD",
"dX c #A5AEC6",
"fX c #AFB8C8",
"gX c #B7BACD",
"hX c #9DC0C1",
"jX c #ABC9C1",
"kX c #B0C0CC",
"lX c #B5C0D3",
"zX c #B8C9E0",
"xX c #C8C6CA",
"cX c #DFD0C5",
"vX c #C5CDD9",
"bX c #D2CDD1",
"nX c #CCD5DD",
"mX c #D2D9CB",
"MX c #E5DAC3",
"NX c #DEE6CC",
"BX c #E7E6CC",
"VX c #F8F4CB",
"CX c #F4F5D2",
"ZX c #FCFAD3",
"AX c #FCFADC",
"SX c #FAF6D4",
"DX c #E9EDD9",
"FX c #C9D9E9",
"GX c #F5F6E2",
"HX c #FCFCE4",
"JX c #FCFCEC",
"KX c #F1F3ED",
"LX c #FDFDF4",
"PX c #FAFBF8",
"IX c #E5EBEA",
"UX c None",
/* pixels */
"UXUXUXUXUXUXUXUXUXUXUXUXUXUXUXUXUXUXUXUXUXUXUXUXUXUXUXUXUXUXUXUXUXUXUXUXUXUXUXUXUXUXUXUXUXUXUXUXUXUX",
"UXUXUXUXUXUXUXUXUXUXUXUXUXUXUXUXUXUXUXUXUXUXUXUXUXUXUXUXUXUXUXUXUXUXUXUXUXUXUXUXUXUXUXUXUXUXUXUXUXUX",
"UXUXUXUXUXUXUXUXUXUXUXUXUXUXUXUXUXUXUXUXUXUXUXUXUXUXUXUXUXUXUXUXUXUXUXUXUXUXUXUXUXUXUXUXUXUXUXUXUXUX",
"UXUXUXUXUXUXUXUXUXUXUXUXUXUXUXUXUXUXUXUXUXUXUXUXUXUXUXUXUXUXUXUXUXUXUXUXUXUXUXUXUXUXUXUXUXUXUXUXUXUX",
"UXUXUXUXUXUXUXUXUXUXUXUXUXUXUXUXUXUXUXUXUXUXUXUXUXUXUXUXUXUXUXUXUXUXUXUXUXUXUXUXUXUXUXUXUXUXUXUXUXUX",
"UXUXUXUXUXUXUXUXUXUXUXUXUXUXUXUXUXUXUXUXUXUXUXUXUXUXUXUXUXUXUXUXUXUXUXUXUXUXUXUXUXUXUXUXUXUXUXUXUXUX",
"UXUXUXUXUXUXUXUXUXUXUXUXUXUXUXUXUXUXUXUXUXUXUXUXUXUXUXUXUXUXUXUXUXUXUXUXUXUXUXUXUXUXUXUXUXUXUXUXUXUX",
"UXUXUXUXUXUXUXUXUXUXUXUXUXUXUXUXUXUXUXUXUXUXUXUXUXUXUXUXUXUXUXUXUXUXUXUXUXUXUXUXUXUXUXUXUXUXUXUXUXUX",
"UXUXUXUXUXUXUXUXUXUXUXUXUXUXUXUXUXUXUX$.-.$.2.l.<.<.L D UXUXUXUXUXUXUXUXUXUXUXUXUXUXUXUXUXUXUXUXUXUX",
"UXUXUXUXUXUXUXUXUXUXUXUXUXUXUXUX4.y.y.1.m.R.R.R.z.z.x.Y I F n UXUXUXUXUXUXUXUXUXUXUXUXUXUXUXUXUXUXUX",
"UXUXUXUXUXUXUXUXUXUXUXUXUXUX4.5.N.dXsXV.c.n.).{.R.P.x.Y U U I C ; UXUXUXUXUXUXUXUXUXUXUXUXUXUXUXUXUX",
"UXUXUXUXUXUXUXUXUXUXUXUXUXq.u.g.dXbXgXA.B.B.1.(._._.v.-.x.Y.I.W K B UXUXUXUXUXUXUXUXUXUXUXUXUXUXUXUX",
"UXUXUXUXUXUXUXUXUXUXUXUX7.i.k.vXKXHXHXHXnXC.h.j.b.`.;XXXv.K.Y.K.@XQ T UXUXUXUXUXUXUXUXUXUXUXUXUXUXUX",
"UXUXUXUXUXUXUXUXUXUXUX9.g.zXDXAXJXPXPXJXGXnXaXS.B.1.b.+X,X9X<X`.}.@X! T UXUXUXUXUXUXUXUXUXUXUXUXUXUX",
"UXUXUXUXUXUXUXUXUXUX7.d.FXGXGXJXLXJXJXHXAXHXKXKXIXzXpXdXwXyXeX.X/.@X! T V UXUXUXUXUXUXUXUXUXUXUXUXUX",
"UXUXUXUXUXUXUXUXUX+.i.D.PXPXPXLXJXHXHXJXHXAXAXJXLXGXNXwXuXuXrX4X#X^.W E P N UXUXUXUXUXUXUXUXUXUXUXUX",
"UXUXUXUXUXUXUXUXUX9.f.FXHXLXPXJXJXAXHXJXHXZXZXJXLXJXNXOX5XuXuX5X|.U.E E L P + UXUXUXUXUXUXUXUXUXUXUX",
"UXUXUXUXUXUXUXUX+.i.k.bXMXCXHXGXHXJXLXPXLXHXHXJXLXJXBXoX`.wXyX6XJ.G.E E J F x UXUXUXUXUXUXUXUXUXUXUX",
"UXUXUXUXUXUXUXUX7.s.f.kX2X5XuXCXHXHXJXJXJXHXHXJXJXHXVXfX).4XtXiX:XL.G H K H m O UXUXUXUXUXUXUXUXUXUX",
"UXUXUXUXUXUXUXUX9.s.d.aX3X2X2X5XmXNXCXZXCXVXZXZXZXVXuX.X). XyXyXiX~.Z q M M m = UXUXUXUXUXUXUXUXUXUX",
"UXUXUXUXUXUXUXO.e.p.d.N.Z.A.Z.S.hX3X3X3X3X5XwXwXeXeX9X;X_._.7X4XW.>.w 1 9 N M - X UXUXUXUXUXUXUXUXUX",
"UXUXUXUXUXUXUX+.9.s.a.f.M.M.N.N.C.hX1X1X].[. X.X;X,X;X#XW.).v.3.S j 6 1 1 x M 9 X UXUXUXUXUXUXUXUXUX",
"UXUXUXUXUXUXUX+.9.u.a.d.d.M.f.g.B.[.[.[.].].{.W.!.=X%X$X*X%X}.l.p 6 5 1 1 q n 2 X   UXUXUXUXUXUXUXUX",
"UXUXUXUXUXUXUXX.8.s.p.a.d.d.g.i.V.oX X X X}.W.W.!.=X&X$X*X*X!.=.a 7 5 1 1 9 n 1 .   UXUXUXUXUXUXUXUX",
"UXUXUXUXUXUXUX..6.9.y.p.g.p.0.0.j.OXOX.X=X-X!.Q.Y.W.$X#XI.G.=.f y 4 5 1 1 2 q 1 .   UXUXUXUXUXUXUXUX",
"UXUXUXUXUXUXUX..@.8.9.t.y.0.0.w.w.gX6X,X>X*X$XQ.Y.T.U.K.;.v f i 7 5 1 1 1 1 2 1 .   UXUXUXUXUXUXUXUX",
"UXUXUXUXUXUXUX' +.4.6.6.8.%.%.%.w.gXcX>X>X*X%XQ.U.I.G.S z p i t 5 5 5 1 1 1 1 :     UXUXUXUXUXUXUXUX",
"UXUXUXUXUXUXUX` X.+.@.6.6.&.&.$.V.xXMXqX>X#XW.I.I.I.;.z h a y 7 5 1 1 1 1 5 1 * .     UXUXUXUXUXUXUX",
"UXUXUXUXUXUXUX^ | ..+.+.&.o.#.$.dX6XcXqX>X%XE.L.G.E ;.p a a 7 5 1 1 1 1 1 1 1 $       UXUXUXUXUXUXUX",
"UXUXUXUXUXUXUXUX' |  .X.X. . .{ (.<XqXqX4X!.E.P.F.F.G p y 8 6 1 < 1 1 1 1 1 1 O .   UXUXUXUXUXUXUXUX",
"UXUXUXUXUXUXUXUX/ ' | |  .{ ] ] 1.<X0XqX:X!.E.F.,.=.v k l 0 1 1 1 1 1 1 1 1 : .     UXUXUXUXUXUXUXUX",
"UXUXUXUXUXUXUXUXr ) ` ' [ ] ] } #.xXeX9X:X^.H.,.S f k Z D l 5 1 < < 1 1 1 1 #       UXUXUXUXUXUXUXUX",
"UXUXUXUXUXUXUXUXUX~ / ` ` ` ] _ } kXMX9X%XQ.G.L k y 0 Z Z 3 3 1 1 1 1 1 1 : .       UXUXUXUXUXUXUXUX",
"UXUXUXUXUXUXUXUXUX3 g ^ / ^ / ( ^ 3.4X9X$XI.:.l y y l q 8 5 5 1 1 1 1 1 : @       UXUXUXUXUXUXUXUXUX",
"UXUXUXUXUXUXUXUXUXUXt g ~ g h h g } J.T.T.:.l i y t 6 5 5 5 3 5 1 1 1 : *         UXUXUXUXUXUXUXUXUX",
"UXUXUXUXUXUXUXUXUXUXUXt i u u u d ~ ~ g a t t r r 6 5 5 5 5 5 5 3 3 1 * .         UXUXUXUXUXUXUXUXUX",
"UXUXUXUXUXUXUXUXUXUXUX@ 3 6 t i s s ~ s s r r e 6 6 5 5 5 5 3 3 3 3 : .         UXUXUXUXUXUXUXUXUXUX",
"UXUXUXUXUXUXUXUXUXUXUXUXo , 6 r r r r r r t 3 6 6 5 3 6 6 6 6 3 3 * X         UXUXUXUXUXUXUXUXUXUXUX",
"UXUXUXUXUXUXUXUXUXUXUXUXUXUX& t e e e e e 4 3 3 5 5 3 4 7 3 6 < $             UXUXUXUXUXUXUXUXUXUXUX",
"UXUXUXUXUXUXUXUXUXUXUXUXUXUXUXo : 3 4 e e 4 e 3 5 3 5 5 3 < % .             UXUXUXUXUXUXUXUXUXUXUXUX",
"UXUXUXUXUXUXUXUXUXUXUXUXUXUXUXUX. o # & > 3 4 e 3 > & % O . X             UXUXUXUXUXUXUXUXUXUXUXUXUX",
"UXUXUXUXUXUXUXUXUXUXUXUXUXUXUXUXUX  . . . . o o o . . .               UXUXUXUXUXUXUXUXUXUXUXUXUXUXUX",
"UXUXUXUXUXUXUXUXUXUXUXUXUXUXUXUXUXUXUX                            UXUXUXUXUXUXUXUXUXUXUXUXUXUXUXUXUX",
"UXUXUXUXUXUXUXUXUXUXUXUXUXUXUXUXUXUXUXUXUXUX                  UXUXUXUXUXUXUXUXUXUXUXUXUXUXUXUXUXUXUX",
"UXUXUXUXUXUXUXUXUXUXUXUXUXUXUXUXUXUXUXUXUXUXUXUXUXUXUXUXUXUXUXUXUXUXUXUXUXUXUXUXUXUXUXUXUXUXUXUXUXUX",
"UXUXUXUXUXUXUXUXUXUXUXUXUXUXUXUXUXUXUXUXUXUXUXUXUXUXUXUXUXUXUXUXUXUXUXUXUXUXUXUXUXUXUXUXUXUXUXUXUXUX",
"UXUXUXUXUXUXUXUXUXUXUXUXUXUXUXUXUXUXUXUXUXUXUXUXUXUXUXUXUXUXUXUXUXUXUXUXUXUXUXUXUXUXUXUXUXUXUXUXUXUX",
"UXUXUXUXUXUXUXUXUXUXUXUXUXUXUXUXUXUXUXUXUXUXUXUXUXUXUXUXUXUXUXUXUXUXUXUXUXUXUXUXUXUXUXUXUXUXUXUXUXUX",
"UXUXUXUXUXUXUXUXUXUXUXUXUXUXUXUXUXUXUXUXUXUXUXUXUXUXUXUXUXUXUXUXUXUXUXUXUXUXUXUXUXUXUXUXUXUXUXUXUXUX",
"UXUXUXUXUXUXUXUXUXUXUXUXUXUXUXUXUXUXUXUXUXUXUXUXUXUXUXUXUXUXUXUXUXUXUXUXUXUXUXUXUXUXUXUXUXUXUXUXUXUX"
};
