/* XPM */
static char *machine_arm[] = {
/* columns rows colors chars-per-pixel */
"24 18 39 1 ",
"  c black",
". c #2C2C2C",
"X c #7A5F26",
"o c #0C4F77",
"O c #34627F",
"+ c gray26",
"@ c gray28",
"# c #7D704B",
"$ c gray42",
"% c #747474",
"& c gray50",
"* c #897A52",
"= c #AB8535",
"- c #B18831",
"; c #EE9C00",
": c #F4BE4B",
"> c #0069B3",
", c #1483C6",
"< c #2092D1",
"1 c #56A3D3",
"2 c #66A5D1",
"3 c #868F95",
"4 c #9B9B9B",
"5 c gray67",
"6 c #ACACAC",
"7 c #AFAFAF",
"8 c gray74",
"9 c #FADF95",
"0 c #99C3E1",
"q c #A6D3ED",
"w c #CBCBCB",
"e c #D2D2D2",
"r c #C2DBED",
"t c #CAE5F4",
"y c #DAE9F4",
"u c gray92",
"i c #E2F1F9",
"p c gray100",
"a c None",
/* pixels */
"aaaaaaaa   aaaaaaaaaaaaa",
"aaaaaa  p$e aaaaaaaaaaaa",
"aaaaa p4pp@i aaaaaaaaaaa",
"aaaaa pp$w+q< aaaaaaaaaa",
"aaaa 7pu5  <0<     &aaaa",
"aaaa 378% a >><*999#&aaa",
"aaaa to. aaa >>-;;;9#&aa",
"aaaa t,> aaa *-;;  ;9#aa",
"aaaa t,> aaa 9;; aa ; aa",
"aaaa q,> aaa 9; aaaa aaa",
"aaaa q,> aaa 99 aaaaaaaa",
"aaaa q,>> aa&=:9 aaaaaaa",
"aaaa q,>> aaa&X:9 aaaaaa",
"aaaa q,>>> aaa&  aaaaaaa",
"aaa  OOOOOO aaaaaaaaaaaa",
"aa yr0011111 aaaaaaaaaaa",
"aa 2>>>>>>>> aaaaaaaaaaa",
"aa           aaaaaaaaaaa"
};
