/* XPM */
static char *mail_mailbox[] = {
/* columns rows colors chars-per-pixel */
"24 18 38 1 ",
"  c black",
". c #151515",
"X c #544E39",
"o c #494949",
"O c #504E48",
"+ c #645C43",
"@ c #6F674B",
"# c #7A7254",
"$ c #7C7354",
"% c #7C7455",
"& c gray42",
"* c #777777",
"= c #8A805E",
"- c #8A815F",
"; c #998E69",
": c #9A906A",
"> c #838076",
", c #ACA076",
"< c #0090FF",
"1 c gray52",
"2 c #929292",
"3 c gray58",
"4 c #959595",
"5 c #BFB283",
"6 c #A4A4A4",
"7 c #B7B7B7",
"8 c #B9B9B9",
"9 c #C8C3AD",
"0 c #D9D1B5",
"q c #A0CBED",
"w c #A0CCED",
"e c #CECECE",
"r c #DFD9C1",
"t c #DED9C8",
"y c gray90",
"u c #FAF9F5",
"i c gray100",
"p c None",
/* pixels */
"pppppppppppppppppppppppp",
"ppppppp                 ",
"ppppppp iiiiiiiiiiiiiiy ",
"ppppppp i.o7yyyyyyyy<<7 ",
"ppppppp i727yyyyyyyywq7 ",
"ppppppp iyyyyyyyyyyyyy7 ",
"ppppppp iyy27272727yyy7 ",
"ppp          727272yyy7 ",
"pp rrrrrrrr9 eyyyyyyyy7 ",
"p r##,,,,,0, 48eeyyyyy7 ",
" r###,,,,0,: &*14267877 ",
" 00000000,:%            ",
" 55555555,-+ ppppppppppp",
" 5,uuuu;5,@ pppppppppppp",
" :Xtttt$,- ppppppppppppp",
"   >>>>O  pppppppppppppp",
"pp      pppppppppppppppp",
"pppppppppppppppppppppppp"
};
