/* XPM */
static char *mature_audience[] = {
/* columns rows colors chars-per-pixel */
"24 18 25 1 ",
"  c black",
". c gray3",
"X c #0B0B0B",
"o c #111111",
"O c #151515",
"+ c #161616",
"@ c gray11",
"# c #222222",
"$ c gray14",
"% c gray20",
"& c #444444",
"* c #555555",
"= c gray40",
"- c #777777",
"; c #888888",
": c gray60",
"> c #A9A9A9",
", c #AAAAAA",
"< c #BBBBBB",
"1 c gray80",
"2 c #DDDDDD",
"3 c gray87",
"4 c #EEEEEE",
"5 c gray100",
"6 c None",
/* pixels */
"666666666666666666666666",
"                       6",
"                       ,",
"  -555* :555   :55=    ,",
"  -555- 1555  o555<    ,",
"  -5<5<o5<55  =5-45#   ,",
"  -5<<5&5-55  15#,5-   ,",
"  -5<-5<5&55 %51 =52   ,",
"  -5<&551&55 ;555555*  ,",
"  -5< 55;&55 45;--15:  ,",
"  -5< <5*&55*52   =55o ,",
"                       ,",
"  5555555555555555555  ,",
"  @@+$@@$@@@.@@@@+.@@  ,",
"  2 2 2 2 2 2 2 2 2 2  ,",
"                       ,",
"6,,,,,,,,,,,,,,,,>,,,,,,",
"666666666666666666666666"
};
