/* XPM */
static char * menu_xpm[] = {
"24 23 118 2",
"  	c None",
". 	c #B8B8B8",
"+ 	c #959595",
"@ 	c #737373",
"# 	c #626262",
"$ 	c #676767",
"% 	c #747474",
"& 	c #B9B9B9",
"* 	c #868686",
"= 	c #6F6F6F",
"- 	c #9E9E9E",
"; 	c #BFBFBF",
"> 	c #C8C8CA",
", 	c #C7C7C8",
"' 	c #C8C8C8",
") 	c #CDCDCD",
"! 	c #CECECE",
"~ 	c #CCCCCC",
"{ 	c #CBCBCB",
"] 	c #C9C9C9",
"^ 	c #C7C7C7",
"/ 	c #878787",
"( 	c #A4A4A4",
"_ 	c #717171",
": 	c #9D9D9D",
"< 	c #DCDCDC",
"[ 	c #E3E3E3",
"} 	c #E6E5E7",
"| 	c #E7E7E8",
"1 	c #E4E5E6",
"2 	c #E3E5E6",
"3 	c #E6E8E8",
"4 	c #E8E8EA",
"5 	c #EAEAE9",
"6 	c #E7E8E7",
"7 	c #E6E6E6",
"8 	c #E4E4E4",
"9 	c #DDDDDD",
"0 	c #A7A7A7",
"a 	c #707070",
"b 	c #A8A8A8",
"c 	c #777777",
"d 	c #DFDFDF",
"e 	c #DDDCDD",
"f 	c #DDDFDF",
"g 	c #DEE0DE",
"h 	c #DEDFDE",
"i 	c #DDDFDE",
"j 	c #DFDFDE",
"k 	c #DEDEDE",
"l 	c #DFDDDD",
"m 	c #DDDCDC",
"n 	c #D0D0D0",
"o 	c #6D6D6D",
"p 	c #5E5E5E",
"q 	c #B4B4B4",
"r 	c #CACAC9",
"s 	c #C9CAC9",
"t 	c #D3D3D2",
"u 	c #D4D4D3",
"v 	c #D5D3D4",
"w 	c #D5D4D4",
"x 	c #D6D6D6",
"y 	c #D8D7D6",
"z 	c #D7D6D7",
"A 	c #D7D7D7",
"B 	c #D2D2D2",
"C 	c #B1B1B1",
"D 	c #616161",
"E 	c #BEBEBE",
"F 	c #D8D8D8",
"G 	c #D6D7D7",
"H 	c #E2E1E2",
"I 	c #E2E2E0",
"J 	c #E4E4E3",
"K 	c #E4E5E4",
"L 	c #E5E5E5",
"M 	c #E4E3E3",
"N 	c #E4E2E2",
"O 	c #DEDEDD",
"P 	c #C3C3C3",
"Q 	c #5C5C5C",
"R 	c #8A8A8A",
"S 	c #BDBDBD",
"T 	c #EAEAEB",
"U 	c #EEEFEF",
"V 	c #F5F4F5",
"W 	c #F6F7F7",
"X 	c #F9F8F7",
"Y 	c #F9F9F8",
"Z 	c #F9FAFA",
"` 	c #F9FAF9",
" .	c #F9F9F9",
"..	c #F8F9F9",
"+.	c #F8F8F9",
"@.	c #F0F0F1",
"#.	c #E7E8E8",
"$.	c #BFBEBF",
"%.	c #919191",
"&.	c #B0B0B0",
"*.	c #A0A0A0",
"=.	c #CFCFCF",
"-.	c #F6F5F5",
";.	c #FCFBFD",
">.	c #FCFCFE",
",.	c #FBFCFC",
"'.	c #FCFCFC",
").	c #FEFCFD",
"!.	c #FCFAFB",
"~.	c #FCFEFD",
"{.	c #FDFEFE",
"].	c #FEFEFE",
"^.	c #FEFFFE",
"/.	c #ACACAC",
"(.	c #A1A1A1",
"_.	c #EDEDED",
":.	c #FFFFFF",
"<.	c #A3A3A3",
"                                               .",
"                                                ",
"                                                ",
"                                                ",
"                                                ",
"                                                ",
"    . + @ # $ % % % % % % % % % + &             ",
"  * = - ; > , ' ) ) ! ) ~ { ] ^ - % /           ",
"( _ : < [ } | | 1 2 3 4 5 6 7 8 9 0 a b         ",
"c + ^ d e f g h i h j k l < m k n n + o         ",
"p q r s t u v u v w x y x x z A B ' C D         ",
"D E F G d H I J K L L L K 8 J M N O P Q         ",
"R S 7 T U V W X Y Z ` `  . ...+.@.#.$.%.        ",
"&.*.=.-.;.>.,.'.).!.~.{.].].].^.'.9 *./.        ",
"  (.- ~ _.:.:.:.:.:.:.:.:.:.:.:.P <.*.          ",
"    . + @ # $ % % % % % % % % % + &             ",
"                                                ",
"                                                ",
"                                                ",
"                                                ",
"                                                ",
"                                                ",
"                                                "};
