/* XPM */
static char *minitube[] = {
/* columns rows colors chars-per-pixel */
"32 32 256 2 ",
"   c #040304",
".  c #0B0906",
"X  c #0B0C0C",
"o  c #080706",
"O  c #1C0B02",
"+  c #120D0A",
"@  c #150D07",
"#  c #19110B",
"$  c #0E0F10",
"%  c #0E1010",
"&  c #131414",
"*  c #191613",
"=  c #1E1C1A",
"-  c #181818",
";  c #230E00",
":  c #231003",
">  c #23140A",
",  c #2D190D",
"<  c #28170C",
"1  c #391C0A",
"2  c #241912",
"3  c #2C1C11",
"4  c #221E1C",
"5  c #311E11",
"6  c #3F220F",
"7  c #28211A",
"8  c #34251B",
"9  c #38271B",
"0  c #191F25",
"q  c #262422",
"w  c #2B2825",
"e  c #242527",
"r  c #372B22",
"t  c #3B2E24",
"y  c #352D28",
"u  c #3E352D",
"i  c #242B32",
"p  c #2B2D31",
"a  c #373330",
"s  c #48250E",
"d  c #54260A",
"f  c #522A0F",
"g  c #5A2708",
"h  c #4C2E1B",
"j  c #522B12",
"k  c #582F15",
"l  c #5C3116",
"z  c #57331C",
"x  c #622D0D",
"c  c #652805",
"v  c #75320E",
"b  c #653414",
"n  c #6B3514",
"m  c #62361A",
"M  c #66391A",
"N  c #6C3C1D",
"B  c #6D3916",
"V  c #703716",
"C  c #703F1F",
"Z  c #713B17",
"A  c #412F24",
"S  c #433024",
"D  c #4C3221",
"F  c #443C2F",
"G  c #5D3A22",
"H  c #563C2B",
"J  c #5A3E2B",
"K  c #453E37",
"L  c #613A22",
"P  c #693F23",
"I  c #633F29",
"U  c #75411E",
"Y  c #79431F",
"T  c #5A412B",
"R  c #45403D",
"E  c #564436",
"W  c #694026",
"Q  c #63432D",
"!  c #6D442B",
"~  c #734221",
"^  c #7D4622",
"/  c #72442A",
"(  c #6A4731",
")  c #6C4932",
"_  c #664E3E",
"`  c #714932",
"'  c #293441",
"]  c #333841",
"[  c #3A424C",
"{  c #374452",
"}  c #3F536C",
"|  c #4B4A4B",
" . c #5C5248",
".. c #414A58",
"X. c #4B525B",
"o. c #585859",
"O. c #665348",
"+. c #6A5A53",
"@. c #7A5A48",
"#. c #696054",
"$. c #7B6253",
"%. c #4C5663",
"&. c #485768",
"*. c #515F6E",
"=. c #4C607A",
"-. c #52677A",
";. c #676567",
":. c #746B66",
">. c #726767",
",. c #6B6E72",
"<. c #6D7278",
"1. c #71777C",
"2. c #853D0F",
"3. c #843D11",
"4. c #8C4513",
"5. c #89461E",
"6. c #84491A",
"7. c #954F1E",
"8. c #844B23",
"9. c #8E4921",
"0. c #924E23",
"q. c #985228",
"w. c #85593D",
"e. c #895B3E",
"r. c #815439",
"t. c #A85A29",
"y. c #9A6634",
"u. c #AA622E",
"i. c #B6692A",
"p. c #A86C30",
"a. c #BB6C30",
"s. c #B06330",
"d. c #AE7A3C",
"f. c #A87338",
"g. c #B37E3D",
"h. c #C17432",
"j. c #C47B35",
"k. c #C87F37",
"l. c #8D664D",
"z. c #906446",
"x. c #816C5E",
"c. c #B87446",
"v. c #876F72",
"b. c #877A7B",
"n. c #877C77",
"m. c #867467",
"M. c #A27C7F",
"N. c #C9823A",
"B. c #C78038",
"V. c #B58243",
"C. c #BB8A4B",
"Z. c #BA8756",
"A. c #89877F",
"S. c #99857C",
"D. c #BB8A6B",
"F. c #C19256",
"G. c #C3965A",
"H. c #C4985E",
"J. c #4B6482",
"K. c #566C84",
"L. c #5B758E",
"P. c #57708D",
"I. c #5C7692",
"U. c #617486",
"Y. c #757D83",
"T. c #6C7E95",
"R. c #607FA5",
"E. c #798188",
"W. c #6585A9",
"Q. c #7D93AA",
"!. c #7299BE",
"~. c #6A8CB6",
"^. c #7296C1",
"/. c #799EC3",
"(. c #7AA2CB",
"). c #76A0C6",
"_. c #928985",
"`. c #9A9A94",
"'. c #B49295",
"]. c #A1A49F",
"[. c #8EA3BB",
"{. c #A9A7A4",
"}. c #ADB1AE",
"|. c #B0B6B3",
" X c #D2A98C",
".X c #82A3C7",
"XX c #96AEC4",
"oX c #83AAD6",
"OX c #8CAFD5",
"+X c #83AAD5",
"@X c #8DB3D3",
"#X c #89B5DD",
"$X c #8BB4DB",
"%X c #92B5D2",
"&X c #94BAD4",
"*X c #9BBCD5",
"=X c #93BBDB",
"-X c #9CBEDA",
";X c #97B7DC",
":X c #A1B6CD",
">X c #A3BCD2",
",X c #8AB7E0",
"<X c #92BEE4",
"1X c #9EC1D5",
"2X c #9DC4DC",
"3X c #9FC9DF",
"4X c #A4C5DB",
"5X c #A4C9DD",
"6X c #A9C8DA",
"7X c #B2CCDF",
"8X c #B1C7DB",
"9X c #B0D3DF",
"0X c #9AC4E3",
"qX c #99C4E4",
"wX c #A3CCE3",
"eX c #ACCBE3",
"rX c #A6CEEC",
"tX c #A3C3E2",
"yX c #B8CEE1",
"uX c #A6D1E6",
"iX c #ABD2E5",
"pX c #ABD4EA",
"aX c #ADD9EC",
"sX c #B4D2E2",
"dX c #BCD3E5",
"fX c #B4D8E6",
"gX c #BADBE6",
"hX c #B3DBEC",
"jX c #BADFEC",
"kX c #BAD3EA",
"lX c #B5DFF0",
"zX c #BBDEF4",
"xX c #BCE1EC",
"cX c #BBE4F3",
"vX c #BBE6F5",
"bX c #C2DCEC",
"nX c #C0DDE7",
"mX c #C5E3EC",
"MX c #CBE2EF",
"NX c #C2E6F5",
"BX c #CCE4F2",
"VX c #C4E9F7",
"CX c #CBEAF7",
"ZX c #C4EBF9",
"AX c #C9EDFA",
"SX c #D1E7F3",
"DX c #D1E8F4",
"FX c #D4EEFB",
"GX c #D8EFFC",
"HX c #CCF1FD",
"JX c #C7F0FD",
"KX c #D6F1FB",
"LX c #DCF3FD",
"PX c #E2F7FF",
"IX c #E4F8FF",
"UX c None",
/* pixels */
"UXUXUXUXUXUXUXUXUXUXUXUXUXUXUXUXUXUXUXUXUXUXUXUXUXUXUXUXUXUXUXUX",
"UXUXUXUXUXUXUXUXUXUXUXUXUXUXUXUXUXUXUXUXUXUXUXUXUXUXUXUXUXUXUXUX",
"UXUXUXUXUXUXUXUXUXUXUXUXUXUXUXUXUXUXUXUXUXUXUXUXUXUXUXUXUXUXUXUX",
"UXUXUXUXUXUXz.e.z.e.e.e.e.e.e.e.e.e.w.e.w.w.w.w.e.@.l.UXUXUXUXUX",
"UXUXUXUXZ.7.4.4.4.4.4.4.4.4.4.4.4.4.2.2.2.2.2.2.2.2.2.0.D.UXUXUX",
"UXUX Xg.s.i.h.j.j.B.N.N.N.N.N.N.B.j.B.j.j.j.a.i.s.s.u.t.t.c.UXUX",
"UXUX^ 8.y.f.d.c.V.Z.F.G.H.H.G.G.F.C.C.V.g.d.f.p.u.q.9.5.9.v e.UX",
"UXUXk t F  .:.A.`.].}.|.|.|.|.}.{.`._.n.#.E F T 6.3./ @./ c / UX",
"UXUXD 4 i U.XX7XkXBXCXFXKXGXGXFXCXbXsX>XQ.%.0 y V ^ S.{.v.m / UX",
"UXUXD q -.tXcXAXGXLXLXPXIXIXPXPXPXGXAXzXrX/.{ r n ` b.M.b.I / UX",
"UXUXh [ .XzXcXvXCXCXFXFXKXKXKXGXFXCXNXzXpXqXL.F n M O.>.+.l / UX",
"UXUXh *.$XrXaXaXlXjXcXNXCXCXCXZXcXzXlXaXrX<XW.R b v L E z c / UX",
"UXUXD K.,X0XqXwXuXaXjXNXZXZXZXvXlXaXpXwX0X<X!.| x V x._.$.x I UX",
"UXUXS L.,X=X2X0XuXhXNXVXAXAXCXvXlXaXuX0X=X=X/.X.g ` b.'._.G P UX",
"UXUXS I.#X=X&X3XuXjXZXAXHXHXHXZXcXaXuX2X%X$X(.%.d I >.v.>.h ! UX",
"UXUXS I.#X@X&X3XaXNXZXHXHXHXHXZXvXlXuX2X%X@X(.%.d g J  .H d ! UX",
"UXUXA I.$X@X&X4XhXcXZXHXHXHXJXJXvXlXpX2X%X@X(.%.f n n b B x ( UX",
"UXUXt P.+X@X&XwXhXcXVXHXHXJXJXZXvXlXuX2X%X@X(.%.j U Y 8.^ Z ) UX",
"UXUXr K.+X@X%X4XiXjXvXZXJXHXZXvXcXaXuX*X@XOX/...j U ~ U ~ B ) UX",
"UXUX9 =.(.OX%X1XeXfXxXvXZXZXvXcXlXuX5X*X@XOX^.[ f C C ~ U b ( UX",
"UXUX8 &.(.@X*X1X5XiXfXxXxXcXxXjXfXiX6X1X%X@X~.] s U P ~ N b Q UX",
"UXUX5 { ^.@X*X6X7XsXfXxXxXmXxXjXfX9X6X4X*XOXR.p s N N M m k Q UX",
"UXUX, i W.;X4X7XdXgXmXmXmXmXmXmXgXdXsXeX-XoXJ.4 s b l l k f T UX",
"UXUX3 & } .XtXkXbXmXBXSXSXSXSXBXMXbXdXeX;XR.' * 6 P W L L k T UX",
"UXUX< X e *.Q.XX>X8XyXdXdXdXdXdX8X6X:X[.T.[ - & 1 l.S.m.x.Q H UX",
"UXUX, @ * w K o.;.,.1.Y.E.E.Y.Y.<.,.o.| a 4 * @ 1 ) $.O._ k H UX",
"UXUX, O : > < 3 8 9 t u u u u a r 9 7 3 > O O O : : ; ; ; O 9 UX",
"UXUX+ o . X + # - = 4 q w w w w w q 4 = = * & + X . o o     UXUX",
"UXUXUX  o X X X $ % % & & - - - & & & & % % $ $ X X o       UXUX",
"UXUXUXUXUXUXUXUXUXUXUXUXUXUXUXUXUXUXUXUXUXUXUXUXUXUXUXUXUXUXUXUX",
"UXUXUXUXUXUXUXUXUXUXUXUXUXUXUXUXUXUXUXUXUXUXUXUXUXUXUXUXUXUXUXUX",
"UXUXUXUXUXUXUXUXUXUXUXUXUXUXUXUXUXUXUXUXUXUXUXUXUXUXUXUXUXUXUXUX"
};
