/* XPM */
static char * mldonkey_xpm[] = {
"18 18 164 2",
"  	c None",
". 	c #241C0F",
"+ 	c #6A522C",
"@ 	c #A57F40",
"# 	c #C49245",
"$ 	c #C5903E",
"% 	c #A6782C",
"& 	c #6C4A15",
"* 	c #231807",
"= 	c #68522F",
"- 	c #D9AC65",
"; 	c #FAC674",
"> 	c #FFC872",
", 	c #FFC46A",
"' 	c #FFBE5A",
") 	c #FFBA4B",
"! 	c #FAAE38",
"~ 	c #D99224",
"{ 	c #684309",
"] 	c #80663B",
"^ 	c #F9CA7D",
"/ 	c #FFCF86",
"( 	c #FFD18B",
"_ 	c #FFCE84",
": 	c #FFCA77",
"< 	c #FFC366",
"[ 	c #FFBC55",
"} 	c #FFB442",
"| 	c #FFAA2B",
"1 	c #F9A016",
"2 	c #814F02",
"3 	c #685230",
"4 	c #F9CC81",
"5 	c #FFD694",
"6 	c #FFD9A2",
"7 	c #FFD9A0",
"8 	c #FFD695",
"9 	c #FFCF83",
"0 	c #FFC66F",
"a 	c #FFBD58",
"b 	c #FFB544",
"c 	c #FFAC2F",
"d 	c #FFA41B",
"e 	c #F99B05",
"f 	c #683F00",
"g 	c #D9B069",
"h 	c #FFD187",
"i 	c #FFD99A",
"j 	c #F8DAA6",
"k 	c #EDC482",
"l 	c #D6AE6F",
"m 	c #C69E5D",
"n 	c #C99B4E",
"o 	c #E0A549",
"p 	c #F2AC3F",
"q 	c #FBAA2F",
"r 	c #FFA41A",
"s 	c #FF9C05",
"t 	c #D98500",
"u 	c #241600",
"v 	c #6B532E",
"w 	c #E6B05C",
"x 	c #9B7948",
"y 	c #655034",
"z 	c #4B3D2B",
"A 	c #352815",
"B 	c #1C1408",
"C 	c #140D04",
"D 	c #150E04",
"E 	c #261B0E",
"F 	c #3E2E18",
"G 	c #543E1C",
"H 	c #735931",
"I 	c #BA8D4D",
"J 	c #F6A834",
"K 	c #6B4305",
"L 	c #A68043",
"M 	c #FCC674",
"N 	c #E9C38E",
"O 	c #CBAF86",
"P 	c #BFA98D",
"Q 	c #8A7B6C",
"R 	c #0C0C0C",
"S 	c #000000",
"T 	c #2F2F30",
"U 	c #ACA090",
"V 	c #C2A885",
"W 	c #D6B78A",
"X 	c #F1BA6B",
"Y 	c #FEA828",
"Z 	c #A56400",
"` 	c #C49549",
" .	c #FFC76F",
"..	c #FFCC7C",
"+.	c #FFCD81",
"@.	c #8E6A32",
"#.	c #1E1F20",
"$.	c #D5AD77",
"%.	c #FFA114",
"&.	c #FF9800",
"*.	c #FF9700",
"=.	c #FF9B00",
"-.	c #C47700",
";.	c #C49142",
">.	c #FFC060",
",.	c #FFC369",
"'.	c #FFC46E",
").	c #FFC66E",
"!.	c #B38440",
"~.	c #313132",
"{.	c #E6B977",
"].	c #FF9B06",
"^.	c #FF9900",
"/.	c #FF9A00",
"(.	c #C47600",
"_.	c #A6782E",
":.	c #FFBA4D",
"<.	c #FFBC56",
"[.	c #FFBC58",
"}.	c #C28B38",
"|.	c #0D0A06",
"1.	c #3F4043",
"2.	c #ECB668",
"3.	c #A56500",
"4.	c #6A4916",
"5.	c #FBAF3B",
"6.	c #FFB33F",
"7.	c #FFB441",
"8.	c #FFB23D",
"9.	c #E6A138",
"0.	c #342614",
"a.	c #817C77",
"b.	c #FCB245",
"c.	c #FA9800",
"d.	c #6B4100",
"e.	c #241805",
"f.	c #D99320",
"g.	c #FFAA29",
"h.	c #FFA929",
"i.	c #FFA828",
"j.	c #FAA523",
"k.	c #AA7F42",
"l.	c #343230",
"m.	c #5C5B5B",
"n.	c #D8C1A0",
"o.	c #FFA31C",
"p.	c #684308",
"q.	c #F9A013",
"r.	c #FFA113",
"s.	c #FFA111",
"t.	c #FF9E09",
"u.	c #FF9E0A",
"v.	c #F9B047",
"w.	c #F8B861",
"x.	c #FFA015",
"y.	c #F99700",
"z.	c #814E01",
"A.	c #F99801",
"B.	c #FF9A01",
"C.	c #F99800",
"D.	c #824E00",
"E.	c #D98300",
"F.	c #6A4100",
"G.	c #A56600",
"                                    ",
"          . + @ # $ % & *           ",
"        = - ; > , ' ) ! ~ {         ",
"      ] ^ / ( _ : < [ } | 1 2       ",
"    3 4 5 6 7 8 9 0 a b c d e f     ",
"  . g h i j k l m n o p q r s t u   ",
"  v w x y z A B C D E F G H I J K   ",
"  L M N O P Q R S S T U V W X Y Z   ",
"  `  ..._ +.@.S S S #.$.%.&.*.=.-.  ",
"  ;.>.,.'.).!.S S S ~.{.].^.^./.(.  ",
"  _.:.<.a [.}.|.S S 1.2.^.&.^.=.3.  ",
"  4.5.6.7.8.9.0.S S a.b.^././.c.d.  ",
"  e.f.g.h.i.j.k.l.m.n.o./.^./.t u   ",
"    p.q.r.s.t.u.v.w.x.^./.^.y.f     ",
"      z.A.B.&.^.&././.^./.C.D.      ",
"        f t c.=./.^.=.c.E.f         ",
"          u F.G.-.(.3.F.u           ",
"                                    "};
