/* XPM */
static char *money[] = {
/* columns rows colors chars-per-pixel */
"24 18 200 2 ",
"   c black",
".  c gray2",
"X  c #0B0C0B",
"o  c gray6",
"O  c #131513",
"+  c #181818",
"@  c #1E211E",
"#  c #123F12",
"$  c #1D301D",
"%  c #202120",
"&  c #262726",
"*  c #292C29",
"=  c #2F352F",
"-  c #313231",
";  c #373E37",
":  c #383B38",
">  c #3B3F3B",
",  c #3E3E3E",
"<  c #1B441B",
"1  c #1D481D",
"2  c #186718",
"3  c #1A691A",
"4  c #214A21",
"5  c #244E24",
"6  c #274E27",
"7  c #295229",
"8  c #2B522B",
"9  c #2E532E",
"0  c #2E562E",
"q  c #2F572F",
"w  c #3C453C",
"e  c #325332",
"r  c #335533",
"t  c #325732",
"y  c #325A32",
"u  c #335E33",
"i  c #365E36",
"p  c #206D20",
"a  c #257025",
"s  c #277127",
"d  c #2D752D",
"f  c #2E762E",
"g  c #3A613A",
"h  c #396439",
"j  c #3D633D",
"k  c #3F673F",
"l  c #3F6B3F",
"z  c #327832",
"x  c #357935",
"c  c #347C34",
"v  c #357C35",
"b  c #387E38",
"n  c #3A7F3A",
"m  c #3E7F3E",
"M  c #404B40",
"N  c #455345",
"B  c #485748",
"V  c #485B48",
"C  c gray35",
"Z  c #5F5F5F",
"A  c #416D41",
"S  c #446A44",
"D  c #466B46",
"F  c #486148",
"G  c #496049",
"H  c #496349",
"J  c #4A624A",
"K  c #4A634A",
"L  c #447344",
"P  c #487548",
"I  c #497749",
"U  c #497949",
"Y  c #497A49",
"T  c #4B7D4B",
"R  c DimGray",
"E  c gray44",
"W  c #797979",
"Q  c #3D813D",
"!  c #3E853E",
"~  c #428442",
"^  c #468746",
"/  c #478747",
"(  c #468846",
")  c #478C47",
"_  c #4E874E",
"`  c #4E8B4E",
"'  c #4E8C4E",
"]  c #4F8D4F",
"[  c #4D934D",
"{  c #548354",
"}  c #548554",
"|  c #568556",
" . c #518B51",
".. c #528F52",
"X. c #558955",
"o. c #558D55",
"O. c #578F57",
"+. c #5A8E5A",
"@. c #549154",
"#. c #549254",
"$. c #549354",
"%. c #569356",
"&. c #579357",
"*. c #549B54",
"=. c #599359",
"-. c #589658",
";. c #5A965A",
":. c #5D955D",
">. c #5C975C",
",. c #589A58",
"<. c #5A9B5A",
"1. c #5A9C5A",
"2. c #5B9D5B",
"3. c #5D985D",
"4. c #5D9A5D",
"5. c #5D9E5D",
"6. c #59A559",
"7. c #5BA65B",
"8. c #5FA25F",
"9. c #5BA85B",
"0. c #5EAB5E",
"q. c #618F61",
"w. c #609660",
"e. c #609C60",
"r. c #629D62",
"t. c #679B67",
"y. c #60A460",
"u. c #62A762",
"i. c #63A663",
"p. c #64A064",
"a. c #67A067",
"s. c #67A367",
"d. c #65A765",
"f. c #67A467",
"g. c #60AA60",
"h. c #63AE63",
"j. c #65AB65",
"k. c #66AE66",
"l. c #69A669",
"z. c #68A868",
"x. c #64B064",
"c. c #67B167",
"v. c #66B266",
"b. c #66B666",
"n. c #69B069",
"m. c #68B568",
"M. c #6CB06C",
"N. c #6EB16E",
"B. c #68BA68",
"V. c #6BBB6B",
"C. c #6FB86F",
"Z. c #6EBB6E",
"A. c #6CBD6C",
"S. c #73BC73",
"D. c #73BE73",
"F. c #74BE74",
"G. c #6CC56C",
"H. c #72C072",
"J. c #72C672",
"K. c #76C476",
"L. c #77C477",
"P. c #7BC77B",
"I. c #7EC77E",
"U. c #78CC78",
"Y. c #79CE79",
"T. c #7CDB7C",
"R. c #D0A650",
"E. c #D1AF6A",
"W. c #DDB86E",
"Q. c #D4B679",
"!. c #AEAEAE",
"~. c #B2B2B2",
"^. c gray71",
"/. c gray75",
"(. c #89CB89",
"). c #80D380",
"_. c #82D082",
"`. c #8DD28D",
"'. c #80EA80",
"]. c #93E493",
"[. c #94F894",
"{. c #98FD98",
"}. c #9BFF9B",
"|. c #A1FFA1",
" X c #A2FFA2",
".X c #E7CD9A",
"XX c #CACACA",
"oX c gray80",
"OX c gray82",
"+X c gray84",
"@X c gray88",
"#X c #E2E2E2",
"$X c #EEEEEE",
"%X c #EFEFEF",
"&X c gray94",
"*X c gray96",
"=X c #F6F6F6",
"-X c #F9F9F9",
";X c gray99",
":X c None",
/* pixels */
":X:X:X:X:X:X:X:X:X:X:X:X:X:X:X:X:X:X:X:X:X:X:X:X",
":X:X:X:X:X:X:X:X:X:X:X:X:X:X:X:X:X:X:X:X:X:X:X:X",
":X:X:X:X~.        ~.:X:X:X:X:X:X:X:X:X:X:X:X:X:X",
":X:X:X  Z ;X-X@X@XE   :X:X:X:X:X:X:X:X:X:X:X:X:X",
":X:X~.Z $X@XOXOXOX&XE C F F K F F V B N M w :X:X",
":X:X  *X$X+XoXoX=X#XoX  [.{.}.). X X].`.(.; = * ",
":X:X  $X+XOXoX-X#XoX#X  6.9.9.G.'.B.L.n.O.L 6.@ ",
":X:X  , R !.$X@XoXoX@X  V.,.J.m.T.v._.I.i.A *.O ",
":X  .XW.W.R /.oXoX#X^.  g._ $.2.Y.U.y.5.y.g [ X ",
"  .XQ.E.E.R.R oX@XoXR A A. .v.,.L.L.D.V.2.i ) . ",
"  .XE.E.E.R.R #X^.W   n. .m.o.j.F.S.C.b.$.0 !   ",
"  .XE.E.E.R.r     r L.Y Y O.I I s.>.d.x._ 7 Q   ",
":X  R.R.R.e f.M.T F.M.X.w.| | { z.i.j.0.( 6 c   ",
":X:X    $ t.q.s.f.p.e.e.4.>.;.=.=.$. .( Q 1 f   ",
":X:X:X:X  w : D S A j g i y t q 9 8 6 4 < # a   ",
":X:X:X:X:X:X- 4.;. .' / ~ m b c x z d s p 3 3   ",
":X:X:X:X:X:X& % + o .                           ",
":X:X:X:X:X:X:X:X:X:X:X:X:X:X:X:X:X:X:X:X:X:X:X:X"
};
