/* XPM */
static char *mozilla[] = {
/* columns rows colors chars-per-pixel */
"48 48 256 2 ",
"   c #2C0000",
".  c #330000",
"X  c #3A0301",
"o  c #450100",
"O  c #4D0000",
"+  c #4A0A0A",
"@  c #550300",
"#  c #530A03",
"$  c #590905",
"%  c #5A1507",
"&  c #5D1616",
"*  c #610100",
"=  c #6C0100",
"-  c #680C01",
";  c #760701",
":  c #671806",
">  c #781601",
",  c #681816",
"<  c #5B220B",
"1  c #6C270D",
"2  c #742807",
"3  c #6A2717",
"4  c #793A14",
"5  c #723110",
"6  c #5A2436",
"7  c #77393D",
"8  c #6E2D2E",
"9  c #5B4417",
"0  c #7A4618",
"q  c #6D521B",
"w  c #75581D",
"e  c #654E1A",
"r  c #7A4021",
"t  c #6E3543",
"y  c #763F41",
"u  c #574343",
"i  c #784958",
"p  c #7A4D52",
"a  c #7D4E63",
"s  c #8C0100",
"d  c #8B0A00",
"f  c #960400",
"g  c #871A01",
"h  c #951803",
"j  c #A90700",
"k  c #BB0500",
"l  c #AC1200",
"z  c #A61802",
"x  c #B91600",
"c  c #892705",
"v  c #992800",
"b  c #9B3B09",
"n  c #872716",
"m  c #983712",
"M  c #81350C",
"N  c #A52E00",
"B  c #AD2B00",
"V  c #A83502",
"C  c #B43901",
"Z  c #BD3C01",
"A  c #B83300",
"S  c #B02700",
"D  c #893E3B",
"F  c #C90900",
"G  c #D60600",
"H  c #C81100",
"J  c #D71500",
"K  c #F50000",
"L  c #FF0100",
"P  c #FE0C01",
"I  c #EB1D00",
"U  c #FD1300",
"Y  c #FF1B00",
"T  c #F61600",
"R  c #E10000",
"E  c #C42800",
"W  c #D42400",
"Q  c #C83B00",
"!  c #DB3700",
"~  c #FE2200",
"^  c #FF2B00",
"/  c #F12709",
"(  c #E83700",
")  c #FF3300",
"_  c #FE3C00",
"`  c #F33800",
"'  c #E9300A",
"]  c #864503",
"[  c #894916",
"{  c #95591E",
"}  c #94501A",
"|  c #B74606",
" . c #B14E09",
".. c #986617",
"X. c #A87312",
"o. c #935526",
"O. c #BE5923",
"+. c #836221",
"@. c #8A6722",
"#. c #936E25",
"$. c #9A6524",
"%. c #9A7527",
"&. c #9C7628",
"*. c #B76222",
"=. c #A37B29",
"-. c #A87A2A",
";. c #B17828",
":. c #A96F26",
">. c #C14000",
",. c #C94A05",
"<. c #D74800",
"1. c #DB5202",
"2. c #CA5C1A",
"3. c #FF4500",
"4. c #FF4D00",
"5. c #F44E00",
"6. c #E85800",
"7. c #FF5400",
"8. c #FF5C00",
"9. c #F45B00",
"0. c #E54E1B",
"q. c #E3571B",
"w. c #E64800",
"e. c #D9681B",
"r. c #D56A1E",
"t. c #FE6400",
"y. c #FF6A01",
"u. c #FA6606",
"i. c #FE720B",
"p. c #FF7802",
"a. c #FF7A14",
"s. c #FD7714",
"d. c #EA6D13",
"f. c #C05C23",
"g. c #DE6822",
"h. c #D67B2A",
"j. c #C56429",
"k. c #E3762A",
"l. c #F87922",
"z. c #875758",
"x. c #B97B52",
"c. c #9C7579",
"v. c #906473",
"b. c #A17A7C",
"n. c #BB8600",
"m. c #B98B19",
"M. c #AC812B",
"N. c #B4872D",
"B. c #BA8C2F",
"V. c #B8872D",
"C. c #BE8F30",
"Z. c #C38F18",
"A. c #FF831B",
"S. c #FAB904",
"D. c #E2AE1D",
"F. c #E8B517",
"G. c #EFAD00",
"H. c #C38D2A",
"J. c #D19E2E",
"K. c #C49332",
"L. c #CA9632",
"P. c #CD9B34",
"I. c #C69B36",
"U. c #D29D35",
"Y. c #D4963A",
"T. c #D18A2E",
"R. c #FF8B23",
"E. c #FE8627",
"W. c #FF9429",
"Q. c #F68C37",
"!. c #FE9D34",
"~. c #FF9234",
"^. c #E99D3E",
"/. c #DBAA2C",
"(. c #CAA236",
"). c #D5A135",
"_. c #D9A336",
"`. c #DBA939",
"'. c #D5A738",
"]. c #E8BB27",
"[. c #E2AB3A",
"{. c #FFA93C",
"}. c #E4B835",
"|. c #F8C606",
" X c #FFD200",
".X c #FFD506",
"XX c #FFD718",
"oX c #F9C912",
"OX c #FFE400",
"+X c #EDC229",
"@X c #F1C525",
"#X c #F6CB27",
"$X c #FFDA25",
"%X c #FFDC2C",
"&X c #FAD32A",
"*X c #FFDC35",
"=X c #FEDB3C",
"-X c #F7D132",
";X c #EFCA38",
":X c #FFE227",
">X c #FFE23C",
",X c #AC8456",
"<X c #B8906E",
"1X c #D68649",
"2X c #FD9C45",
"3X c #E58C42",
"4X c #D9A545",
"5X c #FCAB43",
"6X c #E5BC43",
"7X c #F7A356",
"8X c #F3B04A",
"9X c #CE9766",
"0X c #F5B872",
"qX c #FBDA42",
"wX c #FEC659",
"eX c #FADD56",
"rX c #ECCB49",
"tX c #FFE349",
"yX c #FFEC57",
"uX c #FFD16E",
"iX c #FFF461",
"pX c #896C89",
"aX c #997995",
"sX c #99758E",
"dX c #A07F9C",
"fX c #947BA1",
"gX c #19B5BB",
"hX c #02C5CF",
"jX c #4FD9DE",
"kX c #AA8585",
"lX c #AE9396",
"zX c #AB93A5",
"xX c #80ABAC",
"cX c #BAA1A2",
"vX c #C2AAAA",
"bX c #C7B7B9",
"nX c #D1BFBF",
"mX c #FFD998",
"MX c #AC9CC5",
"NX c #B3A8CD",
"BX c #B6AED7",
"VX c #ACA0CE",
"CX c #BFBCEA",
"ZX c #C1BAE4",
"AX c #CDC1C4",
"SX c #D2C1C2",
"DX c #E3DADB",
"FX c #CCCCF5",
"GX c #D1D3FF",
"HX c #D6DDFF",
"JX c #D7D9FA",
"KX c #D9E2FF",
"LX c #E3E6FD",
"PX c #FDFDFE",
"IX c #F2EBEB",
"UX c None",
/* pixels */
"UXUXUXUXUXUXUXUXUXUXUXUXUXUXUXUXUXUXUXUXUXUXUXUXUXUXUXUXUXUXUXUXUXUXUXUXUXUXUXUXUXUXUXUXUXUXUXUX",
"UXUXUXUXUXUXUXUXUXUXUXUXUXUXUX_.UXUXUXUXUXUXUXUXUXUXUXUXUXUXUXUXUXUXUXUXUXUXUXUXUXUXUXUXUXUXUXUX",
"UXUXUXUXUXUXUXUXUXUXUXUXUXUXUX_.).%.UXUXUXUXUXUXUXUXUXUXUXUXUXUXUXUXUXUXUXUXUXUXUXUXUXUXUXUXUXUX",
"UXUXUXUXUXUXUXUXUXUXUXUXUXUXUX_.P._.B.UXUXUXUXUXUXUXUXUXUXUXUXUXUXUXUXUXUXUXUXUXUXUXUXUXUXUXUXUX",
"UXUXUXUXUXUXUXUXUXUXUXUXUXUXUX).U.;.;.K.UXUXUXUXUXUXUXUXUXUXUXUXUXUXUXUXUXUXUXUXUXUXUXUXUXUXUXUX",
"UXUXUXUXUXUXUXUXUXUXUXUXUXUXUX[.{ o # { `.0 . & $ o UXUXUXO $ > - @ . UXUXUXUXUXUXUXUXUXUXUXUXUX",
"UXUXUXUXUXUXUXUXUXUXUXUXUXUXe H.8 9X3Xc % & x.7X2X2.: @ *.Y.{.{.!.h.C -   UXUXUXUXUXUX#.UXUXUXUX",
"UXUXUXUXUXUXUXUXUXUXUXUXUXUX@.5 O.Q.A.t.5 9X2X,.| u.6.: 8XuXwXwXwXwX{.d.g . UXUX&.K._.L.UXUXUXUX",
"UXUXUXUXUXUXUXUXUXUXUXUXUXUX-.$ 6.Q c 2.0X2Xm v.p > y.<.[ 4Xo.2X5X5X5X{.a.> 4 [.U.J._.q UXUXUXUX",
"UXUXUXUXUXUXUXUXUXUXUXUXUXUXV.1 Q <.@ 1X2Xc jXxXt 3 9.i.| m e.{.{.!.!.!.W.1.% K.U.P.U.UXUXUXUXUX",
"UXUXUXUXUXUXUXUXUXUXUXUXUXUXC.-.- c e.i.y.M hXgXu Z ~.mX0XE.t.a.W.W.R.R.R.i.g ,X4XU.C.UXUXUXUXUX",
"UXUXUXUXUXUXUXUXUXUXUXUXUXUXK.$.1 k.A.i.t.t.b b 6.t.~.7Xi.t.t.t.i.A.A.a.a.p.N r '.).w UXUXUXUXUX",
"UXUXUXUXUXUXUXUXUXUXUXUXUXUX4 m k.s.u.y.y.y.t.9.,.V h c v t.t.t.y.i.i.i.i.y.A 1 P.I.UXUXUXUXUXUX",
"UXUXUXUXUXUXUXUXo   UXUXUX+ m g.f.b g 1.y.6.<.V > 6 pXfX6 V y.t.t.y.t.t.t.y.Z 1 U.&.UXUXUXUXUXUX",
"UXUXUXUXUXUXUX. c Q @ X : g.k.<X7Xi.>.C y.t.t.y.C fXKXKXMX> t.y.t.t.t.y.t.y.C 1 _.q UXUXUXUXUXUX",
"UXUXUXUXUXUXUXo 6.i.O.j.E.s.0X0Xm v u.1.y.y.y.t.> VXGXGXVX7 9.y.t.y.t.t.y.y.v 0 U.UXUXUXUXUXUXUX",
"UXUXUXUXUXUXUX> u.2X2X~.a.u.Q.m . > y.t.t.8.y.Q t GXGXBXMXsX( t.t.t.t.t.t.t.; :.#.UXUXUXUXUXUXUX",
"UXUXUXUXUXUXUXV u.l.l.s.u.6.Q A N <.8.8.8.t.A 8 ZXKXMXpXFXdX! 8.7.t.y.t.8.A % L.UXUXUXUXUXUXUXUX",
"UXUXUXUXUXUX  Q 8.7.u.8.7.w.5.8.8.7.7.8.5.B 7 BXHXzXi ZXKXaX! 8.4.7.t.8.7.- 4 P.UXUXUXUXUXUXUXUX",
"UXUXUXUXUXUX@ g Q 4.4.7.4.4.4.4.4.4.7.! = p LXJXa t ZXFXKXsX! 4.4.4.4.4.S # K.&.UXUXUXUXUXUXUXUX",
"UXUXUXUXUXUXUXX $ * h ! 7.4.4.3.4.` d 3 cXPXsX8 c.FXHXHXBX7 ` 3.3.3.3.! @ { _.UXUXUXUXUXUXUXUXUX",
"UXUXUXUXUXUXUXM.C.[ 5 : z E ( ( E g p DXPXPXy bXPXLXNXpX, d _ _ _ _ _ h # L.M.UXUXUXUXUXUXUXUXUX",
"UXUXUXUXUX@._.U.(.6XiXrX0 + , & z.AXIXkXc.kXvXPXAXy - x ` ) _ ) ) _ W o $._.N.UXUXUXUXUXUXUXUXUX",
"UXUXUXUXN._.L.).6XI.$.:.0.h lXcXkXc.kXAXAXb.z.D z W ^ ) ^ ) ) ^ ) ) d 3 '.P.U.#.UXUXUXUXUXUXUXUX",
"UXUXUX_.P.P.`.qXqX@ s l x j z.nXvXSXDXvXc.n j I ~ W z l / I ^ ^ ^ ~ = +.eXP.P.U.UXUXUXUXUXUXUXUX",
"UXL._.P.P.}.=X>X;X@ H I I J l ; , & + ; F ~ ~ I ; o o x l I ~ ~ ~ ~ * $.iX6XL.U.V.UXUXUXUXUXUXUX",
"UXK._.U.J.`.}.-X*XZ.M > s H T Y T J J Y T J ; : n. .@ @ H Y Y Y Y U * @.yXeX`.L.).+.UXUXUXUXUXUX",
"UXUXq =.K.).L.).}.-X-X+X=.] c f k F F F s : < ] OXt.s = U U U U U U * } eXtXrXP.U.L.UXUXUXUXUXUX",
"UXUXUXUXUX+.K.).U.P.).}.:X%X&Xm.4 # # % ..-X[ .. X^ j G P U P P P P = [ tXqXtX`.L.).B.UXUXUXUXUX",
"UXUXUXUXUXUXUXUX@.U.).U.)./.+X$X$X@X].#X:X&X1 G.S.P F K L L L L L L ; 1 *X=X=X=X).L.).q UXUXUXUX",
"UXUXUXUXUXUXUXUXUXUX+.M.(.U.L.).].$XXX$X:XZ.> S.t.K G L L L L L L L s % -X*X*X*X}.L.P.L.UXUXUXUX",
"UXUXUXUXUXUXUXUXUXUXUXUXUX&.U.P.K.F.XXXXXX] b G.^ K R L L L L L L L j o ].%X%X%X%X}.L.).=.UXUXUX",
"UXUXUXUXUXUXUXUXUXUXUXUXUXUXUX-.P./..XXXoX% | p.U L K L L L L L L L R O m.:X$X$X$X#XJ.P.P.UXUXUX",
"UXUXUXUXUXUXUXUXUXUXUXUXUXUXUXUX).).oX.X|.@ Z 7.K L L L L 0.g.g.q.0.0.} ;.+X].@X@X@X/.L.U.L.UXUX",
"UXUXUXUXUXUXUXUXUXUXUXUXUXUXUXUXC.U.S. X|.% E ) L L L L q.(.(.'.'.'.'.`.).U.(.U.P.P.U.U.U.).@.UX",
"UXUXUXUXUXUXUXUXUXUXUXUXUXUXUXUX&.(.D. X X] H U L L L ' P.(.C.#.#.#.%.-.M.-.V.N.V.B.B.B.C.K.L.UX",
"UXUXUXUXUXUXUXUXUXUXUXUXUXUXUXUXw _.).|. Xn.k L L L / I.U.P.UXUXUXUXUXUXUXUXUXUXUXUXUXUXUXUXUXUX",
"UXUXUXUXUXUXUXUXUXUXUXUXUXUXUXUXUXP.P.|. XG.J L L / T.P.'.9 UXUXUXUXUXUXUXUXUXUXUXUXUXUXUXUXUXUX",
"UXUXUXUXUXUXUXUXUXUXUXUXUXUXUXUXUXM.(.F. X X( L P h.(.'.w UXUXUXUXUXUXUXUXUXUXUXUXUXUXUXUXUXUXUX",
"UXUXUXUXUXUXUXUXUXUXUXUXUXUXUXUXUXUX).D. X X7.K h.(.'.%.UXUXUXUXUXUXUXUXUXUXUXUXUXUXUXUXUXUXUXUX",
"UXUXUXUXUXUXUXUXUXUXUXUXUXUXUXUXUXUX(.P.|. Xp.0.(.).M.UXUXUXUXUXUXUXUXUXUXUXUXUXUXUXUXUXUXUXUXUX",
"UXUXUXUXUXUXUXUXUXUXUXUXUXUXUXUXUXUXL.Y.F. XD.Y.U.V.UXUXUXUXUXUXUXUXUXUXUXUXUXUXUXUXUXUXUXUXUXUX",
"UXUXUXUXUXUXUXUXUXUXUXUXUXUXUXUXUXUX-.P.D.|.I.(.U.UXUXUXUXUXUXUXUXUXUXUXUXUXUXUXUXUXUXUXUXUXUXUX",
"UXUXUXUXUXUXUXUXUXUXUXUXUXUXUXUXUXUXUX).J.J.P.L.UXUXUXUXUXUXUXUXUXUXUXUXUXUXUXUXUXUXUXUXUXUXUXUX",
"UXUXUXUXUXUXUXUXUXUXUXUXUXUXUXUXUXUXUXC.P.L.).w UXUXUXUXUXUXUXUXUXUXUXUXUXUXUXUXUXUXUXUXUXUXUXUX",
"UXUXUXUXUXUXUXUXUXUXUXUXUXUXUXUXUXUXUX=.)._.+.UXUXUXUXUXUXUXUXUXUXUXUXUXUXUXUXUXUXUXUXUXUXUXUXUX",
"UXUXUXUXUXUXUXUXUXUXUXUXUXUXUXUXUXUXUXw [.=.UXUXUXUXUXUXUXUXUXUXUXUXUXUXUXUXUXUXUXUXUXUXUXUXUXUX",
"UXUXUXUXUXUXUXUXUXUXUXUXUXUXUXUXUXUXUXUXC.UXUXUXUXUXUXUXUXUXUXUXUXUXUXUXUXUXUXUXUXUXUXUXUXUXUXUX"
};
