/* XPM */
static char *mplayer[] = {
/* columns rows colors chars-per-pixel */
"16 16 99 2",
"   c black",
".  c #101010",
"X  c gray10",
"o  c gray32",
"O  c gray34",
"+  c #204A87",
"@  c #234E8A",
"#  c #244E8A",
"$  c #254F8B",
"%  c #26508B",
"&  c #325991",
"*  c #355B92",
"=  c #375C93",
"-  c #4E71A4",
";  c #5074A4",
":  c #5174A4",
">  c #5576A6",
",  c #6A86AF",
"<  c #6C88B0",
"1  c #6D88B0",
"2  c #6496CB",
"3  c #6697CB",
"4  c #6999CC",
"5  c #6C9BCD",
"6  c #6E9DCE",
"7  c #6F9ECE",
"8  c #719FCF",
"9  c #72A0CF",
"0  c #74A1D0",
"q  c #75A2D0",
"w  c #79A4D2",
"e  c #7AA5D2",
"r  c #7BA6D2",
"t  c #7DA7D3",
"y  c #7EA8D3",
"u  c gray62",
"i  c #B7B7B7",
"p  c #95A9C6",
"a  c #97ABC7",
"s  c #99ACC8",
"d  c #80A9D4",
"f  c #81AAD4",
"g  c #83ABD5",
"h  c #84ACD5",
"j  c #86ADD6",
"k  c #87ADD6",
"l  c #89AFD7",
"z  c #8AAFD7",
"x  c #8BB0D7",
"c  c #8CB1D8",
"v  c #8DB1D8",
"b  c #8FB3D9",
"n  c #9DB8D7",
"m  c #90B3D9",
"M  c #93B5DA",
"N  c #96B7DB",
"B  c #A4BDD9",
"V  c #A5BDD9",
"C  c #A6BFDA",
"Z  c #A8BFDA",
"A  c #B3C7DF",
"S  c #A6C2E0",
"D  c #B1CAE4",
"F  c #B2CAE4",
"G  c #B3CBE5",
"H  c #B3CCE5",
"J  c #B4CCE5",
"K  c #B5CDE5",
"L  c #B6CDE6",
"P  c #B7CEE6",
"I  c #B8CFE6",
"U  c #BDD2E8",
"Y  c #BED3E8",
"T  c #BFD3E9",
"R  c #BFD4E9",
"E  c #C0D4E9",
"W  c #C1D5E9",
"Q  c #C2D5EA",
"!  c #C2D6EA",
"~  c #C3D6EA",
"^  c #C4D7EA",
"/  c #C5D7EB",
"(  c #C6D8EB",
")  c #C7D8EB",
"_  c #C8D9EC",
"`  c #C9DAEC",
"'  c #C9DAED",
"]  c #CADAEC",
"[  c #CBDBED",
"{  c #D0DFEF",
"}  c #D9E5F2",
"|  c #E7E7E7",
" . c #E1E7EF",
".. c gray93",
"X. c #E4E9F0",
"o. c #E6EAF1",
"O. c #E7EBF2",
"+. c gray100",
"@. c None",
/* pixels */
"@.@.% + + + + + + + + + + $ @.@.",
"@.> A [ [ [ / ~ ~ ~ ~ T U B ; @.",
"% A S N M v c z j g y t e z B $ ",
"+ [ N } +.+.+.+.+.+.+.+.[ 0 P + ",
"+ [ M +.+.O.< & & , O.+.+.8 P + ",
"+ ) m +.O.= s O.O.s * O.+.6 P + ",
"+ ) v +.< s +.O ..+.p < +.5 D + ",
"+ / z +.& O.+.  X i  .& +.4 D + ",
"+ ~ j +.&  .+.  . u O.& +.2 D + ",
"+ ~ j +.< p +.o | +.s , +.2 D + ",
"+ W d +.O.* p O. .p * O.+.2 D + ",
"+ Y t +.+.O., & & < O.+.+.2 D + ",
"+ Y t { +.+.+.+.+.+.+.+.[ 2 D + ",
"% B v 9 8 6 4 4 2 2 2 2 2 w n @ ",
"@.: B I P P P D D D D D D n - @.",
"@.@.$ + + + + + + + + + + @ @.@."
};
