/* XPM */
static char *multimedia_picture_horn[] = {
/* columns rows colors chars-per-pixel */
"24 18 120 2 ",
"   c black",
".  c #382701",
"X  c #47330B",
"o  c #4D360F",
"O  c #553700",
"+  c #573800",
"@  c #5F3F00",
"#  c #453514",
"$  c #473A19",
"%  c #513F1D",
"&  c #643E00",
"*  c #5D3A2A",
"=  c #573F35",
"-  c #684200",
";  c #735202",
":  c #4C4220",
">  c #674131",
",  c #7A4F37",
"<  c #6E5642",
"1  c #875300",
"2  c #844A2C",
"3  c #965F3F",
"4  c #8E6A39",
"5  c #AE7B20",
"6  c #A1623F",
"7  c #B3653B",
"8  c #CC622B",
"9  c #C26A38",
"0  c #8C6A48",
"q  c #896B52",
"w  c #977253",
"e  c #917854",
"r  c #AB6E45",
"t  c #A47949",
"y  c #B67141",
"u  c #B97740",
"i  c #B67A46",
"p  c #B27C51",
"a  c #C07345",
"s  c #C67B47",
"d  c #C47F4E",
"f  c #77877A",
"g  c #BC860F",
"h  c #BD891B",
"j  c #BF891A",
"k  c #B3852E",
"l  c #C28B1A",
"z  c #D89311",
"x  c #DEA01E",
"c  c #ECA708",
"v  c #F6B104",
"b  c #DD813F",
"n  c #E2833E",
"m  c #D5A12B",
"M  c #D7A42F",
"N  c #EAB22F",
"B  c #EEB532",
"V  c #EDB733",
"C  c #F1B731",
"Z  c #F0B632",
"A  c #838366",
"S  c #B89A76",
"D  c #C38140",
"F  c #CF8846",
"G  c #C58452",
"H  c #CE9255",
"J  c #C0915E",
"K  c #CB965D",
"L  c #D29254",
"P  c #DC9C55",
"I  c #D5945C",
"U  c #DB9B5D",
"Y  c #E7B859",
"T  c #CF9E64",
"R  c #D69B61",
"E  c #DC9E60",
"W  c #D09B68",
"Q  c #DFA461",
"!  c #E1A661",
"~  c #E2AC6B",
"^  c #E5AD6B",
"/  c #E6AD6C",
"(  c #ECB66D",
")  c #E5AA72",
"_  c #EBB776",
"`  c #E3B57C",
"'  c #EBBB7A",
"]  c #EBBD7B",
"[  c #EBBE7B",
"{  c #F7C340",
"}  c #F9CE6F",
"|  c #F3CD73",
" . c #F3D27B",
".. c #F1D47D",
"X. c #1181A1",
"o. c #0B82B3",
"O. c #2B8DAD",
"+. c #2097B2",
"@. c #7A8F85",
"#. c #98999E",
"$. c #B4AD96",
"%. c #B7B19A",
"&. c #DCB880",
"*. c #D9BB84",
"=. c #EECC80",
"-. c #EFCD81",
";. c #EBC38A",
":. c #E4CA8B",
">. c #EFC691",
",. c #EFC993",
"<. c #EEC995",
"1. c #FAD195",
"2. c #FFD993",
"3. c #F5DB9E",
"4. c #F2D7A4",
"5. c #F3DBAC",
"6. c #F4DCB0",
"7. c #F8E4AD",
"8. c #F5E7C2",
"9. c None",
/* pixels */
"                          9.9.9.9.9.9.9.9.9.9.9.",
"  %.%.%.%.%.%.%.%.%.%.$.  9.9.9.9.9.9.9.9.9.9.9.",
"  %.J 2.1.>.S q 3 y E A   9.9.9.9.9.9.9.9.9.9.9.",
"  %.< 0 K U 2 * , W &.A   9.9.9.9.9.9.9.9.9.9.9.",
"  %.= > 6 ' _ ) <.5.*.A   9.9.9.9.9.9.9.9.9.9.9.",
"  %.w b a ~ ( 4.6.;.T A   9.9.9.9.9.9.9.9.9.9.9.",
"  %.f n s / F ` ,.^ L A   9.9.9.9.9.9.9.9.9.9.9.",
"  %.O.G 9 r d [ [ ! H A   9.9.9.9.9.9.9.9.9.9.9.",
"  %.o.@.8 7 I R Q P D A   9.9.#.@ @ #.9.9.9.  9.",
"  %.X.+.e u p i X # t % @ 9.#.@ :.x @ #.9.  9.9.",
"  $.A A A : : 4 $ 7.z 7.@ 9.@ ..& l N @ 9.9.9.9.",
"          : 8.: : -.z Y @ @ z -.+ h C @ 9.9.9.9.",
"9.9.9.9.9.@ 8.v v c c { { { { B + h B @ 9.9.    ",
"9.9.9.9.9.@ { . { @ @ @ { g 5 Z - m | @ 9.9.9.9.",
"9.9.9.9.9.@ ; . { @ 9.@ { o o B 1 M 3.@ 9.9.9.9.",
"9.9.9.9.9.9.9.@ { { { { { @ #.k }  .@ #.9.  9.9.",
"9.9.9.9.9.9.9.9.@ @ @ @ @ #.9.#.@ @ #.9.9.9.  9.",
"9.9.9.9.9.9.9.9.9.9.9.9.9.9.9.9.9.9.9.9.9.9.9.9."
};
