/* XPM */
static char *music_card[] = {
/* columns rows colors chars-per-pixel */
"23 18 81 1 ",
"  c black",
". c #020203",
"X c #050503",
"o c #0B0700",
"O c #0B0B0B",
"+ c gray6",
"@ c #1E1E1E",
"# c #31220F",
"$ c #302B1F",
"% c #382D1E",
"& c #3A321F",
"* c #162E3F",
"= c gray15",
"- c #2F2F2F",
"; c gray21",
": c gray23",
"> c #54361D",
", c #62471E",
"< c #695837",
"1 c #76623F",
"2 c #494949",
"3 c gray30",
"4 c #4E4E4E",
"5 c gray31",
"6 c #505050",
"7 c gray32",
"8 c #5A5A5A",
"9 c #606060",
"0 c gray39",
"q c gray40",
"w c #676767",
"e c gray42",
"r c #6F6F6F",
"t c gray47",
"y c #806829",
"u c #836547",
"i c #876D4E",
"p c #917D4D",
"a c #A26F45",
"s c #B67E55",
"d c #AE7C64",
"f c #BB963C",
"g c #D1A637",
"h c #B5896A",
"j c #CAA547",
"k c #CEA747",
"l c #D4AC42",
"z c #C58E63",
"x c #235E82",
"c c #16659D",
"v c #396D85",
"b c gray51",
"n c #848484",
"m c #888888",
"M c #909090",
"N c gray57",
"B c #929292",
"V c gray61",
"C c #A29C85",
"Z c gray64",
"A c gray65",
"S c gray69",
"D c #B2B2B2",
"F c #B4B4B4",
"G c #B7B7B7",
"H c #B9B9B9",
"J c #BBBBBB",
"K c #C6C6C6",
"L c gray80",
"P c #CECECE",
"I c gray81",
"U c #E2E2E2",
"Y c gray90",
"T c #E6E6E6",
"R c #E7E7E7",
"E c #F1F1F1",
"W c gray95",
"Q c gray96",
"! c gray97",
"~ c gray100",
"^ c None",
/* pixels */
"D;                   7^",
";V~~~~~~~~~~~~~~~~~~~G7",
" ~~!2N~~~~~~~~~~~~~~~L ",
" ~~mU=~~     ~%#*cv,~L ",
" ~~tU;~~~~~~~~gy. ox~I ",
" ~~K:Z~~     ~i1l$ +~I ",
" ~!84E~~~~~~~~dupfX+~L ",
" ~NqN8~~     ~hs>j&O~L ",
" ~7L-U8~~~~~~~Czak<@~L ",
" ~7YbU0~     ~~~~~~~~L ",
" ~DrqeJ~~~~~~~~~~~~~~L ",
" ~~~b~~~~~~~~~~~~~~~~L ",
" ~~~8~~~~~~~~~~~~~~~~L ",
" ~~~~0  ~~~~~~0  ~~~~L ",
" ~~~L ^^4~~~~L ^^4~~~L ",
" YYYG ^^4YYYYG ^^4EYYJ ",
"4ALLIL7VYRRRRRL7VYYIJb4",
"D4    VD       VD    4^"
};
