/* XPM */
static char *music_trebleclef[] = {
/* columns rows colors chars-per-pixel */
"19 18 77 1 ",
"  c black",
". c #040404",
"X c #090909",
"o c #0E0E0E",
"O c #131313",
"+ c #161616",
"@ c #1B1B1B",
"# c #252525",
"$ c #2D2D2D",
"% c #353535",
"& c #3C3C3C",
"* c #3E3E3E",
"= c #3F3F3F",
"- c #766538",
"; c gray27",
": c #464646",
"> c #484848",
", c #4B4B4B",
"< c #4C4C4C",
"1 c #515151",
"2 c #555555",
"3 c #565656",
"4 c gray34",
"5 c #585858",
"6 c gray35",
"7 c #5A5A5A",
"8 c #656565",
"9 c gray40",
"0 c DimGray",
"q c gray42",
"w c #6C6C6C",
"e c gray48",
"r c #7C7C7C",
"t c #7E7E7E",
"y c #9F7B36",
"u c #947E46",
"i c #B99E58",
"p c #BEA25B",
"a c #C79A43",
"s c #C5A85E",
"d c #CEB063",
"f c #D6B161",
"g c #E7C56E",
"h c #808080",
"j c #818181",
"k c #929292",
"l c gray58",
"z c #959595",
"x c #979797",
"c c gray60",
"v c #A5A5A5",
"b c gray65",
"n c #B2B2B2",
"m c gray72",
"M c #BCBCBC",
"N c gray75",
"B c #EACE84",
"V c #E3C98E",
"C c #EED79A",
"Z c #F0D996",
"A c gray77",
"S c #CECECE",
"D c #D5D5D5",
"F c gray87",
"G c #F6E8C0",
"H c #E1E1E1",
"J c gray89",
"K c #E4E4E4",
"L c gray90",
"P c #E6E6E6",
"I c gray93",
"U c #EEEEEE",
"Y c #F9F9F9",
"T c #FBFBFB",
"R c #FEFEFE",
"E c gray100",
"W c None",
/* pixels */
"WWWW           WWWW",
"WWW EEEEEEEEHMl WWW",
"WW  EEETqeEE       ",
"W GaEEExm,EEydCCCB ",
" GZaEEE4UOEEysggiu ",
" GZaEET=A=EEysgguu ",
" GZaEEE<7jEEysgguu ",
" GZaEEHO;PEEysgguu ",
" GZaEI7;xEEEysgguu ",
" GZaEx$H7EEEysgguu ",
" GZaEoFqX;EEysgguu ",
" GZaE Dt;E@Eypgguu ",
" GZaE1MEtAqEypgguu ",
" GZaEE8;48xEypgguu ",
" VfaEEEv%ETEypii- W",
"    PHPx#HPP     WW",
"WWW vSSSSSSSnt4 WWW",
"WWWW           WWWW"
};
