/* XPM */
static char *network_firewall[] = {
/* columns rows colors chars-per-pixel */
"24 18 49 1 ",
"  c black",
". c #3A362D",
"X c #4E3220",
"o c #4E3221",
"O c #69442C",
"+ c #7A4F32",
"@ c #7A4F33",
"# c gray27",
"$ c #575247",
"% c #484954",
"& c #A64912",
"* c #825436",
"= c #825536",
"- c #CF5B17",
"; c #D46C2F",
": c #96694C",
"> c #A36943",
", c #A36A44",
"< c #A96E46",
"1 c #AB7B5C",
"2 c #A37B61",
"3 c #CC8354",
"4 c #FFA469",
"5 c #FFA56A",
"6 c #003F80",
"7 c #004C99",
"8 c #0058B2",
"9 c #0061C4",
"0 c #0065CC",
"q c #0065CE",
"w c #007EFF",
"e c #837A84",
"r c #4DA5FF",
"t c #66A3E0",
"y c #66B2FF",
"u c #8E8E8E",
"i c #FFBF96",
"p c #FFC097",
"a c #83C0FF",
"s c #90C6FF",
"d c #94C9FF",
"f c #A3D0FF",
"g c #A8D3FF",
"h c #BDDDFF",
"j c gray80",
"k c #C2E0FF",
"l c #D4E9FF",
"z c gray100",
"x c None",
/* pixels */
"xxxxxxxxxxxxxxxxxxxxxxxx",
"xxx              xxxxxxx",
"xxx ipp3pip3i;;& xxxxxxx",
"xxx 555355535--& xxxxxxx",
"xxx @@@@@@@@@&&& xxxxxxx",
"xxx p3pip3pii&;; xxxxxxx",
"xxx 535553555&--     xxx",
"xxx @@@@@@@@@&&& hss7 .$",
"x         1ii;;& drr7uz.",
" lkafffffe<54--& yww7uj.",
" gwwwwwq8%O@@&&& yww7u#x",
" a6       :pi&;; t0q7 xx",
" a9 ,*,>>**55&--     xxx",
" a9 @@@@+XX@@&&& xxxxxxx",
" a9 ppp3+22ii;;& xxxxxxx",
" aq 5553+,>45--& xxxxxxx",
" a0              xxxxxxx",
" aq xxxxxxxxxxxxxxxxxxxx"
};
