/* XPM */
static char *network_computers[] = {
/* columns rows colors chars-per-pixel */
"24 18 30 1 ",
"  c black",
". c gray4",
"X c #181818",
"o c #222222",
"O c #2F2F2F",
"+ c #323232",
"@ c #434343",
"# c #444444",
"$ c #666360",
"% c #6D6D6D",
"& c gray43",
"* c gray48",
"= c #7F7C78",
"- c #83807C",
"; c #888582",
": c #8B8B8B",
"> c #938E86",
", c #909090",
"< c #9E9A92",
"1 c #9F9B96",
"2 c #9E9B97",
"3 c #9D9D9D",
"4 c #AAA6A2",
"5 c #B3AFA9",
"6 c #B8B1A8",
"7 c #C7C2BC",
"8 c #C6C2BD",
"9 c gray78",
"0 c #D4D0CB",
"q c None",
/* pixels */
"qqqqqqqqqqqqqqqqqqqqqqqq",
"qqqqqqqqqqqqqqqqqqqqqqqq",
"qqqq......qqqqqqqqqqqqqq",
"qqq.666666.qqqqqqqqqqqqq",
"qqq.6:,*@8.qqqqqqqqqqqqq",
"qqq.6,93O8.qqqqqqqqqqqqq",
"qqq.6&3&X8.qqq......qqqq",
"qqq.6#+o.8 qq.666666.qqq",
"qqq.<88882.qq.6:,*@8.qqq",
"q.;===$.    q.6,93O8.qqq",
".0=7-581.qq q.6&3&X8.qqq",
".4>>>>>>.qq q.6#+o.8.qqq",
".........q qq.<88882.qqq",
"qqqqqqqqqq qq ...;===$.q",
"qqqqqqqqqqq  qq.0=7-571.",
"qqqqqqqqqqqqqqq.4>>>>>>.",
"qqqqqqqqqqqqqqq.........",
"qqqqqqqqqqqqqqqqqqqqqqqq"
};
