/* XPM */
static char *network[] = {
/* columns rows colors chars-per-pixel */
"24 18 48 1 ",
"  c black",
". c #37342A",
"X c #3A362D",
"o c gray27",
"O c #575247",
"+ c #5B5646",
"@ c #7A725E",
"# c #787264",
"$ c #9C9178",
"% c #9D9278",
"& c #9F967A",
"* c #003F80",
"= c #00478E",
"- c #004C99",
"; c #0058B2",
": c #3673B2",
"> c #0061C4",
", c #0065CC",
"< c #007EFF",
"1 c #5B86B2",
"2 c #1A8BFF",
"3 c #4DA5FF",
"4 c #66A3E0",
"5 c #66B2FF",
"6 c #8E8E8E",
"7 c #A69B82",
"8 c #AA9F82",
"9 c #AEA286",
"0 c #A7A49E",
"q c #B7B7B7",
"w c #CFC19E",
"e c #DACBA7",
"r c #E4D7AF",
"t c #83C0FF",
"y c #90C6FF",
"u c #94C9FF",
"i c #9FCFFF",
"p c #A8D3FF",
"a c #BDDDFF",
"s c gray80",
"d c #E7E0CF",
"f c #EDE5D3",
"g c #C2E0FF",
"h c #D4E9FF",
"j c #E6E6E6",
"k c #F1EFEB",
"l c gray100",
"z c None",
/* pixels */
"zzzzzzzzzz             z",
"zzzzzzzzzz llllsqlllk0 z",
"zzzzzzzzzz lrrr&.rrrr$ z",
"zzzzzzzzzz lrllllll9r$ z",
"zzzzzzzzzz lrlwwwwd%r$ z",
"zzzzzzzzzz lrlweeef%r$ z",
"zzzzzzzzzz    w$9ef%r% z",
"zzzzzzzz  ayy- XOef%r% z",
"zz      1au33-6lXef%r% z",
"z hgttt3:i5<<-6sXef%r% z",
"z p<<<<<;25<<-6o@ef%r% z",
"z t*    =,4,,- #7ef%r% z",
"z t> zzz      eeeef%r$ z",
"z t> zzzzz lrjfffff%r$ z",
"z t> zzzzz lr9$$%%%%r$ z",
"z t, zzzzz lrrr&+rrrr& z",
"z t, zzzzz 0$$$&%%$$$& z",
"z t, zzzzz             z"
};
