/* XPM */
static char *news_newspaper[] = {
/* columns rows colors chars-per-pixel */
"24 18 113 2 ",
"   c black",
".  c #070707",
"X  c #131313",
"o  c gray22",
"O  c #434343",
"+  c gray28",
"@  c #535353",
"#  c gray36",
"$  c #606060",
"%  c gray38",
"&  c gray40",
"*  c #6C6C6C",
"=  c #6F6F6F",
"-  c gray44",
";  c #727272",
":  c gray45",
">  c #747474",
",  c gray46",
"<  c #767676",
"1  c gray47",
"2  c #797979",
"3  c #7B7B7B",
"4  c #7C7C7C",
"5  c gray49",
"6  c #7E7E7E",
"7  c #1292F5",
"8  c #1995F6",
"9  c #1796F9",
"0  c #1F99F8",
"q  c #1C99FC",
"w  c #219BFA",
"e  c #26A0FE",
"r  c #2AA1FC",
"t  c #34A6FD",
"y  c #808080",
"u  c #838383",
"i  c #848484",
"p  c gray52",
"a  c #868686",
"s  c gray53",
"d  c #898989",
"f  c #8B8B8B",
"g  c #8D8D8D",
"h  c #8E8E8E",
"j  c gray56",
"k  c #909090",
"l  c gray57",
"z  c #929292",
"x  c #939393",
"c  c gray58",
"v  c #959595",
"b  c #979797",
"n  c #989898",
"m  c gray60",
"M  c gray62",
"N  c #9F9F9F",
"B  c gray63",
"V  c gray64",
"C  c #A4A4A4",
"Z  c #A5A5A5",
"A  c #A7A7A7",
"S  c #AAAAAA",
"D  c gray68",
"F  c gray69",
"G  c #B1B1B1",
"H  c gray71",
"J  c #B6B6B6",
"K  c #B7B7B7",
"L  c gray73",
"P  c #BBBBBB",
"I  c gray74",
"U  c gray",
"Y  c gray75",
"T  c #C0C0C0",
"R  c #C1C1C1",
"E  c gray76",
"W  c #C3C3C3",
"Q  c gray77",
"!  c #C5C5C5",
"~  c #C6C6C6",
"^  c #C8C8C8",
"/  c gray79",
"(  c #CDCDCD",
")  c #CECECE",
"_  c gray81",
"`  c #D0D0D0",
"'  c gray82",
"]  c #D2D2D2",
"[  c LightGray",
"{  c gray83",
"}  c #D5D5D5",
"|  c gray84",
" . c #D7D7D7",
".. c #D8D8D8",
"X. c gray85",
"o. c gray86",
"O. c #DDDDDD",
"+. c gray87",
"@. c #DFDFDF",
"#. c gray88",
"$. c gray90",
"%. c #E6E6E6",
"&. c #E9E9E9",
"*. c #EAEAEA",
"=. c #ECECEC",
"-. c gray93",
";. c #EEEEEE",
":. c #EFEFEF",
">. c gray94",
",. c #F1F1F1",
"<. c gray95",
"1. c #F3F3F3",
"2. c None",
/* pixels */
"2.2.2.2.2.2.2.2.2.2.2.2.2.2.2.2.2.2.2.2.2.2.2.2.",
"2.2.2.2.X                       2.2.2.2.2.2.2.2.",
"2.2.2.2.  <.<.1.<.<.<.<.:.:.:.U   2.2.2.2.2.2.2.",
"2.2.2.2.  <.#.#.#.+.X.X.{ ] ] C   2.2.2.2.2.2.2.",
"2.2.2.2.  <.5 5 5 < * $ @ + ] C .     2.2.2.2.2.",
"2.2.2.2.  <.+.#.+.X.X.X.] ] ] C O &.  2.2.2.2.2.",
"2.2.2.2.  <.C C V N X.t w q ( V # +.  2.2.2.2.2.",
"2.2.2.2.  :.X.X.X.{ { r w 9 ^ V & !   2.2.2.2.2.",
"2.2.2.2.  :.c c c l ] 0 8 7 ! N 3 E   2.2.2.2.2.",
"2.2.2.2.  :.] ] ( ( ^ ! ! W Y n 3 c   2.2.2.2.2.",
"2.2.2.2.  &.i i i y 5 3 1 < P c < l   2.2.2.2.2.",
"2.2.2.2.  $.^ ! ! E E U P K H h * h   2.2.2.2.2.",
"2.2.2.2.  $.3 3 3 < : : * * G h * d   2.2.2.2.2.",
"2.2.2.2.$ ! E E U P H H G G D S C i   2.2.2.2.2.",
"2.2.2.2.l d V n c l l k h f d i i i   2.2.2.2.2.",
"2.2.2.2.2.l o                       2.2.2.2.2.2.",
"2.2.2.2.2.2.2.2.2.2.2.2.2.2.2.2.2.2.2.2.2.2.2.2.",
"2.2.2.2.2.2.2.2.2.2.2.2.2.2.2.2.2.2.2.2.2.2.2.2."
};
