/* XPM */
static char *numbers_counter[] = {
/* columns rows colors chars-per-pixel */
"24 18 117 2 ",
"   c black",
".  c gray4",
"X  c #0C0C0C",
"o  c gray5",
"O  c #131313",
"+  c #151515",
"@  c gray9",
"#  c #181818",
"$  c #191919",
"%  c #222222",
"&  c #282828",
"*  c gray21",
"=  c #3A3A3A",
"-  c gray23",
";  c gray28",
":  c #494949",
">  c gray29",
",  c #4C4C4C",
"<  c #4E4E4E",
"1  c gray45",
"2  c #6B56AF",
"3  c #6B57AF",
"4  c #6E5AB1",
"5  c #6F5BB1",
"6  c #715DB2",
"7  c #725FB3",
"8  c #7461B4",
"9  c #7865B6",
"0  c #7A67B7",
"q  c #7C6AB8",
"w  c #806EBA",
"e  c #8271BC",
"r  c #8372BC",
"t  c #8878BF",
"y  c #8A7AC0",
"u  c #808080",
"i  c #868686",
"p  c #8B8B8B",
"a  c #8E8E8E",
"s  c gray56",
"d  c #909090",
"f  c #989898",
"g  c #9A9A9A",
"h  c #9B9B9B",
"j  c #9F9F9F",
"k  c #A2A2A2",
"l  c gray64",
"z  c #A5A5A5",
"x  c gray65",
"c  c gray66",
"v  c #AAAAAA",
"b  c #AFAFAF",
"n  c gray69",
"m  c gray70",
"M  c #B4B4B4",
"N  c gray71",
"B  c #B6B6B6",
"V  c gray72",
"C  c gray73",
"Z  c gray75",
"A  c #9081C3",
"S  c #9384C5",
"D  c #9485C5",
"F  c #9687C6",
"G  c #998BC8",
"H  c #9D8FCA",
"J  c #9D90CA",
"K  c #A194CC",
"L  c #A497CE",
"P  c #A89CD0",
"I  c #ACA0D2",
"U  c #AEA3D3",
"Y  c #B2A7D5",
"T  c #B3A9D6",
"R  c #B5ABD7",
"E  c #B9AFD9",
"W  c #BAB1DA",
"Q  c #BCB3DB",
"!  c #C1B8DD",
"~  c #C4BCDF",
"^  c #C6BEE0",
"/  c #C0C0C0",
"(  c #C1C1C1",
")  c #C3C3C3",
"_  c gray77",
"`  c #C5C5C5",
"'  c #C6C6C6",
"]  c gray78",
"[  c gray79",
"{  c #CACACA",
"}  c gray80",
"|  c #D2D2D2",
" . c gray83",
".. c #C8C0E1",
"X. c #C9C2E2",
"o. c #CCC5E3",
"O. c #CDC6E4",
"+. c #CFC9E5",
"@. c #D2CCE7",
"#. c #D3CDE7",
"$. c #D5CFE8",
"%. c #D6D0E9",
"&. c #D8D3EA",
"*. c #E1E1E1",
"=. c #E2E2E2",
"-. c #ECECEC",
";. c #EEEEEE",
":. c #EFEFEF",
">. c gray94",
",. c #F8F8F8",
"<. c #F9F9F9",
"1. c gray98",
"2. c #FBFBFB",
"3. c gray99",
"4. c #FDFDFD",
"5. c #FEFEFE",
"6. c None",
/* pixels */
"6.6.6.6.6.6.6.6.6.6.6.6.6.6.6.6.6.6.6.6.6.6.6.6.",
"                                                ",
"  &.&.&.&.&.&.&.&.%.$.#.+.o.X.X.^ ~ Q W R T r   ",
"  &.r r r r r r $.r r r r r r ! r r r r r r q   ",
"  &.r 3.3.,.3.{ @.r 3.3.,.3.{ Q r 3.3.3.2.{ 9   ",
"  &.r 3.3.3.3.} X.r 3.3.3.3.} Y r 3.3.3.3.} 7   ",
"  &.r 3.:.. ,.} X.r 3.u o z } Y r 3.2.o 2.} 7   ",
"  %.r ,.+ + ,.} ^ r i 1 { # { I r ,.# # ,.{ 5   ",
"  $.r :.:.% >.` ~ r s a >.& ] I r :.:.& >.` 5   ",
"  #.r =.=.* =.Z W r g d =.- ( L r =.=.= =.Z 3   ",
"  o.r | ; > > C R r ( p < z C H r  ., , > B 3   ",
"  ^ r ( _ _ ` n U r ` ` ` ` n G r ` ` ` ) c 3   ",
"  ~ 2 B B B B z U 3 B B B B x G 2 M B M m j 2   ",
"  ~ 2 z c z c g U 2 z z z x g G 5 k l l k d 2   ",
"  ~ W W R T U I P L K J J G F S S A A A A A 2   ",
"  y t r r w q 0 9 8 8 6 5 3 2 2 2 2 2 2 2 2 2   ",
"                                                ",
"6.6.6.6.6.6.6.6.6.6.6.6.6.6.6.6.6.6.6.6.6.6.6.6."
};
