/* XPM */
static char * opera_xpm[] = {
"18 18 24 1",
" 	c None",
".	c #672424",
"+	c #884433",
"@	c #DA3636",
"#	c #BB1515",
"$	c #D93535",
"%	c #E46866",
"&	c #9B1515",
"*	c #9A1313",
"=	c #BB1313",
"-	c #CF4444",
";	c #EE5656",
">	c #BA1111",
",	c #F59996",
"'	c #FF7878",
")	c #797979",
"!	c #D93333",
"~	c #787878",
"{	c #881122",
"]	c #912B2B",
"^	c #777777",
"/	c #662222",
"(	c #991111",
"_	c #CF4545",
"                  ",
"                  ",
"        .+@##$    ",
"       %@$  .&$   ",
"      .*$    .=$  ",
"      *-;    .>$  ",
"     .,,'    .>=$ ",
"     .%,'    .>>$ ",
"     .-,'    .>>$ ",
"  )))%!!$~   .>!$ ",
" ~)  .>>$))~ .-%' ",
" ~~~ .>>$ ~)~.%,% ",
" ~~~~ {>$  ~~],,  ",
"  ~~^^/($   ~+%%  ",
"   ~~~^/*$  .__   ",
"     ~~~.&###$    ",
"                  ",
"                  "};
