/* XPM */
static char *panel_equation[] = {
/* columns rows colors chars-per-pixel */
"24 18 128 2 ",
"   c black",
".  c gray100",
"X  c #FF7B65",
"o  c #FF7E67",
"O  c #FF7E68",
"+  c #FF806A",
"@  c #FF816A",
"#  c #FF816B",
"$  c #E3533D",
"%  c #FF614B",
"&  c #FF634D",
"*  c #FF6852",
"=  c #FF6B55",
"-  c #FF705A",
";  c #FF755F",
":  c #DF5746",
">  c #E35948",
",  c #E85D4C",
"<  c #EB604F",
"1  c #ED6554",
"2  c #F16A5A",
"3  c #F46F5E",
"4  c #FF7564",
"5  c #FF7766",
"6  c #F87564",
"7  c #FF7969",
"8  c #FD7968",
"9  c #FF7B6A",
"0  c #FEFEFE",
"q  c #FDFDFD",
"w  c gray99",
"e  c #FBFBFB",
"r  c gray98",
"t  c #F9F9F9",
"y  c gray97",
"u  c #F6F6F6",
"i  c gray96",
"p  c #F4F4F4",
"a  c gray95",
"s  c #F1F1F1",
"d  c gray94",
"f  c #EFEFEF",
"g  c #EEEEEE",
"h  c gray93",
"j  c #ECECEC",
"k  c gray92",
"l  c #EAEAEA",
"z  c #E9E9E9",
"x  c #E7E7E7",
"c  c #E6E6E6",
"v  c gray90",
"b  c gray88",
"n  c #DFDFDF",
"m  c gray87",
"M  c #DDDDDD",
"N  c gainsboro",
"B  c gray86",
"V  c #DADADA",
"C  c gray85",
"Z  c #D8D8D8",
"A  c #D7D7D7",
"S  c gray84",
"D  c #D5D5D5",
"F  c gray83",
"G  c LightGray",
"H  c #D2D2D2",
"J  c gray82",
"K  c #D0D0D0",
"L  c gray81",
"P  c #CECECE",
"I  c #CDCDCD",
"U  c gray80",
"Y  c #B9B9B9",
"T  c #B7B7B7",
"R  c #B6B6B6",
"E  c #B1B1B1",
"W  c #AFAFAF",
"Q  c #AEAEAE",
"!  c gray68",
"~  c #ACACAC",
"^  c gray67",
"/  c #939393",
"(  c #909090",
")  c #8D8D8D",
"_  c #8B8B8B",
"`  c #848484",
"'  c #838383",
"]  c gray51",
"[  c #808080",
"{  c gray50",
"}  c gray48",
"|  c #797979",
" . c gray47",
".. c #777777",
"X. c #767676",
"o. c gray46",
"O. c gray45",
"+. c #727272",
"@. c gray40",
"#. c #646464",
"$. c gray38",
"%. c #606060",
"&. c gray36",
"*. c #5B5B5B",
"=. c #5A5A5A",
"-. c gray35",
";. c gray33",
":. c gray32",
">. c #515151",
",. c #505050",
"<. c gray29",
"1. c #414141",
"2. c gray25",
"3. c gray21",
"4. c gray100",
"5. c black",
"6. c black",
"7. c black",
"8. c black",
"9. c black",
"0. c black",
"q. c black",
"w. c black",
"e. c black",
"r. c black",
"t. c black",
"y. c black",
"u. c black",
/* pixels */
". . . . . . . . . . . . . . . . . . . . . . . . ",
".                                           . . ",
".   . . . . . . . . . . . . . . . . . 4 4   . . ",
".   . . ] . ' . . . ` 0 0 0 ` q ' q q X 4   . . ",
".   0 q ,.w @.q q q =.e w e 3.r <.r t o 5   . . ",
".   q e r %.r r Y %.$.$.T y T / R y y + 7   . . ",
".   r u { u [ y i y &.y u p p <.a a a # 9   . . ",
".   u p ) a O.a a a ) a s d f _ j k k @ 9   . . ",
".   i g h h h h k j j k l l z x c c c O 8   . . ",
".   a  . . . .}  . .| | | ....X.o.o.b X 6   . . ",
".   h b m n M m m n n n n n M N V V B ; 3   . . ",
".   l C Z A A Z Z +.C +.V #.-.Z Z Z Z - 2   . . ",
".   x G J J H G F 1.S :.S H ( S S S S = 1   . . ",
".   v J P L I K K J 2.G D #.;.F F F F * <   . . ",
".   v K U U U L P >.L :.G G H G J H G & ,   . . ",
".   v K P U U U P *.L 1.L L U U L P I % >   . . ",
".   A E W Q ! ! Q ! ! ! ! ~ ~ ^ ^ ~ ~ $ :   . . ",
".                                           . . "
};
