/* XPM */
static char *paper_electronics[] = {
/* columns rows colors chars-per-pixel */
"24 18 32 1 ",
"  c black",
". c #525042",
"X c #525142",
"o c #545343",
"O c #5B594A",
"+ c #696755",
"@ c #68675C",
"# c #76735F",
"$ c #85826B",
"% c #928E76",
"& c #949177",
"* c #9B987D",
"= c #9F9C80",
"- c #A6A386",
"; c #AAA689",
": c #ADAB9A",
"> c #B4B091",
", c #B6B293",
"< c #B8B494",
"1 c #BFBA9A",
"2 c #C1BEAB",
"3 c #CDC8A5",
"4 c #D1CEB2",
"5 c #D7D4BE",
"6 c #E4DFB8",
"7 c #E6E1BC",
"8 c #E7E2BF",
"9 c #D9D7C6",
"0 c #E9E5C6",
"q c #EFECD4",
"w c #F2EFDC",
"e c None",
/* pixels */
"eeeeeeeeeeeeeeeeeeeeeeee",
"eeeeeeeeeeeeeeeeeeeeeeee",
"eee                  eee",
"ee wqqqqqqqqqqqqqq52: ee",
"ee wq00000000000O04<& ee",
"ee wq0887077888O#63<& ee",
"ee wq66666X666O*+63<& ee",
"ee wq1666 ;%6O=7+63<& ee",
"ee w X66 66X =66+  <& ee",
"ee wq,* 66666O=6+63<& ee",
"ee wq6X6666666O=+63<& ee",
"ee wq6666666666O#63<& ee",
"ee wq66666666666O63<& ee",
"ee wq33333333333333<& ee",
"ee w@              o& ee",
"ee 9$$ eeeeeeeeee ,-$ ee",
"eee    eeeeeeeeee    eee",
"eeeeeeeeeeeeeeeeeeeeeeee"
};
