/* XPM */
static char *paper_pencil2[] = {
/* columns rows colors chars-per-pixel */
"24 18 45 1 ",
"  c black",
". c #0E0D0B",
"X c #141310",
"o c #35322D",
"O c #3C3932",
"+ c #795E17",
"@ c gray30",
"# c #545343",
"$ c #5E5A50",
"% c #605841",
"& c #655F51",
"* c #68675C",
"= c #797979",
"- c #826619",
"; c #A37F1F",
": c #CC9F27",
"> c #FFC731",
", c #978041",
"< c #85826B",
"1 c #949177",
"2 c #DD977F",
"3 c #FFD86F",
"4 c #A6A386",
"5 c #AFA483",
"6 c #B6A985",
"7 c #A7A193",
"8 c #B4B091",
"9 c #B8B494",
"0 c #F09F9F",
"q c #F3B5B5",
"w c #FFE398",
"e c #CFC5A7",
"r c #CDC8A5",
"t c #DBCDA4",
"y c #E4DFB8",
"u c #E6E1BC",
"i c #E7E2BF",
"p c #D9D7C6",
"a c #F6C6C6",
"s c #E9E5C6",
"d c #EFECD4",
"f c #F2EFDC",
"g c #FFF3D1",
"h c #FFF7E0",
"j c None",
/* pixels */
"jjjjjjjjjjjjjjjjjjjjjjjj",
"jjjjjjjjjjjjjjjjjjj  jjj",
"jj                 aq jj",
"j fdddddddddddddd h,00 j",
"j fdssssssssssss w3g+2 j",
"j fdsi iiiiiiiy w3>:6 jj",
"j fdsiiiiiiiii w3>:; jjj",
"j fdsi iiiiii@e3>:;  jjj",
"j fdsiiiiiiii tt:; 1 jjj",
"j fdsi iiiii=X5t- 91 jjj",
"j fdsiiiiiiiO.& %r91 jjj",
"j fdsi i i io$7yyr91 jjj",
"j fdyyyyyyyyyyyyyr91 jjj",
"j fdrrrrrrrrrrrrrr91 jjj",
"j f*              #1 jjj",
"j p<< jjjjjjjjjj 84< jjj",
"jj    jjjjjjjjjj    jjjj",
"jjjjjjjjjjjjjjjjjjjjjjjj"
};
