/* XPM */
static char *paper_checkmark_list[] = {
/* columns rows colors chars-per-pixel */
"24 18 137 2 ",
"   c black",
".  c gray37",
"X  c #686868",
"o  c #747373",
"O  c gray48",
"+  c #7E7E7D",
"@  c gray50",
"#  c #F94F28",
"$  c #FA5029",
"%  c #FB5029",
"&  c #F95D39",
"*  c #FA5E3A",
"=  c #F46543",
"-  c #F56645",
";  c #EF8268",
":  c #F0836A",
">  c #F78B72",
",  c #F88C73",
"<  c #818181",
"1  c #848484",
"2  c #9D9D9C",
"3  c #A0A0A0",
"4  c #A0A1A1",
"5  c #A2A2A2",
"6  c gray64",
"7  c #A4A4A4",
"8  c #A5A5A4",
"9  c #A7A7A6",
"0  c #A8A8A7",
"q  c #A9A9A9",
"w  c #AAAAAA",
"e  c #ACACAB",
"r  c gray68",
"t  c #AFAFAF",
"y  c #B0B0AF",
"u  c #B1B1B1",
"i  c gray70",
"p  c #B5B5B4",
"a  c gray71",
"s  c #B6B6B5",
"d  c #B6B5B6",
"f  c #B7B7B7",
"g  c #BCBCBC",
"h  c #BEBEBD",
"j  c gray75",
"k  c #D6A59A",
"l  c #DFAEA4",
"z  c #CEB4AD",
"x  c #D7BDB7",
"c  c #E5B4A8",
"v  c #E6B5A9",
"b  c #F2B4A5",
"n  c #F3B5A7",
"m  c #C0C0BF",
"M  c #C1C2C0",
"N  c #C1C2C1",
"B  c #C2C2C1",
"V  c #C7C3C1",
"C  c #C4C3C2",
"Z  c #C4C4C3",
"A  c #C6C6C5",
"S  c #C7C7C6",
"D  c #CBC7C6",
"F  c #C8C8C7",
"G  c #C9C9C8",
"H  c gray79",
"J  c #CACAC9",
"K  c #CACACA",
"L  c #CCCBCB",
"P  c #CCCCCB",
"I  c gray80",
"U  c #CCCDCC",
"Y  c #CDCDCC",
"T  c #CECDCD",
"R  c #CECECD",
"E  c #CECECE",
"W  c #CECFCE",
"Q  c gray81",
"!  c #D0C5C2",
"~  c #D2CECD",
"^  c #CFD0CF",
"/  c #DBD0CC",
"(  c #D0D1D0",
")  c #D1D1D0",
"_  c #D2D1D1",
"`  c #D6D2D0",
"'  c #D3D4D3",
"]  c gray83",
"[  c #D5D5D4",
"{  c #D5D5D6",
"}  c #D8D8D7",
"|  c #D8D8D8",
" . c #D8D9D8",
".. c gray85",
"X. c #DAD9D9",
"o. c #DADADA",
"O. c gray86",
"+. c #DDDDDC",
"@. c #E2E2E1",
"#. c #E2E2E2",
"$. c #E4E4E4",
"%. c gray90",
"&. c #E6E6E6",
"*. c #EAEAE9",
"=. c #ECEBEC",
"-. c #EEEEED",
";. c #EEEDEE",
":. c #EFEFEF",
">. c #F0F0EF",
",. c #F1F1F1",
"<. c #F1F2F1",
"1. c gray95",
"2. c #F3F3F2",
"3. c #F3F3F3",
"4. c #F4F3F3",
"5. c #F3F3F4",
"6. c #F5F5F4",
"7. c #F4F5F5",
"8. c gray96",
"9. c #F6F5F6",
"0. c #F6F6F6",
"q. c #F6F7F6",
"w. c #F7F7F6",
"e. c #F8F8F7",
"r. c #F8F7F8",
"t. c #F8F8F8",
"y. c #F9F9F8",
"u. c #F9FAF9",
"i. c #F9F9FA",
"p. c gray98",
"a. c #FBFAFB",
"s. c #FBFBFB",
"d. c #FCFBFC",
"f. c gray99",
"g. c #FCFDFC",
"h. c gray100",
"j. c None",
/* pixels */
"j.                                  j.j.j.j.j.j.",
"j.  %.#.#.#.%.%.%.h h.h.h.h.h.h.h.h.  j.j.j.j.j.",
"j.  %.h N N Z Z Z 9 #.#.#.#.#.#.%.h.w.  j.j.j.j.",
"j.  %.h N V V c J 9 #.%.%.%.#.%.#.h.t.s.  j.j.j.",
"j.  %.N Z Z c = > 0 %.O O %.O O #.h.t.t.h.  j.j.",
"j.  %.$ v k = > Y w %.%.%.%.%.%.$.@ o X .   j.j.",
"j.  %.z $ ; > E E w *.*.+ @ @ @ $.J a a a   j.j.",
"j.  %.D b & ! E ^ e =.=.*.=.=.=.:.>.2.7.f   j.j.",
"j.  %.Z J Y E _ _ r :.:.=.:.=.:.>.,.9.2.f   j.j.",
"j.  %.J J E E _ ' y :.:.:.:.:.:.,.2.9.9.f   j.j.",
"j.  %.L E ^ ~ v [ y ,.,.,.,.>.>.2.7.9.e.f   j.j.",
"j.  %.E E _ v - , u ,.< < < < < 2.9.w.t.f   j.j.",
"j.  %.% v l - , | i 9.9.9.9.9.9.r.t.s.t.f   j.j.",
"j.  %.x % : , | | i 9.1 1 9.9.9.t.t.t.h.f   j.j.",
"j.  %.[ n & / | +.a w.w.w.w.r.w.t.s.h.t.f   j.j.",
"j.  %.[ | | | | +.a t.t.t.t.r.r.t.d.t.h.f   j.j.",
"j.  9 2 2 5 5 5 5 6 a a a a a a a a a a a   j.j.",
"j.                                          j.j."
};
