/* XPM */
static char *patch_revision[] = {
/* columns rows colors chars-per-pixel */
"24 18 56 1 ",
"  c black",
". c gray28",
"X c #484848",
"o c #494949",
"O c gray30",
"+ c #676868",
"@ c #6B6C6B",
"# c #6B6C6C",
"$ c #787978",
"% c #797979",
"& c #C9A349",
"* c #E5BA4B",
"= c #E5BD53",
"- c #DDB962",
"; c #FFD079",
": c #838383",
"> c #AAA58B",
", c #A1A2A2",
"< c #A8A9A8",
"1 c #AAAAAA",
"2 c #AEAEAE",
"3 c #B2B2B2",
"4 c gray71",
"5 c #BBBBBB",
"6 c gray74",
"7 c gray",
"8 c #D3CDAD",
"9 c #FFE8BD",
"0 c #BFBFC0",
"q c #C5C5C6",
"w c #CAC8C1",
"e c #C7C8C8",
"r c #C9CACA",
"t c gray80",
"y c #D1D3D3",
"u c #D2D2D2",
"i c #D2D3D2",
"p c #D2D2D3",
"a c #DEDFDF",
"s c #EBE4C1",
"d c #EAEAEA",
"f c #ECECEC",
"g c #EFEFEF",
"h c #FAF7E7",
"j c #FFF7E9",
"k c gray94",
"l c #F0F0F1",
"z c #F3F3F3",
"x c #F3F4F4",
"c c gray96",
"v c #F6F6F6",
"b c #F6F7F6",
"n c gray97",
"m c #FCFAF1",
"M c gray99",
"N c None",
/* pixels */
"NNNNN : : ONNNNNNNNNNNNN",
"NNNNN wmwm NNNNNNN     N",
"NNNNN hhhh NNNNNNN  o%NN",
"NNNNN hhhh NNNNNNN o NNN",
"      >>>>      NN $N NN",
" ffff.ssssX6ff6 2N NNX1N",
" ftrr+8888+4rr, 2NNNNN N",
" fyii#ssss#6ii< 2NNNNN N",
" zaaa#$$$$#eaa3 2NNNNN N",
" nddddiiiiiidd5 2NNNNN N",
" nkklkl   llll5 2NNNN$1N",
" Mzzzz j9- zlz0 2NNN$ NN",
" Mnnzz 9;*          <NNN",
" Mznnn =*& nnnq 2NNNNNNN",
" Mnnnnn   nnnnt 2NNNNNNN",
" tttttttttttttt 2NNNNNNN",
"                2NNNNNNN",
"N2222222222222222NNNNNNN"
};
