/* XPM */
static char *people_man_woman[] = {
/* columns rows colors chars-per-pixel */
"24 18 192 2 ",
"   c black",
".  c #000001",
"X  c #000005",
"o  c #00000B",
"O  c #1A160F",
"+  c #141210",
"@  c #1B1713",
"#  c #1C1813",
"$  c #1E1B17",
"%  c #181818",
"&  c gray10",
"*  c #1C1C1B",
"=  c #211C0B",
"-  c #2E2611",
";  c #282014",
":  c #352916",
">  c #32281B",
",  c #001937",
"<  c #001C36",
"1  c #1D2020",
"2  c #1F2325",
"3  c #1E2529",
"4  c #222121",
"5  c #202122",
"6  c #232427",
"7  c #272726",
"8  c #2A2726",
"9  c #282828",
"0  c #2B2A2A",
"q  c #2E2D2D",
"w  c #2E2E2F",
"e  c #302E2C",
"r  c #3B3325",
"t  c #3D3626",
"y  c #33302B",
"u  c #33312F",
"i  c #272E33",
"p  c #2B2B31",
"a  c #232F39",
"s  c #312F34",
"d  c gray20",
"f  c #373634",
"g  c #383C3C",
"h  c #423626",
"j  c #403821",
"k  c #423D35",
"l  c #433F38",
"z  c #504225",
"x  c #534525",
"c  c #43413F",
"v  c #49443F",
"b  c #544B3C",
"n  c #756931",
"m  c #74613E",
"M  c #002247",
"N  c #002445",
"B  c #403E43",
"V  c #3D4041",
"C  c #294051",
"Z  c #2A4151",
"A  c #4A4B4B",
"S  c #4B4F4F",
"D  c #4F4D4C",
"F  c #564141",
"G  c #504C49",
"H  c #504F4E",
"J  c #515151",
"K  c #525353",
"L  c #545557",
"P  c #545657",
"I  c #5B5957",
"U  c #575758",
"Y  c #575858",
"T  c #695151",
"R  c #605E5D",
"E  c #605F5D",
"W  c #705555",
"Q  c #7A5F5F",
"!  c #6E604C",
"~  c #786345",
"^  c #7F6B4A",
"/  c #70655C",
"(  c #74665C",
")  c #425B6C",
"_  c #4F697D",
"`  c #616464",
"'  c DimGray",
"]  c gray43",
"[  c #756A62",
"{  c #787368",
"}  c #717273",
"|  c #7D7773",
" . c #797B7C",
".. c #907A3C",
"X. c #827057",
"o. c #937954",
"O. c #997F5A",
"+. c #896A68",
"@. c #8B7D76",
"#. c #937171",
"$. c #9F7976",
"%. c #9A7B79",
"&. c #9F8540",
"*. c #B79949",
"=. c #9A8461",
"-. c #9E866B",
";. c #AB906C",
":. c #AD9573",
">. c #C0A074",
",. c #C2A278",
"<. c #C3A47F",
"1. c #FFD555",
"2. c #FFD951",
"3. c #FFD952",
"4. c #FFDC59",
"5. c #FFDD5D",
"6. c #005797",
"7. c #005698",
"8. c #00599D",
"9. c #005A9C",
"0. c #055D9E",
"q. c #005EA5",
"w. c #0762A5",
"e. c #0060A8",
"r. c #0664A8",
"t. c #0764A9",
"y. c #006CBD",
"u. c gray52",
"i. c #898885",
"p. c #8B8886",
"a. c #8A8987",
"s. c gray54",
"d. c gray55",
"f. c #8D8D8E",
"g. c gray56",
"h. c #908C89",
"j. c #8D8F92",
"k. c #8F9092",
"l. c #989898",
"z. c #9D9D9D",
"x. c #9D9E9F",
"c. c #9F9F9F",
"v. c #A18687",
"b. c #AF8888",
"n. c #A88B8C",
"m. c #AC8C8E",
"M. c #AC8F90",
"N. c #A29C98",
"B. c #B49290",
"V. c #BC9597",
"C. c #B89698",
"Z. c #A6A29E",
"A. c gray63",
"S. c #A5A7A9",
"D. c #ABABAC",
"F. c #B6B6B7",
"G. c gray72",
"H. c #B8B9B9",
"J. c gray75",
"K. c #C7A885",
"L. c #C3B0A3",
"P. c #CEB7A8",
"I. c #EFBCBC",
"U. c #FED496",
"Y. c #DEC3AF",
"T. c #B2BFC9",
"R. c #F4BDC0",
"E. c #BFC0C0",
"W. c #C6C6C6",
"Q. c #D8D6D2",
"!. c #DAD8D5",
"~. c gray85",
"^. c gray87",
"/. c #DEDEDF",
"(. c #F4C0C0",
"). c #F7C2C2",
"_. c #FAC5C5",
"`. c #EBD1C2",
"'. c #F1D6C6",
"]. c #E3E1DF",
"[. c #FFE4D2",
"{. c #FFEAD2",
"}. c #DFDFE0",
"|. c #D9DFE4",
" X c #E0E0E1",
".X c #E4E2E0",
"XX c #E4E4E4",
"oX c #ECECEC",
"OX c gray93",
"+X c #ECEFF2",
"@X c #F4F4F4",
"#X c None",
/* pixels */
"#X#X#X#X#Xk.L L k.#X#X#X#X#Xd.L } #X#X#X#X#X#X#X",
"#X#X#X#Xk.e # @ @ k.#X#X#XA.$ O @ u.#X#X#X#X#X#X",
"#X#X#X#Xk.> ,.>.; k.#X#X#X6 ~ K.o.@ #X#X#X#X#X#X",
"#X#X#X#Xj.h U.U.: k.#X#X#X5 -.{.K.% #X#X#X#X#X#X",
"#X#X#X#X#X! U.U.b #X#X#X#X .[.[.[.' #X#X#X#X#X#X",
"#X#X#X#XD.y :.X.* G.#X#X#X` / Y.( S #X#X#X#X#X#X",
"#X#X#Xd.q S.i.a.x.7 l.#Xg T C.| n.Q 1 #X#X#X#X#X",
"#X#X#X9 ^.@X^. X@X~.9 #XF (.).).I._.W #X#X#X#X#X",
"#X#X#Xq ^.g.OXoXa. Xd E.#.(.m.R.V.(.b.Z.#X#X#X#X",
"#X#X#Xu Q.E ].].I ~.f J.%.M.+.).$.v.B.A.#X#X#X#X",
"#X#X#Xr =.a Z Z i =.l H.( A ..*.&.k @.z.#X#X#X#X",
"#X#X#XA   w.y.y.0.  H #Xo n 3.3.1.n   #X#X#X#X#X",
"#X#X#X#X3 t.q.e.w.2 #X#Xt 3.4.3.3.3.j #X#X#X#X#X",
"#X#X#X#XN.N 7.8.< Z.#X{ *.2.3.3.2.2.*.{ #X#X#X#X",
"#X#X#X#Xi.M 7.8., h.#X{ = m ;.z X.z - { #X#X#X#X",
"#X#X#X#XV T.) _ T.+ #X#X#XB '.p `.s #X#X#X#X#X#X",
"#X#X#X#XV |.4 9 +XA #X#X#XH L.8 P.G #X#X#X#X#X#X",
"#X#X#X#XK Y W.H.Y K #X#X#X] K XXE g.#X#X#X#X#X#X"
};
