/* XPM */
static char *phone_book_directory_yellow_pages[] = {
/* columns rows colors chars-per-pixel */
"24 18 161 2 ",
"   c black",
".  c gray6",
"X  c #101010",
"o  c #111111",
"O  c gray7",
"+  c #131313",
"@  c gray8",
"#  c #151515",
"$  c #363118",
"%  c #202020",
"&  c gray13",
"*  c #222222",
"=  c #232323",
"-  c gray16",
";  c #2C2C2C",
":  c gray18",
">  c #2F2F2F",
",  c #3C3C3C",
"<  c gray24",
"1  c #403B1A",
"2  c #413B1B",
"3  c #5E541F",
"4  c #504B29",
"5  c #5A5121",
"6  c #58522D",
"7  c #615720",
"8  c #675E20",
"9  c #665C22",
"0  c #675E22",
"q  c #6C6227",
"w  c #766A23",
"e  c #776B26",
"r  c #7C6F22",
"t  c #786C26",
"y  c #7B6F27",
"u  c #71672F",
"i  c #756C34",
"p  c #746C3C",
"a  c #7B7134",
"s  c #494949",
"d  c #7B7442",
"f  c #7C7C7C",
"g  c #877822",
"h  c #877A26",
"j  c #8A7C26",
"k  c #807533",
"l  c #80773B",
"z  c #867C3B",
"x  c #958526",
"c  c #968626",
"v  c #978826",
"b  c #918228",
"n  c #9A8A2A",
"m  c #9B8B2B",
"M  c #9C8C28",
"N  c #9F8F28",
"B  c #978934",
"V  c #968935",
"C  c #9F9139",
"Z  c #A29129",
"A  c #A29229",
"S  c #A39229",
"D  c #A4932A",
"F  c #A5932A",
"G  c #A6942C",
"H  c #A6952F",
"J  c #A7962E",
"K  c #A8972A",
"L  c #A8972F",
"P  c #A9982F",
"I  c #A69630",
"U  c #A89733",
"Y  c #AA9934",
"T  c #B9A62E",
"R  c #BAA72F",
"E  c #BBA82F",
"W  c #BCA82F",
"Q  c #B2A134",
"!  c #B7A637",
"~  c #BAA731",
"^  c #BEAC39",
"/  c #BFAC3B",
"(  c #C3AF31",
")  c #C2AE34",
"_  c #C6B232",
"`  c #C7B332",
"'  c #C6B234",
"]  c #C8B432",
"[  c #CEB934",
"{  c #C9B63C",
"}  c #D4BE35",
"|  c #D5BF36",
" . c #D5BF38",
".. c #D9C337",
"X. c #DAC437",
"o. c #D4C03E",
"O. c #DCC639",
"+. c #DCC63B",
"@. c #E0C938",
"#. c #E2CB39",
"$. c #E0CA3B",
"%. c #E4CD3A",
"&. c #E6D03D",
"*. c #E8D03B",
"=. c #E9D13B",
"-. c #EAD23B",
";. c #EAD23C",
":. c #EAD33E",
">. c #EAD33F",
",. c #EBD43F",
"<. c #ECD43C",
"1. c #EED63F",
"2. c #8A8046",
"3. c #9D9140",
"4. c #9A9153",
"5. c #9E9353",
"6. c #A49645",
"7. c #A69841",
"8. c #A99D57",
"9. c #B2AB48",
"0. c #BBAF68",
"q. c #C5B344",
"w. c #CCBA46",
"e. c #CDBB50",
"r. c #CDBD5D",
"t. c #D7C348",
"y. c #E0CA41",
"u. c #E2CD4C",
"i. c #E7D143",
"p. c #EAD340",
"a. c #EBD443",
"s. c #EED640",
"d. c #EAD344",
"f. c #EBD547",
"g. c #ECD545",
"h. c #EED747",
"j. c #EFD747",
"k. c #E9D44E",
"l. c #EBD64F",
"z. c #F4DC42",
"x. c #F7DE49",
"c. c #ECD750",
"v. c #EDD850",
"b. c #E9D65B",
"n. c #EEDA5D",
"m. c #F0DA52",
"M. c #F7E154",
"N. c #FFEE5D",
"B. c #FFF051",
"V. c #D2C46E",
"C. c #EEDB62",
"Z. c #FFFF69",
"A. c #FFFF72",
"S. c #FFFF7F",
"D. c gray57",
"F. c #E6DE81",
"G. c #F7ED84",
"H. c #FBF695",
"J. c #FDFB9D",
"K. c #FFFFA5",
"L. c None",
/* pixels */
"L.L.L.D.f                             f D.L.L.L.",
"L.L.L.f 4.F.J.H.G.G.G.C.C.C.C.C.C.C.r.d f L.L.L.",
"L.L.L.  V.B T E . . . . w E E E T ^ q.n   L.L.L.",
"L.L.L.  H.x ( b o o o . 3 ] _ _ _ { w.E   L.L.L.",
"L.L.L.  H.M [ 7 o o o o o m ..} o.o.t.E   L.L.L.",
"L.L.L.  G.M 2 0 t t 0 o o t #.O.#.y.u.E   L.L.L.",
"L.L.L.  G.S 2 $ 5 ) @ @ o @ J *.&.i.k.E   L.L.L.",
"L.L.L.  G.D ..%.;.P o @ @ @ y *.>.g.k.E   L.L.L.",
"L.L.L.  C.D ..%.;.o + P P @ + *.>.a.c.E   L.L.L.",
"L.L.L.  C.D ..%.I @ + <.*.@ @ P >.j.v.E   L.L.L.",
"L.L.L.  C.D ..%.@ + P *.*.P @ @ s.j.v.K   L.L.L.",
"L.L.L.  C.D O.I @ @ *.<.<.<.@ @ Q x.M.J   L.L.L.",
"L.L.L.  C.J +.P Y p.p.;.<.<.z.! / B.N.v   L.L.L.",
"L.L.L.  C.I V a * % q j.j.C * = C e.Z.c   L.L.L.",
"L.L.L.  C.a - ; p 4 : u 6.: 6 2.< s 5.v   L.L.L.",
"L.L.L.  r.i 0.b.n.7.l , < z 9.A.S.K.8.j   L.L.L.",
"L.L.L.f 4.m W E K K K h h x x x g g r q f L.L.L.",
"L.L.L.D.f                             f D.L.L.L."
};
