/* XPM */
static char *plug[] = {
/* columns rows colors chars-per-pixel */
"24 18 33 1 ",
"  c black",
". c #403C31",
"X c #605A4A",
"o c #756E5A",
"O c #7F7862",
"+ c #997228",
"@ c #9A732C",
"# c #837C65",
"$ c #EFB23F",
"% c #FFE031",
"& c #898169",
"* c #928A70",
"= c #9F967A",
"- c #A39A7E",
"; c #A49B7E",
": c #928E84",
"> c #A39E87",
", c #A5A08E",
"< c #B6AC8C",
"1 c #ACAAA1",
"2 c #BBB5A0",
"3 c #BEB7A2",
"4 c #C2BEB0",
"5 c #CCC19D",
"6 c #FFEC83",
"7 c #CCC6A9",
"8 c #C6C1B2",
"9 c #E4D7AF",
"0 c #FFF4B5",
"q c #EDE5CB",
"w c #F3EDDC",
"e c #F7F3E7",
"r c None",
/* pixels */
"rrrrrrrrrrrrrrrrrrrrrrrr",
"rrrrrrrrrrrrrrrrrrrrrrrr",
"rrrrrrrrrrr        rrrrr",
"rrrrrrrrrr eeeee1e5 rrrr",
"rrrrrr    eeeee1e5XX  rr",
"rrrr  ww:3eeee1e5=%667 r",
"rrr ww4&3eeee1e5XXXX$+ r",
"rr ww<;,3qqq82q=%60>  rr",
"rr w9#o 9999=95=$$$@ rrr",
"r ww<o  9999=95=..  rrrr",
"r ww* r <<<<O<--O rrrrrr",
"r w4* rr         rrrrrrr",
"r w4* rrrrrrrrrrrrrrrrrr",
"r w4* rrrrrrrrrrrrrrrrrr",
"r w<* rrrrrrrrrrrrrrrrrr",
"r     rrrrrrrrrrrrrrrrrr",
"rrrrrrrrrrrrrrrrrrrrrrrr",
"rrrrrrrrrrrrrrrrrrrrrrrr"
};
