/* XPM */
static char *point_of_sale_terminal[] = {
/* columns rows colors chars-per-pixel */
"24 18 27 1 ",
"  c black",
". c #232323",
"X c #313131",
"o c #343434",
"O c #3A3A3A",
"+ c #535353",
"@ c gray34",
"# c gray36",
"$ c #5F5F5F",
"% c #656565",
"& c #747474",
"* c #7C7C7C",
"= c #7E7E7E",
"- c gray57",
"; c gray63",
": c #B2B2B2",
"> c #B4B4B4",
", c gray74",
"< c gray79",
"1 c #CBCBCB",
"2 c gray82",
"3 c #D2D2D2",
"4 c #D7D7D7",
"5 c #DADADA",
"6 c #EFEFEF",
"7 c gray100",
"8 c None",
/* pixels */
"888      888888888888888",
"88 63333 8        888888",
"88 6   3 8 ,,,,,,% 88888",
"88 3>>>> 8 1####:% 88888",
"888  >   8 <7777:% 88888",
"8888 >O888 17777:% 88888",
"8888 1O8#  17777:%   888",
"8888 1O8X5ooooooo@,,& 88",
"8888 2O#,,,,,,,,,,,&& 88",
"8888 >OX-7-4-7-7%-&&& 88",
"8888 >O-----------&&& 88",
"8888 >O-7-4-7-7%-&&&& 88",
"8888 1O4,,,,,,,,-:&&& 88",
"8888  5.......+;=:&& 888",
"88888 22222223:==:& 8888",
"88888 ::::::::==.  88888",
"88888          .88888888",
"888888888888888888888888"
};
