/* XPM */
static char *religion[] = {
/* columns rows colors chars-per-pixel */
"24 18 167 2 ",
"   c black",
".  c #22190F",
"X  c #260E1F",
"o  c #231B10",
"O  c #292015",
"+  c #2A2116",
"@  c #2C2315",
"#  c #2E2417",
"$  c #2E2419",
"%  c #322719",
"&  c #33291B",
"*  c #342A1C",
"=  c #291021",
"-  c #341429",
";  c gray20",
":  c #453625",
">  c #4F3C24",
",  c #4B3C28",
"<  c #42303C",
"1  c #624F35",
"2  c #796521",
"3  c #796622",
"4  c #601E48",
"5  c #512643",
"6  c #542745",
"7  c #582949",
"8  c #61234A",
"9  c #662651",
"0  c #6A2553",
"q  c #6D2655",
"w  c #6B2B55",
"e  c #7E255D",
"r  c #7F2A63",
"t  c gray33",
"y  c #8A752B",
"u  c #802661",
"i  c #812F63",
"p  c #842C65",
"a  c #872E6A",
"s  c #892F6C",
"d  c #8A316B",
"f  c #8E326E",
"g  c #8E336E",
"h  c #8F346F",
"j  c #863A6E",
"k  c #91326C",
"l  c #9E2E74",
"z  c #8A3E70",
"x  c #943E77",
"c  c #9F357C",
"v  c #A03079",
"b  c #A3357C",
"n  c #A3357F",
"m  c #A1377E",
"M  c #A5357E",
"N  c #A5377E",
"B  c #99477C",
"V  c #836079",
"C  c #A6901D",
"Z  c #AD971E",
"A  c #988231",
"S  c #B29A20",
"D  c #B89E20",
"F  c #CAAF27",
"G  c #CEB02B",
"H  c #DFC029",
"J  c #DEC02A",
"K  c #E6C42C",
"L  c #E7C62F",
"P  c #E8C730",
"I  c #F1CF31",
"U  c #FAD533",
"Y  c #FBD634",
"T  c #FBD736",
"R  c #FFDF32",
"E  c #FEDA35",
"W  c #FFDC36",
"Q  c #FFE237",
"!  c #FFE039",
"~  c #FFE93A",
"^  c #FFEB3B",
"/  c #FFEC3C",
"(  c #FFF33B",
")  c #FFF83E",
"_  c #FFFA41",
"`  c #FFFE41",
"'  c #9F3580",
"]  c #A23B80",
"[  c #A93B83",
"{  c #A93985",
"}  c #AB3B87",
"|  c #AE3E84",
" . c #AD3D86",
".. c #B53E87",
"X. c #B23F8A",
"o. c #B53E89",
"O. c #9F4A82",
"+. c #9E5A88",
"@. c #AB4684",
"#. c #AF4188",
"$. c #B44487",
"%. c #B24288",
"&. c #B2428A",
"*. c #B4418A",
"=. c #B3438C",
"-. c #B5428D",
";. c #B2448E",
":. c #B4448D",
">. c #B5478E",
",. c #B94E8F",
"<. c #B44690",
"1. c #BA4792",
"2. c #B34C91",
"3. c #BF4C93",
"4. c #BD5099",
"5. c #B47FA3",
"6. c #C2509D",
"7. c #C0569E",
"8. c #C6569E",
"9. c #C853A3",
"0. c #C758A5",
"q. c #D562AF",
"w. c #DE65B7",
"e. c #EC6DBF",
"r. c #E968C0",
"t. c #F775C0",
"y. c #F67EC2",
"u. c #F67FC3",
"i. c #F77BC5",
"p. c #F67DC6",
"a. c #F871C9",
"s. c #F779CC",
"d. c #B580A4",
"f. c #B681A5",
"g. c #B785A6",
"h. c #BA81A7",
"j. c #B788A6",
"k. c #BB85A9",
"l. c #BF8AAC",
"z. c #A9A9A9",
"x. c #B1B1B1",
"c. c #C18CAF",
"v. c #C392B4",
"b. c #C995B5",
"n. c #D59DC1",
"m. c #D99ECA",
"M. c #F683C1",
"N. c #F585C0",
"B. c #F585C2",
"V. c #F586C4",
"C. c #E1A7CB",
"Z. c #E7AFD3",
"A. c #E8ADD0",
"S. c #EFB4D8",
"D. c #FABDDF",
"F. c LightGray",
"G. c #DDDDDD",
"H. c #FFC6E9",
"J. c #FFDBE5",
"K. c #FFDCE4",
"L. c #FFDDE7",
"P. c #FFD1EC",
"I. c gray88",
"U. c #FFE2E9",
"Y. c #F9F9F9",
"T. c gray100",
"R. c None",
/* pixels */
"R.R.                              R.R.R.R.R.R.R.",
"R.R.  L.K.P.D.S.A.C.m.b.c.k.h.+.  R.R.R.R.R.R.R.",
"R.R.  U.B.u.s.e.w.j 0.9.3.1.:.h   R.R.R.R.R.R.R.",
"R.R.  J.B.B.p.a.O.$ z 6.,.:.%.g   R.R.R.R.R.R.R.",
"R.R.  H.i.M.u.t.1 ! , 4.2.:.o.        R.R.R.R.R.",
"R.R.  Z.B 5 6 7 A F y = - X 9   Y.G.  R.R.R.R.R.",
"R.R.  n.r.: _ J ` / G Z P # [   T.x.  R.R.R.R.R.",
"R.R.  v.q.7.* ( ) / W K         T.x.        R.R.",
"R.R.  l.8.x O R ~ Q Y K   T.T.T.T.x.F.F.I.  R.R.",
"R.R.  j.@.& T D E U I C   T.x.x.x.x.x.x.x.  R.R.",
"R.R.  g.w + & @ 3 S 3 o         F.x.        R.R.",
"R.R.  f.<.$.-.%.8 K > ] N n '   T.x.  R.R.R.R.R.",
"R.R.  f.;.*.%. .q . 0 N n c v   T.T.  R.R.R.R.R.",
"R.R.; 5...X. .{ { 4 N m c v l   F.T.  R.R.R.R.R.",
"R.R.t V o.X. .{ a i p n c v l   T.x.  R.R.R.R.R.",
"R.R.z.< o.%. .s       r v v l   F.T.  R.R.R.R.R.",
"R.R.R.  k g d   R.R.R.  r u e   F.x.  R.R.R.R.R.",
"R.R.R.R.      R.R.R.R.R.              R.R.R.R.R."
};
