/* XPM */
static char * restart_xpm[] = {
"24 24 233 2",
"  	c None",
". 	c #46464D",
"+ 	c #909098",
"@ 	c #BFBFC4",
"# 	c #C6C6CA",
"$ 	c #C0C0C4",
"% 	c #B5B5B9",
"& 	c #A6A6AB",
"* 	c #81818B",
"= 	c #4B4B5B",
"- 	c #252531",
"; 	c #9A9AA2",
"> 	c #C2C2C6",
", 	c #CACACC",
"' 	c #D1D1D2",
") 	c #CFCFD0",
"! 	c #C4C4C5",
"~ 	c #B5B5B5",
"{ 	c #A3A3A4",
"] 	c #909092",
"^ 	c #7D7D80",
"/ 	c #464650",
"( 	c #2F2F3F",
"_ 	c #1E1E29",
": 	c #3A3A41",
"< 	c #A5A5AD",
"[ 	c #B3B3B6",
"} 	c #BFBFC0",
"| 	c #CECECE",
"1 	c #D9D9DA",
"2 	c #D4D4D4",
"3 	c #C6C6C6",
"4 	c #A1A1A1",
"5 	c #8B8B8B",
"6 	c #747474",
"7 	c #5C5C5D",
"8 	c #17171B",
"9 	c #23232E",
"0 	c #262634",
"a 	c #91919A",
"b 	c #9C9C9F",
"c 	c #A9A9AA",
"d 	c #B9B9B9",
"e 	c #C7C7C7",
"f 	c #D6D6D6",
"g 	c #DDDDDD",
"h 	c #DEDEDE",
"i 	c #D9D9D9",
"j 	c #CACACA",
"k 	c #ABABAB",
"l 	c #7A7A7A",
"m 	c #525252",
"n 	c #1B1B1C",
"o 	c #0A0A0C",
"p 	c #1C1C26",
"q 	c #21212D",
"r 	c #676774",
"s 	c #838387",
"t 	c #8D8D8E",
"u 	c #9C9C9D",
"v 	c #BABABA",
"w 	c #EBEBEB",
"x 	c #ECECEC",
"y 	c #E8E8E8",
"z 	c #E5E5E5",
"A 	c #E4E4E4",
"B 	c #E1E1E1",
"C 	c #CDCDCD",
"D 	c #8A8A8A",
"E 	c #242424",
"F 	c #4E4E4F",
"G 	c #09090A",
"H 	c #2C2C3A",
"I 	c #64646B",
"J 	c #6D6D6E",
"K 	c #7C7C7C",
"L 	c #A7A7A7",
"M 	c #D5D5D5",
"N 	c #969696",
"O 	c #B6B6B6",
"P 	c #DBDBDB",
"Q 	c #DFDFDF",
"R 	c #C9C9C9",
"S 	c #999999",
"T 	c #050505",
"U 	c #060609",
"V 	c #1E1E28",
"W 	c #464649",
"X 	c #575757",
"Y 	c #E3E3E3",
"Z 	c #B7B7B7",
"` 	c #848484",
" .	c #7B7B7B",
"..	c #727272",
"+.	c #666666",
"@.	c #565656",
"#.	c #454545",
"$.	c #EAEAEA",
"%.	c #F1F1F1",
"&.	c #ADADAD",
"*.	c #000000",
"=.	c #0D0D12",
"-.	c #0F0F15",
";.	c #20202B",
">.	c #1F1F2B",
",.	c #202022",
"'.	c #3F3F3F",
").	c #656565",
"!.	c #606060",
"~.	c #5B5B5B",
"{.	c #474747",
"].	c #373737",
"^.	c #2A2A2A",
"/.	c #C8C8C8",
"(.	c #D0D0D0",
"_.	c #959595",
":.	c #040404",
"<.	c #010101",
"[.	c #040405",
"}.	c #111118",
"|.	c #2B2B3A",
"1.	c #13131A",
"2.	c #343434",
"3.	c #5F5F5F",
"4.	c #3E3E3E",
"5.	c #3D3D3D",
"6.	c #2F2F2F",
"7.	c #232323",
"8.	c #141414",
"9.	c #121212",
"0.	c #282828",
"a.	c #353535",
"b.	c #363636",
"c.	c #272727",
"d.	c #020202",
"e.	c #0C0C0C",
"f.	c #0C0C10",
"g.	c #2E2E3D",
"h.	c #0D0D11",
"i.	c #000001",
"j.	c #3A3A3A",
"k.	c #B2B2B2",
"l.	c #1E1E1E",
"m.	c #191919",
"n.	c #161616",
"o.	c #111111",
"p.	c #0A0A0A",
"q.	c #151515",
"r.	c #0C0C0E",
"s.	c #2C2C3B",
"t.	c #0A0A0E",
"u.	c #2E2E2E",
"v.	c #6D6D6D",
"w.	c #6F6F6F",
"x.	c #3C3C3C",
"y.	c #1C1C1C",
"z.	c #131314",
"A.	c #2A2A38",
"B.	c #0A0A0D",
"C.	c #707070",
"D.	c #030303",
"E.	c #262626",
"F.	c #1C1C1D",
"G.	c #262633",
"H.	c #0B0B0F",
"I.	c #131313",
"J.	c #252525",
"K.	c #1F1F1F",
"L.	c #0D0D0D",
"M.	c #060606",
"N.	c #AAAAAA",
"O.	c #D2D2D2",
"P.	c #080808",
"Q.	c #222223",
"R.	c #C1C1C1",
"S.	c #8F8F8F",
"T.	c #4F4F4F",
"U.	c #BDBDBD",
"V.	c #4D4D4D",
"W.	c #181820",
"X.	c #010102",
"Y.	c #EFEFEF",
"Z.	c #909090",
"`.	c #404040",
" +	c #C2C2C2",
".+	c #6E6E6E",
"++	c #2D2D2D",
"@+	c #1A1A1A",
"#+	c #1A1A23",
"$+	c #050507",
"%+	c #9D9D9D",
"&+	c #464646",
"*+	c #202020",
"=+	c #1D1D1D",
"-+	c #929292",
";+	c #0E0E0E",
">+	c #181818",
",+	c #5E5E5E",
"'+	c #636363",
")+	c #101015",
"!+	c #050506",
"~+	c #686868",
"{+	c #D8D8D8",
"]+	c #CBCBCB",
"^+	c #838383",
"/+	c #4A4A4A",
"(+	c #878787",
"_+	c #303030",
":+	c #0C0C11",
"<+	c #09090B",
"[+	c #090909",
"}+	c #292929",
"|+	c #B0B0B0",
"1+	c #C3C3C3",
"2+	c #8D8D8D",
"3+	c #494949",
"4+	c #09090C",
"5+	c #0E0E0F",
"6+	c #1B1B1B",
"7+	c #0F0F0F",
"8+	c #9E9E9E",
"9+	c #040406",
"0+	c #2B2B2B",
"a+	c #212121",
"b+	c #A8A8A8",
"c+	c #626262",
"d+	c #757575",
"e+	c #7D7D7D",
"f+	c #A5A5A5",
"g+	c #2C2C2C",
"h+	c #313131",
"i+	c #4E4E4E",
"j+	c #3B3B3B",
"                                                ",
"              . + @ # $ % & * = -               ",
"            ; > , ' ) ! ~ { ] ^ / ( _           ",
"        : < [ } | 1 2 3 ~ 4 5 6 7 8 9 0         ",
"        a b c d e f g h i j k l m n o p q       ",
"      r s t u v g w x y z A B C D E F G p       ",
"    H I J K L h y M ~ 4 N N O P Q R S T U V     ",
"    ( W X K 2 Y Z `  ...+.@.#.` $.%.&.T *.=.-.  ",
"  ;.>.,.'.L B O ).!.~.m {.].^. ./.(._.:.<.[.}.  ",
"  |.1.:.2./.M 3.4.5.].6.7.8.9.0.a.b.c.<.d.e.f.  ",
"  g.h.i.j./.k.l.m.n.o.p.:.*.*.*.*.*.*.*.d.q.r.  ",
"  s.t.*.u.D v.<.*.*.*.*.*.*.*.*.*.b.w.x.d.y.z.  ",
"  A.B.*.*.*.*.*.*.*.*.*.*.*.*.*.*.C./.+.D.E.F.  ",
"  G.H.i.*.I.J.E.K.L.*.*.*.*.*.*.M.N.O.m P.b.Q.  ",
"  p -.i.*.+.R.3 S.9.*.*.*.*.*.*.T.O.U.l.I.V.7.  ",
"    W.X.*. .y Y.Z.M.*.*.*.*.*.`. +2 .+T +++.@+  ",
"    #+$+<.w.R Q i %+&+*+=+a.K j M -+;+>+,+'+    ",
"      )+!+&+7.~+ +{+2 ]+R (.{+]+^+o.o./+(+_+    ",
"      :+<+n.[+<.}+l |+ +1+Z 2+'.M.q.3+-+,+      ",
"        4+5+7.n.[+d.p.6+=+7+:.L.c.3.8+w.        ",
"          9+I.j.j.0+a+=+l.J.].~.S.b+!.          ",
"            i.e.5.c+w.d+e+5 %+f+e+g+            ",
"                  q.h+#.i+i+j+>+                ",
"                                                "};
