/* XPM */
static char *science_test_tubes[] = {
/* columns rows colors chars-per-pixel */
"24 18 81 1 ",
"  c black",
". c #323232",
"X c gray20",
"o c #004B17",
"O c #005E1D",
"+ c #0C5722",
"@ c #006920",
"# c #15692E",
"$ c #007524",
"% c #1A6D34",
"& c #0E7F31",
"* c #2C7042",
"= c #2A7742",
"- c #317D49",
"; c gray28",
": c #555555",
"> c gray36",
", c #5D5D5D",
"< c #727272",
"1 c gray46",
"2 c gray49",
"3 c #A2001E",
"4 c #C80025",
"5 c #DF0029",
"6 c #E94D6A",
"7 c #EA536F",
"8 c #FF5676",
"9 c #008228",
"0 c #00912D",
"q c #13973C",
"w c #00A132",
"e c #08A638",
"r c #0CAA3C",
"t c #00B738",
"y c #208B41",
"u c #299249",
"i c #31904E",
"p c #1AA745",
"a c #13B244",
"s c #27A34D",
"d c #25AF4F",
"f c #23B250",
"g c #3DB261",
"h c #3BBF64",
"j c #468F5C",
"k c #47955E",
"l c #479C61",
"z c #4AA465",
"x c #4DB46C",
"c c #5BAE74",
"v c #18CA4F",
"b c #0FD24B",
"n c #0FD44B",
"m c #FF6C94",
"M c #FF78A4",
"N c #6BCA88",
"B c #6FE794",
"V c #808080",
"C c #8E8E8E",
"Z c #9B9B9B",
"A c #9D9D9D",
"S c #A0A0A0",
"D c gray63",
"F c #A4A4A4",
"G c #AFAFAF",
"H c #B7B7B7",
"J c #F08297",
"K c #FF86B7",
"L c #F4A3B2",
"P c #FFBCFF",
"I c gray76",
"U c gray80",
"Y c gray86",
"T c gray87",
"R c #DFDFDF",
"E c #F9CCD4",
"W c #FFC1FF",
"Q c gray90",
"! c gray95",
"~ c gray100",
"^ c None",
/* pixels */
"^^^^^^^^^^^^^^^^^^^^^^^^",
"^^^^^^^^^^^^Z     Z^^^^^",
"^^^^^^^^^^^^Z2!IS,Z^^^^^",
"^^^^^^^^^^^^^ 1,: ^^^^^^",
"^^^^^^^^^^^^^ Y~S ^^^^^^",
"^           ^ Y~S ^^^^^^",
"^ QUQ~Q~~UU ^ Y~S ^^^^^^",
"^ CCCVVVVV< ^;Y~S;^^^^^^",
"^^ U~QQQUH ^AXR!FXG^^^^^",
"^^ LELLLJ7 ^;~~RUS;^^^^^",
"^^ 5K65534  eBvnnr$ ^^^^",
"^^ 5P65534 eNfaqyz$O ^^^",
"^^ 5W65534 Nhww9@%iOO ^^",
"^^ 5M65534 gtw0$@+p*O ^^",
"^^ 5m65534 ds09$@-xjO ^^",
"^^ 5m65534 9&uuukcl=O ^^",
"^^ 5865534 ########Oo ^^",
"^^^       ^          ^^^"
};
