/* XPM */
static char *script_network[] = {
/* columns rows colors chars-per-pixel */
"24 18 66 1 ",
"  c black",
". c #1B1B1B",
"X c #2E2F2F",
"o c gray20",
"O c gray21",
"+ c #4C4C4C",
"@ c #5F5F5F",
"# c #626363",
"$ c #6A6A6A",
"% c #6F7070",
"& c #727272",
"* c #767676",
"= c gray49",
"- c #FFC11A",
"; c #7F8080",
": c #838383",
"> c #929292",
", c #929393",
"< c #939393",
"1 c #989898",
"2 c #999A9A",
"3 c #9A9A9A",
"4 c #9B9B9B",
"5 c gray61",
"6 c gray62",
"7 c #A1A2A2",
"8 c gray64",
"9 c #A5A5A5",
"0 c #A5A6A6",
"q c #A8A9A9",
"w c #AAAAAA",
"e c #AFB0B0",
"r c gray71",
"t c #B5B6B6",
"y c #B6B6B6",
"u c #B6B7B7",
"i c #B8B9B9",
"p c #BDBEBE",
"a c gray76",
"s c #C5C5C5",
"d c #CBCBCB",
"f c #CDCECE",
"g c #CECFCF",
"h c gray81",
"j c #D0D1D1",
"k c #D1D2D2",
"l c #D3D4D4",
"z c #D7D8D8",
"x c #DDDDDD",
"c c #DDDEDE",
"v c #DEDFDF",
"b c #DFDFDF",
"n c #DFE0E0",
"m c gray88",
"M c #E2E3E3",
"N c #E6E7E7",
"B c #E7E7E7",
"V c #E8E9E9",
"C c #E9EAEA",
"Z c gray95",
"A c gray96",
"S c #FBFCFC",
"D c #FCFDFD",
"F c #FDFEFE",
"G c #FEFEFE",
"H c None",
/* pixels */
"HHHHHHHHHHHHHHHHHHHHHHHH",
"HHHHHHHHHHHHHHHHHH   HHH",
"HHH          HHHHHH  HHH",
"HH sFSFSFFFSF HHHH H HHH",
"HH Z<+FAAAAAAA  H HHHHHH",
"HH A9 FVVVVVV -- HHHHHHH",
"HHH   FVVVVVV -- HHHHHHH",
"HHHHH FBBVBBBB  H HHHHHH",
"HHHHH FMnncccc HHH H HHH",
"HHHHH Fzljkggg HHHH  HHH",
"HHHHH Fapiittt HHH   HHH",
"HHHHH Fq764444 HHHHHHHHH",
"HHHHH F9997777XHHHHHHHHH",
"HHHHH F994<=%O.   HHHHHH",
"HHHHH&eAcSFFFFFFd HHHHHH",
"HHHHHH #wt8<:**$@ HHHHHH",
"HHHHHHH=o        HHHHHHH",
"HHHHHHHHHHHHHHHHHHHHHHHH"
};
