/* XPM */
static char *silverware[] = {
/* columns rows colors chars-per-pixel */
"24 18 15 1 ",
"  c black",
". c #6D6D6D",
"X c gray45",
"o c #979797",
"O c #989898",
"+ c gray67",
"@ c #B9B9B9",
"# c gray74",
"$ c gray",
"% c gray81",
"& c #D5D5D5",
"* c #ECECEC",
"= c #F6F6F6",
"- c gray99",
"; c None",
/* pixels */
";;;;;;;;;;;;;;;;;;;;;;;;",
";;;     ;;;   ;;;;. .;;;",
";;; *X* ;;; - ;;;O * ;;;",
";;; *X* ;;; = ;;; ** ;;;",
";;; *X* ;;; = ;;; ** ;;;",
";;; *X* ;;; = ;;; ** ;;;",
";;; *#* ;;; = ;;; ** ;;;",
";;; *** ;;; = ;;; ** ;;;",
";;;; * ;;;; = ;;;; * ;;;",
";;;; * ;;; =*# ;;; * ;;;",
";;;; * ;; =++&@ ;; * ;;;",
";;;; * ;; =+**@ ;; * ;;;",
";;;; * ;; =#**@ ;; * ;;;",
";;;; * ;; =&*%@ ;; * ;;;",
";;;; O ;;; @@@ ;;; O ;;;",
";;;;   ;;;;   ;;;;   ;;;",
";;;;;;;;;;;;;;;;;;;;;;;;",
";;;;;;;;;;;;;;;;;;;;;;;;"
};
