/* XPM */
static char *speech_english_binary[] = {
/* columns rows colors chars-per-pixel */
"24 18 24 1 ",
"  c black",
". c #252525",
"X c #2C2C2C",
"o c gray19",
"O c gray20",
"+ c #373737",
"@ c #444444",
"# c #494949",
"$ c gray30",
"% c gray34",
"& c gray36",
"* c #717171",
"= c gray50",
"- c #808080",
"; c gray60",
": c #A2A2A2",
"> c #A9A9A9",
", c #AAAAAA",
"< c #B7B7B7",
"1 c gray72",
"2 c #C3C3C3",
"3 c gray80",
"4 c gray100",
"5 c None",
/* pixels */
"5555<           <5555555",
"555 *44444444444* 555555",
"55<*4444444444444*<55555",
"55 44  =4 4 4   44 55555",
"55 44 4 4 4 44 444 55555",
"55 44  =4 4 44 444 55555",
"55%44 444$;@44 444 55555",
"55=44=4441$:44=44> <5555",
"5O44444444444444>&;* 555",
" 444%OOOOOOOOOOO-;34*<55",
" OO#>>> ;;;&;;&&;3.44 55",
"5>>>255 333X3X33X4.44 55",
"5555555 444+4+44+4.44 55",
"5555555 444+44++44.44%55",
"5555555<*444444444444=55",
"55555555 *444444444444O5",
"555555555<         %444 ",
"55555555555555555555#   "
};
