/* XPM */
static char *sports[] = {
/* columns rows colors chars-per-pixel */
"24 18 34 1 ",
"  c black",
". c #5B331C",
"X c #794425",
"o c gray36",
"O c #706A5F",
"+ c gray49",
"@ c #98552E",
"# c #A95F34",
"$ c #BD6A3A",
"% c #BE6B3A",
"& c #827664",
"* c #D27640",
"= c #D47741",
"- c #8F887E",
"; c #A2947D",
": c #EC8448",
"> c #A39D92",
", c #AFA595",
"< c gray64",
"1 c #BEB4A4",
"2 c gray75",
"3 c #CBB99C",
"4 c #C7BFB1",
"5 c #DBCEBA",
"6 c #F5C1A3",
"7 c #F6C3A6",
"8 c gray80",
"9 c gray86",
"0 c #E0D5C4",
"q c #E4E0D9",
"w c #FDF3ED",
"e c #FAF8F5",
"r c gray100",
"t c None",
/* pixels */
"ttttttttt  ttttttttttttt",
"tttttttt qe tttttttttttt",
"tttttttt 40 tttttttttttt",
"tttttttt 40 tttttttttttt",
"ttttttttt 40 ttttttttttt",
"ttttttttt >- ttttttttttt",
"ttttttttt &; ttttttttttt",
"ttttXXXXXt ;3 tttttttttt",
"ttXX:::::XX;3 tttttttttt",
"tX:::7:7:::X3 tttttttttt",
"X::w:r:r:w::X3 ttttttttt",
"X::6:6:6:6==.3 t+o    tt",
"X%*::::::=%@ 3  O,51rr t",
"t %%::===    ;33333;rr t",
"tt  ###@ rr8 ;33333;rr t",
"tttt     r92  ;;;;;&88 t",
"tttttttt 82< t        tt",
"ttttttttt   tttttttttttt"
};
