/* XPM */
static char *square_sine_wave_fragment[] = {
/* columns rows colors chars-per-pixel */
"24 18 52 1 ",
"  c black",
". c #343F5D",
"X c #36405E",
"o c #38425F",
"O c #394360",
"+ c #3A4360",
"@ c #3B4560",
"# c #3D4661",
"$ c #3F4862",
"% c #5A5A5A",
"& c #414963",
"* c #434B64",
"= c #454D65",
"- c #464E65",
"; c #485066",
": c #566696",
"> c #5C6C9A",
", c #6A7CAE",
"< c #7283B6",
"1 c #7284B7",
"2 c #7284B8",
"3 c #7384B8",
"4 c #7485B8",
"5 c #7789BD",
"6 c #788ABE",
"7 c #A5A6A5",
"8 c #A9A9A9",
"9 c #ACACAC",
"0 c #ACADAC",
"q c #B3B4B4",
"w c gray71",
"e c #8293C6",
"r c #98A6D0",
"t c #9BA9D2",
"y c #9CAAD2",
"u c #9EACD3",
"i c #9FACD3",
"p c #A2AFD5",
"a c #A3AFD5",
"s c #C1C1C1",
"d c #CACACB",
"f c #C8D0E6",
"g c #CAD1E7",
"h c #E0E1E1",
"j c #E4E8F3",
"k c #F6F6F6",
"l c gray97",
"z c #F8F7F8",
"x c #F7F8F8",
"c c #F8F8F8",
"v c #F9FAFC",
"b c None",
/* pixels */
"bbbbbbbbbbbbbbbbbbbbbbbb",
"bbbbbbbbbbbbbbbbbbbbbbbb",
"                       b",
" vf;lllkllxccccccccccd b",
" j3Xk%%%hh%%%%hh%%%hh9 b",
" j3.khh%hh%hh%hh%hhhq bb",
" g4+khh%hh%hh%hh%hhhq bb",
" f3+khh%%%%hh%%%%hhhq bb",
" a<@khhhhhhhhhhhhhhhh7 b",
" a5#khhhhhhhhhhhhhhhh8 b",
" r6$khhh%%hhhh%%hhhhh9 b",
" t5&khh%hh%hh%hh%hhhq bb",
" y,*khh%hh%hh%hh%hhhw bb",
" u,=k%%hhhh%%hhhh%%hq bb",
" y:=khhhhhhhhhhhhhhhhw b",
" e>@swwwwwwwwwwwwwwwww b",
"                       b",
"bbbbbbbbbbbbbbbbbbbbbbbb"
};
