/* XPM */
static char *suitcase_open[] = {
/* columns rows colors chars-per-pixel */
"24 18 90 1 ",
"  c black",
". c #0F1011",
"X c #141616",
"o c #1C1E1F",
"O c #252628",
"+ c #26282A",
"@ c #333537",
"# c #333538",
"$ c #333638",
"% c #3A3C3E",
"& c #3F4254",
"* c #46484C",
"= c #46494C",
"- c #585B5F",
"; c #4F5269",
": c #575D61",
"> c #585C60",
", c #585D61",
"< c #5A5E63",
"1 c #5C5F63",
"2 c #5C6165",
"3 c #5D6165",
"4 c #5E6368",
"5 c #526077",
"6 c #546279",
"7 c #55627A",
"8 c #55637B",
"9 c #56637B",
"0 c #56647C",
"q c #5E6178",
"w c #5D627E",
"e c #5C6C7E",
"r c #75797D",
"t c #767A7E",
"y c #777A7E",
"u c #586880",
"i c #787C80",
"p c #797D81",
"a c #677F9A",
"s c #7E8288",
"d c #69829D",
"f c #6A839F",
"g c #81848A",
"h c #91909A",
"j c #928FAE",
"k c #8993AB",
"l c #8893AC",
"z c #8A94AD",
"x c #8C96B0",
"c c #9593B2",
"v c #99A2B7",
"b c #ACABBA",
"n c #8B96C8",
"m c #979ECF",
"M c #9AA9CF",
"N c #9AADD3",
"B c #99B0DC",
"V c #9CB0DE",
"C c #AAAEC4",
"Z c #A5AACA",
"A c #AAAEDE",
"S c #A6B4DA",
"D c #A5B2DF",
"F c #ADB8DA",
"G c #AFBBDD",
"H c #A7AEE4",
"J c #ADB6E3",
"K c #A8B7E6",
"L c #C1C6D7",
"P c #C1C8E7",
"I c #CDDCE9",
"U c #DAE0ED",
"Y c #E5E1E2",
"T c #E9E4E6",
"R c #E1E8EF",
"E c #EDE8EA",
"W c #EEE9EB",
"Q c #EFEAEC",
"! c #F2EDEF",
"~ c #E6E4F3",
"^ c #E8EDF5",
"/ c #F4EEF1",
"( c #F5F0F2",
") c #F3F4FB",
"_ c #F6F6FC",
"` c #FCF5FC",
"' c #F9FCFD",
"] c #FAFCFD",
"[ c gray100",
"{ c None",
/* pixels */
"{{{{{{{{{{{{{{{{{{{{{{{{",
"{{{{{{            {{{{{{",
"{{{{{ (((((/(((/~L {{{{{",
"{{{{{ E95u099099xC {{{{{",
"{{{{{ !f+%%%%%%%zC {{{{{",
"{{{{{ Ed+4222112lC {{{{{",
"{{{{{ QaO1-----:kC {{{{{",
"{{{{{ Eao*******zC {{{{{",
"{{{{{ YaX@@@@@##zC {{{{{",
"{{{{{ Te.OOOOOO+zb {{{{{",
"{{{{ (hgsittyit:`A {{{{{",
"{{{ ([[[[[R^)_''Nj {{{{{",
"{{{ ISFFFFFFFFVBMc {{{{{",
"{{{ UGF[vFF[qJKKZ {{{{{{",
"{{{ PDH[&;;[wmmn {{{{{{{",
"{{{{   [[[[[    {{{{{{{{",
"{{{{{{{      {{{{{{{{{{{",
"{{{{{{{{{{{{{{{{{{{{{{{{"
};
