/* XPM */
static char *television[] = {
/* columns rows colors chars-per-pixel */
"24 18 105 2 ",
"   c black",
".  c #050203",
"X  c #030205",
"o  c #070606",
"O  c #060706",
"+  c #060803",
"@  c #050C05",
"#  c #08090D",
"$  c #0A0D0C",
"%  c #121216",
"&  c #13191F",
"*  c gray23",
"=  c #4A382B",
"-  c #4A392C",
";  c #624B3D",
":  c #464646",
">  c gray29",
",  c #515151",
"<  c #665042",
"1  c #715744",
"2  c #735A42",
"3  c #7D604B",
"4  c #796150",
"5  c #78675D",
"6  c gray38",
"7  c #656565",
"8  c #6A6A6A",
"9  c gray45",
"0  c gray50",
"q  c #8E6D55",
"w  c #8B725E",
"e  c #977156",
"r  c #987256",
"t  c #9A7757",
"y  c #9A7458",
"u  c #9D7A58",
"i  c #9B7B5D",
"p  c #A67E57",
"a  c #A77E5D",
"s  c #A57F5F",
"d  c #9F7E64",
"f  c #A28062",
"g  c #A88561",
"h  c #A88567",
"j  c #AF8B69",
"k  c #B48960",
"l  c #B78B63",
"z  c #B08864",
"x  c #B58964",
"c  c #B78F64",
"v  c #BA8A62",
"b  c #B08E6E",
"n  c #BB9467",
"m  c #B7926C",
"M  c #BF926A",
"N  c #B9916D",
"B  c #BE9976",
"V  c #C2A17E",
"C  c #CFA479",
"Z  c #DDB07A",
"A  c #818181",
"S  c #A7A7A7",
"D  c #B2B2B2",
"F  c #D8AB82",
"G  c #DEB385",
"H  c #E3B382",
"J  c #E2B483",
"K  c #E4B684",
"L  c #E7BA87",
"P  c #E9BA83",
"I  c #EEBC82",
"U  c #EABA84",
"Y  c #E1B689",
"T  c #E2BA8D",
"R  c #F0BD84",
"E  c #EFC089",
"W  c #EFC28C",
"Q  c #EFC38F",
"!  c #F4C48B",
"~  c #F0C38D",
"^  c #ECC390",
"/  c #EEC495",
"(  c #EDC698",
")  c #F0C593",
"_  c #F2C692",
"`  c #F2C897",
"'  c #F8CC97",
"]  c #F1C999",
"[  c #F4CB99",
"{  c #F3CC9B",
"}  c #F5CC9B",
"|  c #F5CE9E",
" . c #F6CE9E",
".. c #ECC9A0",
"X. c #EFCEA6",
"o. c #F0CBA1",
"O. c #EFD2AC",
"+. c #F8D3A5",
"@. c #F2D0A9",
"#. c #F3D2AB",
"$. c #F3D4AC",
"%. c gray76",
"&. c #DFD5CD",
"*. c #E4D9D0",
"=. c None",
/* pixels */
"=.=.=.=.=.=.=.=.=.=.=.=.=.=.=.=.=.=.=.=.=.=.=.=.",
"=.=.=.=.=.=.=.  =.=.=.=.=.  =.=.=.=.=.=.=.=.=.=.",
"=.=.=.=.=.=.=.=.D =.=.=.D =.=.=.=.=.=.=.=.=.=.=.",
"=.=.=.=.=.=.=.=.0 0 =.0 0 =.=.=.=.=.=.=.=.=.=.=.",
"=.=.=.=.=.=.=.=.=.0   0 =.=.=.=.=.=.=.=.=.=.=.=.",
"                                              =.",
"  %.S A A A 7 7 7 7 7 7 7 7 7 7 7 7 7 S A ,   =.",
"  S   A > * * * * * * * * * * * * * 8   A *   =.",
"  A A A > 5 d h b V ..$.O.X.( W m & 8 A A *   =.",
"  A   A > 4 y x M a f T { | ' ! u # 8   A *   =.",
"  A A A > g r - 3 a e l I Q C N 1 $ 8 A A *   =.",
"  9   A > Z z ; &.B v p R 2 < q = @ 8   A *   =.",
"  9 A A > K _ Y G L P c ) j *.w . + 8 A A *   =.",
"  9   A > J [ +.| [ W n ] _ U t X o 8   A *   =.",
"  9 A A > F / @.@.o.J k ` ^ E i o % 8 A A *   =.",
"  6 7 7 7 7 7 7 7 7 7 7 7 7 7 7 7 7 7 7 7 ,   =.",
"  : * * * * * * * * * * * * * * * * * * * *   =.",
"                                              =."
};
