/* XPM */
static char *telephone_out[] = {
/* columns rows colors chars-per-pixel */
"24 18 58 1 ",
"  c black",
". c #414040",
"X c #504B46",
"o c #55524F",
"O c gray33",
"+ c #5F5A53",
"@ c #5B5854",
"# c #5F5C58",
"$ c #635E58",
"% c #66615A",
"& c #67625B",
"* c #69645D",
"= c gray38",
"- c #656565",
"; c #6F6A63",
": c #696868",
"> c #706B63",
", c #716B64",
"< c #787268",
"1 c #787269",
"2 c #7A756B",
"3 c #7C7C7C",
"4 c #7E7E7E",
"5 c gray50",
"6 c #959088",
"7 c #99938A",
"8 c #A59C91",
"9 c #B3A99C",
"0 c #A9A9A9",
"q c #B7ADA1",
"w c #B9B0A2",
"e c #BCB2A3",
"r c #BEB4A7",
"t c #AEAFB0",
"y c #C7BBAD",
"u c #C6BFB5",
"i c #CABFB1",
"p c #CABFB2",
"a c #CAC0B2",
"s c #D1C6B8",
"d c #D8CCBC",
"f c #DFD2C1",
"g c #E4D7C7",
"h c #E7DBCB",
"j c #EADECD",
"k c #E9E2D8",
"l c #F7E9D8",
"z c #E0E0E1",
"x c #EAEAEA",
"c c #ECECEC",
"v c #FEF1E0",
"b c #FDF6EC",
"n c gray94",
"m c #F3F3F3",
"M c gray96",
"N c #F8F8F8",
"B c gray98",
"V c None",
/* pixels */
"VVVVVVVVVV VVVVVVVVVVVVV",
"VVVVVVVVV   VVVVVVVVVVVV",
"VVVVVVVV== ==VVVVVVVVVVV",
"VVVVVVVVVV VVVVVVVVVVVVV",
"VVVV5           5VVVVVVV",
"VVV56ubbbbbbbbbk65VVVVVV",
"VVV ivsqqaiaqqsll VVVVVV",
"VVV igr#%;,,%+rfl  VVVVV",
"VVV i98Xjhhhh,8yl V VVVV",
"VVVV  <j&o.o$e<   VV VVV",
"VVVVV j2tzxzt%e VVVV VVV",
"VVVVV j@nBcmnoe VVVV VVV",
"VVVVV j.MxOxM.e VVVV VVV",
"VVVVV jonBcBnoe 5VV50VVV",
"VVVVV j%tnMnt%e -  0VVVV",
"VVVVV jd*o.o*ee VVVVVVVV",
"VVVVV:weeeeeee7:VVVVVVVV",
"VVVVVV:       :VVVVVVVVV"
};
