/* XPM */
static char *television_conferencing[] = {
/* columns rows colors chars-per-pixel */
"24 18 39 1 ",
"  c black",
". c #070707",
"X c #232425",
"o c #2E2E2F",
"O c #3E3831",
"+ c #614D31",
"@ c #5C5247",
"# c #4E4F50",
"$ c #4B4855",
"% c #545352",
"& c #615E6A",
"* c #6A6966",
"= c #6D6A66",
"- c #6B6874",
"; c #6E6B77",
": c #7D7E7F",
"> c #917852",
", c #977D59",
"< c #887F73",
"1 c #B89764",
"2 c #787489",
"3 c #86838E",
"4 c #888888",
"5 c #87829A",
"6 c #9E9BA6",
"7 c #9691AB",
"8 c #BCBCBC",
"9 c #E2BC85",
"0 c #FFD998",
"q c #BBB9C1",
"w c #C0BDCC",
"e c #C1BBD3",
"r c #CCC9D6",
"t c #D0CED4",
"y c #D8D8D8",
"u c #EDEEEE",
"i c #FDFDFD",
"p c gray100",
"a c None",
/* pixels */
"aaaaaaaaaaaaaaaaaaaaaaaa",
"aaaaaaaaaaaaaaaaaaaaaaaa",
"aaaaaa             aaaaa",
"aaa   eeeeeeeeeeee7 aaaa",
"aa tq&e222222222272 aaaa",
"aa 6.-e2ppppppppw72 aaaa",
"aa 3;&e2pppXopppw72 aaaa",
"aaa   e2ppO,+%ppw72 aaaa",
"aaaaa e2pp@01*ppw72 aaaa",
"aaaaa e2ppp9>pppw72 aaaa",
"aaaaa e2p8#<=#8pwr2 aaaa",
"aaaaa e2p#u:4y#pw$2 aaaa",
"aaaaa e2p#u:4y#pw52 aaaa",
"aaaaa e7wwwwqewww72 aaaa",
"aaaaa 2222222222222 aaaa",
"aaaaaa             aaaaa",
"aaaaaaaaaaaaaaaaaaaaaaaa",
"aaaaaaaaaaaaaaaaaaaaaaaa"
};
