/* XPM */
static char * term_xpm[] = {
"24 24 170 2",
"  	c None",
". 	c #6D6D70",
"+ 	c #DBDBE1",
"@ 	c #DCDCE2",
"# 	c #DDDDE3",
"$ 	c #DFDFE5",
"% 	c #D8D8DE",
"& 	c #6E6E71",
"* 	c #B7B7BC",
"= 	c #E1E1E6",
"- 	c #C9C9CE",
"; 	c #CACACF",
"> 	c #C8C8CD",
", 	c #CCCCD1",
"' 	c #DEDEE4",
") 	c #B7B7BB",
"! 	c #BABABF",
"~ 	c #B8B8BB",
"{ 	c #303030",
"] 	c #3D3D3D",
"^ 	c #3B3B3B",
"/ 	c #393939",
"( 	c #363636",
"_ 	c #333333",
": 	c #313131",
"< 	c #2F2F2F",
"[ 	c #2C2C2C",
"} 	c #292929",
"| 	c #262626",
"1 	c #242424",
"2 	c #222222",
"3 	c #202020",
"4 	c #1F1F1F",
"5 	c #1D1D1D",
"6 	c #1C1C1C",
"7 	c #1A1A1A",
"8 	c #B4B4B8",
"9 	c #B9B9BD",
"0 	c #B0B0B4",
"a 	c #4B4B4B",
"b 	c #727272",
"c 	c #6A6A6A",
"d 	c #626262",
"e 	c #5C5C5C",
"f 	c #545454",
"g 	c #4F4F4F",
"h 	c #484848",
"i 	c #424242",
"j 	c #2B2B2B",
"k 	c #272727",
"l 	c #252525",
"m 	c #232323",
"n 	c #ADADB1",
"o 	c #4A4A4A",
"p 	c #7A7A7A",
"q 	c #9A9A9A",
"r 	c #848484",
"s 	c #595959",
"t 	c #525252",
"u 	c #4C4C4C",
"v 	c #464646",
"w 	c #404040",
"x 	c #343434",
"y 	c #2E2E2E",
"z 	c #2A2A2A",
"A 	c #ACACB0",
"B 	c #767676",
"C 	c #999999",
"D 	c #898989",
"E 	c #777777",
"F 	c #808080",
"G 	c #373737",
"H 	c #323232",
"I 	c #2D2D2D",
"J 	c #151515",
"K 	c #AAAAAE",
"L 	c #474747",
"M 	c #6B6B6B",
"N 	c #636363",
"O 	c #838383",
"P 	c #949494",
"Q 	c #929292",
"R 	c #8B8B8B",
"S 	c #7E7E7E",
"T 	c #353535",
"U 	c #383838",
"V 	c #4E4E4E",
"W 	c #515151",
"X 	c #1B1B1B",
"Y 	c #6D6D6D",
"Z 	c #919191",
"` 	c #AEAEAE",
" .	c #AFAFAF",
"..	c #9E9E9E",
"+.	c #787878",
"@.	c #5D5D5D",
"#.	c #3F3F3F",
"$.	c #6C6C6C",
"%.	c #757575",
"&.	c #797979",
"*.	c #606060",
"=.	c #444444",
"-.	c #8F8F8F",
";.	c #939393",
">.	c #8D8D8D",
",.	c #5B5B5B",
"'.	c #494949",
").	c #434343",
"!.	c #707070",
"~.	c #8A8A8A",
"{.	c #282828",
"].	c #656565",
"^.	c #414141",
"/.	c #5E5E5E",
"(.	c #7D7D7D",
"_.	c #7B7B7B",
":.	c #3A3A3A",
"<.	c #3E3E3E",
"[.	c #5A5A5A",
"}.	c #646464",
"|.	c #666666",
"1.	c #575757",
"2.	c #535353",
"3.	c #696969",
"4.	c #6E6D69",
"5.	c #776C45",
"6.	c #726947",
"7.	c #6C6342",
"8.	c #736A47",
"9.	c #6B603A",
"0.	c #51514F",
"a.	c #505050",
"b.	c #544E3D",
"c.	c #7A641C",
"d.	c #7E6A19",
"e.	c #76601A",
"f.	c #4F4A3D",
"g.	c #212121",
"h.	c #4D4D4D",
"i.	c #454545",
"j.	c #585858",
"k.	c #645A42",
"l.	c #615946",
"m.	c #616161",
"n.	c #1E1E1E",
"o.	c #6F6F6F",
"p.	c #737373",
"q.	c #6E6E6E",
"r.	c #686356",
"s.	c #717171",
"t.	c #7C7C7C",
"u.	c #B6B6BA",
"v.	c #3C3C3D",
"w.	c #404041",
"x.	c #4D4D4E",
"y.	c #575758",
"z.	c #5B5B5C",
"A.	c #5C5C5D",
"B.	c #5A5A5B",
"C.	c #565657",
"D.	c #525253",
"E.	c #343435",
"F.	c #B3B3B7",
"G.	c #E3E3E9",
"H.	c #E0E0E6",
"I.	c #E1E1E8",
"J.	c #DBDBE0",
"K.	c #D2D2D6",
"L.	c #D5D5DA",
"M.	c #C0C0C4",
"                                                ",
"                                                ",
"  . + @ # $ @ # $ @ # $ @ # $ @ # $ @ # $ % &   ",
"  * = - - ; > - ; > - ; > - ; > - ; > - , ' )   ",
"  ! ~ { ] ^ / ( _ : < [ } | 1 2 3 4 5 6 7 8 9   ",
"  ! 0 a b c d e f g h i ^ ( { j } k l m 5 n 9   ",
"  ! 0 o p q r s t u v w / x y z } k l m 5 A 9   ",
"  ! 0 h B C D E F B t ] G H I z k m 4 6 J K 9   ",
"  ! 0 L M N O P Q R S h T U V W i m 5 X J K 9   ",
"  ! 0 v N Y Z `  ...+.@.#.$.%.&.%.*.m X J K 9   ",
"  ! 0 =.*.%.-.;.>.F ,.'.o e B p E Y w X J K 9   ",
"  ! 0 ).@.!.D >.~.p T {.j ^ b %.!.].^.X J K 9   ",
"  ! 0 i s /.(.r r _.o :.<.[.}.|.d 1.{.X J K 9   ",
"  ! 0 ] 2.u 3.%.%.4.5.6.7.8.9.0.L z 6 X J K 9   ",
"  ! n U a.o v [.d [.b.c.d.e.f.h <.g.5 X J K 9   ",
"  ! n G h.h i.j.s @.d k.e.l.}.m.j.i n.X J K 9   ",
"  ! n ( a i.e M o.p.%.q.r.q.s.M d 1.T X J K 9   ",
"  ! n T h W $.b E p t.t.p p +.p.c *.t 1 J K 9   ",
"  ! u.v.w.x.f y.[.z.A.A.z.z.B.s C.D.x.i E.F.9   ",
"  ! G.H.I.G.H.I.G.H.I.J.K.I.G.H.I.G.H.I.G.H.9   ",
"  ! G.H.I.G.H.I.G.H.I.L.M.I.G.H.I.G.H.I.G.H.9   ",
"                                                ",
"                                                ",
"                                                "};
