/* XPM */
static char *ticker_tape_binary[] = {
/* columns rows colors chars-per-pixel */
"24 18 45 1 ",
"  c black",
". c gray11",
"X c #272929",
"o c gray18",
"O c #2E3232",
"+ c #303232",
"@ c #323535",
"# c #353939",
"$ c #393939",
"% c #393F3E",
"& c #404242",
"* c #454A49",
"= c #494C4C",
"- c #4C5151",
"; c #505454",
": c #585858",
"> c #585E5E",
", c #5E6666",
"< c #636A69",
"1 c #747D7C",
"2 c #7E8786",
"3 c gray53",
"4 c #818C8C",
"5 c #8A9393",
"6 c #8D9493",
"7 c #8C9796",
"8 c #929C9B",
"9 c #96A09F",
"0 c #97A2A1",
"q c #98A2A2",
"w c #9EA9A8",
"e c #9FABAA",
"r c #A5ABAA",
"t c #A9A9A9",
"y c #A8B4B3",
"u c #ADB4B3",
"i c #AFBBBA",
"p c #B1BEBD",
"a c #B7C3C2",
"s c #BBC7C6",
"d c #BBC8C7",
"f c #C6D3D2",
"g c #CED6D5",
"h c #D8E1E0",
"j c None",
/* pixels */
"jjjjjjjjjjjjjjjjjjjjjjjj",
"j                 jjjjjj",
"j.hhhhhhhhhhhhhhg7 jjjjj",
"jj;hffffffffffffay jjjjj",
"jj=hf f< <f f5 5ay jjjjj",
"j$hff f f f f f ay jjjjj",
"j hff f f f f f ay     j",
"jj+hf f< <f f5 5ay 7hu%j",
"jj&hffffffffffffay 7wOjj",
"jorssssssssssssiay 7wOjj",
"j---------------py 7f8%j",
"jjj33333333:>000w4,7f8%j",
"jjjtttttttt#21@XX,7fw%jj",
"jjjjjjjjjjj#d*77777fw%jj",
"jjjjjjjjjjj#d99999999q%j",
"jjjjjjjjjjjj           j",
"jjjjjjjjjjjjjjjjjjjjjjjj",
"jjjjjjjjjjjjjjjjjjjjjjjj"
};
