/* XPM */
static char *ticker_binary_panel[] = {
/* columns rows colors chars-per-pixel */
"24 18 119 2 ",
"   c black",
".  c #382A0D",
"X  c #3A2B0E",
"o  c gray18",
"O  c #313131",
"+  c gray24",
"@  c #3E3E3E",
"#  c #493611",
"$  c #4E3A12",
"%  c #5F4716",
"&  c #73561A",
"*  c #74561A",
"=  c gray25",
"-  c gray26",
";  c #444444",
":  c gray28",
">  c #494949",
",  c gray29",
"<  c gray30",
"1  c #4E4E4E",
"2  c gray32",
"3  c #535453",
"4  c gray33",
"5  c #565656",
"6  c gray34",
"7  c #585858",
"8  c #5D5D5D",
"9  c #606060",
"0  c #656565",
"q  c gray40",
"w  c #686868",
"e  c #696A69",
"r  c gray42",
"t  c #6B6C6B",
"y  c gray43",
"u  c gray44",
"i  c #727272",
"p  c #767676",
"a  c #797979",
"s  c #7B7B7B",
"d  c gray50",
"f  c #94722D",
"g  c #94722E",
"h  c #CF9A2F",
"j  c #D09B30",
"k  c #B2965B",
"l  c #B3965E",
"z  c #B59A63",
"x  c #DDB76A",
"c  c #DEB96E",
"v  c gray51",
"b  c #858685",
"n  c #868786",
"m  c #8B8B8B",
"M  c #8D8D8D",
"N  c gray56",
"B  c #909090",
"V  c #959695",
"C  c gray59",
"Z  c #979797",
"A  c #989998",
"S  c #999A9A",
"D  c #9A9A9A",
"F  c #9A9A9B",
"G  c #9B9C9B",
"H  c #9E9E9D",
"J  c gray62",
"K  c #9FA09F",
"L  c #A0A0A0",
"P  c gray63",
"I  c #A2A2A2",
"U  c gray64",
"Y  c #A4A4A4",
"T  c #A4A5A4",
"R  c gray65",
"E  c #A7A7A7",
"W  c #A7A8A7",
"Q  c #ACACAC",
"!  c #ADADAC",
"~  c gray68",
"^  c #AEAEAE",
"/  c #AEAFAF",
"(  c gray69",
")  c #B2B2B2",
"_  c #B3B4B3",
"`  c #B6B7B6",
"'  c #B7B7B7",
"]  c #BABBBA",
"[  c #BCBCBB",
"{  c #BDBFBD",
"}  c #BEBFBD",
"|  c gray",
" . c #C0C1BF",
".. c gray76",
"X. c #C2C3C2",
"o. c gray77",
"O. c #C4C5C4",
"+. c #C7C8C7",
"@. c #C8C8C7",
"#. c #CACBCA",
"$. c #CACBCB",
"%. c gray80",
"&. c #CDCECD",
"*. c #CECECE",
"=. c #D0D1D1",
"-. c #D1D2D1",
";. c #D4D5D4",
":. c #D8D7D7",
">. c #D8D8D7",
",. c #D8D8D8",
"<. c gray86",
"1. c gray87",
"2. c #E1E2E1",
"3. c gray90",
"4. c #E9EAE9",
"5. c gray93",
"6. c gray95",
"7. c gray100",
"8. c None",
/* pixels */
"8.^ 8     8.8.8.8.8.8.8.8.8.8.8.8.8.8.8.8.8.8.8.",
"^ i 7.7.  8.8.8.8.8.8.8.8.8.8.8.8.8.8.8.8.8.8.8.",
"8 7.7.%.2                   = 9 ^ 8.8.8.8.8.8.8.",
"  7.7.%.2 U 6.6.6.6.6.6.6.6.6.U a 4 8.8.8.8.8.8.",
"  7.7.%.2 U i 6.Q i ^ 6.i 6.i 6.,.m d           ",
"  7.7.%.2 U i 6.i 3.i 6.i 6.i 6.,.Y @ 2.1.,.^   ",
"  7.%.q 2 U i 6.i 3.i 6.i 6.i 6.,.R 1 1.,.;.R   ",
"  7.1 N N o.i 6.i 3.i 6.i 6.i 6.;.` 1 ;.-.%.U   ",
"> 7.@ ` %.5.i 6.Q i Q 6.i 6.i 6.,.` 1 ;.-.%.U   ",
"U 4 7.7.7.7.7.7.7.7.7.7.7.7.7.7.,.` 1 %.#.#.J   ",
"8.U >     7 3 4 > > > > > > > m X.( 1 +.o.X.A   ",
"8.8.8.8.8.  * & . v p w q q e > a ^ 1 X. .| C   ",
"8.8.8.8.8.  g g . n i i u y e 3 = ^ o } ] ] C   ",
"8.8.8.8.8.  z z # ` R Y U m n e ; Z O } [ ] C   ",
"8.8.8.8.8.  l k $ | _ / A A C B = 3 5 ] ] ] C   ",
"8.8.8.8.8.  c x % 4.,.;.-.%.#._ > = t ] ] ] C   ",
"8.8.8.8.8.  j h # %.R R U J J G A C C C C C C   ",
"8.8.8.8.8.                                      "
};
