/* XPM */
static char *tools[] = {
/* columns rows colors chars-per-pixel */
"24 18 50 1 ",
"  c black",
". c gray20",
"X c #503B14",
"o c #635438",
"O c #2A404B",
"+ c #345463",
"@ c #484848",
"# c #434651",
"$ c gray36",
"% c #786744",
"& c #7C6946",
"* c #535765",
"= c #545865",
"- c #5E6271",
"; c gray38",
": c #686868",
"> c #666972",
", c #797979",
"< c #A47A29",
"1 c #F2B43D",
"2 c #3F738D",
"3 c #27769B",
"4 c #427B97",
"5 c #6B7082",
"6 c #757A8D",
"7 c #5C9DBD",
"8 c #3192C2",
"9 c #3193C2",
"0 c #3DB7F2",
"q c #5AA9CE",
"w c #6FAAC6",
"e c #898989",
"r c #83899E",
"t c #8D909C",
"y c #979797",
"u c #989898",
"i c #9B9B9B",
"p c #868CA2",
"a c #A9A9A9",
"s c #F7D28B",
"d c #A7AFCA",
"f c #BCC2D7",
"g c #83D1F7",
"h c #8BD4F7",
"j c #B9E4FA",
"k c #CBCBCB",
"l c #CACFDF",
"z c gray88",
"x c #F4F4F4",
"c c None",
/* pixels */
"ccc   cccccccccccccccccc",
"ccOj09Occccccccccccccccc",
"ccO472Occccccc  #ccccccc",
"ccOhgqOcccccc llt#cccccc",
"ccOh09Occcccc pdd- ccccc",
"ccOh09Occcccc 5ppdl cccc",
"ccOh09Occccccc  pddl ccc",
"ccOh09Occcccccc pddf>ucc",
"ccOw93Occccccc ld*6dl cc",
"ccu + uccccc, ld-= dl cc",
"ccc a ccccc,&%d- cc l cc",
"ccc k cccc,&s1X ccc l cc",
"ccc.z.ccc;&s1<o,ccc  ccc",
"ccc$z.cc;&s1<o,ccccccccc",
"ccc$x$cc s1<o,cccccccccc",
"ccc@z@cc 1<o;ccccccccccc",
"cccy:eccc  ;cccccccccccc",
"cccc.ccccccccccccccccccc"
};
