/* XPM */
static char *toolset_tools[] = {
/* columns rows colors chars-per-pixel */
"24 18 65 1 ",
"  c black",
". c gray10",
"X c gray13",
"o c gray14",
"O c #2A2A2A",
"+ c #3C3C3C",
"@ c #464646",
"# c gray28",
"$ c #494949",
"% c #4E4E4E",
"& c gray34",
"* c #5B5B5B",
"= c gray36",
"- c gray37",
"; c #5F5F5F",
": c gray38",
"> c #626262",
", c #656565",
"< c gray40",
"1 c DimGray",
"2 c #6A6A6A",
"3 c #767676",
"4 c gray49",
"5 c #82620E",
"6 c #8E6B0F",
"7 c #93721A",
"8 c #A37B11",
"9 c #B28712",
"0 c #A48531",
"q c #CC9A15",
"w c #D2A325",
"e c #D6A82D",
"r c #FFC11A",
"t c #A38B4B",
"y c #C6AE6B",
"u c #FFDA76",
"i c #808080",
"p c #838383",
"a c gray52",
"s c #868686",
"d c #898989",
"f c gray54",
"g c #8D8D8D",
"h c gray56",
"j c #909090",
"k c #9B9B9B",
"l c gray61",
"z c #9D9D9D",
"x c #A0A0A0",
"c c gray66",
"v c #AAAAAA",
"b c #B2B2B2",
"n c #B6B6B6",
"m c gray75",
"M c #FFE08D",
"N c #C1C1C1",
"B c #CDCDCD",
"V c #CECECE",
"C c gray82",
"Z c #DFDFDF",
"A c gray88",
"S c gray90",
"D c #E6E6E6",
"F c gray100",
"G c None",
/* pixels */
"GGGGGGGGGGG        GGGGG",
"GGGGGGGGGG FFSBmmBz GGGG",
"GGGGGGGGGG FbxhaaBz GGGG",
"GGGGGGGGGG ChooooZh GGGG",
"GGGGGGa    nd.$#$A4    a",
"GGGGGG<.2vvcccccccccccX<",
"GGGGGG .$i-wwwwww7w0$$O ",
"GGG    .$peurrrrr9MF--O ",
"GG GGG .$purrqqqq6yN#*O ",
"G GGGG .$purqr+;+-+-+*O ",
"G GGGG .$purqr+>-h-ji*O ",
"G$lGGG .$purq+%BaDiSa*O ",
"Gk>GGG .$pt85+2laBaBi*O ",
"GG GGG .$purr+3piiiaa*O ",
"GG GG cX,,,,,,<,<<<<<c& ",
"  GG c<accccccccccccc-a ",
"GGGG iaaiaiaaiaiaaiaai G",
"GGGG                  GG"
};
