/* XPM */
static char *tool_screwdriver[] = {
/* columns rows colors chars-per-pixel */
"24 18 140 2 ",
"   c black",
".  c #241B04",
"X  c #342706",
"o  c #3E2F06",
"O  c #473B1A",
"+  c #694F0B",
"@  c #6A4F0B",
"#  c #7D5E0D",
"$  c #665526",
"%  c gray29",
"&  c #505050",
"*  c #5D5D5C",
"=  c gray37",
"-  c #656665",
";  c gray40",
":  c gray42",
">  c #707170",
",  c gray45",
"<  c #777877",
"1  c #7C7C7C",
"2  c #987310",
"3  c #836E38",
"4  c #AD8312",
"5  c #B28713",
"6  c #9B813A",
"7  c #CC9A15",
"8  c #D4A116",
"9  c #D5A116",
"0  c #D7A316",
"q  c #ECB319",
"w  c #F1B719",
"e  c #FFC11A",
"r  c #E5B944",
"t  c #E2BD5C",
"y  c #FAD05D",
"u  c #FCD15E",
"i  c #FFD45F",
"p  c #FFDA76",
"a  c gray51",
"s  c #828382",
"d  c #838382",
"f  c gray53",
"g  c #888888",
"h  c #888988",
"j  c #8E908F",
"k  c #8F908F",
"l  c gray57",
"z  c #929392",
"x  c #949594",
"c  c #959695",
"v  c gray59",
"b  c #969796",
"n  c #989998",
"m  c #999A9A",
"M  c #9D9D9D",
"N  c #9E9E9D",
"B  c #9D9E9E",
"V  c #9E9F9F",
"C  c #A1A2A1",
"Z  c #A2A2A2",
"A  c gray64",
"S  c #A3A4A4",
"D  c gray65",
"F  c #A7A8A7",
"G  c gray66",
"H  c #A8A9A9",
"J  c #A9AAA9",
"K  c #AAABAA",
"L  c #ACACAC",
"P  c #ACADAC",
"I  c #ADADAC",
"U  c #AEAFAE",
"Y  c #AEAFAF",
"T  c #B0B1B0",
"R  c #B2B1B2",
"E  c #B2B2B2",
"W  c #B3B4B3",
"Q  c #B4B5B5",
"!  c #B9B9B9",
"~  c #BABBBA",
"^  c #BCBCBB",
"/  c #BCBDBB",
"(  c #BCBCBC",
")  c #BCBDBC",
"_  c #BDBFBD",
"`  c #BEBFBD",
"'  c #BEBFBE",
"]  c #BFC1BF",
"[  c #C0C1BF",
"{  c gray76",
"}  c #C2C3C2",
"|  c #C3C4C3",
" . c gray77",
".. c #C4C5C4",
"X. c #C5C5C5",
"o. c gray78",
"O. c #C7C8C7",
"+. c #C8C8C7",
"@. c gray79",
"#. c #CACBCB",
"$. c gray80",
"%. c #CDCECD",
"&. c #CFD0CF",
"*. c gray85",
"=. c gray86",
"-. c #DFDFDE",
";. c #FFF2CE",
":. c #E2E2E1",
">. c gray90",
",. c #E8E9E8",
"<. c #ECEBEB",
"1. c #ECEBEC",
"2. c #ECECEC",
"3. c #EEEFEE",
"4. c #EFEFEE",
"5. c #EFEFEF",
"6. c gray94",
"7. c #F1F2F1",
"8. c #F2F1F2",
"9. c #F1F2F2",
"0. c gray95",
"q. c #F4F4F4",
"w. c #F5F4F4",
"e. c #F4F5F4",
"r. c gray96",
"t. c gray97",
"y. c #F7F8F7",
"u. c #F9F9F9",
"i. c #F9FAF9",
"p. c #F9F9FA",
"a. c #F9FAFA",
"s. c #FBFCFB",
"d. c #FBFCFC",
"f. c gray99",
"g. c #FDFDFD",
"h. c #FEFDFD",
"j. c #FEFEFD",
"k. c #FEFDFE",
"l. c gray100",
"z. c None",
/* pixels */
"z.z.z.z.z.z.z.z.z.z.z.z.z.z.l + o o z.z.z.z.z.z.",
"z.z.z.z.z.z.z.z.z.z.z.z.z.l O i i t o z.z.z.z.z.",
"z.z.z.z.z.z.z.z.z.z.z.z.l $ y ;.w w t o z.z.z.z.",
"                      % $ u ;.e 8 8 7 o         ",
"  l.l.l.l.l.l.l.l.l.T $ u ;.e 8 7 7 2 + X.=.I   ",
"  l.l.l.A l.l.l.s.T $ u p e 8 7 7 + . l =.h F   ",
"  l.@.T l.l.u.u.t.6 r p e 0 7 7 # X l m K ! A   ",
"  l.l.l.d.u.u.q.9.3 p e 0 7 7 # X a K %.@.X.V   ",
"  l.f.u.t.t.9.5.1.3 q 8 7 7 # X a D @.O.X.| M   ",
"  u.y.e.9.4.2.,.= l.  5 4 # X a S Q X.| ] ) x   ",
"  t.9.4.<.,.>.= l.X.n o o + a A T | ] ) / ~ x   ",
"  2.l.6.l :.= l.X.x   = a k V I I ) ) l.&.< x   ",
"  ,.) V -.= l.| x   ; > k V K K / ~ ~ K a K x   ",
"  Q T I : l. .l   & ; > 1 h g x n x x x x x b   ",
"        l. .l                                   ",
"z.z.z.  $.x   z.z.z.z.z.z.z.z.z.z.z.z.z.z.z.z.z.",
"z.z.z.z.    z.z.z.z.z.z.z.z.z.z.z.z.z.z.z.z.z.z.",
"z.z.z.z.z.z.z.z.z.z.z.z.z.z.z.z.z.z.z.z.z.z.z.z."
};
