/* XPM */
static char * vlc_xpm[] = {
"16 16 119 2",
"  	c None",
". 	c #E19956",
"+ 	c #DE9347",
"@ 	c #E37403",
"# 	c #E37806",
"$ 	c #CD9B6A",
"% 	c #E2964A",
"& 	c #E2994C",
"* 	c #C89D78",
"= 	c #CBCED0",
"- 	c #DCDBD8",
"; 	c #D8D9D7",
"> 	c #C2C5C8",
", 	c #CDD1D4",
"' 	c #DCDFE2",
") 	c #D8DCDF",
"! 	c #C5C9CB",
"~ 	c #C28F66",
"{ 	c #D4A271",
"] 	c #E0B385",
"^ 	c #E0B683",
"/ 	c #CE9B6C",
"( 	c #C08E6B",
"_ 	c #C06315",
": 	c #D87410",
"< 	c #E67913",
"[ 	c #E98513",
"} 	c #D77210",
"| 	c #B95D1C",
"1 	c #C46C21",
"2 	c #DA6C00",
"3 	c #E76E00",
"4 	c #EB7B00",
"5 	c #DD6E00",
"6 	c #BD5002",
"7 	c #B8AEA5",
"8 	c #C5966E",
"9 	c #DB8537",
"0 	c #E37D20",
"a 	c #E68821",
"b 	c #DA8936",
"c 	c #BD916E",
"d 	c #B3ADA9",
"e 	c #B9B2AB",
"f 	c #C3C8CA",
"g 	c #D2D3D1",
"h 	c #D8D4CD",
"i 	c #D6D3CC",
"j 	c #CCCDCD",
"k 	c #BDC0C2",
"l 	c #B3AAA5",
"m 	c #D67B2C",
"n 	c #BC8F6D",
"o 	c #C5C0BB",
"p 	c #D2D4D4",
"q 	c #D5DADC",
"r 	c #D4D8DB",
"s 	c #CDCFD0",
"t 	c #BCB7B2",
"u 	c #AD7E62",
"v 	c #C1662B",
"w 	c #E78B29",
"x 	c #CB5C01",
"y 	c #B95E1F",
"z 	c #CB8F5E",
"A 	c #D4A882",
"B 	c #D7B395",
"C 	c #D9B694",
"D 	c #D5AA7F",
"E 	c #C68856",
"F 	c #AC521A",
"G 	c #BA4B01",
"H 	c #DA7821",
"I 	c #EC972D",
"J 	c #D86A00",
"K 	c #C75600",
"L 	c #D05F05",
"M 	c #D8680E",
"N 	c #DE721B",
"O 	c #E1781A",
"P 	c #E2750E",
"Q 	c #D56104",
"R 	c #C55400",
"S 	c #D46700",
"T 	c #EA9325",
"U 	c #F19910",
"V 	c #ED8900",
"W 	c #E67A00",
"X 	c #E37000",
"Y 	c #E46D00",
"Z 	c #E56C00",
"` 	c #E87100",
" .	c #EA7800",
"..	c #E97900",
"+.	c #E87E00",
"@.	c #EE8D00",
"#.	c #F4A212",
"$.	c #F0B437",
"%.	c #F1A50C",
"&.	c #F1A20B",
"*.	c #F09A0B",
"=.	c #EE900B",
"-.	c #EE8E0B",
";.	c #ED8D0B",
">.	c #EF910B",
",.	c #EF940B",
"'.	c #F09E0B",
").	c #F1A70A",
"!.	c #F2AD0D",
"~.	c #F2BF4C",
"{.	c #C67C3B",
"].	c #C87D3B",
"^.	c #CB803E",
"/.	c #CA7F3E",
"(.	c #CB7F3D",
"_.	c #CC7F3D",
":.	c #CC803D",
"<.	c #CC813D",
"[.	c #C9803C",
"              . +               ",
"              @ #               ",
"            $ % & *             ",
"            = - ; >             ",
"            , ' ) !             ",
"          ~ { ] ^ / (           ",
"          _ : < [ } |           ",
"          1 2 3 4 5 6           ",
"        7 8 9 0 a b c d         ",
"        e f g h i j k l         ",
"      m n o p q r s t u v       ",
"    w x y z A B C D E F G H     ",
"    I J K L M N O P Q R S T     ",
"    U V W X Y Z `  ...+.@.#.    ",
"  $.%.&.*.=.-.;.-.>.,.'.).!.~.  ",
"    {.].^./.(.(.(.(._.:.<.[.    "};
