/* XPM */
static char *widget_buttons[] = {
/* columns rows colors chars-per-pixel */
"24 18 65 1 ",
"  c black",
". c #353535",
"X c #505050",
"o c #5A5A5A",
"O c #5E5E5D",
"+ c gray37",
"@ c gray40",
"# c #6D6D6D",
"$ c #6E6D6E",
"% c gray43",
"& c #737273",
"* c #797979",
"= c #78797A",
"- c #7E7E7F",
"; c gray50",
": c #858586",
"> c #898989",
", c #8D8D8D",
"< c #8E8E8E",
"1 c #939293",
"2 c #989898",
"3 c gray60",
"4 c gray61",
"5 c #9E9E9F",
"6 c #ABAAAA",
"7 c #ABABAC",
"8 c #AEAEAE",
"9 c #B1B1B1",
"0 c #B2B1B1",
"q c #B2B2B1",
"w c #B2B1B2",
"e c #B3B3B4",
"r c #B4B3B4",
"t c #B5B5B6",
"y c #B6B5B6",
"u c #BDBDBC",
"i c #C1C0C1",
"p c #C1C1C1",
"a c gray76",
"s c #C6C5C6",
"d c #C9C8C8",
"f c #CECECE",
"g c #CECECF",
"h c #D0D0D0",
"j c #D2D1D2",
"k c #D2D2D2",
"l c #D2D2D3",
"z c #D4D3D4",
"x c gray83",
"c c #D4D4D5",
"v c #D8D8D8",
"b c gray85",
"n c #DDDDDD",
"m c gray87",
"M c #E1E0E1",
"N c #E1E1E1",
"B c #E2E1E1",
"V c #E1E1E2",
"C c #E2E1E2",
"Z c gray90",
"A c #ECEBEC",
"S c #ECECEC",
"D c #F3F3F3",
"F c gray100",
"G c None",
/* pixels */
"G*        *GGGGGGGGGGGGG",
"* FFFFFFFF *GGGGGGGGGGGG",
" Faaaaaaaxa GGGGGGGGGGGG",
" FSSS  SS;o.          *G",
" Fzzzzzz,.FFFFFFFFFFFF *",
" F111111oF48aaaaaaaaaba ",
" FrsssssoF6AA&&AA&AXADu ",
" F111111oFtB#BB#B##BMZt ",
" FrsssssoF8j@jj@j@@zjn3 ",
" F111111oF4aaOOia+iOan< ",
" FrsssssoF3e99999999wv: ",
" F111111oF8fgggfgggbvB- ",
" Frsssss:.===*======== *",
" FjSSSSSA:o.          *G",
" FfSS  SSx, GGGGGGGGGGGG",
" FdxzzzzzB- GGGGGGGGGGGG",
"* *==*==*= *GGGGGGGGGGGG",
"G*        *GGGGGGGGGGGGG"
};
