/* XPM */
static char *window[] = {
/* columns rows colors chars-per-pixel */
"24 18 170 2 ",
"   c black",
".  c gray24",
"X  c #3F3F3F",
"o  c #3B607C",
"O  c #3B607D",
"+  c gray30",
"@  c #495578",
"#  c gray38",
"$  c #646464",
"%  c #676767",
"&  c #777777",
"*  c #797979",
"=  c gray50",
"-  c #A88966",
";  c #AC8F6D",
":  c #B19575",
">  c #B59B7D",
",  c #4F7EA2",
"<  c #507FA3",
"1  c #6271A0",
"2  c #727FA8",
"3  c #5380A3",
"4  c #5682A4",
"5  c #5984A4",
"6  c #5C86A4",
"7  c #6089A4",
"8  c #638AA4",
"9  c #658CA4",
"0  c #678EA4",
"q  c #678FA4",
"w  c #688FA4",
"e  c #698FA4",
"r  c #7683AC",
"t  c #76C0F9",
"y  c #77C0F9",
"u  c #78C1F9",
"i  c #79C1F9",
"p  c #7AC1F9",
"a  c #7BC2F9",
"s  c #7CC3F9",
"d  c #7DC3F9",
"f  c #7EC3F9",
"g  c #7FC4F9",
"h  c gray51",
"j  c gray56",
"k  c gray58",
"l  c #9E9C93",
"z  c gray62",
"x  c #9F9F9F",
"c  c #A19E94",
"v  c #B9A185",
"b  c #BEA78C",
"n  c #A4A094",
"m  c #A7A294",
"M  c #ABA494",
"N  c #B1AB99",
"B  c #B8B29E",
"V  c gray65",
"C  c #AFAFAF",
"Z  c #BDB8A4",
"A  c gray75",
"S  c #C2AC94",
"D  c #C6B29B",
"F  c #CBB8A3",
"G  c #C2BDA9",
"H  c #C7C1AE",
"J  c #C9C5B4",
"K  c #CBC9B9",
"L  c #B0B8CF",
"P  c #80C4F9",
"I  c #82C6F9",
"U  c #83C6F9",
"Y  c #84C7F9",
"T  c #85C8FA",
"R  c #86C8FA",
"E  c #88CAFA",
"W  c #8ACAFA",
"Q  c #8CCBFB",
"!  c #8BCCFB",
"~  c #8BCDFF",
"^  c #8FCDFC",
"/  c #91CEFC",
"(  c #92CFFC",
")  c #94CFFC",
"_  c #94D0FE",
"`  c #97D3FF",
"'  c #95D4FF",
"]  c #9AD3FF",
"[  c #9BD5FF",
"{  c #9CD4FF",
"}  c #99D9FF",
"|  c #9BDCFF",
" . c #A1D9FF",
".. c #A0DBFF",
"X. c #A2DAFF",
"o. c #A4DAFF",
"O. c #A5DBFF",
"+. c #A4DCFF",
"@. c #AADFFF",
"#. c #AEDFFF",
"$. c #A4E1FF",
"%. c #A6E1FF",
"&. c #A5E3FF",
"*. c #A3E7FF",
"=. c #A8E3FF",
"-. c #ACE1FF",
";. c #AFE1FF",
":. c #A8E5FF",
">. c #A8E7FF",
",. c #ACE4FF",
"<. c #B0E5FF",
"1. c #B7E6FF",
"2. c #B6E7FF",
"3. c #B8E6FF",
"4. c #B1E9FF",
"5. c #B2E8FF",
"6. c #B2EAFF",
"7. c #B0ECFF",
"8. c #B5EFFF",
"9. c #B9EBFF",
"0. c #BBEDFF",
"q. c #BEEEFF",
"w. c #B0F1FF",
"e. c #B4F2FF",
"r. c #BDF0FF",
"t. c #BDF3FF",
"y. c #BEF3FF",
"u. c #B9F5FF",
"i. c #BEFEFF",
"p. c gray81",
"a. c #DFDFDF",
"s. c #C0EEFF",
"d. c #C4F2FF",
"f. c #C6F4FF",
"g. c #C4F6FF",
"h. c #C6F7FF",
"j. c #C1F9FF",
"k. c #C2F9FF",
"l. c #C6FAFF",
"z. c #C2FDFF",
"x. c #CCFAFF",
"c. c #C8FCFF",
"v. c #CBFDFF",
"b. c #C9FFFF",
"n. c #CBFEFF",
"m. c #CEFDFF",
"M. c #CFFEFF",
"N. c #CEFFFF",
"B. c #CFFFFF",
"V. c #D4FFFF",
"C. c #D6FFFF",
"Z. c #D7FFFF",
"A. c #DAFFFF",
"S. c #DBFFFF",
"D. c #DEFFFF",
"F. c #DFFFFF",
"G. c #EFEFEF",
"H. c LightCyan",
"J. c #E1FFFF",
"K. c #E2FFFF",
"L. c #E3FFFF",
"P. c #E5FFFF",
"I. c #E6FFFF",
"U. c #E7FFFF",
"Y. c #E9FFFF",
"T. c #EAFFFF",
"R. c #ECFFFF",
"E. c #EDFFFF",
"W. c gray100",
"Q. c None",
/* pixels */
"Q.                                            Q.",
"Q.  W.= W.= W.  F D S b v > : ;   W.= W.= W.  Q.",
"Q.  W.j W.j W.  O o o o o o O o   W.j W.j W.  Q.",
"Q.  W.x W.x W.  I.I.J.V.b.i.w.*.  W.x W.x W.  Q.",
"Q.  W.C W.C V O R.I.J.A.B.z.w.>.O W.C W.C W.  Q.",
"Q.  W.A W.A + T.R.T.I.A.B.j.e.:.| + A W.A W.  Q.",
"Q.  W.p.W.p.O I.T.I.D.C.B.y.5.%.} O p.W.p.W.  Q.",
"Q.  W.a.W.+ D.J.J.D.C.B.g.0.,...' ~ + W.a.W.  Q.",
"Q.  W.G.V O K J G G Z B N M m n c l O W.G.W.  Q.",
"Q.  W.L + e 9 e e e 9 8 7 6 5 4 3 , , + L G.  Q.",
"Q.  r 1   b.b.B.x.f.s.3.#...` / T I p   1 2 @ Q.",
"Q.. & A   j.l.h.d.0.3.;.o.[ / E I d p   A %   Q.",
"x * a.W.  u.y.y.9.1.,.o.{ / Q U d p p   W.A h k ",
"$ W.p.W.  7.5.5.<.@.o.{ ) Q U P d p t   W.C W.$ ",
". W.A W.  %.=.%.o...[ _ Q U P d p t t   W.x W.. ",
"  W.j W.  O O O O O O O O o o o O O O   W.j W.  ",
"  W.= W.  F D S b v > : ; - - - - - -   W.= W.  ",
"                                                "
};
