/* XPM */
static char *wm[] = {
/* columns rows colors chars-per-pixel */
"10 8 80 1 ",
"  c None",
". c red",
"X c red",
"o c red",
"O c red",
"+ c red",
"@ c red",
"# c red",
"$ c red",
"% c red",
"& c red",
"* c red",
"= c red",
"- c red",
"; c red",
": c red",
"> c red",
", c red",
"< c red",
"1 c red",
"2 c red",
"3 c #FF0101",
"4 c #FF3535",
"5 c #FF4646",
"6 c #FF2A2A",
"7 c #FF4949",
"8 c #FF6262",
"9 c #FF4343",
"0 c red",
"q c red",
"w c red",
"e c #FF0303",
"r c #FF8080",
"t c #FFAAAA",
"y c #FF7B7B",
"u c #FFC6C6",
"i c #FFC5C5",
"p c #FFACAC",
"a c #FF0707",
"s c red",
"d c red",
"f c #FF0202",
"g c #FF8383",
"h c #FFAEAE",
"j c #FF7979",
"k c #FFBDBD",
"l c #FFAFAF",
"z c #FFA1A1",
"x c #FF0909",
"c c red",
"v c red",
"b c #FF0101",
"n c #FF7A7A",
"m c #FFB4B4",
"M c #FF9090",
"N c #FF9F9F",
"B c #FF9E9E",
"V c #FF8B8B",
"C c #FF0707",
"Z c red",
"A c red",
"S c red",
"D c #FF0707",
"F c #FF0E0E",
"G c #FF0E0E",
"H c #FF0707",
"J c #FF0808",
"K c #FF0606",
"L c red",
"P c red",
"I c red",
"U c red",
"Y c red",
"T c red",
"R c red",
"E c red",
"W c red",
"Q c red",
"! c red",
"~ c red",
/* pixels */
" .XoO+@#$%",
"&*=-;:>,<1",
"234567890q",
"wertyuipas",
"dfghjklzxc",
"vbnmMNBVCZ",
"ASDFGHJKLP",
"IUYTREWQ!~"
};
