/* XPM */
static char *world_wide_web[] = {
/* columns rows colors chars-per-pixel */
"24 18 52 1 ",
"  c black",
". c #2C2C2C",
"X c gray19",
"o c #353435",
"O c #303930",
"+ c gray22",
"@ c #383C38",
"# c #3C3C3C",
"$ c gray24",
"% c #3C463C",
"& c #026F2D",
"* c #027C32",
"= c #037D33",
"- c gray38",
"; c #767676",
": c #7C7C7C",
"> c #028A38",
", c #038B39",
"< c #039B3F",
"1 c #6CA325",
"2 c #05987C",
"3 c #10A373",
"4 c #4DA646",
"5 c #6DB666",
"6 c #066F91",
"7 c #077DA3",
"8 c #088AB4",
"9 c #088BB5",
"0 c #7AB190",
"q c #7BBF96",
"w c #608CA8",
"e c #099BCA",
"r c #0AADE1",
"t c #7DB7CA",
"y c #7EC7DE",
"u c #7ED0EA",
"i c gray57",
"p c #949394",
"a c #989898",
"s c #A9A9A9",
"d c #B2B2B2",
"f c #B6B8B7",
"g c #82B1DE",
"h c #A2BFD4",
"j c #C3C3C3",
"k c #CFD5D9",
"l c #E6EDF2",
"z c gray95",
"x c #F4F6F8",
"c c #F8FCF8",
"v c #FBFEFF",
"b c None",
/* pixels */
"bbbbbbbbbbbbbbbbbbbbbbbb",
"bbbbbbbbbbbbbbbbbbbbbbbb",
"bbbbbbXXXXbbbbbbbbbbbbbb",
"bbbbXXlllkXXbbbbbbbbbbbb",
"bbbXrrrlvr99Xbbbbbbbbbbb",
"bb+>g>rrrre=*ib-bbbbb bb",
"bb#>>>>>><>,0z- bbbb ;bb",
"bXg>>>>eerrqz-  aa# sbbb",
"b@r>>8>rrruz      jbbbbb",
"bO38er2>rrryz-  aa# dbbb",
"bX14rrrrrr<,tz- bbbb :bb",
"bbo54rrrrre,&pb-bbbbb bb",
"bbO5wrrrrre=&Obbbbbbbbbb",
"bbb%rrrghe76%bbbbbbbbbbb",
"bbbb@%vxcf.%bbbbbbbbbbbb",
"bbbbbbXXXXbbbbbbbbbbbbbb",
"bbbbbbbbbbbbbbbbbbbbbbbb",
"bbbbbbbbbbbbbbbbbbbbbbbb"
};
