/* XPM */
static char *xcdricon[] = {
/* columns rows colors chars-per-pixel */
"48 48 130 2 ",
"   c black",
".  c #161816",
"X  c #252725",
"o  c #283028",
"O  c #343634",
"+  c #696510",
"@  c #716D10",
"#  c #504C38",
"$  c #595734",
"%  c #696528",
"&  c #716D28",
"*  c #757928",
"=  c #797538",
"-  c #434543",
";  c #504C48",
":  c #575946",
">  c #545654",
",  c #696950",
"<  c #717550",
"1  c #666865",
"2  c #717169",
"3  c #767876",
"4  c #897504",
"5  c #857A35",
"6  c #958700",
"7  c #9D9100",
"8  c #A59D18",
"9  c #B6AE14",
"0  c #BEBA18",
"q  c #9D9528",
"w  c #958D30",
"e  c #9D9930",
"r  c #A59D28",
"t  c #AEA128",
"y  c #B6AA20",
"u  c #BEB220",
"i  c #B6AA30",
"p  c #CEBC04",
"a  c #DAB600",
"s  c #C6BA18",
"d  c #F6AA07",
"f  c #F6B508",
"g  c #F6B815",
"h  c #E6BE28",
"j  c #F6BE20",
"k  c #BEF200",
"l  c #CEC608",
"z  c #D6C600",
"x  c #D6CC16",
"c  c #DED218",
"v  c #F6CA08",
"b  c #E9D903",
"n  c #F6D906",
"m  c #F6CA17",
"M  c #E6DA18",
"N  c #F6D714",
"B  c #C8F202",
"V  c #D9F202",
"C  c #CEF210",
"Z  c #D9F214",
"A  c #EAE200",
"S  c #F6E307",
"D  c #E9F203",
"F  c #F6F201",
"G  c #EEE818",
"H  c #F6ED14",
"J  c #EDF210",
"K  c #F6F212",
"L  c #CEC620",
"P  c #CEC230",
"I  c #F6CA22",
"U  c #E9DD22",
"Y  c #F6D726",
"T  c #F6CE30",
"R  c #F6D932",
"E  c #EEE823",
"W  c #F6E426",
"Q  c #ECF226",
"!  c #EEE734",
"~  c #F6E635",
"^  c #EEF230",
"/  c #F6F235",
"(  c #BEB875",
")  c #C6BE71",
"_  c #BEC671",
"`  c #DACC44",
"'  c #DED244",
"]  c #CCC554",
"[  c #DECE59",
"{  c #E6DE48",
"}  c #F6D745",
"|  c #D6E248",
" . c #EEE648",
".. c #F6E943",
"X. c #EEF248",
"o. c #F6F248",
"O. c #EEE659",
"+. c #F6EC50",
"@. c #EEF253",
"#. c #F6F252",
"$. c #CEC561",
"%. c #DBD666",
"&. c #CCC775",
"*. c #DEC671",
"=. c #D6DA71",
"-. c #E6D269",
";. c #F6EA62",
":. c #EEF261",
">. c #F6F261",
",. c #868586",
"<. c #999899",
"1. c #BE8385",
"2. c #9DA19D",
"3. c #A8A7A8",
"4. c #AEB2AE",
"5. c #B6B4B6",
"6. c #C6898D",
"7. c #CE9195",
"8. c #C6BE85",
"9. c #CAC889",
"0. c #D6CE8D",
"q. c #D6D285",
"w. c #D6D295",
"e. c #CAC7CA",
"r. c #CED2CE",
"t. c #D9D8D9",
"y. c #E9E8E9",
"u. c #EEF2EE",
"i. c #FEFEFE",
"p. c None",
/* pixels */
".       2.i.i.u.u.i.u.i.i.r.. ,.p.p.p.p.p.p.p.p.p.p.p.p.p.p.p.p.p.p.p.p.p.p.p.p.p.p.p.p.p.p.p.p.",
"5.      . r.u.i.i.u.i.i.y.o > u.p.p.p.p.p.p.p.p.p.p.p.p.p.p.p.p.p.p.p.p.p.p.p.p.p.p.p.p.p.p.p.p.",
"i.3       o u.i.u.i.u.i.> o y.i.p.p.p.p.p.p.p.p.p.p.p.p.p.p.p.p.p.p.p.p.p.p.p.p.p.p.p.p.p.p.p.p.",
"i.i.-       1 u.i.u.i.,.. e.i.i.p.p.p.p.p.p.p.p.p.p.p.p.p.p.p.p.p.p.p.p.p.p.p.p.p.p.p.p.p.p.p.p.",
"i.i.t..       3.i.u.5.. 3.i.i.i.p.p.p.p.p.p.p.p.p.p.p.p.p.p.p.p.p.p.p.p.p.p.p.p.p.p.p.p.p.p.p.p.",
"i.i.i.5.        t.r.. 3 i.i.i.i.p.p.p.p.p.p.p.p.p.p.p.p.p.p.p.p.p.p.p.p.p.p.p.p.p.p.p.p.p.p.p.p.",
"i.i.i.u.3       1 O - u.i.i.i.i.p.p.p.p.p.p.p.p.p.p.p.p.p.p.p.p.p.p.p.p.p.p.p.p.p.p.p.p.p.p.p.p.",
"i.i.i.i.i.-   o > . y.i.i.i.i.i.p.p.p.p.p.p.p.p.p.p.p.p.p.p.p.p.p.p.p.p.p.p.p.p.p.p.p.p.p.p.p.p.",
"i.i.i.i.u.3 . 2     3.i.i.i.i.i.p.p.p.p.p.p.p.p.p.p.p.6 p S ^ ~ ~ +.Y N ~ ~ n n a p.p.p.p.p.p.p.",
"i.i.i.i.4.  2.      . r.i.i.i.i.p.p.p.p.p.p.p.4 a m g I R ..o.~ ..R m ~ W N m I Y R ~ b p.p.p.p.",
"i.i.i.r.. 3 i.3       O u.i.i.i.p.p.p.p.7 b S S S n g I R o.o...R m ~ Y N m I I R +...../ p.p.p.",
"i.i.y.o > i.u.u.-       1 i.i.i.p.p.z S F F D D F S m I ~ o...~ Y ~ W N I m R ......o.o.o.o.p.p.",
"i.i.: X y.u.u.i.t..       3.i.i.n S F D D D J D D S m I ......N ~ W N I Y R  .~ ..o.o.o.o.o.! p.",
"i.,.. e.i.u.i.u.i.4.      . t.i.S F D J H Y Y H D n m R o.~ Y ~ W m m R ......o.o.o.o.o.o.o.o.@ ",
"5.  3.i.u.i.u.i.i.u.3       O u.n F V K G Y R N D n m ....Y ~ N m Y R ....o.o.o.o.o.o.o.o.o.o.p ",
". 3 i.u.i.u.i.u.u.i.i.-       1 m S D J Y R } N D N R ..R ~ N I R ~ o.o.o.o.o.o.o.o.....~ o.o.c ",
"p.p.p.p.p.p.p.p.6 / ~ ~ R R I I m m n D K R } Y D m ..R ~ N I R o.o.o.o.o.o.o.....~ ~ ~ ~ o.o.s ",
"p.p.p.p.p.p.p.A o.o.o.~ ~ ~ R R T m m n F G } Y F G W Y N R ..+.o.#.o.....~ ~ ........o.o.o.o.* ",
"p.p.p.p.p.p.H o.o.o.o.o.o.o.~ ~ ~ R T I N K Y ' $.) ) 8.) { o.o...~ R R R ....o.o.o.o.o.o.o.#.> ",
"p.p.p.p.p.E o.o.o.o.o.o.o.o.o.o.o.o.~ ~ Y ] ) $.] ] &.) 1.&.~ ~ ~ ..+.o.o.o.o.o.o.o.o.o.o.o.s > ",
"p.p.p.p.~ o.o.o.o.o.o.o.o.o.o.o.o.o.~ ' ( $.] w , < $.&.6.=.X.X.#.o.o.o.o.o.o.o.o.o.o.o.o.! > ; ",
"p.p.p.E X.#.#.@.@.@.@.@.@.@.@.#.#.~ ` 1.&.P 1 3 1 i q.w.*.R R R R ~ ~ ~ ~ ~ ..o.o.o.o.o...= 2 p.",
"p.p.A #.;.;.;.;.;.;.;.:.>.#.#.#.@. .8.9.&.] e y ` &.q.| S v g f g g j I T T R ~ ~ o.o.#.w 1 > p.",
"p.4 o.o.#.@.@.X.@.X.o.o...+.+. ...O.6.7.0.&.&.&._ %. .Z B B Z H N v d d f m I T R ~ #.r 1 > p.p.",
"p.^ o.o.o.o.o.o.o.o. .+.....+.@.@.:.O.-.-.%.[ h V B ^ +.Q C B B V K N v f d g I R o.q 2 > p.p.p.",
"+ o.o.o.o.o.o.o... ...o.X.+.@.>.#.o.R R R ..I f D B Z /  .^ C B k V D H v d g R ..= 1 1 p.p.p.p.",
"l o.o.o.o.o.o.o.o.o.X.@.>.:.#.o...R Y Y ..~ I f K k B Z / ..^ C B k B J N f T U : 2 > p.p.p.p.p.",
"E o.o.o.o.o.o.o.o.#.#.>.#.X.....Y Y Y ..~ R I d K V k B Z / ~ Q B k V J m R 9 > 1 > p.p.p.p.p.p.",
"U o.o.o.o.o.o.#.>.>.@.X.o.~ ..Y Y I ....~ T I d N D B k B Z Q Z B B D ~ M $ > > > p.p.p.p.p.p.p.",
"0 o.o.o.o.o.>.O.@.o.o.o.....I W I ~ ~ o.~ T I d v H D V B B B B V Q E & > > > ; p.p.p.p.p.p.p.p.",
": o.o.X.X.#.#.X.X.o.o...~ I Y I R o...o.R R I g d N K K J D J Q G & ; > > > p.p.p.p.p.p.p.p.p.p.",
"> c X.X.X.X.X.o.o...~ R I Y I R ....o.o.W R I g d d f m N E b % ; > > > - p.p.p.p.p.p.p.p.p.p.p.",
"> > ! X.o.o.o.o.....R m N m Y ......o.o.~ R R T I I Y E 8 # > ; - > - p.p.p.p.p.p.p.p.p.p.p.p.p.",
"# 1 , x +.+.......I m N m Y ....~ o.o.o.o.~ ..~ E 9 $ > ; > ; > - p.p.p.p.p.p.p.p.p.p.p.p.p.p.p.",
"p.> 1 2 , L ! +.R T I m T ~ ....+.o.#...E x w > > > ; ; > - - p.p.p.p.p.p.p.p.p.p.p.p.p.p.p.p.p.",
"p.p.> 1 1 2 2 , 5 q s x M x x u t 5 , 1 2 1 1 > > > > - p.p.p.p.p.p.p.p.p.p.p.p.p.p.p.p.p.p.p.p.",
"i.i.i.i.i.i.i.i.i.i.i.i.i.i.i.i.i.u.i.i.i.i.i.i.i.i.i.i.i.i.i.i.i.i.i.i.i.i.i.i.i.i.i.i.i.i.i.i.",
"i.i.i.i.i.i.i.i.i.i.i.i.i.i.i.i.i.i.i.i.i.i.i.i.i.i.i.i.i.i.i.i.i.i.i.i.i.i.i.i.i.i.i.i.i.i.i.i.",
"i.i.2 . . . X 2.i.i.i.i.i.,.X . o 5.i.i.i.i.i.i.o O y.i.i.i.i.i.e.O . - t.i.i.i.3.. . X . . e.i.",
"i.i.> . 5.5.- . u.i.i.i.<.  > 2.O   e.i.i.i.i.5.    3.i.i.i.i.u.X 1 3.O - i.i.i.y.5.3   2.5.u.i.",
"i.i.> . i.i.2 . u.i.i.i.O O i.i.y.  3 i.i.i.i.1 X X > i.i.i.i.t.. 2.u.e.<.i.i.i.i.i.5.  y.i.i.i.",
"i.i.>   1 1   <.i.i.i.i.  <.i.i.i.- O i.i.i.i.. 1 ,.. i.i.i.i.i.>   . > e.i.i.i.i.i.5.  y.i.i.i.",
"i.i.> . 1 1   ,.i.i.i.i.  ,.i.i.i.O - i.i.i.e.  3.3.  e.i.i.i.i.u.t.<.O . t.i.i.i.i.5.  y.i.i.i.",
"i.i.> . i.i.O O i.i.i.i.> . y.i.5.  <.i.i.i.3         1 i.i.i.e.O t.i.e.  5.i.i.i.i.5.  y.i.i.i.",
"i.i.> . i.i.O O i.i.i.i.r..   O   O y.i.i.u.O > i.i.1 . u.i.i.u.- . > . O i.i.i.i.i.5.  y.i.i.i.",
"i.i.3.,.i.i.4.,.i.i.i.i.i.t.,.3 <.u.i.i.i.y.3 r.i.i.t.3 r.i.i.i.i.<.3 4.u.i.i.i.i.i.t.3 y.i.i.i.",
"i.i.i.i.i.i.i.i.i.i.i.i.i.i.i.i.i.i.i.i.i.i.i.i.i.i.i.i.i.i.i.i.i.i.i.i.i.i.i.i.i.i.i.i.i.i.i.i.",
"i.i.i.i.i.i.i.i.i.i.i.i.i.i.i.i.i.i.i.i.i.i.i.i.i.i.i.i.i.i.i.i.i.i.i.i.i.i.i.i.i.i.i.i.i.i.i.i."
};
