/* XPM */
static char * yenjie_xpm[] = {
"19 16 2 1",
" 	c None",
".	c #4E4E4E",
"                   ",
" .......   ....... ",
"  ......   ......  ",
"     .... ....     ",
"   ... ..... ...   ",
"  ...............  ",
"   .............   ",
"    .. ..... ..    ",
"    ...     ...    ",
"    ...     ...    ",
"     ...   ...     ",
"      ..   ..      ",
"       .. ..       ",
"        . .        ",
"                   ",
"                   "};
