/* XPM */
static char * close_pressed_xpm[] = {
"16 15 3 1",
" 	c None",
".	c #242526",
"+	c #6D6D6D",
"................",
"................",
"+++++++++++++++.",
"+++++++++++++++.",
"+++++++++++++++.",
"+++++++++++++++.",
"+++++++++++++++.",
"+++++++++++++++.",
"+++++++++++++++.",
"+++++++++++++++.",
"+++++++++++++++.",
"+++++++++++++++.",
"+++++++++++++++.",
"................",
"................"};
